<svg id="OBJECTS" xmlns="http://www.w3.org/2000/svg" viewBox="0 0 127.91 388.37"><defs><style>.cls-1{fill:#01142e;}.cls-1,.cls-10,.cls-11,.cls-12,.cls-13,.cls-14,.cls-15,.cls-16,.cls-2,.cls-3,.cls-4,.cls-5,.cls-6,.cls-7,.cls-8,.cls-9{fill-rule:evenodd;}.cls-2{fill:#002049;}.cls-3{fill:#d1d8e4;}.cls-4{fill:#949dae;}.cls-5{fill:#7a8296;}.cls-6{fill:#122344;}.cls-7{fill:#cc3129;}.cls-8{fill:#9d2529;}.cls-9{fill:#d77f68;}.cls-10{fill:#06152d;}.cls-11{fill:#e6ad83;}.cls-12{fill:#ebbf9e;}.cls-13{fill:#fff;}.cls-14{fill:#d26070;}.cls-15{fill:#a9b0c2;}.cls-16{fill:#d7766d;}</style></defs><title>LoaderMan3</title><path class="cls-1" d="M86.3,358.54s9.09,7.94,12.38,8.58,10.51,1.26,12,2.14,3,4.61,3.12,5.3.57,3.16-1.64,3.16H71.54c-1.7,0-2-1-2-2.34a5.55,5.55,0,0,1,1-2.78v-7.76a2.93,2.93,0,0,1,2.89-3.21c3.43-.22,7.18,1.74,9.4-1.86C83.79,358.18,84.22,356.94,86.3,358.54Z"/><path class="cls-1" d="M86.3,358.54s8.72,7.62,12.17,8.53a6.5,6.5,0,0,1-4.39,2c-1.25-.09-10.64-4.37-11.48-5.51s0-3.49,0-3.49h0l.18-.27C83.79,358.18,84.22,356.94,86.3,358.54Z"/><path class="cls-2" d="M113.09,372.6a14.36,14.36,0,0,1,.75,2c.17.7.57,3.16-1.64,3.16H71.54c-1.7,0-2-1-2-2.34a5.55,5.55,0,0,1,1-2.78Z"/><path class="cls-3" d="M110,134.29c-1.49-8.48-12.17-35.14-20.48-49.57,0,0-3,4.24-7.62,3.12l7.36,44C93.3,133.91,108.44,128.84,110,134.29Z"/><path class="cls-4" d="M86.16,113.38l3.09,18.43c2.12,1.1,7.26.24,11.91-.06L90.89,93.3l-3.24,4.16Z"/><path class="cls-4" d="M90.68,171.87l2.72,5.64.73,8.64a65.58,65.58,0,0,1,3.52,6.18c.53,1.43,2.35,13.09,2.54,15.23S90.93,304.87,89.63,322A262.23,262.23,0,0,0,90,359.35c.18,1.67-7.88,4.52-10.82,4.76a33,33,0,0,1-8.16-1h-.06c-1.13-.3-1.21-1.71-1.21-1.71L69,331.25h0c.09-4.48.08-17-.1-22.22-.19-5.47-2.78-100.64-2.78-100.64l7.56-34Z"/><path class="cls-5" d="M89.47,351.74c.21,4.18.45,7,.51,7.61.18,1.67-7.88,4.52-10.82,4.76a33,33,0,0,1-8.16-1h-.06c-1.13-.3-1.21-1.71-1.21-1.71v-.57Z"/><path class="cls-5" d="M93.43,177.78l.7,8.37a65.58,65.58,0,0,1,3.52,6.18c.46,1.25,1.92,10.36,2.4,14l-16.22-5.92s-2.36-1.42-4.24,3.68c-1.31,3.53-8.11,34.92-12.16,53.84-.68-24.93-1.35-49.58-1.35-49.58l5.52-24.85L91,177.71S91.94,177.72,93.43,177.78Z"/><path class="cls-4" d="M42.7,172.31l-1.24,4.08s-3.93,2.62-4.18,3.92-1.39,4.18-1.77,6.08,1.65,6.51,1,7.93-4,71.43-4,79.74S32.33,282,32,288.4h0l-2.59,72a2.65,2.65,0,0,0,2.29,3c2.71.63,13.14.17,15-.23a10.77,10.77,0,0,0,2.78-1.34c1.24-1.07.87-18.92,1.12-21.65s5.7-57.93,7.19-67.21,14.14-60.2,16.37-69.24,7.44-25.93,7.44-25.93Z"/><path class="cls-5" d="M29.43,358.52l-.07,1.91a2.65,2.65,0,0,0,2.29,3c2.71.63,13.14.17,15-.23a10.77,10.77,0,0,0,2.78-1.34c.76-.66.92-7.65,1-13.58Z"/><path class="cls-5" d="M35.61,186c0,.15-.07.3-.1.44-.37,1.9,1.65,6.51,1,7.93-.23.54-.86,10.82-1.54,23.87,12.37-7.93,30-19.13,32.74-20.34,4.3-1.89,4.91.47,4.91.47l1.69,4.51c1.61-6.36,4.43-15.86,6-21.13-3.38-.52-8.36-1.42-9.94-2.39S50,182.58,35.61,186Z"/><path class="cls-6" d="M95.25,184.3a103.56,103.56,0,0,1-32.59,2.39c-17.48-1.63,13-12.07,21.27-9.18S95.25,184.3,95.25,184.3Z"/><path class="cls-6" d="M53.46,79.59,33.05,86.45s5.5,8.25,2.85,31.85c0,0,5.76,27.8,5.76,31.51S38.55,169.56,38.55,172c0,2.22,25.44,17.51,50.72,8.62,7.6-2.67,5.65-6.64,5.17-8.85-3.42-16-3-35.21-3.72-39.82-.8-5,4-14,4-14l-5-32.61L75.51,79.42Z"/><polygon class="cls-7" points="70.54 92.44 78.91 152.7 74.63 165.03 64.94 151.44 66.39 92.44 68.84 91.15 70.54 92.44"/><path class="cls-8" d="M71.48,87.72l-.94,4.72H66.39l-4.15-5.91L66.51,82s3.4,1.75,3.59,2.48S71.48,87.72,71.48,87.72Z"/><polygon class="cls-9" points="55.28 64.82 73.01 64.82 73.01 84.48 65.97 84.48 55.28 80.32 55.28 64.82"/><polygon class="cls-10" points="55.28 77.63 55.28 78.51 68.09 84.48 62.42 91.98 53.46 79.59 55.28 77.63"/><polygon class="cls-10" points="68.09 84.48 73.01 78.67 73.01 77.59 75.51 79.42 73.14 91.83 68.09 84.48"/><path class="cls-9" d="M82.71,48.9l.39.07h0A5.42,5.42,0,1,1,78.57,50c-.15,1.6.09,3.58,2.14,3.79l0-3.12A1.86,1.86,0,0,1,82.71,48.9Z"/><path class="cls-9" d="M47,48.89l-.4.07h0a5.42,5.42,0,1,0,4.52,1.12c.13,1.6-.14,3.58-2.19,3.77L49,50.72A1.86,1.86,0,0,0,47,48.89Z"/><path class="cls-11" d="M64.8,76.06c-10.13,0-18.58-12.49-18.58-22.36V40.6A18.62,18.62,0,0,1,64.8,22h0A18.62,18.62,0,0,1,83.37,40.6V53.42C83.37,64.24,76,76.06,64.8,76.06Z"/><path class="cls-10" d="M58.63,43.89a.78.78,0,0,1,.39,1,.78.78,0,0,1-1,.38,5.13,5.13,0,0,0-4.6.3.78.78,0,0,1-.83-1.32A6.72,6.72,0,0,1,58.63,43.89Z"/><path class="cls-10" d="M77,44.23a.79.79,0,0,1,.31,1.06.78.78,0,0,1-1.06.3,5.1,5.1,0,0,0-4.6-.07.8.8,0,0,1-1.06-.34.77.77,0,0,1,.34-1A6.75,6.75,0,0,1,77,44.23Z"/><path class="cls-12" d="M65.3,55a15.64,15.64,0,0,1,.89,2.93c-.07.4-2.12.77-2.66.24-.36-.35.08-1.88.47-2.92C64.53,53.8,64.83,53.69,65.3,55Z"/><path class="cls-10" d="M68.7,62.37a3.91,3.91,0,1,1-7.81,0,.72.72,0,0,1,.72-.71H68A.71.71,0,0,1,68.7,62.37Z"/><path class="cls-13" d="M62,61.66h5.58v.66a.63.63,0,0,1-.63.62H62.63a.62.62,0,0,1-.62-.62Z"/><path class="cls-14" d="M67.63,65.06a3.89,3.89,0,0,1-5.66,0,3.91,3.91,0,0,1,5.66,0Z"/><path class="cls-10" d="M55.71,54.31a2.24,2.24,0,1,0-2.23-2.24A2.24,2.24,0,0,0,55.71,54.31Z"/><path class="cls-10" d="M73.88,54.31a2.24,2.24,0,1,0-2.24-2.24A2.25,2.25,0,0,0,73.88,54.31Z"/><path class="cls-3" d="M72.29,187.41c0,4.53-2.52,5.53-2.52,5.53-2.89,2.27-35.6,12.46-36.48,11.95S32,201.75,32,201.75c2.49-17.14,2.85-32.69,6.48-49.51a1.75,1.75,0,0,1,.38-2.76c0-1.14-3.21-30.21-3.21-30.21,3.46-20.15-2.57-32.82-2.57-32.82s15-6.29,15.78-6.36a2.33,2.33,0,0,1,1.47.56s10.41,36.94,10.92,39.45.44,18.29.69,21.05S72.29,187.41,72.29,187.41Z"/><path class="cls-15" d="M55.67,99.79c2.63,9.44,5.3,19.07,5.55,20.31.34,1.73.43,9.72.52,15.44h-.61L49.35,116l1.13-15.66,3.21-.48Z"/><path class="cls-4" d="M45,81.52c2-.82,3.57-1.41,3.8-1.43a2.33,2.33,0,0,1,1.47.56S55,97.25,58.21,109L44.35,96.42Z"/><polygon class="cls-4" points="38.12 118.87 40.91 102.24 51.8 135.48 39.87 138.38 38.12 118.87"/><path class="cls-4" d="M35.63,169.38c.7-5.64,1.56-11.31,2.82-17.14a1.75,1.75,0,0,1,.38-2.76c0-.33-.27-3-.65-6.63l23.7-2.12c0,.16,0,.31,0,.42.1,1,1.59,7.82,3.41,15.89Z"/><path class="cls-3" d="M76.3,79.75a3.93,3.93,0,0,1,1-.06c.38.06,11.91,4.88,12.19,5s.53.25,1,2.83,4.24,27,4.37,27.87a54.4,54.4,0,0,1,.65,6.94c.05,7.08-3.12,18.08-3.12,22.57,0,6.22,1.55,13.11,2,18.72,0,.17,0,.34,0,.51.51,6.37,8.89,22.49,8.33,33.1-.09,1.63-3.4,3.52-4.28,4.21s-1.32.69-3.21-.12-11.45-9.82-11.45-9.82A8.39,8.39,0,0,1,82.18,186c.13-3.4.38-52.71.38-55.23s1.38-10,1.57-11.51-6.89-39.12-6.89-39.12Z"/><path class="cls-15" d="M82.54,135.54c0-2.61,0-4.35,0-4.77,0-2.51,1.38-10,1.57-11.51.09-.74-1.58-10.26-3.3-19.72H82l6.89,16L83.5,135.54Z"/><path class="cls-4" d="M76.3,79.75a3.93,3.93,0,0,1,1-.06c.14,0,1.78.69,3.82,1.53l4.16,10.2-3,16.5c-2-11.57-5.09-27.78-5.09-27.78Z"/><path class="cls-4" d="M93.41,137.91a45.88,45.88,0,0,0-1,7,59.73,59.73,0,0,0,.52,7.23l-10.51-1c0-4.54,0-8.8.06-12.25Z"/><path class="cls-1" d="M45.22,362.53s-.35-4.74-3.16-4.74H36.57c-1.86,0-3.68,2.9-4.2,5a3.22,3.22,0,0,0-2.2,2.32c-.39,1.84-1.26,8.71-1.39,9.38s-.6,3.2,2.21,3.2H51.06c1.77,0,1.56-1.31,1.56-2.06a12,12,0,0,0-1.34-5C50.32,369.23,45.22,362.53,45.22,362.53Z"/><path class="cls-1" d="M45.22,362.53s-.35-4.74-3.16-4.74H36.57c-1.86,0-3.68,2.9-4.2,5l2.26,4.78a4.19,4.19,0,0,0,3,1.07H44s1.67-.33,1.59-1.87S45.22,362.53,45.22,362.53Z"/><path class="cls-2" d="M28.88,373.86c0,.33-.08.56-.1.66-.13.68-.6,3.2,2.21,3.2H51.06c1.77,0,1.56-1.31,1.56-2.06a10.64,10.64,0,0,0-.23-1.8Z"/><path class="cls-3" d="M51.4,136.83l37.19-4.93,6.8,12.26L45.14,156.47S33.26,160.15,30.05,151s-7.93-47.65-7.93-47.65a16.88,16.88,0,0,1,10.93-16.9s5.49,3.13,7,11,6.41,37.93,6.41,37.93A3.37,3.37,0,0,1,51.4,136.83Z"/><path class="cls-4" d="M51.4,136.83l11.54-1.53,28.66,2,3.79,6.82-30.86,7.56-17.78-14.3,4.09-1.37A4.89,4.89,0,0,1,51.4,136.83Z"/><path class="cls-10" d="M83.37,52.9l-1.8-7.27s-5.78-4.24-3.72-10.14,2.45-5.32,2.45-5.32S88,33.64,84.58,49.29Z"/><path class="cls-10" d="M46.22,52.9,48,45.63s5.78-4.24,3.73-10.14-2.46-5.32-2.46-5.32S41.59,33.64,45,49.29Z"/><path class="cls-10" d="M46.22,42.69S39.8,44,39.52,39.28s4.06-8.59,4.06-8.59-1.32-8.36,1-12.43,7.27-.33,7.27-.33.75-4.62,5.29-3.52c0,0,.84-8.48,10.18-5.07s8.78,8.81,8.78,8.81,5.56-1.76,5.75,5.28c0,0,4.16.88,6.14,7.15S85.5,44.23,84.43,45s-4.24-2-5.19-5.06c0,0-1.6-.39-1.32-3,0,0-7.92,4.9-10.94-.93,0,0-3.4,2.2-4.91-.89,0,0-8.3,8.92-12.93,2.65S46.22,42.69,46.22,42.69Z"/><path class="cls-12" d="M73.49,133l-13.25.18s-8.82-1.7-10.09-1.7A15.18,15.18,0,0,0,46,132.81l.72,4.61s6.94,3.39,8.54,4.19a5.87,5.87,0,0,0,5.43.24l12.64,1.75Z"/><polygon class="cls-16" points="73.49 132.99 71.82 133.02 66.7 142.68 73.36 143.6 73.49 132.99"/><path class="cls-3" d="M73.56,132.3l-1.19,12.2a1.43,1.43,0,0,0,1.1,1.45c1.19.38,29.31-.25,29.31-.25s7.42-1.63,7.42-9.31a11.74,11.74,0,0,0-.21-2.1,7.17,7.17,0,0,0-7.06-5.22l-12.8,1.61-15.41.9S73.68,131.61,73.56,132.3Z"/></svg>