<svg id="OBJECTS" xmlns="http://www.w3.org/2000/svg" viewBox="0 0 130.21 389.11"><defs><style>.cls-1{fill:#06152d;}.cls-1,.cls-10,.cls-2,.cls-3,.cls-4,.cls-5,.cls-6,.cls-7,.cls-8,.cls-9{fill-rule:evenodd;}.cls-2{fill:#e6ad83;}.cls-3{fill:#d77f68;}.cls-4{fill:#e29a30;}.cls-5{fill:#283766;}.cls-6{fill:#122344;}.cls-7{fill:#d97a2d;}.cls-8{fill:#fff;}.cls-9{fill:#d7766d;}.cls-10{fill:#ebbf9e;}</style></defs><title>LoaderMan1</title><path class="cls-1" d="M71.27,96.7A16.8,16.8,0,1,0,54.48,79.9,16.83,16.83,0,0,0,71.27,96.7Z"/><path class="cls-1" d="M54.29,104.43a16.8,16.8,0,1,0-16.8-16.79A16.82,16.82,0,0,0,54.29,104.43Z"/><path class="cls-2" d="M86.54,104.66l4.69-7.41s5.11,1.65,7.31,4.81,12.62,24.48,15.63,31.61,3.29,9.88.55,17.83-9.74,19.44-11,21.43a19,19,0,0,1-3.51,4c-.74.62-5.47-.89-5.47-.89l.68-6.41s1.14,1.13,2.3-.41,8.37-23.59,8.64-24.62-.27-2.13-1-3.5-15.84-22.42-15.84-22.42Z"/><path class="cls-3" d="M111.21,127.12l.1.2-8.62,9.84-3.61-5.11,8-6Z"/><path class="cls-4" d="M98,100.3a26.76,26.76,0,0,1,3.26,4.67c1.58,2.83,10.44,21.14,10.44,21.14a1.2,1.2,0,0,1-.28,1.07c-.44.44-9.93,8-9.93,8s-.89.72-1.55.06-5.56-9-5.56-9S91,104.19,98,100.3Z"/><path class="cls-2" d="M46.26,104.66l-4.69-7.41s-5.11,1.65-7.31,4.81-12.62,24.48-15.63,31.61-3.3,9.88-.55,17.83,9.73,19.44,11,21.43a19,19,0,0,0,3.51,4c.74.62,5.47-.89,5.47-.89l-.68-6.41s-1.14,1.13-2.3-.41-8.37-23.59-8.64-24.62.27-2.13,1-3.5,15.84-22.42,15.84-22.42Z"/><path class="cls-3" d="M29.88,137.49c1-1.47,2.29-3.26,3.63-5.14L25.42,125l-3.86,2.18Z"/><path class="cls-4" d="M35,100.3A26.46,26.46,0,0,0,31.72,105c-1.57,2.83-10.44,21.14-10.44,21.14a1.2,1.2,0,0,0,.28,1.07c.44.44,9.93,8,9.93,8s.89.72,1.55.06,5.57-9,5.57-9S42,104.19,35,100.3Z"/><path class="cls-1" d="M63,30A26.64,26.64,0,0,0,45.15,43c-4.85,8.28-2.31,18.52.3,26.56H86.06C87.47,60,91,47.12,88.94,42.26c-2.38-5.66-7.53-4.34-7.53-4.34S80,27.25,63,30Z"/><path class="cls-3" d="M92.25,179.17H40.55c6.6-14.25,5.29-22.79,3-39.15-3-5.85-5.32-16.5-3.73-24.12s1.78-18.65,1.78-18.65,15-3.3,16.36-4,1.45-3.46,1.45-3.46l7-1.51,7,1.51s.12,2.79,1.45,3.46,16.36,4,16.36,4,.18,11,1.78,18.65S92.3,134.17,89.28,140C87,156.38,85.65,164.92,92.25,179.17Z"/><path class="cls-2" d="M53.54,248.37c3-18.94,5.85-26.2,6.65-32.38L41.36,189.65c.84,6.85-7.9,55.3-8.09,56.35-7,39-2.68,87.71-4.2,105.85-.14,1.68-2.79,15.63-2.79,15.63l-1.42,5.67.21,2.33L31.43,377l6-4.32s1.36-14.89,1-17.7a33.64,33.64,0,0,0-.77-4.43l-.51-.7C42.35,316.28,50.51,267.32,53.54,248.37Z"/><path class="cls-5" d="M26.28,367.48a33.06,33.06,0,0,1-1.92,4.43c-.6.83-3.1,3.59-3.48,4.48S19.76,380,22.73,380H33.39c2.84,0,5.24-.89,5.28-3.54s.22-12,.61-14,1.37-4.33.89-6.33a29.87,29.87,0,0,0-2.36-5.81,2.42,2.42,0,0,0-.62-.46l.32,1.78a7.57,7.57,0,0,1,.2,1.26c.26,2.92-.83,16.11-.83,17.21s-1.15,1.81-3.26,2.4-6.47,1.1-8.1-.46a.86.86,0,0,1-.12-.81C25.54,370.65,26.28,367.48,26.28,367.48Z"/><path class="cls-2" d="M79.45,248.37c-3-18.94-5.85-26.2-6.65-32.38l18.83-26.34c-.84,6.85,7.9,55.3,8.09,56.35,7,39,2.68,87.71,4.2,105.85.14,1.68,2.79,15.63,2.79,15.63l1.42,5.67-.21,2.33L101.56,377l-6-4.32s-1.35-14.89-1-17.7a32.84,32.84,0,0,1,.76-4.43l.51-.7C90.64,316.28,82.48,267.32,79.45,248.37Z"/><path class="cls-5" d="M106.71,367.48a33.06,33.06,0,0,0,1.92,4.43,51.12,51.12,0,0,1,3.49,4.48c.38.89,1.12,3.63-1.86,3.63H99.6c-2.84,0-5.24-.89-5.27-3.54s-.23-12-.61-14-1.38-4.33-.9-6.33a29.11,29.11,0,0,1,2.37-5.81,2.18,2.18,0,0,1,.61-.46l-.31,1.78a8.67,8.67,0,0,0-.21,1.26c-.25,2.92.83,16.11.83,17.21s1.15,1.81,3.26,2.4,6.47,1.1,8.1-.46a.82.82,0,0,0,.12-.81C107.45,370.65,106.71,367.48,106.71,367.48Z"/><path class="cls-3" d="M53.54,248.37c.68-4.29,1.36-8,2-11.19-8.65,1-16.34,1.94-21.15,2.52-.65,3.68-1.08,6.08-1.12,6.3q-.51,2.9-1,5.84A124.75,124.75,0,0,0,52,258C52.59,254.3,53.11,251,53.54,248.37Z"/><path class="cls-3" d="M79.45,248.37c-.87-5.44-1.72-9.92-2.52-13.69,7.57-.87,14.74-1.68,20.41-2.29,1.3,7.62,2.32,13.26,2.38,13.61.73,4.09,1.34,8.29,1.84,12.55a103.93,103.93,0,0,1-20,2.49C80.69,256,80,251.73,79.45,248.37Z"/><path class="cls-6" d="M39.51,179.38,29.45,238.46l-1.26,7.68s.26,2,3.53,2.76a224.15,224.15,0,0,0,34.78,3.27,224.12,224.12,0,0,0,34.77-3.27c3.27-.75,3.53-2.76,3.53-2.76l-1.26-7.68L93.48,179.38l-4.32-13.29c.3-2.14-.86-5.7-1.4-5.68S66.5,158.5,66.5,158.5s-20.74,1.92-21.27,1.91-1.7,3.54-1.39,5.68Z"/><path class="cls-1" d="M39.51,179.38l-.64,3.73,10.38-5,2-6.7,3.26-2.23L52,165.39s12.46-2.65,29.54,0l-2.65,3.8,2.41,3.27,3.9,6.18,10.16,58.74s1.88,6.39-3.48,13c4.6-.58,8.1-1.14,9.37-1.44,3.27-.75,3.53-2.76,3.53-2.76l-1.26-7.68L93.48,179.38l-4.32-13.29c.3-2.14-.86-5.7-1.4-5.68S66.5,158.5,66.5,158.5s-20.74,1.92-21.27,1.91-1.7,3.54-1.39,5.68Z"/><path class="cls-3" d="M66.4,72.13h0a7,7,0,0,1,7,7V92.6a7,7,0,0,1-7,7h0a7,7,0,0,1-7-7V79.15A7,7,0,0,1,66.4,72.13Z"/><path class="cls-2" d="M96.48,170.88s-4.45-5.11-5.81-6-5.88-1.41-7.87-1.55S78.56,168,78,168.73s2.12.91,3.65-1.45c0,0-2.08,9.39-2.15,9.9s.58.87,1.2.47l.71-.48c-.27.68-.49,1.27-.55,1.49-.17.64,1.27,1.21,2.7-.54l-.3,1a.3.3,0,0,0,.28.42,4,4,0,0,0,2.79-2.39,20.13,20.13,0,0,0,1.27-4.22,6.77,6.77,0,0,1,1.85-.77,6.15,6.15,0,0,0,1.4,4.2,6.9,6.9,0,0,0,9.3.61Z"/><path class="cls-3" d="M78.31,169.19a3.76,3.76,0,0,0,3.36-1.91,2.81,2.81,0,0,1,1.88-1.2,3.15,3.15,0,0,0-2,.16,30.55,30.55,0,0,0-3.29,2.95Zm1.94,8.63,3.24-9.32-2.06,8.67-.71.48a1.17,1.17,0,0,1-.47.17Zm1.39,1.46a2.65,2.65,0,0,0,1.94-1.16c.41-.93,1.86-6.85,1.86-6.85l-3.8,8Zm7.83-7.15a6.15,6.15,0,0,0,1.4,4.2,6.73,6.73,0,0,0,7.23,1.72Z"/><path class="cls-3" d="M99.1,175.18l-.24-8.63a17,17,0,0,1-1.18,2.68c-1.16,1.54-2.3.41-2.3.41A34.38,34.38,0,0,1,99.1,175.18Z"/><path class="cls-4" d="M74.65,93.14A10.69,10.69,0,0,1,66.5,97.4a10.7,10.7,0,0,1-8.16-4.26c-.55-.62-1.65-.24-3.92.58s-7,1.52-12,2.55a13.07,13.07,0,0,0-7.41,4c2.31,2.35,1.75,26.09,5.33,35.84,1.51,4.13,3.11,8.13,3.2,9,.17,1.63-.43,11.1.08,12.52s.64,2.27,2,2.95,5.37,0,9.31-.55,11.63-.52,11.63-.52,7.68,0,11.62.52,8,1.23,9.31.55,1.45-1.54,2-2.95-.09-10.89.09-12.52c.08-.82,1.55-4.53,3-8.48,3.64-9.88,3.35-34.15,5.52-36.35a13.13,13.13,0,0,0-7.42-4c-5.06-1-9.75-1.74-12-2.55S75.2,92.52,74.65,93.14Z"/><path class="cls-7" d="M38.37,127.27a45.64,45.64,0,0,0,2,8.87c.33.91.67,1.81,1,2.68a3.51,3.51,0,0,1,2.84-1.35H80a5.83,5.83,0,0,1,3.39,1.59c.92.91,3.93,4.09,6.07,6.35a2.16,2.16,0,0,1,0-.28c.08-.82,1.55-4.53,3-8.48a48,48,0,0,0,2.07-9.42l-.17-.93-2.56-24.18-1.39,19.12s-.88,4.15-4.52,4.15H43s-2.27.46-2.87-2.35-1.85-10.48-1.85-10.48Z"/><path class="cls-8" d="M54.42,93.72s.62,0,.79,2.22c.92,12.17,9.74,12,11.29,4.63C68,108,76.86,108.11,77.78,95.94c.17-2.27.79-2.22.79-2.22-2.27-.82-3.37-1.2-3.92-.58A10.69,10.69,0,0,1,66.5,97.4a10.7,10.7,0,0,1-8.16-4.26C57.79,92.52,56.7,92.9,54.42,93.72Z"/><path class="cls-9" d="M83.59,63.76a2.38,2.38,0,0,1,.37.06h0a5,5,0,1,1-4.19,1c-.14,1.48.08,3.32,2,3.51l0-2.89A1.71,1.71,0,0,1,83.59,63.76Z"/><path class="cls-9" d="M49.28,63.52a2.2,2.2,0,0,0-.37.06h0a5,5,0,1,0,4.18,1c.11,1.48-.13,3.31-2,3.48l.08-2.89A1.72,1.72,0,0,0,49.28,63.52Z"/><path class="cls-2" d="M66.4,88.88C57,88.88,49.22,77.32,49.22,68.2V56.08A17.23,17.23,0,0,1,66.4,38.9h0A17.23,17.23,0,0,1,83.58,56.08V67.94C83.58,77.94,76.76,88.88,66.4,88.88Z"/><path class="cls-9" d="M76.19,72a2.39,2.39,0,1,0,2.43,2.34A2.38,2.38,0,0,0,76.19,72Z"/><path class="cls-9" d="M56.48,72.38a2.38,2.38,0,1,0,2.43,2.34A2.38,2.38,0,0,0,56.48,72.38Z"/><path class="cls-1" d="M61.29,59.54a.71.71,0,0,1,.36,1,.72.72,0,0,1-.95.36,4.73,4.73,0,0,0-4.25.27.72.72,0,0,1-.77-1.22A6.2,6.2,0,0,1,61.29,59.54Z"/><path class="cls-1" d="M78.28,59.86a.72.72,0,0,1,.28,1,.73.73,0,0,1-1,.28A4.66,4.66,0,0,0,73.33,61a.72.72,0,0,1-1-.3.74.74,0,0,1,.31-1A6.2,6.2,0,0,1,78.28,59.86Z"/><path class="cls-10" d="M68.41,70.07a16.26,16.26,0,0,1,.83,2.82c-.06.36-2,.45-2.46-.1-.34-.37.08-1.73.44-2.64C67.71,68.91,68,68.85,68.41,70.07Z"/><path class="cls-8" d="M70.3,76.83a3.9,3.9,0,1,1-7.8,0,.72.72,0,0,1,.72-.72h6.36A.72.72,0,0,1,70.3,76.83Z"/><path class="cls-1" d="M83.58,67.28,81.78,60S76,55.77,78.06,49.87s2.45-5.32,2.45-5.32S88.22,48,84.79,63.67Z"/><path class="cls-1" d="M49.22,67.28,51,60s5.78-4.24,3.72-10.14-2.45-5.32-2.45-5.32S44.58,48,48,63.67Z"/><path class="cls-1" d="M51.87,53.2l-2.65,7.46a40.32,40.32,0,0,0,15-8.5c6.7-6.22,8.4-4.53,9.06-2.54s4,10.47,9.15,11,4.34-12.84-3.59-18.5-22.36-4.62-25.57-.75S51.87,53.2,51.87,53.2Z"/><path class="cls-2" d="M36.36,170.88s4.44-5.11,5.81-6,5.88-1.41,7.86-1.55,4.24,4.65,4.79,5.39-2.12.91-3.66-1.45c0,0,2.09,9.39,2.16,9.9s-.58.87-1.2.47l-.71-.48c.27.68.49,1.27.55,1.49.17.64-1.27,1.21-2.71-.54l.31,1a.31.31,0,0,1-.29.42,4,4,0,0,1-2.79-2.39,20.13,20.13,0,0,1-1.27-4.22,6.6,6.6,0,0,0-1.84-.77,6.15,6.15,0,0,1-1.4,4.2,6.91,6.91,0,0,1-9.3.61Z"/><path class="cls-3" d="M54.53,169.19a3.77,3.77,0,0,1-3.37-1.91,2.78,2.78,0,0,0-1.88-1.2,3.16,3.16,0,0,1,1.95.16,30.47,30.47,0,0,1,3.3,2.95Zm-2,8.63-3.23-9.32,2.06,8.67.71.48a1.18,1.18,0,0,0,.46.17Zm-1.38,1.46a2.68,2.68,0,0,1-2-1.16c-.41-.93-1.85-6.85-1.85-6.85l3.8,8Zm-7.83-7.15a6.15,6.15,0,0,1-1.4,4.2,6.73,6.73,0,0,1-7.23,1.72Z"/><path class="cls-3" d="M33.74,175.18l.24-8.63a16.07,16.07,0,0,0,1.18,2.68c1.16,1.54,2.29.41,2.29.41A34.32,34.32,0,0,0,33.74,175.18Z"/><path class="cls-1" d="M57.61,69.58a2,2,0,0,1-2-2,2,2,0,0,1,0-.43l-.22-.08a2.11,2.11,0,0,1-.69-.44.24.24,0,0,1,0-.34.24.24,0,0,1,.35,0,1.55,1.55,0,0,0,.68.38h0a1.55,1.55,0,0,1-.61-.63.24.24,0,0,1,.1-.33.24.24,0,0,1,.33.1,1.15,1.15,0,0,0,.52.49v0a1,1,0,0,1-.35-.54.24.24,0,0,1,.16-.3.25.25,0,0,1,.31.17.65.65,0,0,0,.26.35,1.91,1.91,0,0,1,1.08-.32,2,2,0,0,1,0,3.92Z"/><path class="cls-1" d="M75.19,69.58a2,2,0,0,0,2-2,2,2,0,0,0,0-.43l.22-.08a2.11,2.11,0,0,0,.69-.44.24.24,0,0,0,0-.34.24.24,0,0,0-.35,0,1.55,1.55,0,0,1-.68.38h0a1.61,1.61,0,0,0,.61-.63.24.24,0,0,0-.1-.33.24.24,0,0,0-.33.1,1.18,1.18,0,0,1-.51.49l0,0a1.17,1.17,0,0,0,.36-.54.25.25,0,0,0-.48-.13.65.65,0,0,1-.26.35,1.91,1.91,0,0,0-1.08-.32,2,2,0,0,0,0,3.92Z"/></svg>