<svg xmlns="http://www.w3.org/2000/svg" viewBox="0 0 512 512"><defs><style>.cls-1{fill:#686868;}.cls-2{fill:#fff;}</style></defs><title>Artboard 3</title><g id="Logo2"><rect class="cls-1" x="17" y="17" width="478" height="478" rx="123.22"/><path d="M160.71,87V469c158.82,0,287.58-85.52,287.58-191S319.53,87,160.71,87Zm60.46,302.78V166.22c93,0,168.3,50.05,168.3,111.78S314.12,389.78,221.17,389.78Z"/><path class="cls-2" d="M128.71,65V447c158.82,0,287.58-85.52,287.58-191S287.53,65,128.71,65Zm60.46,302.78V144.22c93,0,168.3,50.05,168.3,111.78S282.12,367.78,189.17,367.78Z"/><polygon points="512 224 512 0 288 0 512 224"/><polygon points="205 512 0 512 0 307 205 512"/></g></svg>