<svg xmlns="http://www.w3.org/2000/svg" viewBox="0 0 148.34 159.13"><defs><style>.cls-1{fill:#fff7f1;}.cls-2{fill:#ff9a40;}.cls-3{fill:#e96d17;}.cls-4{fill:#ffb8a1;}.cls-5{fill:#3f2037;}.cls-6{fill:#ff8a8a;}.cls-7{opacity:0.5;}.cls-8{fill:#fff;}</style></defs><title>Artboard 1</title><g id="BACKGROUND"><rect class="cls-1" x="-21.38" y="-75" width="500" height="500"/></g><g id="OBJECTS"><path class="cls-2" d="M37.1,132.42s-10.18-8.56-4.16-22.55,23.62-16,40.56-16.05c25.85,0,56.72,8.89,36.12,38.6C109.62,132.42,84,149.38,37.1,132.42Z"/><path class="cls-3" d="M62.59,115.68a.77.77,0,0,1-.73-.54,21,21,0,0,0-7.16-9.56.77.77,0,0,1-.19-1.08.76.76,0,0,1,1.07-.19,22.29,22.29,0,0,1,7.75,10.36.77.77,0,0,1-.5,1A1,1,0,0,1,62.59,115.68Z"/><path class="cls-3" d="M73.56,126.07a.78.78,0,0,1-.66-.35c-6.74-10.5-26.79-13.54-27-13.57a.77.77,0,1,1,.22-1.53c.85.12,20.95,3.17,28.07,14.26A.77.77,0,0,1,74,126,.78.78,0,0,1,73.56,126.07Z"/><path class="cls-2" d="M143.09,159.13H5.89S7.27,142,15.55,138.7c3.35-1.34,11-5.16,19-9.23,11.12-5.7,22.79-11.89,24-12.53l.1,0,1.05.24c1.31.29,2.62.54,3.95.75s2.61.38,3.92.51a65.47,65.47,0,0,0,21.69-1.49h0s9,4.62,19,9.66l3.88,2c8.84,4.43,17.7,8.75,21.31,10.2C141.71,142,143.09,159.13,143.09,159.13Z"/><path class="cls-3" d="M80.86,137.34a43.7,43.7,0,0,1-18.26-4A41.15,41.15,0,0,1,51.39,126a.72.72,0,0,1,0-1,.71.71,0,0,1,1,0A41.43,41.43,0,0,0,63.26,132a42.21,42.21,0,0,0,28.44,2.46.72.72,0,0,1,.88.51.73.73,0,0,1-.52.89A44.46,44.46,0,0,1,80.86,137.34Z"/><path class="cls-3" d="M77.3,144.3a38.52,38.52,0,0,1-8-.85A.72.72,0,0,1,69.6,142c14.26,3,23.18-3.28,23.27-3.34a.72.72,0,1,1,.84,1.17C93.4,140.09,87.4,144.3,77.3,144.3Z"/><path class="cls-4" d="M90,120.38s-2.69,8.46-15.06,8.46c-14.42,0-17.81-7.69-17.81-7.69A62.68,62.68,0,0,0,59.78,112h0a50,50,0,0,0,1.15-11.42l25.33-1c.24,2.14.62,4.67,1,7.21C88.47,113.55,90,120.38,90,120.38Z"/><path class="cls-5" d="M87.32,106.8c-3.92,2.73-12.51,6.79-27.53,5.21a50,50,0,0,0,1.15-11.42l25.33-1C86.51,101.73,86.89,104.26,87.32,106.8Z"/><path class="cls-4" d="M51.27,67.55s-7.84-10.67-13.94-4.36S43,91.51,53.66,86.72Z"/><path class="cls-6" d="M47.53,80.16a.54.54,0,0,1-.54-.47c-1-7.41-6.92-12-7-12a.53.53,0,0,1-.1-.76.54.54,0,0,1,.75-.1,20.9,20.9,0,0,1,7.41,12.73.55.55,0,0,1-.47.61Z"/><path class="cls-6" d="M45.89,74.84a.54.54,0,0,1-.45-.24c-.79-1.17-3.14-1.28-4-1.23a.53.53,0,0,1-.57-.51.52.52,0,0,1,.5-.57c.15,0,3.65-.21,4.94,1.7a.53.53,0,0,1-.14.75A.49.49,0,0,1,45.89,74.84Z"/><path class="cls-4" d="M99,67.55s7.84-10.67,13.94-4.36-5.66,28.32-16.33,23.53Z"/><path class="cls-6" d="M102.77,80.16h-.07a.53.53,0,0,1-.46-.61,20.86,20.86,0,0,1,7.4-12.73.55.55,0,0,1,.76.1.54.54,0,0,1-.11.76c-.06,0-6,4.62-7,12A.54.54,0,0,1,102.77,80.16Z"/><path class="cls-6" d="M104.42,74.84a.5.5,0,0,1-.31-.1A.53.53,0,0,1,104,74c1.29-1.91,4.79-1.71,4.94-1.7a.54.54,0,0,1,.51.57.55.55,0,0,1-.58.51c-.84-.05-3.19.07-4,1.23A.54.54,0,0,1,104.42,74.84Z"/><path class="cls-4" d="M81.76,36.44C59.83,31.09,40,50.92,44.93,72.94c3.49,15.55,11.15,35.16,30,35.6,19.62.46,27.49-20.9,30.29-37.11A30.44,30.44,0,0,0,84.8,37.31C83.81,37,82.8,36.69,81.76,36.44Z"/><path class="cls-6" d="M76.47,86.35a7.76,7.76,0,0,1-3.08-.73.77.77,0,0,1-.46-.81l1.57-12A.77.77,0,1,1,76,73L74.54,84.42a3.9,3.9,0,0,0,3.71-.15.77.77,0,0,1,.86,1.28A4.56,4.56,0,0,1,76.47,86.35Z"/><path class="cls-6" d="M75,94.29a17.76,17.76,0,0,1-7.84-1.86.77.77,0,1,1,.75-1.34c.38.2,8.94,4.81,16.34-2a.77.77,0,0,1,1.09,0,.78.78,0,0,1,0,1.1A14.81,14.81,0,0,1,75,94.29Z"/><path class="cls-6" d="M76.29,98.71A12.13,12.13,0,0,1,73,98.26a.77.77,0,1,1,.46-1.48h0s3.46,1,5.87-.32a.78.78,0,0,1,1.06.3.76.76,0,0,1-.3,1A7.75,7.75,0,0,1,76.29,98.71Z"/><path class="cls-5" d="M60,64.37A20.85,20.85,0,0,1,66.42,62a2,2,0,0,0,1.64-2.67L68,59.11a2,2,0,0,0-2.1-1.32c-2.11.23-5.84,1-8.28,3.39a2,2,0,0,0-.49,2h0A2,2,0,0,0,60,64.37Z"/><path class="cls-5" d="M92,64.37A20.85,20.85,0,0,0,85.5,62a2,2,0,0,1-1.64-2.67l.09-.25a2,2,0,0,1,2.1-1.32c2.11.23,5.84,1,8.28,3.39a2,2,0,0,1,.49,2h0A2,2,0,0,1,92,64.37Z"/><g class="cls-7"><path class="cls-6" d="M65.63,78.27c0,1.89-3.5,3.43-7.82,3.43S50,80.16,50,78.27s3.5-3.43,7.82-3.43S65.63,76.37,65.63,78.27Z"/></g><g class="cls-7"><path class="cls-6" d="M102.41,78.27c0,1.89-3.5,3.43-7.82,3.43s-7.82-1.54-7.82-3.43,3.5-3.43,7.82-3.43S102.41,76.37,102.41,78.27Z"/></g><path class="cls-5" d="M45.74,76.33s-4.12-22.7-2.85-27.89,3.94-4.24,3.94-4.24S24.61,26,35.66,15.67c8-7.47,17.2,8.52,17.2,8.52S48.3,8.47,54.78,6.31c8.07-2.69,11.73,16.15,11.73,16.15S65.84,8.4,72.4,8.68c9.1.39,4,10.89,13.84,15s24.78,6.19,19.4,22.72c0,0,7.24-.32-1.77,29.18h0a17.57,17.57,0,0,1-3.29-11.13c.14-3,.13-6.59-.5-8.76,0,0-5.64-3.94-5.38-9.71,0,0-19.86,11.79-38.19,1.28,0,0,1.15,6.8-4.61,7.82a39.88,39.88,0,0,0-2.51,10.71A23.6,23.6,0,0,1,45.92,76Z"/><path class="cls-5" d="M103.8,36s3.14-10.71,8.21-8c3.62,1.95-4.81,10.11-4.81,10.11s7.09-3.84,10.59-1.14-5.79,5.9-11.14,5S103.8,36,103.8,36Z"/><path class="cls-5" d="M66.17,70.27c0,2.1-.73,3.81-1.72,3.83s-1.82-1.67-1.86-3.76.74-3.81,1.73-3.83S66.14,68.18,66.17,70.27Z"/><path class="cls-5" d="M84.89,70.27c0,2.1.74,3.81,1.73,3.83s1.82-1.67,1.85-3.76-.73-3.81-1.72-3.83S84.93,68.18,84.89,70.27Z"/><path class="cls-8" d="M54.44,137.61v21.52H52.89V137.61a.81.81,0,0,1,.15-.46.78.78,0,0,1,1.38.31A.68.68,0,0,1,54.44,137.61Z"/><path class="cls-8" d="M97.41,137.61v21.52H95.87V137.61a.77.77,0,0,1,1.5-.24A.61.61,0,0,1,97.41,137.61Z"/></g></svg>