<svg xmlns="http://www.w3.org/2000/svg" viewBox="0 0 288 500"><defs><style>.cls-1{fill:#ffbe9d;}.cls-2{fill:#eb996e;}.cls-3{fill:#e8505b;}.cls-4,.cls-5{opacity:0.4;}.cls-6{fill:#fafafa;}.cls-7{fill:#263238;}.cls-8{fill:#fff;}.cls-9{fill:#455a64;}.cls-10{opacity:0.6;}.cls-11{opacity:0.3;}</style></defs><title>Mesa de trabajo 1</title><g id="Character"><path class="cls-1" d="M49.42,161s2.72-16.31,3.37-17.55,8.17-8.86,9.06-9,12.73-3.88,12.08-2-9,4.34-9,4.34l-.79,1s7.1-2.32,8.87-2.26,1.91,1.75.64,2.23-7.53,2.31-7.76,2.71,7-1.67,7.88-1.63c1.21.05,2.1,1.59.85,2.12-.73.3-7.69,1.9-7.69,1.9a60.66,60.66,0,0,1,6.46-.5c1.08.29,1,1.59-.19,1.9-.81.21-5.07.4-6.15.69,0,0-.8.68-.77,2.84s-2.77,7.89-2.77,7.89Z"/><path class="cls-2" d="M73.92,132.4a6,6,0,0,1-1.74,1.51A14.46,14.46,0,0,1,70,135.13c-.89.33-1.86.67-2.89,1l-2.19.74.12-.07a35.66,35.66,0,0,1-4,3.75,35.4,35.4,0,0,1,3.66-4.1l0-.05.08,0,2.16-.76,2.87-1a18.87,18.87,0,0,0,2.2-1.08C73.18,132.89,73.86,132.33,73.92,132.4Z"/><path class="cls-3" d="M231.8,340.12,70.38,323.49a9,9,0,0,1-8-9.86l28-271.38a12.77,12.77,0,0,1,14-11.39l153.9,15.85a12.78,12.78,0,0,1,11.39,14l-28,271.38A9,9,0,0,1,231.8,340.12Z"/><path class="cls-4" d="M231.8,340.12,70.38,323.49a9,9,0,0,1-8-9.86l28-271.38a12.77,12.77,0,0,1,14-11.39l153.9,15.85a12.78,12.78,0,0,1,11.39,14l-28,271.38A9,9,0,0,1,231.8,340.12Z"/><path class="cls-3" d="M215.52,338.44,54.09,321.82a9,9,0,0,1-8-9.87L74,40.57A12.77,12.77,0,0,1,88,29.18L241.94,45a12.75,12.75,0,0,1,11.39,14l-28,271.39A9,9,0,0,1,215.52,338.44Z"/><rect class="cls-3" x="73.82" y="261.64" width="60.8" height="26.86" rx="2.42" transform="translate(28.74 -9.23) rotate(5.88)"/><g class="cls-5"><rect x="73.82" y="261.64" width="60.8" height="26.86" rx="2.42" transform="translate(28.74 -9.23) rotate(5.88)"/></g><rect class="cls-6" x="128.6" y="20.43" width="60.45" height="154.1" transform="translate(45.58 245.48) rotate(-84.12)"/><path class="cls-7" d="M232.37,135.44s0-.37.09-1.07.17-1.75.31-3.11c.27-2.74.67-6.76,1.18-11.95,1.05-10.37,2.56-25.38,4.44-44l.16.2L85.26,59.78h0l.28-.23c-2.17,21-4.26,41.35-6.2,60.13l-.22-.28L189,130.84l31.9,3.35,8.54.92,2.21.24.76.09-.73-.06-2.19-.21-8.49-.84-31.86-3.21-110-11.22-.24,0,0-.24c1.93-18.79,4-39.11,6.19-60.14l0-.26.26,0h0L238.59,75.13l.18,0,0,.18c-2,18.67-3.55,33.72-4.65,44.11-.55,5.16-1,9.17-1.27,11.89-.14,1.35-.26,2.38-.33,3.08S232.37,135.44,232.37,135.44Z"/><rect class="cls-3" x="83.77" y="145.78" width="26.19" height="26.19" rx="2.08" transform="translate(16.79 -9.09) rotate(5.88)"/><g class="cls-5"><rect x="83.77" y="145.78" width="26.19" height="26.19" rx="2.08" transform="translate(16.79 -9.09) rotate(5.88)"/></g><rect class="cls-7" x="79.74" y="145.37" width="26.19" height="26.19" rx="2.08" transform="translate(16.73 -8.68) rotate(5.88)"/><path class="cls-8" d="M95.25,153.11,94.13,164l-2.51-.26.91-8.84-2.17-.23.2-2Z"/><rect class="cls-3" x="120.1" y="149.53" width="26.19" height="26.19" rx="2.08" transform="translate(17.37 -12.79) rotate(5.88)"/><g class="cls-5"><rect x="120.1" y="149.53" width="26.19" height="26.19" rx="2.08" transform="translate(17.37 -12.79) rotate(5.88)"/></g><rect class="cls-7" x="116.08" y="149.11" width="26.19" height="26.19" rx="2.08" transform="translate(17.3 -12.38) rotate(5.88)"/><path class="cls-8" d="M134.6,166.07l-.21,2-8.21-.84.17-1.63,4.6-3.53c1.05-.81,1.28-1.35,1.34-1.88.08-.85-.45-1.41-1.6-1.53a2.67,2.67,0,0,0-2.36.86l-1.71-1.37a5,5,0,0,1,4.52-1.57c2.42.25,3.9,1.65,3.7,3.62-.11,1.06-.5,2-2.17,3.24l-2.74,2.1Z"/><rect class="cls-3" x="157.77" y="153.41" width="26.19" height="26.19" rx="2.08" transform="translate(17.96 -16.63) rotate(5.88)"/><g class="cls-5"><rect x="157.77" y="153.41" width="26.19" height="26.19" rx="2.08" transform="translate(17.96 -16.63) rotate(5.88)"/></g><rect class="cls-7" x="153.74" y="152.99" width="26.19" height="26.19" rx="2.08" transform="translate(17.9 -16.22) rotate(5.88)"/><path class="cls-8" d="M172.3,168.66c-.18,1.83-1.77,3.36-4.85,3.05a7.59,7.59,0,0,1-4-1.59l1.18-1.83a5.3,5.3,0,0,0,3,1.3c1.26.13,2.09-.3,2.18-1.19s-.47-1.39-1.9-1.54l-1.15-.12.17-1.66,2.5-2.3-4.62-.47.2-2,7.61.78-.17,1.63-2.74,2.54A3.1,3.1,0,0,1,172.3,168.66Z"/><rect class="cls-3" x="195.43" y="157.29" width="26.19" height="26.19" rx="2.08" transform="translate(18.56 -20.47) rotate(5.88)"/><g class="cls-5"><rect x="195.43" y="157.29" width="26.19" height="26.19" rx="2.08" transform="translate(18.56 -20.47) rotate(5.88)"/></g><rect class="cls-7" x="191.5" y="156.87" width="26.19" height="26.19" rx="2.08" transform="translate(18.49 -20.07) rotate(5.88)"/><rect class="cls-8" x="203.98" y="163.69" width="1" height="11.7" transform="translate(14.88 355.57) rotate(-84.12)"/><path class="cls-8" d="M206.89,164.66a1.9,1.9,0,1,1-1.69-2.08A1.9,1.9,0,0,1,206.89,164.66Z"/><path class="cls-8" d="M205.85,174.81a1.9,1.9,0,1,1-1.7-2.08A1.9,1.9,0,0,1,205.85,174.81Z"/><rect class="cls-3" x="79.83" y="183.95" width="26.19" height="26.19" rx="2.08" transform="translate(20.68 -8.49) rotate(5.88)"/><g class="cls-5"><rect x="79.83" y="183.95" width="26.19" height="26.19" rx="2.08" transform="translate(20.68 -8.49) rotate(5.88)"/></g><rect class="cls-7" x="75.81" y="183.54" width="26.19" height="26.19" rx="2.08" transform="translate(20.62 -8.08) rotate(5.88)"/><path class="cls-8" d="M93.6,200.18,91.84,200l-.24,2.28L89.15,202l.24-2.28-5.85-.61.17-1.69,5.83-6.36,2.64.28-5.42,6,2.91.3.21-2,2.38.24-.21,2,1.77.18Z"/><rect class="cls-3" x="116.17" y="187.7" width="26.19" height="26.19" rx="2.08" transform="translate(21.26 -12.19) rotate(5.88)"/><g class="cls-5"><rect x="116.17" y="187.7" width="26.19" height="26.19" rx="2.08" transform="translate(21.26 -12.19) rotate(5.88)"/></g><rect class="cls-7" x="112.14" y="187.28" width="26.19" height="26.19" rx="2.08" transform="translate(21.19 -11.78) rotate(5.88)"/><path class="cls-8" d="M129.61,202.75c-.2,1.92-1.78,3.45-4.89,3.13a7.62,7.62,0,0,1-4-1.59l1.19-1.82a5.26,5.26,0,0,0,3,1.29c1.26.13,2.09-.31,2.18-1.2s-.42-1.47-2.39-1.67l-2.77-.29,1.19-6,6.62.68-.21,2-4.53-.47-.38,2.05.88.09C128.68,199.25,129.81,200.82,129.61,202.75Z"/><rect class="cls-3" x="153.83" y="191.58" width="26.19" height="26.19" rx="2.08" transform="translate(21.85 -16.03) rotate(5.88)"/><g class="cls-5"><rect x="153.83" y="191.58" width="26.19" height="26.19" rx="2.08" transform="translate(21.85 -16.03) rotate(5.88)"/></g><rect class="cls-7" x="149.81" y="191.16" width="26.19" height="26.19" rx="2.08" transform="translate(21.79 -15.62) rotate(5.88)"/><path class="cls-8" d="M168,206.69c-.23,2.22-2.19,3.43-4.49,3.19-3-.31-4.66-2.38-4.3-5.88.39-3.76,2.87-5.62,6.15-5.28a5.9,5.9,0,0,1,2.94,1.06l-1.12,1.75a3.61,3.61,0,0,0-2-.76c-1.81-.18-3.08.77-3.37,2.84a3.71,3.71,0,0,1,2.78-.69A3.47,3.47,0,0,1,168,206.69Zm-2.45-.13a1.65,1.65,0,0,0-1.68-1.82,1.7,1.7,0,0,0-2,1.44c-.1.93.53,1.68,1.74,1.81A1.63,1.63,0,0,0,165.59,206.56Z"/><rect class="cls-3" x="191.5" y="195.46" width="26.19" height="26.19" rx="2.08" transform="translate(22.45 -19.87) rotate(5.88)"/><g class="cls-5"><rect x="191.5" y="195.46" width="26.19" height="26.19" rx="2.08" transform="translate(22.45 -19.87) rotate(5.88)"/></g><rect class="cls-7" x="187.48" y="195.04" width="26.19" height="26.19" rx="2.08" transform="translate(22.38 -19.46) rotate(5.88)"/><rect class="cls-8" x="194.73" y="207.64" width="11.7" height="1" transform="translate(-85.8 168.9) rotate(-38.26)"/><rect class="cls-8" x="200.07" y="202.29" width="1" height="11.7" transform="translate(-86.36 173.23) rotate(-39.12)"/><rect class="cls-3" x="75.93" y="221.81" width="26.19" height="26.19" rx="2.08" transform="translate(24.54 -7.89) rotate(5.88)"/><g class="cls-5"><rect x="75.93" y="221.81" width="26.19" height="26.19" rx="2.08" transform="translate(24.54 -7.89) rotate(5.88)"/></g><rect class="cls-7" x="71.91" y="221.4" width="26.19" height="26.19" rx="2.08" transform="translate(24.48 -7.48) rotate(5.88)"/><path class="cls-8" d="M89.15,229.31,89,230.94l-5,8.82-2.73-.29,4.8-8.41-3.59-.37-.19,1.77-2.23-.23.39-3.81Z"/><rect class="cls-3" x="112.27" y="225.56" width="26.19" height="26.19" rx="2.08" transform="translate(25.12 -11.59) rotate(5.88)"/><g class="cls-5"><rect x="112.27" y="225.56" width="26.19" height="26.19" rx="2.08" transform="translate(25.12 -11.59) rotate(5.88)"/></g><rect class="cls-7" x="108.24" y="225.14" width="26.19" height="26.19" rx="2.08" transform="translate(25.05 -11.18) rotate(5.88)"/><path class="cls-8" d="M126.57,241c-.22,2-2.18,3.15-4.94,2.86s-4.43-1.76-4.22-3.8a2.77,2.77,0,0,1,1.91-2.39,2.54,2.54,0,0,1-1-2.37c.19-1.91,2-2.92,4.49-2.67s4.08,1.63,3.88,3.54a2.53,2.53,0,0,1-1.5,2.1A2.77,2.77,0,0,1,126.57,241Zm-2.54-.34c.1-1-.63-1.63-1.89-1.76s-2.07.38-2.17,1.34.61,1.65,1.85,1.78S123.93,241.58,124,240.62Zm-3.25-5c-.08.82.52,1.4,1.54,1.51s1.76-.34,1.84-1.16-.54-1.44-1.56-1.54S120.87,234.78,120.78,235.63Z"/><rect class="cls-3" x="149.93" y="229.44" width="26.19" height="26.19" rx="2.08" transform="translate(25.71 -15.43) rotate(5.88)"/><g class="cls-5"><rect x="149.93" y="229.44" width="26.19" height="26.19" rx="2.08" transform="translate(25.71 -15.43) rotate(5.88)"/></g><rect class="cls-7" x="145.91" y="229.02" width="26.19" height="26.19" rx="2.08" transform="matrix(0.99, 0.1, -0.1, 0.99, 25.65, -15.02)"/><path class="cls-8" d="M164.07,242.28c-.38,3.76-2.85,5.62-6.14,5.28a5.86,5.86,0,0,1-2.93-1.05l1.12-1.75a3.58,3.58,0,0,0,2,.75c1.8.18,3.09-.77,3.38-2.85a3.76,3.76,0,0,1-2.8.7,3.46,3.46,0,0,1-3.39-3.77c.23-2.22,2.19-3.43,4.48-3.19C162.78,236.71,164.43,238.78,164.07,242.28Zm-2.61-2.18c.1-.93-.53-1.68-1.73-1.81a1.64,1.64,0,1,0-.3,3.25A1.7,1.7,0,0,0,161.46,240.1Z"/><rect class="cls-3" x="187.6" y="233.32" width="26.19" height="26.19" rx="2.08" transform="translate(26.31 -19.27) rotate(5.88)"/><g class="cls-5"><rect x="187.6" y="233.32" width="26.19" height="26.19" rx="2.08" transform="translate(26.31 -19.27) rotate(5.88)"/></g><rect class="cls-7" x="183.58" y="232.9" width="26.19" height="26.19" rx="2.08" transform="translate(26.24 -18.86) rotate(5.88)"/><rect class="cls-8" x="196.17" y="240.15" width="1" height="11.7" transform="translate(-68.17 416.45) rotate(-84.12)"/><rect class="cls-3" x="146" y="267.63" width="26.19" height="26.19" rx="2.08" transform="translate(29.61 -14.83) rotate(5.88)"/><g class="cls-5"><rect x="146" y="267.63" width="26.19" height="26.19" rx="2.08" transform="translate(29.61 -14.83) rotate(5.88)"/></g><rect class="cls-7" x="141.98" y="267.21" width="26.19" height="26.19" rx="2.08" transform="translate(29.54 -14.42) rotate(5.88)"/><rect class="cls-3" x="183.67" y="271.51" width="26.19" height="26.19" rx="2.08" transform="translate(30.2 -18.67) rotate(5.88)"/><g class="cls-5"><rect x="183.67" y="271.51" width="26.19" height="26.19" rx="2.08" transform="translate(30.2 -18.67) rotate(5.88)"/></g><rect class="cls-9" x="179.64" y="271.09" width="26.19" height="26.19" rx="2.08" transform="translate(30.14 -18.25) rotate(5.88)"/><rect class="cls-8" x="192.39" y="276.9" width="1" height="11.7" transform="translate(-108.12 445.68) rotate(-84.12)"/><rect class="cls-8" x="191.93" y="281.33" width="1" height="11.7" transform="translate(-112.94 449.2) rotate(-84.12)"/><rect class="cls-7" x="66.51" y="261.01" width="63.23" height="26.86" rx="2.5" transform="translate(28.64 -8.61) rotate(5.88)"/><path class="cls-8" d="M95.79,273.68c.37-3.59,2.56-5.41,5.23-5.14s4.45,2.51,4.08,6.1-2.55,5.41-5.24,5.13S95.42,277.26,95.79,273.68Zm6.78.7c.25-2.47-.51-3.58-1.77-3.71s-2.21.8-2.47,3.27.51,3.58,1.75,3.71S102.31,276.84,102.57,274.38Z"/><rect class="cls-8" x="149.23" y="279.81" width="11.7" height="1" transform="translate(-141.48 401.46) rotate(-83.27)"/><rect class="cls-8" x="154.57" y="274.46" width="1" height="11.7" transform="translate(-139.65 405.85) rotate(-84.12)"/><path class="cls-7" d="M143.87,96.24l-1.68,16.23-.76-.08L143,96.88l-4.09-.42.08-.72Z"/><path class="cls-7" d="M157.2,113.29l-.07.72-11-1.13.06-.56,7.68-6.29c2.2-1.79,2.74-2.93,2.88-4.25.22-2.16-1.15-3.7-4-4a6,6,0,0,0-5.08,1.44l-.48-.56a6.88,6.88,0,0,1,5.65-1.6c3.11.32,4.92,2.12,4.65,4.74-.16,1.54-.79,2.83-3.14,4.74l-7,5.73Z"/><path class="cls-7" d="M170.07,110.79c-.28,2.7-2.38,4.4-5.95,4a7.32,7.32,0,0,1-5.4-2.83l.47-.51a6.77,6.77,0,0,0,5,2.62c3.11.32,4.89-1,5.13-3.38s-1.18-4-4.61-4.39l-.9-.1.05-.55,5.74-6.07-9-.92.07-.72,10,1,0,.55-5.76,6.09C168.66,106,170.35,108.08,170.07,110.79Z"/><path class="cls-7" d="M186,112.25l-3.52-.36-.49,4.69-.76-.08.48-4.69-9.32-1,0-.56,10.11-10.06.91.09-10,9.94,8.3.86.43-4.13.76.08-.42,4.12,3.52.37Z"/><path class="cls-7" d="M189.43,116.63a4.19,4.19,0,0,1-.23.85l-1.15,3-.6-.06,1.05-3.13a.78.78,0,0,1-.6-.83.75.75,0,0,1,.84-.69A.77.77,0,0,1,189.43,116.63Z"/><path class="cls-7" d="M205.52,114.26,202,113.9l-.48,4.68-.76-.08.48-4.68-9.32-1,.05-.56,10.11-10.07.91.1-10,9.94,8.3.85.43-4.13.76.08-.42,4.13,3.52.36Z"/><path class="cls-7" d="M217.57,115.6c-.27,2.64-2.31,4.49-6,4.11a7.32,7.32,0,0,1-5.38-2.83l.5-.51a6.67,6.67,0,0,0,4.95,2.62c3.18.33,4.91-1.18,5.14-3.48.26-2.5-1.07-4.14-5.71-4.62l-3.15-.32,1.64-7.57,8.38.87-.08.72-7.72-.8-1.34,6.14,2.51.26C216.27,110.7,217.87,112.72,217.57,115.6Z"/><polygon class="cls-3" points="40.19 448.17 33.83 471.68 54.49 473.56 58.84 451.18 40.19 448.17"/><path class="cls-7" d="M55.09,471.65a14.25,14.25,0,0,1-3-.1c-1.86-.15-4.43-.44-7.25-.8l-7.22-1a15.81,15.81,0,0,1-3-.52,15.37,15.37,0,0,1,3,.12c1.86.15,4.43.44,7.25.8l7.22,1A17.61,17.61,0,0,1,55.09,471.65Z"/><g class="cls-10"><polyline class="cls-8" points="33.83 471.68 54.49 473.56 54.83 471.84 34.43 469.25 33.85 471.44"/></g><path class="cls-7" d="M44.1,470.63a173.48,173.48,0,0,1,4.4-17.9,86.49,86.49,0,0,1-2,9A87.46,87.46,0,0,1,44.1,470.63Z"/><path class="cls-7" d="M54,471.5a9.82,9.82,0,0,0,0-4.37A8.72,8.72,0,0,0,51.74,463a8.46,8.46,0,0,0-5.14-2.37,8.88,8.88,0,0,0-5.54,1.26,9.67,9.67,0,0,0-3.22,3.42,12.37,12.37,0,0,0-1.3,4.19s0-.1,0-.31a6.43,6.43,0,0,1,.05-.89,9.08,9.08,0,0,1,1-3.15,9.66,9.66,0,0,1,3.28-3.64,9.13,9.13,0,0,1,5.82-1.36,8.5,8.5,0,0,1,7.69,6.86,8,8,0,0,1,0,3.3,6,6,0,0,1-.25.86C54,471.4,54,471.5,54,471.5Z"/><path class="cls-3" d="M125.43,445.49,124.2,464s18.43,6.11,18.54,9.55l-36,.26.72-28.92Z"/><g class="cls-10"><path class="cls-8" d="M113.13,462.11a1.47,1.47,0,0,0-1.07,1.65,1.41,1.41,0,0,0,1.62,1.07,1.55,1.55,0,0,0,1.12-1.75,1.47,1.47,0,0,0-1.81-.93"/></g><g class="cls-10"><path class="cls-8" d="M106.74,473.83l.18-2.92,34.66,1a2.48,2.48,0,0,1,1.34,1.95Z"/></g><path class="cls-7" d="M124.79,463.84c0,.18-.89.23-1.77.77s-1.36,1.26-1.52,1.19.13-1.08,1.21-1.72S124.84,463.68,124.79,463.84Z"/><path class="cls-7" d="M128.52,465.52c0,.17-.73.44-1.35,1.17s-.82,1.5-1,1.49-.26-1,.53-1.9S128.52,465.35,128.52,465.52Z"/><path class="cls-7" d="M130.53,470.1c-.16,0-.38-.86.1-1.8s1.31-1.31,1.38-1.16-.45.65-.83,1.43S130.7,470.09,130.53,470.1Z"/><path class="cls-7" d="M124.6,459.59c-.07.16-.87-.11-1.87-.07s-1.78.33-1.86.17.67-.75,1.85-.78S124.7,459.46,124.6,459.59Z"/><g class="cls-11"><polygon points="125.18 449.16 124.97 452.46 107.29 451.76 107.36 448.79 125.18 449.16"/></g><path class="cls-7" d="M124.78,455.85a3.42,3.42,0,0,1-1.8-.06,8.3,8.3,0,0,1-1.87-.64,7.46,7.46,0,0,1-1-.58,2,2,0,0,1-.54-.44.79.79,0,0,1,0-.94,1,1,0,0,1,.78-.38,2.24,2.24,0,0,1,.68.12,6.37,6.37,0,0,1,1.11.42,6.16,6.16,0,0,1,1.62,1.14c.82.8,1.08,1.46,1,1.49s-.47-.5-1.3-1.17a7.5,7.5,0,0,0-1.58-.95,6.23,6.23,0,0,0-1-.35c-.37-.11-.7-.13-.8,0s0,.09,0,.2a2,2,0,0,0,.39.33c.31.21.63.4.94.57a10.11,10.11,0,0,0,1.72.72A13.66,13.66,0,0,1,124.78,455.85Z"/><path class="cls-7" d="M124.55,456.1a2.83,2.83,0,0,1-.43-1.76,5.89,5.89,0,0,1,.31-2,5.46,5.46,0,0,1,.49-1.08,1.51,1.51,0,0,1,1.18-.88.84.84,0,0,1,.74.53,2.18,2.18,0,0,1,.16.66,4.49,4.49,0,0,1,0,1.22,4.09,4.09,0,0,1-.83,1.83c-.73.92-1.47,1.1-1.48,1s.56-.41,1.13-1.29a4,4,0,0,0,.62-2.72c0-.38-.18-.69-.33-.66s-.49.27-.64.57a5.46,5.46,0,0,0-.48,1,6.57,6.57,0,0,0-.4,1.78C124.48,455.41,124.64,456.07,124.55,456.1Z"/><path class="cls-9" d="M47.37,157.14s-3.9,21.3-7,34.19c-2.43,10-8.74,28.78,2.67,34.23S69.76,209,69.76,209l6.51-50.14c-4.54.85-9.67,6.11-15.14,13.84l1-19Z"/><path class="cls-1" d="M204.39,188.61l-6,2.86-5.52-8.67,3.23-6.69c.3-.62.63-1.31,1-2.11a9.37,9.37,0,0,0,.71-2.95,14,14,0,0,0-.1-3.76c-.3-1.12.88-2,1.69-1.38s1.7,3.7,1.1,7.39,3.7-.22,5.29-1.62,6.7-5.48,7.5-5.32c1.18.23,1.15,1.57-.47,2.92s-6.2,5.78-5.44,6.6h0a4.53,4.53,0,0,1,3.92,3.51c.41,1.81.74,4.32-.28,5.15A61.07,61.07,0,0,1,204.39,188.61Z"/><path class="cls-1" d="M88.05,107.79l-.16,52.11L110.25,161l.64-12.67s8,1.58,10-5.8c1.31-4.71,1-41.12,1-41.12Z"/><path class="cls-7" d="M126.91,106.51c-1.5,3.11-8.67,8.81-8.67,8.81L115,124c-2.82-2.2-6.59-2.07-7.31,2.87-.52,3.58,3.93,4.3,3.93,4.3-2.59,4.4-4.34,8-8.11,12.14-4.07,4.54-6.36,5-10.78,5.07H87.86s-10-8.34-8-30.29,21.7-15.54,26.41-21C113.94,88.13,131.94,96.12,126.91,106.51Z"/><path class="cls-9" d="M81,136.44h.63a9.43,9.43,0,0,0,1.77-.2,12.57,12.57,0,0,0,5.72-3,31.76,31.76,0,0,0,5.81-7.77c1-1.57,1.94-3.24,3.14-4.85a18.54,18.54,0,0,1,4.38-4.37,18.24,18.24,0,0,1,5.7-2.43c2-.5,3.85-.81,5.66-1.16,3.59-.67,6.82-1.67,9-3.38a9.8,9.8,0,0,0,3.66-5.28,8.05,8.05,0,0,0,.21-1.76c0-.41,0-.63,0-.63s0,.22.06.63a7.2,7.2,0,0,1-.17,1.78,9.81,9.81,0,0,1-3.65,5.38c-2.22,1.74-5.48,2.77-9.08,3.44-1.8.36-3.71.67-5.64,1.18a18.06,18.06,0,0,0-5.63,2.4,18.54,18.54,0,0,0-4.34,4.32C97,122.31,96,124,95.05,125.54a31.62,31.62,0,0,1-5.87,7.78,12.55,12.55,0,0,1-5.81,3,9,9,0,0,1-1.78.17C81.18,136.47,81,136.44,81,136.44Z"/><path class="cls-9" d="M79.81,118.59s.36-.14,1-.36a14.94,14.94,0,0,1,3.06-.73,7,7,0,0,1,4.8,1,4,4,0,0,1,1.71,2.56,3.62,3.62,0,0,1-1,3.27,2.79,2.79,0,0,1-1.75.7,3.63,3.63,0,0,1-1.91-.51,5.74,5.74,0,0,1-2.55-3.24,8.13,8.13,0,0,1-.2-4.44,7.74,7.74,0,0,1,2.41-4,8,8,0,0,1,4.51-2,13.72,13.72,0,0,1,5.14.66,35.83,35.83,0,0,0,5.2,1.25,20.94,20.94,0,0,0,5.48,0,18.08,18.08,0,0,0,5.27-1.46,6.24,6.24,0,0,0,3.53-3.7,4.84,4.84,0,0,0-1.17-4.69,4.12,4.12,0,0,0-4.52-.67,3.43,3.43,0,0,0-1.67,1.56,3.77,3.77,0,0,0-.36,2.21,5.12,5.12,0,0,0,2.28,3.58,7.4,7.4,0,0,0,3.91,1.1,11.5,11.5,0,0,0,3.75-.56,13.55,13.55,0,0,0,5.55-3.38,14.42,14.42,0,0,0,2.86-4,15,15,0,0,0,1-3c.14-.7.22-1.07.22-1.07s0,.37-.17,1.08a15,15,0,0,1-1,3,14.37,14.37,0,0,1-2.86,4.07,13.65,13.65,0,0,1-5.59,3.44,12,12,0,0,1-3.8.58,7.58,7.58,0,0,1-4-1.11,5.31,5.31,0,0,1-2.37-3.7,4,4,0,0,1,.38-2.32,3.56,3.56,0,0,1,1.75-1.65,4.29,4.29,0,0,1,4.73.7,5,5,0,0,1,1.24,4.88,6.47,6.47,0,0,1-3.64,3.84,18.56,18.56,0,0,1-5.34,1.48,21.77,21.77,0,0,1-5.53,0A36.15,36.15,0,0,1,95,111.68,13.91,13.91,0,0,0,90,111a7.82,7.82,0,0,0-6.58,10.25,5.61,5.61,0,0,0,2.47,3.15,3.55,3.55,0,0,0,1.83.5,2.69,2.69,0,0,0,1.66-.66,3.49,3.49,0,0,0,1-3.14,3.9,3.9,0,0,0-1.65-2.48,6.88,6.88,0,0,0-4.72-1,15.6,15.6,0,0,0-3.06.69Z"/><polygon class="cls-7" points="65.08 260.45 35.31 455.93 60.03 459.06 94.91 295.11 103.69 460.17 130.48 459.7 126.04 260.91 65.08 260.45"/><path class="cls-7" d="M103.22,460.67l0-.48L94.61,298.91,60.43,459.62l-25.69-3.26L64.65,260l61.88.46L131,460.19Zm-8-169.37,9,168.36,25.8-.45-4.42-197.8-60-.46L35.89,455.49l23.75,3Z"/><path class="cls-9" d="M122.52,459.38c-.14,0-.26-39.16-.26-87.46s.12-87.48.26-87.48.26,39.16.26,87.48S122.67,459.38,122.52,459.38Z"/><path class="cls-9" d="M54.6,458.67a2.7,2.7,0,0,1,0-.42c.06-.31.13-.72.23-1.24.22-1.11.52-2.71.92-4.75.83-4.15,2-10.1,3.5-17.45,3-14.73,7.26-35.05,12.14-57.45s9.47-42.66,12.87-57.29c1.71-7.3,3.1-13.21,4.07-17.33.49-2,.87-3.6,1.14-4.7.13-.52.23-.92.31-1.22a2.56,2.56,0,0,1,.12-.41,2,2,0,0,1-.07.42c-.06.3-.15.71-.26,1.23-.24,1.11-.6,2.7-1,4.73l-3.92,17.36c-3.3,14.66-7.83,34.92-12.71,57.32s-9.19,42.71-12.29,57.41c-1.54,7.34-2.79,13.28-3.66,17.42-.44,2-.78,3.62-1,4.73l-.27,1.23Z"/><path class="cls-9" d="M103.69,294.93a4.41,4.41,0,0,1-1.13.15l-3.09.22c-2.6.17-6.21.35-10.17.74s-7.53.93-10.13,1.27l-3.07.39a4.39,4.39,0,0,1-1.13.07,4.88,4.88,0,0,1,1.1-.27c.72-.15,1.76-.34,3.05-.56,2.58-.43,6.15-1,10.13-1.42s7.59-.51,10.21-.59c1.3,0,2.36-.05,3.09-.05A5.34,5.34,0,0,1,103.69,294.93Z"/><path class="cls-9" d="M126.56,282.24a2.12,2.12,0,0,1-.77.19,11,11,0,0,1-2.16.1,12.54,12.54,0,0,1-11-7.93,11.72,11.72,0,0,1-.6-2.08,2.27,2.27,0,0,1-.06-.79c.09,0,.27,1.1,1,2.72a13,13,0,0,0,10.72,7.71C125.44,282.34,126.55,282.14,126.56,282.24Z"/><path class="cls-9" d="M60,264.29l68.47-.22-3.74-45.19c-.42-10.34-.36-11.58-.61-21.12,0,0,9.72,11.75,17.36,20a15.59,15.59,0,0,0,18.09,3.47l40-27.91-7.49-19.16L155.71,196.4c-1.66-1-15.82-21.23-25.6-31.08a34.62,34.62,0,0,0-23.58-10.21,173.75,173.75,0,0,0-22.09.89,23.09,23.09,0,0,0-20.56,21.06c-.71,8.45-.14,18.26-.14,34.93Z"/><path class="cls-7" d="M63.21,181.63s0,.19,0,.53,0,.91,0,1.51c0,1.32,0,3.22,0,5.57,0,4.7.22,11.18.42,18.35s.24,13.67.06,18.36c-.08,2.35-.18,4.25-.29,5.56,0,.61-.09,1.11-.13,1.51s0,.52,0,.52a5.09,5.09,0,0,1,0-.52c0-.41.05-.91.09-1.51.08-1.31.16-3.21.23-5.56.14-4.7.08-11.19-.13-18.36s-.37-13.65-.35-18.35c0-2.35,0-4.25.07-5.57,0-.61,0-1.1,0-1.51S63.21,181.63,63.21,181.63Z"/><path class="cls-7" d="M154.22,202.87a3.65,3.65,0,0,1,.14-.94c.12-.58.29-1.38.49-2.25s.4-1.67.56-2.23a5.12,5.12,0,0,1,.28-.91,4.29,4.29,0,0,1-.14.94c-.12.58-.29,1.37-.49,2.25s-.4,1.66-.56,2.23A6,6,0,0,1,154.22,202.87Z"/><path class="cls-7" d="M157.86,203.43a64.08,64.08,0,0,1-1.65-7.25,36.15,36.15,0,0,1,.93,3.6A33.22,33.22,0,0,1,157.86,203.43Z"/><path class="cls-7" d="M125.8,199.45s-.14-.11-.38-.34l-1-1c-.91-.88-2.21-2.17-3.76-3.82a61.64,61.64,0,0,1-5.11-6.09,35,35,0,0,1-4.64-8.54,23.58,23.58,0,0,1-1.53-9.58,19.55,19.55,0,0,1,1.72-7.73,11.21,11.21,0,0,1,3.36-4.14,10.08,10.08,0,0,1,1.22-.8l.45-.25s-.62.34-1.62,1.11a11.6,11.6,0,0,0-3.28,4.14,19.68,19.68,0,0,0-1.66,7.68,23.93,23.93,0,0,0,1.53,9.5,35.6,35.6,0,0,0,4.61,8.5,64.47,64.47,0,0,0,5.06,6.1c1.53,1.66,2.82,3,3.7,3.87l1,1Z"/><path class="cls-6" d="M81.29,180.86a11.29,11.29,0,0,1-2.35-2.55,11.94,11.94,0,0,1-2-2.86A11.36,11.36,0,0,1,79.34,178,11.67,11.67,0,0,1,81.29,180.86Z"/><path class="cls-6" d="M96.85,198.52a22.4,22.4,0,0,1-3.25,3.6A22.91,22.91,0,0,1,90,205.36a22.9,22.9,0,0,1,3.25-3.6A22.91,22.91,0,0,1,96.85,198.52Z"/><path class="cls-6" d="M111.91,223.87c-.15,0-.7-1.5-1.71-3.23s-2.09-3-2-3.07a10.23,10.23,0,0,1,3.68,6.3Z"/><path class="cls-6" d="M72.87,221a14.45,14.45,0,0,1-1.61-5,14.11,14.11,0,0,1-.19-5.25c.15,0,.2,2.34.7,5.16S73,220.94,72.87,221Z"/><path class="cls-6" d="M93.6,232.16a9.64,9.64,0,0,1-1.13-4.22,9.53,9.53,0,0,1,.36-4.36c.16,0-.06,1.95.16,4.31S93.75,232.11,93.6,232.16Z"/><path class="cls-6" d="M85.4,248.37a26.75,26.75,0,0,1-4.7-2.63,27.31,27.31,0,0,1-4.43-3.07A27.56,27.56,0,0,1,81,245.3,28.66,28.66,0,0,1,85.4,248.37Z"/><path class="cls-6" d="M117.64,243.58c.06.14-2.26,1.29-5,3s-4.73,3.3-4.83,3.18a19.25,19.25,0,0,1,4.55-3.62A19.26,19.26,0,0,1,117.64,243.58Z"/><path class="cls-6" d="M77.09,261.91a25.21,25.21,0,0,1-5-.74,24.92,24.92,0,0,1-4.94-1.26,24.84,24.84,0,0,1,5.05.75A25.35,25.35,0,0,1,77.09,261.91Z"/><path class="cls-6" d="M98.7,258.39A13,13,0,0,1,95,251.54,37,37,0,0,1,96.78,255C97.79,256.88,98.82,258.29,98.7,258.39Z"/><path class="cls-6" d="M123,260.08a7.15,7.15,0,0,1-1.55,2.27c-1,1.16-1.85,2-2,1.94a7.38,7.38,0,0,1,1.56-2.27C122,260.86,122.91,260,123,260.08Z"/><path class="cls-6" d="M78.54,191.34c.08.12-.82.86-2,1.64a6.64,6.64,0,0,1-2.28,1.22c-.08-.12.81-.86,2-1.65A6.6,6.6,0,0,1,78.54,191.34Z"/><path class="cls-6" d="M95.41,172.49a23,23,0,0,1-1.8-5.15,22.34,22.34,0,0,1-1-5.35,40.6,40.6,0,0,1,1.52,5.22A39.05,39.05,0,0,1,95.41,172.49Z"/><path class="cls-6" d="M111.62,189.65c-.06.14-1.52-.42-3.4-.77s-3.43-.38-3.44-.54a7.14,7.14,0,0,1,3.54,0A7,7,0,0,1,111.62,189.65Z"/><path class="cls-6" d="M122.76,175.07a10.32,10.32,0,0,1-7.42-1.14c.06-.14,1.65.45,3.68.75S122.75,174.92,122.76,175.07Z"/><path class="cls-6" d="M134.16,191.33a17.42,17.42,0,0,1,.28-5.51,18,18,0,0,1,1.47-5.32c.15,0-.48,2.42-1,5.4S134.31,191.34,134.16,191.33Z"/><path class="cls-6" d="M147.55,210.49a23.5,23.5,0,0,1-3.56-3.3,22.85,22.85,0,0,1-3.18-3.66,23,23,0,0,1,3.56,3.3A22.85,22.85,0,0,1,147.55,210.49Z"/><path class="cls-6" d="M158.7,209a13.84,13.84,0,0,1-1.8,3.26,13.44,13.44,0,0,1-2.23,3,26,26,0,0,1,4-6.25Z"/><path class="cls-6" d="M171.62,202.71a18.7,18.7,0,0,1-2.15-3.84,18.46,18.46,0,0,1-1.69-4.08,19,19,0,0,1,2.15,3.85A18.5,18.5,0,0,1,171.62,202.71Z"/><path class="cls-6" d="M189.23,195.43a20.5,20.5,0,0,1-4.6-.55,20.1,20.1,0,0,1-4.5-1.07,20.89,20.89,0,0,1,4.59.56A20.64,20.64,0,0,1,189.23,195.43Z"/><path class="cls-6" d="M49.42,214.16a23.37,23.37,0,0,1,1.86-4.56,23.08,23.08,0,0,1,2.33-4.33,23.16,23.16,0,0,1-1.86,4.55A23.67,23.67,0,0,1,49.42,214.16Z"/><path class="cls-6" d="M58.75,197.7a17.9,17.9,0,0,1-3-3,18.08,18.08,0,0,1-2.64-3.33,17.44,17.44,0,0,1,3,3A16.89,16.89,0,0,1,58.75,197.7Z"/><path class="cls-6" d="M58,224.13c.09.11-.6.84-1.55,1.63s-1.79,1.33-1.88,1.22.6-.84,1.55-1.62S57.89,224,58,224.13Z"/><path class="cls-6" d="M61.13,180.21c.11.09-.31.8-.94,1.59s-1.23,1.35-1.34,1.26.3-.8.93-1.59S61,180.12,61.13,180.21Z"/><g class="cls-11"><path d="M113.39,184.75c4.23,13.29,7.5,27.24,11.73,40.53l-1-27.52A66.2,66.2,0,0,1,113.39,184.75Z"/></g><path class="cls-7" d="M44.58,202.14s0-.11.13-.32l.41-.93c.36-.8.89-1.94,1.57-3.35,1.35-2.82,3.32-6.67,5.67-10.83s4.65-7.82,6.37-10.43c.86-1.31,1.57-2.36,2.08-3.07l.58-.82c.13-.19.2-.29.21-.28a2.26,2.26,0,0,1-.18.3l-.55.84c-.53.82-1.21,1.86-2,3.11-1.69,2.63-4,6.3-6.32,10.45s-4.33,8-5.72,10.79c-.65,1.34-1.2,2.45-1.63,3.33-.16.34-.31.64-.44.9A1.17,1.17,0,0,1,44.58,202.14Z"/><path class="cls-7" d="M51.33,189.41a8.55,8.55,0,0,1-1.09.46,14.77,14.77,0,0,0-2.48,1.38,14.1,14.1,0,0,0-2.16,1.85,10.52,10.52,0,0,1-.81.86,1.31,1.31,0,0,1,.17-.27,6.86,6.86,0,0,1,.53-.69,11.85,11.85,0,0,1,4.69-3.26,8.39,8.39,0,0,1,.83-.27A1.24,1.24,0,0,1,51.33,189.41Z"/><path class="cls-6" d="M52.27,168.9a28.63,28.63,0,0,1-3,4.65,28.85,28.85,0,0,1-3.46,4.34,29.32,29.32,0,0,1,3-4.64A30.06,30.06,0,0,1,52.27,168.9Z"/><path class="cls-1" d="M59.49,152.64a2.43,2.43,0,0,0,2.54-1.2c.56-.84.82-1.84,1.32-2.72,1.48-2.61,4.86-3.75,6.22-6.43.19-.38.31-.9,0-1.16s-.74-.08-1.09.09l-8.91,4.46"/><path class="cls-2" d="M59.55,145.68a4.19,4.19,0,0,1,.91-.58c.61-.34,1.49-.81,2.59-1.39l3.87-2,1.12-.57a2,2,0,0,1,1.45-.35.85.85,0,0,1,.55.77,1.74,1.74,0,0,1-.18.8,7.21,7.21,0,0,1-.8,1.23,39.44,39.44,0,0,1-4,3.53,7.64,7.64,0,0,0-1.46,1.71c-.35.61-.59,1.24-.86,1.81a3.52,3.52,0,0,1-2.11,2.09,1.28,1.28,0,0,1-1.1-.08,3.14,3.14,0,0,0,1-.13,3.39,3.39,0,0,0,1.81-2c.25-.55.46-1.2.83-1.87a7.44,7.44,0,0,1,1.5-1.86,45.3,45.3,0,0,0,4-3.51,6.84,6.84,0,0,0,.73-1.11c.18-.37.17-.76,0-.81s-.64.12-1,.31l-1.13.56-3.92,1.9c-1.12.53-2,1-2.67,1.23A3.57,3.57,0,0,1,59.55,145.68Z"/></g></svg>