<svg id="Character" xmlns="http://www.w3.org/2000/svg" viewBox="0 0 500 500"><defs><style>.cls-1{fill:#ffa8a7;}.cls-2{fill:#263238;}.cls-3{fill:#455a64;}.cls-4{fill:#fafafa;}.cls-5{fill:#f0f0f0;}.cls-6{fill:#ebebeb;}.cls-7{fill:#37474f;}.cls-8{fill:#ba68c8;}.cls-12,.cls-9{opacity:0.2;}.cls-10{fill:#f28f8f;}.cls-11{fill:#b16668;}.cls-12{fill:#fff;}</style></defs><title>Mesa de trabajo 1</title><g id="Character-2" data-name="Character"><g id="Bottom"><path class="cls-1" d="M398.51,353.65c-.18-4.3-2.65-48-2.65-48l21.77,15.68c-3.39,24.81-4.82,32.38-5.06,36.51h0a3.54,3.54,0,0,1,.07,1.06c-.21,4.91-6.14,7.36-10.82,10.47a85.93,85.93,0,0,1-12.59,7.2c-3.37,1.46-10.08,1.37-10.83-.68,5.69-3.82,12.27-8,16.85-12.42C397.43,361.36,398.72,358.82,398.51,353.65Z"/><path class="cls-2" d="M371.77,380.9c-.26,0-.77,3,.62,4.27,1.6,1.51,6.39,4.08,12.86,3.46S395.3,386.11,398,384s6.39-5.07,9.33-5.62c2.73-.51,5.72-1.65,6.62-2.47s.92-4.61.92-4.61Z"/><path class="cls-3" d="M412.65,356.64a.91.91,0,0,1,.84.88c.16,1.05.34,4.11.7,5.83.5,2.4.9,7.33.47,9.26s-4.89,3.11-7.75,4.1a36.1,36.1,0,0,0-9.37,5.55c-3.12,2.43-9.59,4.75-13.79,4.66-6.41-.13-10.5-2.05-11.69-4.44-1.48-3-.91-5,6.59-8.21a88.37,88.37,0,0,0,8.36-4.61,24.54,24.54,0,0,0,9.7-11.18,2.94,2.94,0,0,1,1.12-1.53,2.43,2.43,0,0,1,1.44-.08,31.74,31.74,0,0,1,5.85,1.38c1,.52,2.36,1.13,2.29,2.41a4.52,4.52,0,0,1-.33,1.3c-.1.26-.18.61,0,.77s.5,0,.69-.17a18.68,18.68,0,0,0,2.08-2.35A7.43,7.43,0,0,1,411.1,359a12.77,12.77,0,0,0,1.3-.78A15.45,15.45,0,0,0,412.65,356.64Z"/><path class="cls-4" d="M378.44,374.27c9.25,1,13.13,7.07,11.95,11.48a21.49,21.49,0,0,1-6.64,1.17c-6.41-.13-10.76-2.06-12-4.45C370.4,379.68,371.76,376.57,378.44,374.27Z"/><path class="cls-5" d="M391,375.61a.45.45,0,0,0,.29-.1.46.46,0,0,0,.09-.64,10.78,10.78,0,0,0-8.26-3.67.46.46,0,0,0-.42.49.44.44,0,0,0,.48.43,10,10,0,0,1,7.48,3.31A.46.46,0,0,0,391,375.61Z"/><path class="cls-5" d="M394.79,373.35a.52.52,0,0,0,.29-.09.47.47,0,0,0,.09-.65,10.79,10.79,0,0,0-8.27-3.67.46.46,0,0,0-.42.5.44.44,0,0,0,.48.42,10,10,0,0,1,7.48,3.31A.48.48,0,0,0,394.79,373.35Z"/><path class="cls-5" d="M398.48,370.46a.47.47,0,0,0,.3-.1.46.46,0,0,0,.08-.64,10.78,10.78,0,0,0-8.26-3.67.46.46,0,0,0-.42.49.44.44,0,0,0,.48.43,10,10,0,0,1,7.48,3.3A.44.44,0,0,0,398.48,370.46Z"/><path class="cls-5" d="M402.14,367.55a.37.37,0,0,0,.28-.09.45.45,0,0,0,.1-.64c-1.69-2.35-5.65-4-9-3.74a.46.46,0,0,0,.06.92c3.05-.23,6.74,1.28,8.24,3.36A.42.42,0,0,0,402.14,367.55Z"/><path class="cls-1" d="M435.79,323.82l21.47-4.35c.73,13,.39,30.37.37,42.37,0,2.3,1.52,17.8.92,22.58-.89,7.18-10.5,6.84-11.35,2.63s-1.79-22.21-2-24.08a10.28,10.28,0,0,0-.19-1.67C442.66,350.36,435.93,324.44,435.79,323.82Z"/><path class="cls-2" d="M443.85,390.24c.14,4.17.78,6.95,2.38,9.44s4.74,3.32,8,2.68,7.39-2.45,8.43-6,.93-6,.32-9.93Z"/><path class="cls-3" d="M457.64,360.52c1.31.12,1.45,5.56,2,11.18.62,6,2.58,8.56,3.15,13.5.65,5.65.23,8.16-2.11,11.5s-10.37,6.51-14.11,1.54c-3.05-4-3-8.45-2.57-14.06a127.19,127.19,0,0,0,.76-14.3c-.13-4.22-.91-8.14.26-8.58.06.62.12,1.41.2,2s.11,2.75.85,2.79a7.67,7.67,0,0,0,.07-1.59,1.73,1.73,0,0,1,.4-1.35,5,5,0,0,1,2.07-.71c1.31-.2,2.62-.37,3.94-.45.66,0,1.32-.05,2,0a5.82,5.82,0,0,1,1.67.25,1.1,1.1,0,0,1,.69.58,1.58,1.58,0,0,1,.05.65,4.13,4.13,0,0,0,.13,1.16c0,.17.17.37.36.34a.33.33,0,0,0,.22-.34c0-.68-.05-1.18-.06-2,0-.36,0-.71,0-1.07S457.65,360.88,457.64,360.52Z"/><path class="cls-4" d="M463.08,388.47c.11,3.5-.19,5.89-2,8.51-2.34,3.35-11,6.5-14.74,1.53-1.86-2.47-2.29-5.34-2.46-8.27C446.31,386.53,459.5,385.19,463.08,388.47Z"/><path class="cls-5" d="M447.43,384.2l.16,0a21.75,21.75,0,0,1,11.42-.77.51.51,0,0,0,.6-.31.43.43,0,0,0-.35-.53,22.49,22.49,0,0,0-12.06.82.41.41,0,0,0-.25.57A.5.5,0,0,0,447.43,384.2Z"/><path class="cls-5" d="M458.83,379.19a.49.49,0,0,0,.42-.28.42.42,0,0,0-.29-.56c-5.86-1.9-11.79.61-12,.72a.41.41,0,0,0-.22.58.52.52,0,0,0,.65.2c.06,0,5.82-2.47,11.27-.69A.51.51,0,0,0,458.83,379.19Z"/><path class="cls-5" d="M458.62,375.23A.49.49,0,0,0,459,375a.42.42,0,0,0-.28-.56,17.07,17.07,0,0,0-12.28.68.41.41,0,0,0-.19.59.53.53,0,0,0,.67.16,16.19,16.19,0,0,1,11.44-.62A.83.83,0,0,0,458.62,375.23Z"/><path class="cls-6" d="M458.36,370.78a.54.54,0,0,0,.42-.27.43.43,0,0,0-.27-.57c-6-2.15-12.12.68-12.38.8a.42.42,0,0,0-.2.59.52.52,0,0,0,.67.17c.06,0,5.94-2.76,11.54-.76A.57.57,0,0,0,458.36,370.78Z"/><path class="cls-3" d="M450.53,223.79c1.34,24.51,4.37,69.59,4.37,69.59.29,2.85,2.9,15.46,3.17,25.75.43,16.52-.23,28-.23,28s-9.48,4-16,1.43c0,0-8.67-33.52-10.87-44.28-2.61-12.82-8.18-38.33-8.18-38.33l-4.39,33.86s1.38,12.06,0,22c-.93,6.79-4.44,25.54-4.44,25.54s-8.74,1.87-15.89-.41c0,0-3.35-44.15-3.77-50.4s-.41-38.46,1.13-77.93Z"/><path class="cls-7" d="M397.68,342.5c3.52,2.58,13.07,2.45,17.07.34L413.53,350c-2.86,1.65-11.29,2-15.51-.92Z"/><path class="cls-7" d="M440.71,344.36c5,2.19,14.37.9,17.32-1.86v6.92c-2.32,2.32-11.26,3.44-16,1.67Z"/><path class="cls-7" d="M422.74,265.93,419.09,244a19.7,19.7,0,0,1-12.29-5.26s.57,5.05,10.35,8.29l3.36,18.21-2.16,34.56Z"/></g><g id="Top"><g id="Arm"><path class="cls-1" d="M409.23,150.1c-12.81,1.81-14.92,7.09-18.86,15.1-3.13,6.38-9.27,20.78-9.27,20.78s-19.19-4.83-22.61-7c-2.34-1.48-1.91-2.43-5.78-4.94-2.73-1.76-5.62-2.59-7.33-4.33-1.35-1.39-3.48.82-1.33,3.77a16.38,16.38,0,0,0,2.28,2.29,12.82,12.82,0,0,1-4-1.55c-3.08-2.2-4.44-5-8.23-5.45-1.6-.19-1.92.92-1.32,2.15a1.94,1.94,0,0,0-.92,2.72c-.92.27-1,2.11-.65,2.64-.47.69-1.26,2.68,2.24,6.55a34.09,34.09,0,0,0,6,5,72.85,72.85,0,0,0,8.49,2.08,35.85,35.85,0,0,1,9.23,2.85c4.24,1.77,14.94,7.3,24.43,10.82,7.9,2.94,10.12-1.57,13.87-8.59,2.47-4.63,10.47-19.88,10.47-19.88C408.88,165.87,412,155.77,409.23,150.1Z"/><path class="cls-8" d="M409.39,149.51c-6.91.59-11.64,2.06-15.1,7.34s-11.06,22.35-11.06,22.35,7.6,9.52,16.83,9.41c0,0,6.37-12.36,7.75-15.5S413.11,157.32,409.39,149.51Z"/><path class="cls-9" d="M409.39,149.51c-6.91.59-11.64,2.06-15.1,7.34s-11.06,22.35-11.06,22.35,7.6,9.52,16.83,9.41c0,0,6.37-12.36,7.75-15.5S413.11,157.32,409.39,149.51Z"/><path class="cls-10" d="M343.75,181.74c4.68-1.74,9.82.32,11.37,4.11a5.65,5.65,0,0,0-3.44-5.16C349.77,179.75,346.19,180,343.75,181.74Z"/></g><g id="Chest"><path class="cls-5" d="M398.3,169.19c1.13-8.19,3.05-17.95,11.09-19.68a83.14,83.14,0,0,1,20.18-.29,77,77,0,0,1,17.53,3.89l2.48,35.59s1,21,.69,34.69c-11.73,7.43-38.7,10.11-54.73-2C395.06,210,397.18,177.3,398.3,169.19Z"/><path class="cls-2" d="M403.84,121.06c-2.1-4.74-.11-11,2.35-14,3.56-4.3,9.11-6.17,17.51-5.7,6.39.36,12.68,3,13.92,9.52,5.14,1.5,4.6,9.93,3.35,13.65-2.55,7.56-7.6,14.15-7.67,18Z"/><path class="cls-1" d="M404,138.8c1,3.64,3.15,6.3,6.52,6.8a28,28,0,0,0,5.32,0v4.89c-5.62,8,11.87,8.69,17.88-.1l-.16-15s2.08,2.33,5.46.09a7.41,7.41,0,0,0,2.26-9.08c-1.71-3.55-5.07-2.06-6.1-1s-2.23,3.12-3.1,2.84a3.16,3.16,0,0,1-2.1-2.12,19.21,19.21,0,0,1-1.14-6.88,7.68,7.68,0,0,1-2.4-1.85c-1.46-1.6-1.59-3.53-1.66-5.28-7.29-2.24-16.56-1.26-19.57,1.1-1.73,3.08-1.75,10.21-2,14.32A33.46,33.46,0,0,0,404,138.8Z"/><path class="cls-10" d="M415.79,145.6c3.72-.24,11.21-2,13.19-4.11s2.81-6.35,2.81-6.35-.27,5.38-1.8,7.76-5.42,3.43-7.78,4a57.15,57.15,0,0,1-6.39,1Z"/><path class="cls-2" d="M418.07,126a1.54,1.54,0,1,0,1.53-1.6A1.55,1.55,0,0,0,418.07,126Z"/><path class="cls-2" d="M405.74,122.3l3.73-.63a1.82,1.82,0,0,0-2.11-1.58A2,2,0,0,0,405.74,122.3Z"/><path class="cls-2" d="M418.67,121.67l3.6,1.15a1.82,1.82,0,0,0-1.16-2.37A2,2,0,0,0,418.67,121.67Z"/><path class="cls-2" d="M406.31,125.73a1.54,1.54,0,1,0,1.54-1.6A1.57,1.57,0,0,0,406.31,125.73Z"/><polygon class="cls-10" points="414.14 122.48 413.09 133.54 407.15 131.79 414.14 122.48"/><path class="cls-11" d="M418.78,134.71a2.75,2.75,0,1,1-5.08,2.12Z"/><path class="cls-10" d="M418.35,136.19a2.67,2.67,0,0,0-2.64,2.29,2.75,2.75,0,0,0,3.24-2.21A2.41,2.41,0,0,0,418.35,136.19Z"/></g><g id="Scissors"><path class="cls-7" d="M386.13,187.05l-2-1.18a34,34,0,0,0-1.8-5.09L362,139.08c-4.71-9.69-12.58-15.16-18.11-12.87l4.19-2.48c5.55-3.46,14.11,2.07,19.11,12.36l20.25,41.69a25.24,25.24,0,0,1,1.43,3.87h0a42.81,42.81,0,0,0,1.81,8Z"/><path class="cls-7" d="M403.2,248.85a42.09,42.09,0,0,0-4.85-18.64h0l-13.86-28.53a10.5,10.5,0,0,0,1.56-2.74c2,1.17,3.17,1.83,5.22,3l12.27,25.26,0,0a42.05,42.05,0,0,1,4.85,18.64c0,6.84-2.27,11.67-5.87,13.77l-5.26,3-.05,0C400.88,260.62,403.2,255.77,403.2,248.85Z"/><polygon class="cls-7" points="361.99 173.11 359.83 171.86 328.81 153.95 328.81 153.95 334 150.96 357.95 164.79 361.99 173.11"/><path class="cls-3" d="M328.81,154v4.8c0,10,6.05,21.53,13.52,25.84l30.28,17.48a14.66,14.66,0,0,0,4.43,2l1.58,3.27h0l3.55,7.29c-7.5-1.93-13.1,3.78-13.1,14.51,0,12.55,7.64,27.18,17.06,32.62s17.07-.36,17.07-12.91a42.09,42.09,0,0,0-4.85-18.64h0l-13.86-28.53a10.41,10.41,0,0,0,1.56-2.74l17.72,10.24c.65.46,1.27,1,1.93,1.37,9.42,5.44,17.08-.35,17.08-12.91s-7.66-27.17-17.08-32.61-17.06.35-17.06,12.9a38.93,38.93,0,0,0,2.05,11.78l-4.59-2.65-2-1.18a34,34,0,0,0-1.8-5.09L362,139.08c-5-10.28-13.55-15.82-19.11-12.36l-2.67,1.67L362,173.11l-2.16-1.25Zm76.92,43.5c-4-2.31-7.24-8.53-7.24-13.86s3.25-7.78,7.24-5.47S413,186.63,413,192,409.73,199.75,405.73,197.45Zm-19.6,31.88c4,2.31,7.25,8.52,7.25,13.85s-3.25,7.79-7.25,5.49-7.24-8.53-7.24-13.86S382.13,227,386.13,229.33Z"/><path class="cls-7" d="M387.17,192.46a25.5,25.5,0,0,1-1.05,5.27,10.29,10.29,0,0,1-2.68,4.41,6.77,6.77,0,0,1-4.65,1.82,12.93,12.93,0,0,1-5.14-1.27,10.29,10.29,0,0,0,5.12,1.95,7,7,0,0,0,5.26-1.86,9.77,9.77,0,0,0,2.74-4.85A16.58,16.58,0,0,0,387.17,192.46Z"/><polygon class="cls-7" points="383.23 185.38 361.99 173.11 360.52 170.08 383.23 185.38"/><path class="cls-7" d="M373.13,189.76c0-2.68,1.63-3.91,3.63-2.75s3.65,4.28,3.65,7-1.64,3.92-3.65,2.76S373.13,192.44,373.13,189.76Z"/><path class="cls-3" d="M375.21,193.76a.39.39,0,0,0,.27-.11l3.11-3a.38.38,0,0,0,0-.55.4.4,0,0,0-.56,0l-3.11,3a.4.4,0,0,0,.27.68Z"/><path class="cls-3" d="M378.32,195.55a.33.33,0,0,0,.17,0,.39.39,0,0,0,.19-.52l-3.11-6.58a.4.4,0,0,0-.53-.19.39.39,0,0,0-.18.52l3.11,6.59A.38.38,0,0,0,378.32,195.55Z"/><polygon class="cls-8" points="388.75 188.56 395.87 184.46 390.72 189.7 388.75 188.56"/><polygon class="cls-9" points="388.75 188.56 395.87 184.46 390.72 189.7 388.75 188.56"/><path class="cls-8" d="M422.81,197.63c0-12.55-7.66-27.17-17.08-32.61-4.26-2.46-8.16-2.61-11.16-.88l0,0,5.14-3c3-1.74,6.9-1.59,11.17.88,9.42,5.43,17.08,20.05,17.08,32.61,0,6.86-2.29,11.7-5.91,13.79l-5.25,3,0,0C420.47,209.42,422.81,204.56,422.81,197.63Z"/><path class="cls-12" d="M394.8,164c2.95-1.59,6.77-1.39,10.93,1,5.83,3.36,11,10.23,14,18l5.19-3c-3.07-7.72-8.23-14.59-14.05-18-4.27-2.46-8.17-2.61-11.17-.87Z"/><path class="cls-9" d="M416.8,211.48l0,0,5.25-3c3.62-2.09,5.91-6.93,5.91-13.8A40.09,40.09,0,0,0,425,180l-5.19,3a40.26,40.26,0,0,1,3,14.65C422.81,204.56,420.48,209.42,416.8,211.48Z"/><path class="cls-8" d="M404.91,177.71a5.63,5.63,0,0,0-.75-.27,9.63,9.63,0,0,0-.48,3.16c0,5.33,3.25,11.54,7.24,13.85a7.24,7.24,0,0,0,1.58.68c-1,3-3.68,4.1-6.77,2.32-4-2.31-7.24-8.53-7.24-13.86C398.49,178.63,401.3,176.17,404.91,177.71Z"/><path class="cls-9" d="M404.91,177.71a5.63,5.63,0,0,0-.75-.27,9.63,9.63,0,0,0-.48,3.16c0,5.33,3.25,11.54,7.24,13.85a7.24,7.24,0,0,0,1.58.68c-1,3-3.68,4.1-6.77,2.32-4-2.31-7.24-8.53-7.24-13.86C398.49,178.63,401.3,176.17,404.91,177.71Z"/><path class="cls-8" d="M390.51,189.58l-1.76-1v11.92l13.75,7.93a22.39,22.39,0,0,0,3.23,2.28c9.47,5.47,17.2-.36,17.2-13s-7.73-27.35-17.2-32.82-17.17.35-17.17,13A39.11,39.11,0,0,0,390.51,189.58Zm15.22,7.87c-4-2.31-7.24-8.53-7.24-13.86s3.25-7.78,7.24-5.47S413,186.63,413,192,409.73,199.75,405.73,197.45Z"/><path class="cls-8" d="M382.17,214.63a9.46,9.46,0,0,0-7.15.76c.93-.53,4.21-2.42,5-2.91.27-.16.56-.31.85-.45Z"/><path class="cls-9" d="M382.17,214.63a9.46,9.46,0,0,0-7.15.76c.93-.53,4.21-2.42,5-2.91.27-.16.56-.31.85-.45Z"/><path class="cls-8" d="M385.31,228.93a6.86,6.86,0,0,0-.75-.27,9.63,9.63,0,0,0-.48,3.16c0,5.32,3.24,11.54,7.24,13.85a6.8,6.8,0,0,0,1.58.67c-1,3-3.68,4.11-6.77,2.33-4-2.31-7.24-8.53-7.24-13.86C378.89,229.85,381.7,227.39,385.31,228.93Z"/><path class="cls-9" d="M385.31,228.93a6.86,6.86,0,0,0-.75-.27,9.63,9.63,0,0,0-.48,3.16c0,5.32,3.24,11.54,7.24,13.85a6.8,6.8,0,0,0,1.58.67c-1,3-3.68,4.11-6.77,2.33-4-2.31-7.24-8.53-7.24-13.86C378.89,229.85,381.7,227.39,385.31,228.93Z"/><path class="cls-8" d="M390.23,213.42l5.18-3,8.16,16.78,0,0a42.05,42.05,0,0,1,4.85,18.64c0,6.84-2.27,11.67-5.87,13.77l-5.26,3-.05,0c3.67-2.07,6-6.92,6-13.84a42.09,42.09,0,0,0-4.85-18.64h0c-2.59-5.33-5.37-11-8.15-16.78Z"/><path class="cls-9" d="M390.23,213.42l5.18-3,8.16,16.78,0,0a42.05,42.05,0,0,1,4.85,18.64c0,6.84-2.27,11.67-5.87,13.77l-5.26,3-.05,0c3.67-2.07,6-6.92,6-13.84a42.09,42.09,0,0,0-4.85-18.64h0c-2.59-5.33-5.37-11-8.15-16.78Z"/><path class="cls-8" d="M369,229.07c0,12.63,7.7,27.37,17.18,32.84s17.19-.36,17.19-13a42.94,42.94,0,0,0-5.77-20.42l-7.32-15.07-12-6.95.42.87,2.46,5,1,2C374.54,212.5,369,218.31,369,229.07Zm9.93,5.74c0-5.33,3.25-7.78,7.25-5.47s7.25,8.51,7.25,13.84-3.26,7.79-7.25,5.49S378.88,240.14,378.88,234.81Z"/></g><g id="Arm-2" data-name="Arm"><path class="cls-1" d="M460.57,167.55c-2.91-10.13-8.77-11.84-13.41-13.68-6.58,6.54-6.48,17.11-3.24,30.59,2.28,9.49,5.14,21.69,5.14,21.69s-16.64,2.9-21.36.22a17,17,0,0,1-3.92-2.6c-2.71-2.1-3.88-2.47-6.48-4.34-2.05-1.46-2.7-2.86-3.24-2.55a2.84,2.84,0,0,0-.77,3.8,13.1,13.1,0,0,0,2.31,3.23,45.66,45.66,0,0,1-7.9-3.27c-3.44-1.81-5-3.38-6.38-2.21-.88.74-.34,2-.21,2.91.15,1.09-.44,2.26-.1,3.3.19.6.72,1.06.84,1.68s-.32,1.46-.28,2.2a3.24,3.24,0,0,0,.59,1.47c.87,1.43,1.84,3.43,3.11,4.55a13.39,13.39,0,0,0,2.92,1.62,49.7,49.7,0,0,0,8.88,3c5.63,1.48,9,1.26,14.61,2,10.51,1.32,23.41,1.26,28.67.65,5.91-.7,7.12-4.73,7.86-9.57C469.5,203.81,462.87,175.54,460.57,167.55Z"/><path class="cls-8" d="M447.1,153.11c4.42,1.5,8.82,3.39,10.9,6.88s3.51,7.66,6.11,19.21c2,8.82,2.91,13.26,2.91,13.26a29,29,0,0,1-21,4.25s-3.57-14.38-5-20.27S439.51,157.49,447.1,153.11Z"/><path class="cls-9" d="M447.1,153.11c4.42,1.5,8.82,3.39,10.9,6.88s3.51,7.66,6.11,19.21c2,8.82,2.91,13.26,2.91,13.26a29,29,0,0,1-21,4.25s-3.57-14.38-5-20.27S439.51,157.49,447.1,153.11Z"/></g></g></g></svg>