<svg id="Code_Snippets" data-name="Code Snippets" xmlns="http://www.w3.org/2000/svg" viewBox="0 0 500 500"><defs><style>.cls-1{fill:#455a64;opacity:0.8;}.cls-2{opacity:0.5;}.cls-3,.cls-7{fill:#37474f;}.cls-4{fill:#fafafa;}.cls-5{fill:#ba68c8;}.cls-10,.cls-11,.cls-6{fill:#fff;}.cls-6{opacity:0.3;}.cls-7{opacity:0.9;}.cls-8{opacity:0.7;}.cls-11,.cls-9{opacity:0.6;}</style></defs><title>Mesa de trabajo 1</title><g id="Window"><g id="Window-2" data-name="Window"><path class="cls-1" d="M321.51,144.41a1.51,1.51,0,0,0-.07-.37s0,0,0-.08a1.36,1.36,0,0,0-.09-.36,2,2,0,0,0-.24-.51.92.92,0,0,0-.13-.21.88.88,0,0,0-.12-.15,1.6,1.6,0,0,0-.26-.26l0,0a1.93,1.93,0,0,0-.34-.19,2.92,2.92,0,0,0-2.71.34l-153,87.85a8.79,8.79,0,0,0-4,7.23v50.47c0-1.9,0-1.89,0-1.88v.88a2.72,2.72,0,0,0,1.44,2.41l.17.12.22.12a1.23,1.23,0,0,0,.34.11,2.24,2.24,0,0,0,.51.07,2.63,2.63,0,0,0,1.33-.38l.11-.06h0l3.83-2.21,149-85.64a8.87,8.87,0,0,0,4-7v-49.8C321.53,144.74,321.52,144.57,321.51,144.41Z"/><g class="cls-2"><path class="cls-3" d="M317.51,142.59,164.56,230.44a8.3,8.3,0,0,0-2.83,3l-5.11-2.95a8,8,0,0,1,2.8-2.94l153-87.84a2.83,2.83,0,0,1,2.92-.24c.72.44,4.05,2.33,4.9,2.79A2.92,2.92,0,0,0,317.51,142.59Z"/></g><path class="cls-4" d="M305.69,153.13a4,4,0,0,0-1.52,3.23c0,1.3.68,2,1.52,1.47a4,4,0,0,0,1.53-3.23C307.22,153.3,306.54,152.65,305.69,153.13Z"/><path class="cls-4" d="M311.19,150a4.06,4.06,0,0,0-1.53,3.24c0,1.29.69,1.95,1.53,1.46a4,4,0,0,0,1.53-3.23C312.72,150.12,312,149.47,311.19,150Z"/><path class="cls-5" d="M316.68,146.78a4,4,0,0,0-1.52,3.23c0,1.29.68,2,1.52,1.47a4,4,0,0,0,1.53-3.24C318.21,147,317.53,146.29,316.68,146.78Z"/><path class="cls-6" d="M316.68,146.78a4,4,0,0,0-1.52,3.23c0,1.29.68,2,1.52,1.47a4,4,0,0,0,1.53-3.24C318.21,147,317.53,146.29,316.68,146.78Z"/><path class="cls-7" d="M161.94,289.53l0,0a.51.51,0,0,1-.13-.09,2.62,2.62,0,0,1-1.25-2.28V237.4a8.06,8.06,0,0,1,1.2-4l-5.12-2.94a8.3,8.3,0,0,0-1.22,4V283.3a3.9,3.9,0,0,0,0,.59,4.25,4.25,0,0,0,2.09,3.11l4.24,2.45.21.12Z"/></g><g id="Code" class="cls-8"><g class="cls-9"><path class="cls-10" d="M171.93,248.49l5.47-3.16c.55-.32,1-.06,1,.57v2a2.18,2.18,0,0,1-1,1.72l-5.47,3.16c-.55.32-1,.06-1-.57v-2A2.17,2.17,0,0,1,171.93,248.49Z"/><path class="cls-10" d="M171.93,256.49l5.47-3.16c.55-.31,1-.06,1,.58v2a2.21,2.21,0,0,1-1,1.72l-5.47,3.16c-.55.32-1,.06-1-.57v-2A2.2,2.2,0,0,1,171.93,256.49Z"/><path class="cls-10" d="M171.93,264.5l5.47-3.16c.55-.32,1-.06,1,.57v2a2.21,2.21,0,0,1-1,1.72l-5.47,3.16c-.55.32-1,.06-1-.58v-2A2.2,2.2,0,0,1,171.93,264.5Z"/><path class="cls-10" d="M171.93,272.51l5.47-3.16c.55-.32,1-.06,1,.57v2a2.21,2.21,0,0,1-1,1.73l-5.47,3.16c-.55.31-1,.06-1-.58v-2A2.18,2.18,0,0,1,171.93,272.51Z"/></g></g><path class="cls-5" d="M186.24,239.24,226,216.3c.55-.32,1-.09,1,.51a2.17,2.17,0,0,1-1,1.67l-39.73,22.94c-.56.32-1,.09-1-.51A2.15,2.15,0,0,1,186.24,239.24Z"/><path class="cls-6" d="M186.24,239.24,226,216.3c.55-.32,1-.09,1,.51a2.17,2.17,0,0,1-1,1.67l-39.73,22.94c-.56.32-1,.09-1-.51A2.15,2.15,0,0,1,186.24,239.24Z"/><path class="cls-5" d="M186.2,265.58l121.36-69.77c.56-.32,1-.1,1,.51a2.17,2.17,0,0,1-1,1.67L186.2,267.76c-.56.32-1,.09-1-.51A2.15,2.15,0,0,1,186.2,265.58Z"/><path class="cls-6" d="M186.2,265.58l121.36-69.77c.56-.32,1-.1,1,.51a2.17,2.17,0,0,1-1,1.67L186.2,267.76c-.56.32-1,.09-1-.51A2.15,2.15,0,0,1,186.2,265.58Z"/><path class="cls-4" d="M171.93,238.27l120.38-69.21c.55-.32,1-.09,1,.51a2.14,2.14,0,0,1-1,1.65L171.93,240.43c-.55.32-1,.09-1-.51A2.12,2.12,0,0,1,171.93,238.27Z"/><path class="cls-5" d="M229.87,214.05l78.3-44.88c.56-.32,1-.09,1,.51a2.15,2.15,0,0,1-1,1.67l-78.3,44.88c-.56.32-1,.09-1-.51A2.15,2.15,0,0,1,229.87,214.05Z"/><path class="cls-6" d="M229.87,214.05l78.3-44.88c.56-.32,1-.09,1,.51a2.15,2.15,0,0,1-1,1.67l-78.3,44.88c-.56.32-1,.09-1-.51A2.15,2.15,0,0,1,229.87,214.05Z"/><path class="cls-5" d="M186.24,245.5l20.11-11.63c.56-.32,1-.09,1,.51a2.14,2.14,0,0,1-1,1.67l-20.11,11.63c-.56.32-1,.09-1-.51A2.15,2.15,0,0,1,186.24,245.5Z"/><path class="cls-11" d="M186.24,245.5l20.11-11.63c.56-.32,1-.09,1,.51a2.14,2.14,0,0,1-1,1.67l-20.11,11.63c-.56.32-1,.09-1-.51A2.15,2.15,0,0,1,186.24,245.5Z"/><path class="cls-5" d="M186.24,251.72l12.08-6.95c.56-.32,1-.09,1,.51a2.15,2.15,0,0,1-1,1.67l-12.08,7c-.56.32-1,.1-1-.5A2.17,2.17,0,0,1,186.24,251.72Z"/><path class="cls-11" d="M186.24,251.72l12.08-6.95c.56-.32,1-.09,1,.51a2.15,2.15,0,0,1-1,1.67l-12.08,7c-.56.32-1,.1-1-.5A2.17,2.17,0,0,1,186.24,251.72Z"/><path class="cls-5" d="M210.25,231.62l69.66-40c.56-.32,1-.09,1,.51a2.15,2.15,0,0,1-1,1.67l-69.66,40c-.55.32-1,.1-1-.51A2.17,2.17,0,0,1,210.25,231.62Z"/><path class="cls-11" d="M210.25,231.62l69.66-40c.56-.32,1-.09,1,.51a2.15,2.15,0,0,1-1,1.67l-69.66,40c-.55.32-1,.1-1-.51A2.17,2.17,0,0,1,210.25,231.62Z"/><path class="cls-5" d="M201.55,242.93l19.9-11.55c.56-.32,1-.09,1,.51a2.15,2.15,0,0,1-1,1.67l-19.9,11.55c-.56.32-1,.09-1-.51A2.15,2.15,0,0,1,201.55,242.93Z"/><path class="cls-11" d="M201.55,242.93l19.9-11.55c.56-.32,1-.09,1,.51a2.15,2.15,0,0,1-1,1.67l-19.9,11.55c-.56.32-1,.09-1-.51A2.15,2.15,0,0,1,201.55,242.93Z"/><path class="cls-5" d="M225.35,229.13l82.23-46.93c.56-.32,1-.09,1,.51a2.15,2.15,0,0,1-1,1.67l-82.23,46.93c-.55.32-1,.09-1-.51A2.17,2.17,0,0,1,225.35,229.13Z"/><path class="cls-11" d="M225.35,229.13l82.23-46.93c.56-.32,1-.09,1,.51a2.15,2.15,0,0,1-1,1.67l-82.23,46.93c-.55.32-1,.09-1-.51A2.17,2.17,0,0,1,225.35,229.13Z"/><path class="cls-5" d="M186.2,258.3l35.25-20.24c.56-.32,1-.09,1,.51a2.15,2.15,0,0,1-1,1.67L186.2,260.48c-.56.32-1,.09-1-.51A2.15,2.15,0,0,1,186.2,258.3Z"/><path class="cls-11" d="M186.2,258.3l35.25-20.24c.56-.32,1-.09,1,.51a2.15,2.15,0,0,1-1,1.67L186.2,260.48c-.56.32-1,.09-1-.51A2.15,2.15,0,0,1,186.2,258.3Z"/><path class="cls-5" d="M225.35,235.81l82.23-46.93c.56-.32,1-.09,1,.51a2.15,2.15,0,0,1-1,1.67L225.35,238c-.55.32-1,.09-1-.51A2.17,2.17,0,0,1,225.35,235.81Z"/><path class="cls-11" d="M225.35,235.81l82.23-46.93c.56-.32,1-.09,1,.51a2.15,2.15,0,0,1-1,1.67L225.35,238c-.55.32-1,.09-1-.51A2.17,2.17,0,0,1,225.35,235.81Z"/></g></svg>