<svg id="Code_Window" data-name="Code Window" xmlns="http://www.w3.org/2000/svg" viewBox="0 0 500 500"><defs><style>.cls-1{fill:#455a64;}.cls-2{fill:#ba68c8;}.cls-3{opacity:0.2;}.cls-10,.cls-11,.cls-4{fill:#fff;}.cls-5{opacity:0.15;}.cls-6{fill:#37474f;}.cls-7{fill:#263238;}.cls-8{opacity:0.5;}.cls-10,.cls-9{opacity:0.6;}.cls-11{opacity:0.8;}.cls-12{fill:#ffa8a7;}.cls-13{fill:#f28f8f;}</style></defs><title>Mesa de trabajo 1</title><g id="Window"><g id="Window-2" data-name="Window"><path class="cls-1" d="M272.44,26.92a1.75,1.75,0,0,0-.08-.41s0-.06,0-.09a2.24,2.24,0,0,0-.1-.41,2.18,2.18,0,0,0-.27-.58.83.83,0,0,0-.15-.23.7.7,0,0,0-.13-.17,1.65,1.65,0,0,0-.3-.29l0,0a1.9,1.9,0,0,0-.39-.23,3.29,3.29,0,0,0-3,.39L40.1,156c-2.5,1.44-4.53,5-4.53,10V335.28A3.07,3.07,0,0,0,37.2,338l.19.13.24.13a1.64,1.64,0,0,0,.39.14,2.79,2.79,0,0,0,.58.07,2.92,2.92,0,0,0,1.5-.43l.12-.07h0l4.32-2.5,223.39-128.6a10,10,0,0,0,4.53-7.84V27.49C272.47,27.29,272.45,27.1,272.44,26.92Z"/><path class="cls-2" d="M271,24.48a3.29,3.29,0,0,0-3,.39L40.1,156a10,10,0,0,0-4.53,7.85v8.78l-5.78-3.39v-8.68a10,10,0,0,1,4.51-7.83L262.16,21.6a3.15,3.15,0,0,1,3.28-.27C266.26,21.82,270,24,271,24.48Z"/><path class="cls-2" d="M272.46,27.46c0-2.86-2-4-4.52-2.58L40.1,156a10,10,0,0,0-4.53,7.83v8.79L272.46,36.29Z"/><g class="cls-3"><path class="cls-4" d="M267.93,24.87,40.1,156a9.31,9.31,0,0,0-3.19,3.36L31.16,156a9,9,0,0,1,3.15-3.3L262.15,21.6a3.17,3.17,0,0,1,3.29-.27c.81.5,4.57,2.63,5.53,3.15A3.29,3.29,0,0,0,267.93,24.87Z"/></g><path class="cls-5" d="M29.78,169.22v-8.7A9.34,9.34,0,0,1,31.16,156l5.77,3.32a9.14,9.14,0,0,0-1.36,4.5v8.78Z"/><path class="cls-6" d="M254.62,36.75a4.54,4.54,0,0,0-1.72,3.64c0,1.47.77,2.21,1.72,1.66a4.54,4.54,0,0,0,1.72-3.64C256.34,36.94,255.57,36.2,254.62,36.75Z"/><path class="cls-6" d="M260.81,33.17a4.54,4.54,0,0,0-1.72,3.64c0,1.46.77,2.21,1.72,1.66a4.54,4.54,0,0,0,1.72-3.64C262.53,33.36,261.76,32.62,260.81,33.17Z"/><path class="cls-6" d="M267,29.59a4.54,4.54,0,0,0-1.72,3.64c0,1.46.77,2.2,1.72,1.66a4.55,4.55,0,0,0,1.72-3.65C268.72,29.78,268,29,267,29.59Z"/><path class="cls-7" d="M37.19,338l-.23-.13-4.77-2.77a4.81,4.81,0,0,1-2.37-3.5,5.12,5.12,0,0,1,0-.67V169.2l5.79,3.39V335.27a3,3,0,0,0,1.4,2.57,1,1,0,0,0,.15.1l0,0Z"/></g><g id="Code" class="cls-8"><g class="cls-9"><path class="cls-4" d="M48.41,265.82l6.17-3.56c.62-.36,1.12-.07,1.12.65v2.27a2.48,2.48,0,0,1-1.12,1.94l-6.17,3.56c-.62.36-1.12.07-1.12-.65v-2.27A2.48,2.48,0,0,1,48.41,265.82Z"/><path class="cls-4" d="M48.41,274.85l6.17-3.56c.62-.36,1.12-.07,1.12.64v2.27a2.48,2.48,0,0,1-1.12,1.94l-6.17,3.56c-.62.36-1.12.07-1.12-.64v-2.27A2.45,2.45,0,0,1,48.41,274.85Z"/><path class="cls-4" d="M48.41,283.87l6.17-3.56c.62-.36,1.12-.07,1.12.65v2.26a2.45,2.45,0,0,1-1.12,1.94l-6.17,3.57c-.62.35-1.12.06-1.12-.65v-2.27A2.48,2.48,0,0,1,48.41,283.87Z"/><path class="cls-4" d="M48.41,292.89l6.17-3.56c.62-.35,1.12-.06,1.12.65v2.27a2.48,2.48,0,0,1-1.12,1.94l-6.17,3.56c-.62.36-1.12.07-1.12-.65v-2.26A2.49,2.49,0,0,1,48.41,292.89Z"/></g><g class="cls-9"><path class="cls-4" d="M48.41,221.06l6.17-3.56c.62-.36,1.12-.07,1.12.65v2.26a2.45,2.45,0,0,1-1.12,1.94l-6.17,3.57c-.62.35-1.12.06-1.12-.65V223A2.48,2.48,0,0,1,48.41,221.06Z"/><path class="cls-4" d="M48.41,230.08l6.17-3.56c.62-.35,1.12-.06,1.12.65v2.27a2.48,2.48,0,0,1-1.12,1.94l-6.17,3.56c-.62.36-1.12.07-1.12-.65V232A2.49,2.49,0,0,1,48.41,230.08Z"/><path class="cls-4" d="M48.41,239.11l6.17-3.56c.62-.36,1.12-.07,1.12.64v2.27a2.45,2.45,0,0,1-1.12,1.94L48.41,244c-.62.36-1.12.07-1.12-.64v-2.27A2.47,2.47,0,0,1,48.41,239.11Z"/><path class="cls-4" d="M48.41,248.13l6.17-3.56c.62-.36,1.12-.07,1.12.65v2.27a2.48,2.48,0,0,1-1.12,1.94L48.41,253c-.62.35-1.12.07-1.12-.65v-2.27A2.48,2.48,0,0,1,48.41,248.13Z"/><path class="cls-4" d="M48.41,310.59,54.58,307c.62-.35,1.12-.06,1.12.65v2.27a2.48,2.48,0,0,1-1.12,1.94l-6.17,3.56c-.62.36-1.12.07-1.12-.65v-2.26A2.45,2.45,0,0,1,48.41,310.59Z"/><path class="cls-4" d="M48.41,319.61l6.17-3.56c.62-.36,1.12-.07,1.12.64V319a2.45,2.45,0,0,1-1.12,1.94l-6.17,3.56c-.62.36-1.12.07-1.12-.64v-2.27A2.48,2.48,0,0,1,48.41,319.61Z"/></g><g class="cls-9"><path class="cls-4" d="M48.41,176.3l6.17-3.56c.62-.36,1.12-.07,1.12.64v2.27a2.47,2.47,0,0,1-1.12,1.94l-6.17,3.56c-.62.36-1.12.07-1.12-.64v-2.27A2.47,2.47,0,0,1,48.41,176.3Z"/><path class="cls-4" d="M48.41,185.32l6.17-3.56c.62-.36,1.12-.07,1.12.65v2.27a2.48,2.48,0,0,1-1.12,1.94l-6.17,3.56c-.62.35-1.12.06-1.12-.65v-2.27A2.48,2.48,0,0,1,48.41,185.32Z"/><path class="cls-4" d="M48.41,194.35l6.17-3.57c.62-.35,1.12-.06,1.12.65v2.27a2.48,2.48,0,0,1-1.12,1.94l-6.17,3.56c-.62.36-1.12.07-1.12-.65v-2.26A2.45,2.45,0,0,1,48.41,194.35Z"/><path class="cls-4" d="M48.41,203.37l6.17-3.56c.62-.36,1.12-.07,1.12.65v2.26a2.45,2.45,0,0,1-1.12,1.94l-6.17,3.57c-.62.35-1.12.06-1.12-.65v-2.27A2.48,2.48,0,0,1,48.41,203.37Z"/></g><path class="cls-6" d="M259,121.32,211.7,148.64a7,7,0,0,0-3.18,5.51v71.27c0,2,1.43,2.85,3.18,1.84L259,199.93a7,7,0,0,0,3.18-5.5V123.15C262.2,121.13,260.78,120.3,259,121.32Z"/><path class="cls-2" d="M254.63,175.48,250.28,178a3.46,3.46,0,0,0-1.61,2.67c0,1,.72,1.33,1.61.82l4.35-2.52a3.44,3.44,0,0,0,1.61-2.67C256.24,175.34,255.52,175,254.63,175.48Z"/><path class="cls-10" d="M254.63,175.48,250.28,178a3.46,3.46,0,0,0-1.61,2.67c0,1,.72,1.33,1.61.82l4.35-2.52a3.44,3.44,0,0,0,1.61-2.67C256.24,175.34,255.52,175,254.63,175.48Z"/><path class="cls-2" d="M254.63,130.74l-4.35,2.51a3.46,3.46,0,0,0-1.61,2.68c0,1,.72,1.32,1.61.81l4.35-2.52a3.44,3.44,0,0,0,1.61-2.67C256.24,130.59,255.52,130.22,254.63,130.74Z"/><path class="cls-10" d="M254.63,130.74l-4.35,2.51a3.46,3.46,0,0,0-1.61,2.68c0,1,.72,1.32,1.61.81l4.35-2.52a3.44,3.44,0,0,0,1.61-2.67C256.24,130.59,255.52,130.22,254.63,130.74Z"/><path class="cls-2" d="M248.51,143.2l-4.36,2.52a3.44,3.44,0,0,0-1.61,2.67c0,1,.72,1.33,1.61.81l4.36-2.52a3.43,3.43,0,0,0,1.61-2.67C250.12,143.05,249.4,142.69,248.51,143.2Z"/><path class="cls-10" d="M248.51,143.2l-4.36,2.52a3.44,3.44,0,0,0-1.61,2.67c0,1,.72,1.33,1.61.81l4.36-2.52a3.43,3.43,0,0,0,1.61-2.67C250.12,143.05,249.4,142.69,248.51,143.2Z"/><path class="cls-2" d="M248.51,152.13l-4.36,2.52a3.43,3.43,0,0,0-1.61,2.67c0,1,.72,1.32,1.61.81l4.36-2.52a3.44,3.44,0,0,0,1.61-2.67C250.12,152,249.4,151.61,248.51,152.13Z"/><path class="cls-10" d="M248.51,152.13l-4.36,2.52a3.43,3.43,0,0,0-1.61,2.67c0,1,.72,1.32,1.61.81l4.36-2.52a3.44,3.44,0,0,0,1.61-2.67C250.12,152,249.4,151.61,248.51,152.13Z"/><path class="cls-2" d="M254.63,157.58l-4.35,2.52a3.44,3.44,0,0,0-1.61,2.67c0,1,.72,1.32,1.61.81l4.35-2.52a3.44,3.44,0,0,0,1.61-2.67C256.24,157.43,255.52,157.06,254.63,157.58Z"/><path class="cls-10" d="M254.63,157.58l-4.35,2.52a3.44,3.44,0,0,0-1.61,2.67c0,1,.72,1.32,1.61.81l4.35-2.52a3.44,3.44,0,0,0,1.61-2.67C256.24,157.43,255.52,157.06,254.63,157.58Z"/><path class="cls-2" d="M248.51,170.05l-4.36,2.52a3.44,3.44,0,0,0-1.61,2.67c0,1,.72,1.33,1.61.82l4.36-2.52a3.46,3.46,0,0,0,1.61-2.68C250.12,169.9,249.4,169.54,248.51,170.05Z"/><path class="cls-10" d="M248.51,170.05l-4.36,2.52a3.44,3.44,0,0,0-1.61,2.67c0,1,.72,1.33,1.61.82l4.36-2.52a3.46,3.46,0,0,0,1.61-2.68C250.12,169.9,249.4,169.54,248.51,170.05Z"/><path class="cls-2" d="M242.7,137.63,216.1,153a3.44,3.44,0,0,0-1.61,2.67c0,1,.72,1.33,1.61.81l26.6-15.36a3.44,3.44,0,0,0,1.61-2.67C244.31,137.48,243.59,137.11,242.7,137.63Z"/><path class="cls-11" d="M242.7,137.63,216.1,153a3.44,3.44,0,0,0-1.61,2.67c0,1,.72,1.33,1.61.81l26.6-15.36a3.44,3.44,0,0,0,1.61-2.67C244.31,137.48,243.59,137.11,242.7,137.63Z"/><path class="cls-2" d="M242.7,182.38l-26.6,15.36a3.44,3.44,0,0,0-1.61,2.67c0,1,.72,1.32,1.61.81l26.6-15.36a3.44,3.44,0,0,0,1.61-2.67C244.31,182.23,243.59,181.86,242.7,182.38Z"/><path class="cls-11" d="M242.7,182.38l-26.6,15.36a3.44,3.44,0,0,0-1.61,2.67c0,1,.72,1.32,1.61.81l26.6-15.36a3.44,3.44,0,0,0,1.61-2.67C244.31,182.23,243.59,181.86,242.7,182.38Z"/><path class="cls-2" d="M236.58,150.09,216.1,161.94a3.44,3.44,0,0,0-1.61,2.67c0,1,.72,1.33,1.61.81l20.48-11.85a3.43,3.43,0,0,0,1.61-2.67C238.19,149.94,237.47,149.58,236.58,150.09Z"/><path class="cls-11" d="M236.58,150.09,216.1,161.94a3.44,3.44,0,0,0-1.61,2.67c0,1,.72,1.33,1.61.81l20.48-11.85a3.43,3.43,0,0,0,1.61-2.67C238.19,149.94,237.47,149.58,236.58,150.09Z"/><path class="cls-2" d="M236.58,159,216.1,170.89a3.44,3.44,0,0,0-1.61,2.67c0,1,.72,1.33,1.61.81l20.48-11.85a3.43,3.43,0,0,0,1.61-2.67C238.19,158.89,237.47,158.53,236.58,159Z"/><path class="cls-11" d="M236.58,159,216.1,170.89a3.44,3.44,0,0,0-1.61,2.67c0,1,.72,1.33,1.61.81l20.48-11.85a3.43,3.43,0,0,0,1.61-2.67C238.19,158.89,237.47,158.53,236.58,159Z"/><path class="cls-2" d="M242.7,164.48l-26.6,15.36a3.44,3.44,0,0,0-1.61,2.67c0,1,.72,1.33,1.61.81L242.7,168a3.44,3.44,0,0,0,1.61-2.67C244.31,164.33,243.59,164,242.7,164.48Z"/><path class="cls-11" d="M242.7,164.48l-26.6,15.36a3.44,3.44,0,0,0-1.61,2.67c0,1,.72,1.33,1.61.81L242.7,168a3.44,3.44,0,0,0,1.61-2.67C244.31,164.33,243.59,164,242.7,164.48Z"/><path class="cls-2" d="M236.58,176.94,216.1,188.79a3.44,3.44,0,0,0-1.61,2.67c0,1,.72,1.32,1.61.81l20.48-11.84a3.46,3.46,0,0,0,1.61-2.67C238.19,176.79,237.47,176.43,236.58,176.94Z"/><path class="cls-11" d="M236.58,176.94,216.1,188.79a3.44,3.44,0,0,0-1.61,2.67c0,1,.72,1.32,1.61.81l20.48-11.84a3.46,3.46,0,0,0,1.61-2.67C238.19,176.79,237.47,176.43,236.58,176.94Z"/><path class="cls-2" d="M254.63,193.48,250.28,196a3.44,3.44,0,0,0-1.61,2.67c0,1,.72,1.33,1.61.81l4.35-2.51a3.46,3.46,0,0,0,1.61-2.68C256.24,193.33,255.52,193,254.63,193.48Z"/><path class="cls-10" d="M254.63,193.48,250.28,196a3.44,3.44,0,0,0-1.61,2.67c0,1,.72,1.33,1.61.81l4.35-2.51a3.46,3.46,0,0,0,1.61-2.68C256.24,193.33,255.52,193,254.63,193.48Z"/><path class="cls-2" d="M248.51,188.05l-4.36,2.52a3.44,3.44,0,0,0-1.61,2.67c0,1,.72,1.33,1.61.81l4.36-2.52a3.44,3.44,0,0,0,1.61-2.67C250.12,187.9,249.4,187.54,248.51,188.05Z"/><path class="cls-10" d="M248.51,188.05l-4.36,2.52a3.44,3.44,0,0,0-1.61,2.67c0,1,.72,1.33,1.61.81l4.36-2.52a3.44,3.44,0,0,0,1.61-2.67C250.12,187.9,249.4,187.54,248.51,188.05Z"/><path class="cls-2" d="M242.7,200.37l-26.6,15.36a3.46,3.46,0,0,0-1.61,2.67c0,1,.72,1.33,1.61.82l26.6-15.36a3.46,3.46,0,0,0,1.61-2.67C244.31,200.22,243.59,199.86,242.7,200.37Z"/><path class="cls-11" d="M242.7,200.37l-26.6,15.36a3.46,3.46,0,0,0-1.61,2.67c0,1,.72,1.33,1.61.82l26.6-15.36a3.46,3.46,0,0,0,1.61-2.67C244.31,200.22,243.59,199.86,242.7,200.37Z"/><path class="cls-2" d="M236.58,194.94,216.1,206.78a3.46,3.46,0,0,0-1.61,2.68c0,1,.72,1.32,1.61.81l20.48-11.85a3.43,3.43,0,0,0,1.61-2.67C238.19,194.79,237.47,194.43,236.58,194.94Z"/><path class="cls-11" d="M236.58,194.94,216.1,206.78a3.46,3.46,0,0,0-1.61,2.68c0,1,.72,1.32,1.61.81l20.48-11.85a3.43,3.43,0,0,0,1.61-2.67C238.19,194.79,237.47,194.43,236.58,194.94Z"/><path class="cls-6" d="M259,48,211.7,75.33a7,7,0,0,0-3.18,5.51v54.64c0,2,1.43,2.85,3.18,1.84L259,110a7,7,0,0,0,3.18-5.5V49.84C262.2,47.82,260.78,47,259,48Z"/><path class="cls-2" d="M254.63,102.17l-4.35,2.52a3.46,3.46,0,0,0-1.61,2.67c0,1,.72,1.33,1.61.82l4.35-2.52a3.44,3.44,0,0,0,1.61-2.67C256.24,102,255.52,101.66,254.63,102.17Z"/><path class="cls-10" d="M254.63,102.17l-4.35,2.52a3.46,3.46,0,0,0-1.61,2.67c0,1,.72,1.33,1.61.82l4.35-2.52a3.44,3.44,0,0,0,1.61-2.67C256.24,102,255.52,101.66,254.63,102.17Z"/><path class="cls-2" d="M254.63,57.43l-4.35,2.51a3.46,3.46,0,0,0-1.61,2.68c0,1,.72,1.32,1.61.81l4.35-2.52a3.44,3.44,0,0,0,1.61-2.67C256.24,57.28,255.52,56.91,254.63,57.43Z"/><path class="cls-10" d="M254.63,57.43l-4.35,2.51a3.46,3.46,0,0,0-1.61,2.68c0,1,.72,1.32,1.61.81l4.35-2.52a3.44,3.44,0,0,0,1.61-2.67C256.24,57.28,255.52,56.91,254.63,57.43Z"/><path class="cls-2" d="M248.51,69.89l-4.36,2.52a3.44,3.44,0,0,0-1.61,2.67c0,1,.72,1.33,1.61.81l4.36-2.52a3.43,3.43,0,0,0,1.61-2.67C250.12,69.74,249.4,69.38,248.51,69.89Z"/><path class="cls-10" d="M248.51,69.89l-4.36,2.52a3.44,3.44,0,0,0-1.61,2.67c0,1,.72,1.33,1.61.81l4.36-2.52a3.43,3.43,0,0,0,1.61-2.67C250.12,69.74,249.4,69.38,248.51,69.89Z"/><path class="cls-2" d="M248.51,78.82l-4.36,2.52A3.44,3.44,0,0,0,242.54,84c0,1,.72,1.32,1.61.81l4.36-2.52a3.44,3.44,0,0,0,1.61-2.67C250.12,78.67,249.4,78.3,248.51,78.82Z"/><path class="cls-10" d="M248.51,78.82l-4.36,2.52A3.44,3.44,0,0,0,242.54,84c0,1,.72,1.32,1.61.81l4.36-2.52a3.44,3.44,0,0,0,1.61-2.67C250.12,78.67,249.4,78.3,248.51,78.82Z"/><path class="cls-2" d="M254.63,84.27l-4.35,2.52a3.44,3.44,0,0,0-1.61,2.67c0,1,.72,1.32,1.61.81l4.35-2.52a3.44,3.44,0,0,0,1.61-2.67C256.24,84.12,255.52,83.76,254.63,84.27Z"/><path class="cls-10" d="M254.63,84.27l-4.35,2.52a3.44,3.44,0,0,0-1.61,2.67c0,1,.72,1.32,1.61.81l4.35-2.52a3.44,3.44,0,0,0,1.61-2.67C256.24,84.12,255.52,83.76,254.63,84.27Z"/><path class="cls-2" d="M248.51,96.74l-4.36,2.52a3.44,3.44,0,0,0-1.61,2.67c0,1,.72,1.33,1.61.82l4.36-2.52a3.46,3.46,0,0,0,1.61-2.68C250.12,96.59,249.4,96.23,248.51,96.74Z"/><path class="cls-10" d="M248.51,96.74l-4.36,2.52a3.44,3.44,0,0,0-1.61,2.67c0,1,.72,1.33,1.61.82l4.36-2.52a3.46,3.46,0,0,0,1.61-2.68C250.12,96.59,249.4,96.23,248.51,96.74Z"/><path class="cls-2" d="M242.7,64.32,216.1,79.68a3.44,3.44,0,0,0-1.61,2.67c0,1,.72,1.33,1.61.81L242.7,67.8a3.44,3.44,0,0,0,1.61-2.67C244.31,64.17,243.59,63.8,242.7,64.32Z"/><path class="cls-11" d="M242.7,64.32,216.1,79.68a3.44,3.44,0,0,0-1.61,2.67c0,1,.72,1.33,1.61.81L242.7,67.8a3.44,3.44,0,0,0,1.61-2.67C244.31,64.17,243.59,63.8,242.7,64.32Z"/><path class="cls-2" d="M242.7,109.07l-26.6,15.36a3.44,3.44,0,0,0-1.61,2.67c0,1,.72,1.32,1.61.81l26.6-15.36a3.44,3.44,0,0,0,1.61-2.67C244.31,108.92,243.59,108.55,242.7,109.07Z"/><path class="cls-11" d="M242.7,109.07l-26.6,15.36a3.44,3.44,0,0,0-1.61,2.67c0,1,.72,1.32,1.61.81l26.6-15.36a3.44,3.44,0,0,0,1.61-2.67C244.31,108.92,243.59,108.55,242.7,109.07Z"/><path class="cls-2" d="M236.58,76.78,216.1,88.63a3.44,3.44,0,0,0-1.61,2.67c0,1,.72,1.33,1.61.81l20.48-11.85a3.43,3.43,0,0,0,1.61-2.67C238.19,76.63,237.47,76.27,236.58,76.78Z"/><path class="cls-11" d="M236.58,76.78,216.1,88.63a3.44,3.44,0,0,0-1.61,2.67c0,1,.72,1.33,1.61.81l20.48-11.85a3.43,3.43,0,0,0,1.61-2.67C238.19,76.63,237.47,76.27,236.58,76.78Z"/><path class="cls-2" d="M236.58,85.73,216.1,97.58a3.44,3.44,0,0,0-1.61,2.67c0,1,.72,1.33,1.61.81l20.48-11.85a3.43,3.43,0,0,0,1.61-2.67C238.19,85.58,237.47,85.22,236.58,85.73Z"/><path class="cls-11" d="M236.58,85.73,216.1,97.58a3.44,3.44,0,0,0-1.61,2.67c0,1,.72,1.33,1.61.81l20.48-11.85a3.43,3.43,0,0,0,1.61-2.67C238.19,85.58,237.47,85.22,236.58,85.73Z"/><path class="cls-2" d="M242.7,91.17l-26.6,15.36a3.44,3.44,0,0,0-1.61,2.67c0,1,.72,1.32,1.61.81l26.6-15.36A3.44,3.44,0,0,0,244.31,92C244.31,91,243.59,90.65,242.7,91.17Z"/><path class="cls-11" d="M242.7,91.17l-26.6,15.36a3.44,3.44,0,0,0-1.61,2.67c0,1,.72,1.32,1.61.81l26.6-15.36A3.44,3.44,0,0,0,244.31,92C244.31,91,243.59,90.65,242.7,91.17Z"/><path class="cls-2" d="M236.58,103.63,216.1,115.48a3.44,3.44,0,0,0-1.61,2.67c0,1,.72,1.32,1.61.81l20.48-11.84a3.46,3.46,0,0,0,1.61-2.67C238.19,103.48,237.47,103.12,236.58,103.63Z"/><path class="cls-11" d="M236.58,103.63,216.1,115.48a3.44,3.44,0,0,0-1.61,2.67c0,1,.72,1.32,1.61.81l20.48-11.84a3.46,3.46,0,0,0,1.61-2.67C238.19,103.48,237.47,103.12,236.58,103.63Z"/></g><path class="cls-2" d="M64.54,165.88,109.31,140c.62-.36,1.13-.11,1.13.57a2.43,2.43,0,0,1-1.13,1.88L64.54,168.33c-.63.37-1.14.11-1.14-.57A2.42,2.42,0,0,1,64.54,165.88Z"/><path class="cls-2" d="M64.49,195.56l131.77-76c.63-.36,1.13-.1,1.13.58a2.42,2.42,0,0,1-1.13,1.88L64.49,198c-.62.36-1.13.11-1.13-.57A2.47,2.47,0,0,1,64.49,195.56Z"/><path class="cls-2" d="M113.7,137.49,197,89.59c.63-.36,1.13-.11,1.13.57A2.41,2.41,0,0,1,197,92L113.7,140c-.62.36-1.13.1-1.13-.58A2.43,2.43,0,0,1,113.7,137.49Z"/><path class="cls-2" d="M64.54,172.93l22.66-13.1c.63-.36,1.14-.1,1.14.58a2.43,2.43,0,0,1-1.14,1.88l-22.66,13.1c-.63.36-1.14.11-1.14-.57A2.45,2.45,0,0,1,64.54,172.93Z"/><path class="cls-10" d="M64.54,172.93l22.66-13.1c.63-.36,1.14-.1,1.14.58a2.43,2.43,0,0,1-1.14,1.88l-22.66,13.1c-.63.36-1.14.11-1.14-.57A2.45,2.45,0,0,1,64.54,172.93Z"/><path class="cls-2" d="M64.54,180l13.61-7.84c.63-.36,1.13-.1,1.13.58a2.42,2.42,0,0,1-1.13,1.88L64.54,182.4c-.63.37-1.14.11-1.14-.57A2.42,2.42,0,0,1,64.54,180Z"/><path class="cls-10" d="M64.54,180l13.61-7.84c.63-.36,1.13-.1,1.13.58a2.42,2.42,0,0,1-1.13,1.88L64.54,182.4c-.63.37-1.14.11-1.14-.57A2.42,2.42,0,0,1,64.54,180Z"/><path class="cls-2" d="M91.6,157.29l78.88-45.43c.62-.36,1.13-.11,1.13.57a2.47,2.47,0,0,1-1.13,1.89L91.6,159.75c-.63.36-1.13.11-1.13-.57A2.44,2.44,0,0,1,91.6,157.29Z"/><path class="cls-10" d="M91.6,157.29l78.88-45.43c.62-.36,1.13-.11,1.13.57a2.47,2.47,0,0,1-1.13,1.89L91.6,159.75c-.63.36-1.13.11-1.13-.57A2.44,2.44,0,0,1,91.6,157.29Z"/><path class="cls-12" d="M76.34,214.15,197,144.46c.63-.36,1.14-.1,1.14.57a2.44,2.44,0,0,1-1.14,1.89L76.34,216.61c-.62.36-1.13.1-1.13-.58A2.43,2.43,0,0,1,76.34,214.15Z"/><path class="cls-12" d="M76.34,207.14,197,137.41c.63-.36,1.13-.1,1.13.58a2.41,2.41,0,0,1-1.13,1.88L76.34,209.59c-.62.37-1.13.11-1.13-.57A2.43,2.43,0,0,1,76.34,207.14Z"/><path class="cls-2" d="M81.79,170l22.43-13c.63-.36,1.14-.1,1.14.58a2.43,2.43,0,0,1-1.14,1.88l-22.43,13c-.63.36-1.13.11-1.13-.57A2.41,2.41,0,0,1,81.79,170Z"/><path class="cls-10" d="M81.79,170l22.43-13c.63-.36,1.14-.1,1.14.58a2.43,2.43,0,0,1-1.14,1.88l-22.43,13c-.63.36-1.13.11-1.13-.57A2.41,2.41,0,0,1,81.79,170Z"/><path class="cls-2" d="M108.62,154.48l87.66-50.21c.63-.36,1.14-.11,1.14.57a2.42,2.42,0,0,1-1.14,1.88l-87.66,50.22c-.63.36-1.14.11-1.14-.57A2.45,2.45,0,0,1,108.62,154.48Z"/><path class="cls-10" d="M108.62,154.48l87.66-50.21c.63-.36,1.14-.11,1.14.57a2.42,2.42,0,0,1-1.14,1.88l-87.66,50.22c-.63.36-1.14.11-1.14-.57A2.45,2.45,0,0,1,108.62,154.48Z"/><path class="cls-2" d="M64.49,187.36l39.73-22.81c.63-.36,1.14-.1,1.14.58a2.43,2.43,0,0,1-1.14,1.88l-39.73,22.8c-.62.37-1.13.11-1.13-.57A2.43,2.43,0,0,1,64.49,187.36Z"/><path class="cls-10" d="M64.49,187.36l39.73-22.81c.63-.36,1.14-.1,1.14.58a2.43,2.43,0,0,1-1.14,1.88l-39.73,22.8c-.62.37-1.13.11-1.13-.57A2.43,2.43,0,0,1,64.49,187.36Z"/><path class="cls-2" d="M108.62,162l87.66-50.21c.63-.36,1.14-.11,1.14.57a2.42,2.42,0,0,1-1.14,1.88l-87.66,50.22c-.63.36-1.14.11-1.14-.57A2.45,2.45,0,0,1,108.62,162Z"/><path class="cls-10" d="M108.62,162l87.66-50.21c.63-.36,1.14-.11,1.14.57a2.42,2.42,0,0,1-1.14,1.88l-87.66,50.22c-.63.36-1.14.11-1.14-.57A2.45,2.45,0,0,1,108.62,162Z"/><path class="cls-13" d="M76.34,221.25,197,151.73c.63-.36,1.14-.1,1.14.58a2.42,2.42,0,0,1-1.14,1.88L76.34,223.71c-.62.36-1.13.1-1.13-.58A2.45,2.45,0,0,1,76.34,221.25Z"/><path class="cls-13" d="M76.34,228.28,197,158.76c.63-.36,1.14-.1,1.14.58a2.42,2.42,0,0,1-1.14,1.88L76.34,230.74c-.62.36-1.13.1-1.13-.58A2.43,2.43,0,0,1,76.34,228.28Z"/><path class="cls-13" d="M76.34,235.31,197,165.79c.63-.36,1.14-.1,1.14.58a2.43,2.43,0,0,1-1.14,1.88L76.34,237.77c-.62.36-1.13.1-1.13-.58A2.43,2.43,0,0,1,76.34,235.31Z"/><path class="cls-2" d="M76.34,244.64,197,175.14c.63-.36,1.13-.1,1.13.57A2.44,2.44,0,0,1,197,177.6L76.34,247.1c-.62.36-1.13.1-1.13-.58A2.45,2.45,0,0,1,76.34,244.64Z"/><path class="cls-2" d="M64.77,251.23l5.25-3c.63-.37,1.13-.11,1.13.57A2.41,2.41,0,0,1,70,250.67l-5.25,3c-.62.36-1.13.1-1.13-.58A2.43,2.43,0,0,1,64.77,251.23Z"/><path class="cls-10" d="M64.77,251.23l5.25-3c.63-.37,1.13-.11,1.13.57A2.41,2.41,0,0,1,70,250.67l-5.25,3c-.62.36-1.13.1-1.13-.58A2.43,2.43,0,0,1,64.77,251.23Z"/><path class="cls-2" d="M64.77,212.82l5.25-3c.63-.36,1.13-.11,1.13.57A2.41,2.41,0,0,1,70,212.26l-5.25,3c-.62.36-1.13.1-1.13-.57A2.45,2.45,0,0,1,64.77,212.82Z"/><path class="cls-10" d="M64.77,212.82l5.25-3c.63-.36,1.13-.11,1.13.57A2.41,2.41,0,0,1,70,212.26l-5.25,3c-.62.36-1.13.1-1.13-.57A2.45,2.45,0,0,1,64.77,212.82Z"/><path class="cls-2" d="M64.77,227.94l5.25-3c.63-.36,1.13-.1,1.13.58A2.41,2.41,0,0,1,70,227.38l-5.25,3c-.62.37-1.13.11-1.13-.57A2.43,2.43,0,0,1,64.77,227.94Z"/><path class="cls-10" d="M64.77,227.94l5.25-3c.63-.36,1.13-.1,1.13.58A2.41,2.41,0,0,1,70,227.38l-5.25,3c-.62.37-1.13.11-1.13-.57A2.43,2.43,0,0,1,64.77,227.94Z"/><path class="cls-2" d="M64.77,235,70,232c.63-.36,1.13-.1,1.13.58A2.42,2.42,0,0,1,70,234.41l-5.25,3c-.62.37-1.13.11-1.13-.57A2.43,2.43,0,0,1,64.77,235Z"/><path class="cls-10" d="M64.77,235,70,232c.63-.36,1.13-.1,1.13.58A2.42,2.42,0,0,1,70,234.41l-5.25,3c-.62.37-1.13.11-1.13-.57A2.43,2.43,0,0,1,64.77,235Z"/><path class="cls-2" d="M64.77,242,70,239c.63-.36,1.13-.1,1.13.58A2.42,2.42,0,0,1,70,241.44l-5.25,3c-.62.37-1.13.11-1.13-.57A2.43,2.43,0,0,1,64.77,242Z"/><path class="cls-10" d="M64.77,242,70,239c.63-.36,1.13-.1,1.13.58A2.42,2.42,0,0,1,70,241.44l-5.25,3c-.62.37-1.13.11-1.13-.57A2.43,2.43,0,0,1,64.77,242Z"/><path class="cls-2" d="M64.77,257.59l5.25-3c.63-.36,1.13-.1,1.13.57A2.42,2.42,0,0,1,70,257l-5.25,3c-.62.36-1.13.11-1.13-.57A2.43,2.43,0,0,1,64.77,257.59Z"/><path class="cls-10" d="M64.77,257.59l5.25-3c.63-.36,1.13-.1,1.13.57A2.42,2.42,0,0,1,70,257l-5.25,3c-.62.36-1.13.11-1.13-.57A2.43,2.43,0,0,1,64.77,257.59Z"/><path class="cls-12" d="M76.34,251,197,181.32c.63-.36,1.13-.11,1.13.57a2.41,2.41,0,0,1-1.13,1.88L76.34,253.5c-.62.36-1.13.1-1.13-.58A2.45,2.45,0,0,1,76.34,251Z"/><path class="cls-2" d="M76.91,296.66,109.31,278c.62-.36,1.13-.1,1.13.57a2.45,2.45,0,0,1-1.13,1.89l-32.4,18.69c-.63.36-1.13.1-1.13-.57A2.44,2.44,0,0,1,76.91,296.66Z"/><path class="cls-2" d="M64.77,303.6l5.25-3c.63-.36,1.13-.11,1.13.57A2.41,2.41,0,0,1,70,303l-5.25,3c-.62.36-1.13.1-1.13-.58A2.45,2.45,0,0,1,64.77,303.6Z"/><path class="cls-10" d="M64.77,303.6l5.25-3c.63-.36,1.13-.11,1.13.57A2.41,2.41,0,0,1,70,303l-5.25,3c-.62.36-1.13.1-1.13-.58A2.45,2.45,0,0,1,64.77,303.6Z"/><path class="cls-2" d="M64.77,310l5.25-3c.63-.36,1.13-.1,1.13.58A2.42,2.42,0,0,1,70,309.4l-5.25,3c-.62.37-1.13.11-1.13-.57A2.43,2.43,0,0,1,64.77,310Z"/><path class="cls-10" d="M64.77,310l5.25-3c.63-.36,1.13-.1,1.13.58A2.42,2.42,0,0,1,70,309.4l-5.25,3c-.62.37-1.13.11-1.13-.57A2.43,2.43,0,0,1,64.77,310Z"/><path class="cls-12" d="M76.87,302.74l119.59-69c.63-.36,1.14-.1,1.14.58a2.43,2.43,0,0,1-1.14,1.88l-119.59,69c-.63.36-1.14.1-1.14-.57A2.44,2.44,0,0,1,76.87,302.74Z"/><path class="cls-2" d="M76.54,266,197,196.66c.63-.36,1.14-.1,1.14.57a2.44,2.44,0,0,1-1.14,1.89L76.54,268.45c-.62.36-1.13.11-1.13-.57A2.47,2.47,0,0,1,76.54,266Z"/><path class="cls-2" d="M64.77,272.7l5.25-3c.63-.37,1.13-.11,1.13.57A2.41,2.41,0,0,1,70,272.14l-5.25,3c-.62.36-1.13.1-1.13-.58A2.43,2.43,0,0,1,64.77,272.7Z"/><path class="cls-10" d="M64.77,272.7l5.25-3c.63-.37,1.13-.11,1.13.57A2.41,2.41,0,0,1,70,272.14l-5.25,3c-.62.36-1.13.1-1.13-.58A2.43,2.43,0,0,1,64.77,272.7Z"/><path class="cls-2" d="M76.54,272.94,197,203.6c.63-.36,1.14-.1,1.14.58a2.42,2.42,0,0,1-1.14,1.88L76.54,275.39c-.62.37-1.13.11-1.13-.57A2.43,2.43,0,0,1,76.54,272.94Z"/><path class="cls-2" d="M64.77,279.73l5.25-3c.63-.37,1.13-.11,1.13.57A2.41,2.41,0,0,1,70,279.17l-5.25,3c-.62.36-1.13.1-1.13-.58A2.43,2.43,0,0,1,64.77,279.73Z"/><path class="cls-10" d="M64.77,279.73l5.25-3c.63-.37,1.13-.11,1.13.57A2.41,2.41,0,0,1,70,279.17l-5.25,3c-.62.36-1.13.1-1.13-.58A2.43,2.43,0,0,1,64.77,279.73Z"/><path class="cls-13" d="M76.54,280,197,210.66c.63-.36,1.14-.1,1.14.58a2.43,2.43,0,0,1-1.14,1.88L76.54,282.45c-.62.36-1.13.11-1.13-.57A2.43,2.43,0,0,1,76.54,280Z"/><path class="cls-2" d="M64.77,286.76l5.25-3c.63-.36,1.13-.1,1.13.58A2.41,2.41,0,0,1,70,286.2l-5.25,3c-.62.36-1.13.1-1.13-.58A2.43,2.43,0,0,1,64.77,286.76Z"/><path class="cls-10" d="M64.77,286.76l5.25-3c.63-.36,1.13-.1,1.13.58A2.41,2.41,0,0,1,70,286.2l-5.25,3c-.62.36-1.13.1-1.13-.58A2.43,2.43,0,0,1,64.77,286.76Z"/></g></svg>