<svg id="Code_Box" data-name="Code Box" xmlns="http://www.w3.org/2000/svg" viewBox="0 0 500 500"><defs><style>.cls-1{fill:#f0f0f0;}.cls-2{fill:#fafafa;}.cls-3{fill:#e0e0e0;}.cls-4{fill:#e6e6e6;}</style></defs><title>Mesa de trabajo 1</title><g id="Code_Box-2" data-name="Code Box"><path class="cls-1" d="M144.2,435.08l44.69,25.82a6.46,6.46,0,0,0,5.81,0l142.31-82a6.41,6.41,0,0,0,2.9-5v-2.09a6.47,6.47,0,0,0-2.92-5L292.18,341a6.46,6.46,0,0,0-5.81,0l-142.2,82a6.41,6.41,0,0,0-2.9,5V430A6.46,6.46,0,0,0,144.2,435.08Z"/><path class="cls-2" d="M286.55,340.85c2.21-1.28,4.52-.54,6.74.75l42.56,24.49c2.22,1.27,2.22,3.35,0,4.63L195.76,451.47h0a8,8,0,0,1-8,0L145.16,427a2.68,2.68,0,0,1,0-4.64h0Z"/><path class="cls-3" d="M145.14,425.45a1.56,1.56,0,0,1,.58-2.13l141.39-81.5c1.5-.87,3.23-.64,5.62.74l42.57,24.49a2.58,2.58,0,0,1,1,.87c.5.87-.51,1.57-1,1.83L195.2,450.5a6.86,6.86,0,0,1-6.87,0L145.72,426a1.51,1.51,0,0,1-.58-.57m-1,.56a2.63,2.63,0,0,0,1,1l42.61,24.48a8,8,0,0,0,8,0l140.09-80.75c1.58-.91,2-2.22,1.37-3.36a3.62,3.62,0,0,0-1.37-1.27L293.29,341.6c-2.22-1.29-4.53-2-6.74-.75l-141.39,81.5a2.67,2.67,0,0,0-1,3.66Z"/><path class="cls-4" d="M144.17,422.92l1-.57a2.68,2.68,0,0,0,0,4.64l42.61,24.48a7.79,7.79,0,0,0,4,1.07h.1v9.06a6,6,0,0,1-3-.7l-44.7-25.81a6.49,6.49,0,0,1-2.92-5V428A6.37,6.37,0,0,1,144.17,422.92Z"/><path class="cls-3" d="M185.78,427.18,201,425.5l5.56,3.21-29.36,3.41,5.87-17,5.6,3.24Z"/><path class="cls-3" d="M217.56,408.9l-15.28,1.71-5.57-3.21L226.08,404l-5.87,17-5.61-3.24Z"/><path class="cls-3" d="M230,387.57l58.77-33.93a4.66,4.66,0,0,1,4.21-.07c1.14.66,1.08,1.74-.11,2.43l-58.81,33.91a4.62,4.62,0,0,1-4.19.08C228.76,389.34,228.82,388.26,230,387.57Z"/><path class="cls-3" d="M240.2,393.43,299,359.5a4.69,4.69,0,0,1,4.22-.07c1.13.66,1.08,1.75-.12,2.43l-58.8,33.91a4.64,4.64,0,0,1-4.2.08C238.94,395.2,239,394.12,240.2,393.43Z"/><path class="cls-3" d="M250.37,399.29l58.77-33.93a4.66,4.66,0,0,1,4.21-.07c1.14.66,1.08,1.75-.11,2.44l-58.81,33.9a4.62,4.62,0,0,1-4.19.08C249.11,401.06,249.17,400,250.37,399.29Z"/></g></svg>