<svg xmlns="http://www.w3.org/2000/svg" viewBox="0 0 500 500"><defs><style>.cls-1{fill:#fafafa;}.cls-2{fill:#e0e0e0;}</style></defs><title>Mesa de trabajo 1</title><g id="Floor"><ellipse id="Floor-2" data-name="Floor" class="cls-1" cx="250" cy="352.31" rx="235.03" ry="135.7"/></g><g id="Shadows"><path id="Shadow" class="cls-2" d="M187.9,465.64l-51.62-29.79c-2.47-1.43-2.47-3.74,0-5.16l146.39-84.53a9.89,9.89,0,0,1,8.93,0L343.23,376c2.46,1.42,2.46,3.73,0,5.15l-146.4,84.53A9.83,9.83,0,0,1,187.9,465.64Z"/><path id="Shadow-2" data-name="Shadow" class="cls-2" d="M71.9,433.61,28.15,408.36c-2.46-1.43-2.46-3.74,0-5.16L306.86,242.4a9.86,9.86,0,0,1,8.93,0l43.75,25.26c2.46,1.42,2.46,3.73,0,5.16L80.83,433.61A9.83,9.83,0,0,1,71.9,433.61Z"/><path id="Shadow-3" data-name="Shadow" class="cls-2" d="M379.24,358c-23.84,13.76-23.84,36.07,0,49.83s62.48,13.77,86.32,0,23.84-36.07,0-49.83S403.07,344.22,379.24,358Z"/></g></svg>