<svg id="Gears" xmlns="http://www.w3.org/2000/svg" viewBox="0 0 500 500"><defs><style>.cls-1{fill:#ba68c8;}.cls-2,.cls-4,.cls-5{fill:#fff;}.cls-2{opacity:0.2;}.cls-3{opacity:0.1;}.cls-4{opacity:0.7;}.cls-5{stroke:#fff;stroke-miterlimit:10;stroke-width:0.69px;opacity:0.55;}</style></defs><title>Mesa de trabajo 1</title><g id="Gears-2" data-name="Gears"><path class="cls-1" d="M103.14,51.4h0l-5.28-3h0a.57.57,0,0,0-.54,0L93.72,50a1.49,1.49,0,0,1,.11-.87L98,40.74a.94.94,0,0,0-.37-1.22l-4.51-2.6h0l-5.25-3a.93.93,0,0,0-1.24.29L81.41,42a1.6,1.6,0,0,1-.69.52l-.39-4a.58.58,0,0,0-.27-.47h0l-5.28-3h0a.59.59,0,0,0-.57.05l-7,4a1.9,1.9,0,0,0-.83,1.31l-.7,7.8a2.65,2.65,0,0,1-.73,1.45A41.46,41.46,0,0,0,61,53.83a1.35,1.35,0,0,1-1.37.39l-4.5-1.58a1.13,1.13,0,0,0-1.27.47L48.75,62A1.1,1.1,0,0,0,49,63.37l3.61,3.11a1.35,1.35,0,0,1,.35,1.39,41,41,0,0,0-1.62,5.43,2.68,2.68,0,0,1-.9,1.36L44,79.16a1.89,1.89,0,0,0-.72,1.38v8.1a.6.6,0,0,0,.25.52h0l5.27,3h0a.57.57,0,0,0,.54,0L53,90.55a1.56,1.56,0,0,1-.11.87L48.7,99.81a1,1,0,0,0,.37,1.22l6.34,3.64h0l3.43,2a1,1,0,0,0,1.25-.29l5.18-7.8a1.57,1.57,0,0,1,.68-.52l.4,4a.56.56,0,0,0,.27.48h0l5.27,3h0a.56.56,0,0,0,.57,0l7-4a1.88,1.88,0,0,0,.84-1.31l.7-7.79a2.55,2.55,0,0,1,.73-1.46,42.37,42.37,0,0,0,3.89-4.12A1.35,1.35,0,0,1,87,86.34l4.5,1.57a1.09,1.09,0,0,0,1.26-.47l5.15-8.92a1.08,1.08,0,0,0-.22-1.33L94.1,74.08a1.34,1.34,0,0,1-.35-1.39,41.87,41.87,0,0,0,1.62-5.43,2.55,2.55,0,0,1,.9-1.36l6.4-4.51a1.89,1.89,0,0,0,.72-1.38V51.92A.58.58,0,0,0,103.14,51.4Zm-39,27.22c0-7.55,5.3-16.73,11.84-20.5,2.56-1.48,4.92-1.91,6.86-1.43A10.84,10.84,0,0,1,84.37,63c0,7.56-5.3,16.74-11.84,20.51C70,85,67.8,85.43,66.1,85A9.65,9.65,0,0,1,64.14,78.62Z"/><path class="cls-2" d="M103.14,51.4h0l-5.28-3h0a.57.57,0,0,0-.54,0L93.72,50a1.49,1.49,0,0,1,.11-.87L98,40.74a.94.94,0,0,0-.37-1.22l-4.51-2.6h0l-5.25-3a.93.93,0,0,0-1.24.29L81.41,42a1.6,1.6,0,0,1-.69.52l-.39-4a.58.58,0,0,0-.27-.47h0l-5.28-3h0a.59.59,0,0,0-.57.05l-7,4a1.9,1.9,0,0,0-.83,1.31l-.7,7.8a2.65,2.65,0,0,1-.73,1.45A41.46,41.46,0,0,0,61,53.83a1.35,1.35,0,0,1-1.37.39l-4.5-1.58a1.13,1.13,0,0,0-1.27.47L48.75,62A1.1,1.1,0,0,0,49,63.37l3.61,3.11a1.35,1.35,0,0,1,.35,1.39,41,41,0,0,0-1.62,5.43,2.68,2.68,0,0,1-.9,1.36L44,79.16a1.89,1.89,0,0,0-.72,1.38v8.1a.6.6,0,0,0,.25.52h0l5.27,3h0a.57.57,0,0,0,.54,0L53,90.55a1.56,1.56,0,0,1-.11.87L48.7,99.81a1,1,0,0,0,.37,1.22l6.34,3.64h0l3.43,2a1,1,0,0,0,1.25-.29l5.18-7.8a1.57,1.57,0,0,1,.68-.52l.4,4a.56.56,0,0,0,.27.48h0l5.27,3h0a.56.56,0,0,0,.57,0l7-4a1.88,1.88,0,0,0,.84-1.31l.7-7.79a2.55,2.55,0,0,1,.73-1.46,42.37,42.37,0,0,0,3.89-4.12A1.35,1.35,0,0,1,87,86.34l4.5,1.57a1.09,1.09,0,0,0,1.26-.47l5.15-8.92a1.08,1.08,0,0,0-.22-1.33L94.1,74.08a1.34,1.34,0,0,1-.35-1.39,41.87,41.87,0,0,0,1.62-5.43,2.55,2.55,0,0,1,.9-1.36l6.4-4.51a1.89,1.89,0,0,0,.72-1.38V51.92A.58.58,0,0,0,103.14,51.4Zm-39,27.22c0-7.55,5.3-16.73,11.84-20.5,2.56-1.48,4.92-1.91,6.86-1.43A10.84,10.84,0,0,1,84.37,63c0,7.56-5.3,16.74-11.84,20.51C70,85,67.8,85.43,66.1,85A9.65,9.65,0,0,1,64.14,78.62Z"/><path class="cls-3" d="M56.65,89.84a.74.74,0,0,0-1-.48L53,90.54a1.51,1.51,0,0,1-.12.88L48.7,99.81a1,1,0,0,0,.37,1.22l6.34,3.64-1.07-.62a.94.94,0,0,1-.37-1.22l4.16-8.38A1.74,1.74,0,0,0,58,92.94,14,14,0,0,1,56.65,89.84Zm15.19,15.64a.68.68,0,0,1-.21-.45l-.69-6.81a.74.74,0,0,0-.93-.66,14.36,14.36,0,0,1-3.38.34,1.66,1.66,0,0,0-.67.15l.4,4a.56.56,0,0,0,.27.48h0Z"/><path class="cls-3" d="M87.82,65c0,7.55-5.3,16.74-11.84,20.51-4.13,2.39-7.77,2-9.89-.44,1.7.41,3.88-.07,6.44-1.55,6.54-3.77,11.84-13,11.84-20.51a10.79,10.79,0,0,0-1.53-6.27C85.86,57.42,87.82,60.36,87.82,65Z"/><path class="cls-1" d="M87.83,33.89a.94.94,0,0,0-1.24.3L81.41,42a1.59,1.59,0,0,1-.35.33l5.28,3a1.22,1.22,0,0,0,.34-.34l5.18-7.79A1,1,0,0,1,93,36.86Zm10,14.47h0a.62.62,0,0,0-.55,0L93.71,50a1.8,1.8,0,0,0,.21.63,13.91,13.91,0,0,1,1.34,2.94.88.88,0,0,1,0,.15.89.89,0,0,0,.19.33l.09.08a.78.78,0,0,0,.2.11.73.73,0,0,0,.39,0l.17-.05,6.24-2.82.16,0a.38.38,0,0,1,.21,0,.48.48,0,0,1,.18.06h0ZM74.78,35a.57.57,0,0,0-.57.06l-7,4a1.86,1.86,0,0,0-.7.85l5.26,3a1.8,1.8,0,0,1,.71-.84l7-4.05a.6.6,0,0,1,.54-.07ZM50.91,74.13a2.29,2.29,0,0,1-.49.53L44,79.16a1.87,1.87,0,0,0-.43.49l5.26,3a1.46,1.46,0,0,1,.44-.48l6.4-4.51a2.5,2.5,0,0,0,.5-.52ZM54.8,52.59a1.13,1.13,0,0,0-.9.53L48.75,62a1.12,1.12,0,0,0-.12.65l5.27,3a1.09,1.09,0,0,1,.12-.66l5.16-8.92a1,1,0,0,1,.83-.52Z"/><path class="cls-4" d="M87.83,33.89a.94.94,0,0,0-1.24.3L81.41,42a1.59,1.59,0,0,1-.35.33l5.28,3a1.22,1.22,0,0,0,.34-.34l5.18-7.79A1,1,0,0,1,93,36.86Zm10,14.47h0a.62.62,0,0,0-.55,0L93.71,50a1.8,1.8,0,0,0,.21.63,13.91,13.91,0,0,1,1.34,2.94.88.88,0,0,1,0,.15.89.89,0,0,0,.19.33l.09.08a.78.78,0,0,0,.2.11.73.73,0,0,0,.39,0l.17-.05,6.24-2.82.16,0a.38.38,0,0,1,.21,0,.48.48,0,0,1,.18.06h0ZM74.78,35a.57.57,0,0,0-.57.06l-7,4a1.86,1.86,0,0,0-.7.85l5.26,3a1.8,1.8,0,0,1,.71-.84l7-4.05a.6.6,0,0,1,.54-.07ZM50.91,74.13a2.29,2.29,0,0,1-.49.53L44,79.16a1.87,1.87,0,0,0-.43.49l5.26,3a1.46,1.46,0,0,1,.44-.48l6.4-4.51a2.5,2.5,0,0,0,.5-.52ZM54.8,52.59a1.13,1.13,0,0,0-.9.53L48.75,62a1.12,1.12,0,0,0-.12.65l5.27,3a1.09,1.09,0,0,1,.12-.66l5.16-8.92a1,1,0,0,1,.83-.52Z"/><path class="cls-1" d="M103.39,60V51.92a.52.52,0,0,0-.8-.52l-6.24,2.81a.74.74,0,0,1-1-.48,14.08,14.08,0,0,0-1.39-3.09,1.71,1.71,0,0,1-.09-1.51L98,40.74a.94.94,0,0,0-.37-1.22l-4.51-2.6a1,1,0,0,0-1.24.29L86.68,45a1.76,1.76,0,0,1-1.36.68A13.77,13.77,0,0,0,82,46a.75.75,0,0,1-.94-.66l-.68-6.81a.53.53,0,0,0-.85-.43l-7,4a1.92,1.92,0,0,0-.83,1.31l-.7,7.8a2.71,2.71,0,0,1-.73,1.46,41.34,41.34,0,0,0-3.9,4.12,1.33,1.33,0,0,1-1.37.39l-4.5-1.57a1.11,1.11,0,0,0-1.27.47L54,65.06a1.1,1.1,0,0,0,.23,1.33l3.61,3.11a1.36,1.36,0,0,1,.35,1.39,41,41,0,0,0-1.62,5.43,2.68,2.68,0,0,1-.9,1.36l-6.4,4.51a1.87,1.87,0,0,0-.72,1.38v8.09a.52.52,0,0,0,.8.51l6.24-2.81a.74.74,0,0,1,1,.48A14,14,0,0,0,58,92.94a1.71,1.71,0,0,1,.09,1.51L54,102.83a1,1,0,0,0,.37,1.22l4.51,2.61a1,1,0,0,0,1.25-.29l5.18-7.8a1.73,1.73,0,0,1,1.36-.67A13.77,13.77,0,0,0,70,97.56a.73.73,0,0,1,.93.66l.69,6.81a.52.52,0,0,0,.84.43l7-4a1.88,1.88,0,0,0,.84-1.31l.7-7.79a2.55,2.55,0,0,1,.73-1.46,42.37,42.37,0,0,0,3.89-4.12A1.35,1.35,0,0,1,87,86.34l4.5,1.57a1.09,1.09,0,0,0,1.26-.47l5.15-8.92a1.08,1.08,0,0,0-.22-1.33L94.1,74.08a1.34,1.34,0,0,1-.35-1.39,41.87,41.87,0,0,0,1.62-5.43,2.55,2.55,0,0,1,.9-1.36l6.4-4.51A1.89,1.89,0,0,0,103.39,60ZM76,85.46c-6.54,3.78-11.84.72-11.84-6.84S69.44,61.89,76,58.12,87.82,57.4,87.82,65,82.52,81.69,76,85.46Z"/><path class="cls-5" d="M103.39,60V51.92a.52.52,0,0,0-.8-.52l-6.24,2.81a.74.74,0,0,1-1-.48,14.08,14.08,0,0,0-1.39-3.09,1.71,1.71,0,0,1-.09-1.51L98,40.74a.94.94,0,0,0-.37-1.22l-4.51-2.6a1,1,0,0,0-1.24.29L86.68,45a1.76,1.76,0,0,1-1.36.68A13.77,13.77,0,0,0,82,46a.75.75,0,0,1-.94-.66l-.68-6.81a.53.53,0,0,0-.85-.43l-7,4a1.92,1.92,0,0,0-.83,1.31l-.7,7.8a2.71,2.71,0,0,1-.73,1.46,41.34,41.34,0,0,0-3.9,4.12,1.33,1.33,0,0,1-1.37.39l-4.5-1.57a1.11,1.11,0,0,0-1.27.47L54,65.06a1.1,1.1,0,0,0,.23,1.33l3.61,3.11a1.36,1.36,0,0,1,.35,1.39,41,41,0,0,0-1.62,5.43,2.68,2.68,0,0,1-.9,1.36l-6.4,4.51a1.87,1.87,0,0,0-.72,1.38v8.09a.52.52,0,0,0,.8.51l6.24-2.81a.74.74,0,0,1,1,.48A14,14,0,0,0,58,92.94a1.71,1.71,0,0,1,.09,1.51L54,102.83a1,1,0,0,0,.37,1.22l4.51,2.61a1,1,0,0,0,1.25-.29l5.18-7.8a1.73,1.73,0,0,1,1.36-.67A13.77,13.77,0,0,0,70,97.56a.73.73,0,0,1,.93.66l.69,6.81a.52.52,0,0,0,.84.43l7-4a1.88,1.88,0,0,0,.84-1.31l.7-7.79a2.55,2.55,0,0,1,.73-1.46,42.37,42.37,0,0,0,3.89-4.12A1.35,1.35,0,0,1,87,86.34l4.5,1.57a1.09,1.09,0,0,0,1.26-.47l5.15-8.92a1.08,1.08,0,0,0-.22-1.33L94.1,74.08a1.34,1.34,0,0,1-.35-1.39,41.87,41.87,0,0,0,1.62-5.43,2.55,2.55,0,0,1,.9-1.36l6.4-4.51A1.89,1.89,0,0,0,103.39,60ZM76,85.46c-6.54,3.78-11.84.72-11.84-6.84S69.44,61.89,76,58.12,87.82,57.4,87.82,65,82.52,81.69,76,85.46Z"/></g></svg>