<svg id="Gears" xmlns="http://www.w3.org/2000/svg" viewBox="0 0 500 500"><defs><style>.cls-1{fill:#ba68c8;}.cls-2,.cls-4,.cls-5{fill:#fff;}.cls-2{opacity:0.2;}.cls-3{opacity:0.1;}.cls-4{opacity:0.7;}.cls-5{stroke:#fff;stroke-miterlimit:10;stroke-width:0.77px;opacity:0.55;}</style></defs><title>Mesa de trabajo 1</title><g id="Gears-2" data-name="Gears"><path class="cls-1" d="M142.06,49.56a3.06,3.06,0,0,1,.8-1.64l3.31-3a2,2,0,0,0,.56-1.63l-.63-3.61a.67.67,0,0,0-.31-.5h0l-3.91-2.26h0a.61.61,0,0,0-.69.06l-1.42.93,1.37-3.71a.81.81,0,0,0-.38-1h0l-3.92-2.26h0a.76.76,0,0,0-.26-.11l-2.49-.56a1.36,1.36,0,0,0-1.41.66l-2.34,4.46a2.32,2.32,0,0,1-.94.86l-.1-.35a.76.76,0,0,0-.32-.44h0l-3.93-2.27h0a.64.64,0,0,0-.74.11l-3.73,2.93a2.11,2.11,0,0,0-.71,1.58l.23,3.55a2.87,2.87,0,0,1-.58,1.72,26.17,26.17,0,0,0-1.74,2.3,2,2,0,0,1-1.52.77l-2.4-.12a1.52,1.52,0,0,0-1.37.84l-2.26,5.06a1,1,0,0,0,.39,1.22h0l2.65,1.53a1.17,1.17,0,0,1,.07.69,21.38,21.38,0,0,0-.42,2.41,3,3,0,0,1-.81,1.64l-3.3,3a2,2,0,0,0-.56,1.63l.62,3.61a.69.69,0,0,0,.3.49h0l3.94,2.28h0a.62.62,0,0,0,.68-.07l1.42-.93-1.38,3.71a.82.82,0,0,0,.33,1h0l3.94,2.27h0a.88.88,0,0,0,.28.12l2.49.56a1.34,1.34,0,0,0,1.41-.66L124.64,72a2.35,2.35,0,0,1,.93-.86l.11.36a.7.7,0,0,0,.32.43h0l3.9,2.25h0l0,0h0a.64.64,0,0,0,.71-.11l3.74-2.94a2.06,2.06,0,0,0,.7-1.58L134.88,66a2.81,2.81,0,0,1,.58-1.72c.61-.73,1.19-1.5,1.74-2.29a1.89,1.89,0,0,1,1.51-.77l2.4.11a1.54,1.54,0,0,0,1.38-.84l2.26-5.06a1,1,0,0,0-.51-1.28l-1.93-.82a1.21,1.21,0,0,1-.67-1.34A21,21,0,0,0,142.06,49.56Zm-19.92,11c-.73-4.25,2-10.27,6-13.45a8.14,8.14,0,0,1,4.25-1.89,6.54,6.54,0,0,1,.47,1.56c.73,4.25-2,10.27-6,13.45a8.19,8.19,0,0,1-4.24,1.89A6.08,6.08,0,0,1,122.14,60.53Z"/><path class="cls-2" d="M142.06,49.56a3.06,3.06,0,0,1,.8-1.64l3.31-3a2,2,0,0,0,.56-1.63l-.63-3.61a.67.67,0,0,0-.31-.5h0l-3.91-2.26h0a.61.61,0,0,0-.69.06l-1.42.93,1.37-3.71a.81.81,0,0,0-.38-1h0l-3.92-2.26h0a.76.76,0,0,0-.26-.11l-2.49-.56a1.36,1.36,0,0,0-1.41.66l-2.34,4.46a2.32,2.32,0,0,1-.94.86l-.1-.35a.76.76,0,0,0-.32-.44h0l-3.93-2.27h0a.64.64,0,0,0-.74.11l-3.73,2.93a2.11,2.11,0,0,0-.71,1.58l.23,3.55a2.87,2.87,0,0,1-.58,1.72,26.17,26.17,0,0,0-1.74,2.3,2,2,0,0,1-1.52.77l-2.4-.12a1.52,1.52,0,0,0-1.37.84l-2.26,5.06a1,1,0,0,0,.39,1.22h0l2.65,1.53a1.17,1.17,0,0,1,.07.69,21.38,21.38,0,0,0-.42,2.41,3,3,0,0,1-.81,1.64l-3.3,3a2,2,0,0,0-.56,1.63l.62,3.61a.69.69,0,0,0,.3.49h0l3.94,2.28h0a.62.62,0,0,0,.68-.07l1.42-.93-1.38,3.71a.82.82,0,0,0,.33,1h0l3.94,2.27h0a.88.88,0,0,0,.28.12l2.49.56a1.34,1.34,0,0,0,1.41-.66L124.64,72a2.35,2.35,0,0,1,.93-.86l.11.36a.7.7,0,0,0,.32.43h0l3.9,2.25h0l0,0h0a.64.64,0,0,0,.71-.11l3.74-2.94a2.06,2.06,0,0,0,.7-1.58L134.88,66a2.81,2.81,0,0,1,.58-1.72c.61-.73,1.19-1.5,1.74-2.29a1.89,1.89,0,0,1,1.51-.77l2.4.11a1.54,1.54,0,0,0,1.38-.84l2.26-5.06a1,1,0,0,0-.51-1.28l-1.93-.82a1.21,1.21,0,0,1-.67-1.34A21,21,0,0,0,142.06,49.56Zm-19.92,11c-.73-4.25,2-10.27,6-13.45a8.14,8.14,0,0,1,4.25-1.89,6.54,6.54,0,0,1,.47,1.56c.73,4.25-2,10.27-6,13.45a8.19,8.19,0,0,1-4.24,1.89A6.08,6.08,0,0,1,122.14,60.53Z"/><path class="cls-3" d="M118.44,68.46a1,1,0,0,0-1.33-.3l-1.89,1.24-1.37,3.71a.84.84,0,0,0,.33,1l3.89,2.24a.82.82,0,0,1-.29-1l1.69-4.56a1.66,1.66,0,0,0-.39-1.57A7.11,7.11,0,0,1,118.44,68.46Zm11.48,5.69a.75.75,0,0,1-.31-.44l-.84-2.79a.85.85,0,0,0-1.18-.54,12.47,12.47,0,0,1-1.53.51,1.69,1.69,0,0,0-.49.2l.11.36a.74.74,0,0,0,.32.43h0Z"/><path class="cls-3" d="M130.79,62.47c-3.49,2.74-6.85,2.48-8.17-.38a8.19,8.19,0,0,0,4.24-1.89c4-3.18,6.73-9.2,6-13.45a6.24,6.24,0,0,0-.47-1.56c2.22-.19,3.94,1.14,4.4,3.82C137.52,53.27,134.83,59.28,130.79,62.47Z"/><path class="cls-1" d="M117,45.94a1.57,1.57,0,0,1-.68.14L113.88,46a1.45,1.45,0,0,0-1,.36l3.93,2.27a1.56,1.56,0,0,1,1-.37l2.41.12a1.55,1.55,0,0,0,.68-.13Zm8.1-12.81a.64.64,0,0,0-.73.1l-3.74,2.94a2,2,0,0,0-.62,1l3.93,2.26a2.07,2.07,0,0,1,.62-1l3.73-2.92a.62.62,0,0,1,.74-.1h0Zm-13,26.27-3.26,3a1.92,1.92,0,0,0-.51.94l3.92,2.26a1.93,1.93,0,0,1,.52-.93l3.26-3Zm24.77-28.52a.76.76,0,0,0-.26-.11l-2.49-.56a1.36,1.36,0,0,0-1.41.66l-2.34,4.46a2.15,2.15,0,0,1-.54.6l3.93,2.26a1.76,1.76,0,0,0,.53-.6l2.35-4.46a1.33,1.33,0,0,1,1.41-.65l2.49.56a1.06,1.06,0,0,1,.25.09Zm5,6h0a.64.64,0,0,0-.68.07l-1.42.94-.32.84a1.67,1.67,0,0,0,.4,1.58,6.19,6.19,0,0,1,.64.78,1.54,1.54,0,0,0,.17.19l.14.11a.91.91,0,0,0,.33.13.82.82,0,0,0,.44,0,.58.58,0,0,0,.24-.11l3.31-2.17a1.79,1.79,0,0,1,.24-.12.54.54,0,0,1,.28,0l.16,0Z"/><path class="cls-4" d="M117,45.94a1.57,1.57,0,0,1-.68.14L113.88,46a1.45,1.45,0,0,0-1,.36l3.93,2.27a1.56,1.56,0,0,1,1-.37l2.41.12a1.55,1.55,0,0,0,.68-.13Zm8.1-12.81a.64.64,0,0,0-.73.1l-3.74,2.94a2,2,0,0,0-.62,1l3.93,2.26a2.07,2.07,0,0,1,.62-1l3.73-2.92a.62.62,0,0,1,.74-.1h0Zm-13,26.27-3.26,3a1.92,1.92,0,0,0-.51.94l3.92,2.26a1.93,1.93,0,0,1,.52-.93l3.26-3Zm24.77-28.52a.76.76,0,0,0-.26-.11l-2.49-.56a1.36,1.36,0,0,0-1.41.66l-2.34,4.46a2.15,2.15,0,0,1-.54.6l3.93,2.26a1.76,1.76,0,0,0,.53-.6l2.35-4.46a1.33,1.33,0,0,1,1.41-.65l2.49.56a1.06,1.06,0,0,1,.25.09Zm5,6h0a.64.64,0,0,0-.68.07l-1.42.94-.32.84a1.67,1.67,0,0,0,.4,1.58,6.19,6.19,0,0,1,.64.78,1.54,1.54,0,0,0,.17.19l.14.11a.91.91,0,0,0,.33.13.82.82,0,0,0,.44,0,.58.58,0,0,0,.24-.11l3.31-2.17a1.79,1.79,0,0,1,.24-.12.54.54,0,0,1,.28,0l.16,0Z"/><path class="cls-1" d="M146.73,43.25l-.63-3.61a.59.59,0,0,0-1-.42l-3.3,2.17a1,1,0,0,1-1.33-.3,7.11,7.11,0,0,0-.64-.79,1.61,1.61,0,0,1-.39-1.57l1.68-4.56a.82.82,0,0,0-.61-1.13L138,32.48a1.34,1.34,0,0,0-1.41.66l-2.35,4.46a2.43,2.43,0,0,1-1.41,1.06,12.47,12.47,0,0,0-1.53.51.85.85,0,0,1-1.18-.54l-.84-2.79a.63.63,0,0,0-1.06-.34l-3.73,2.94a2.11,2.11,0,0,0-.71,1.58l.22,3.55a2.77,2.77,0,0,1-.58,1.72c-.61.73-1.19,1.5-1.73,2.29a1.9,1.9,0,0,1-1.52.77l-2.4-.12a1.55,1.55,0,0,0-1.37.85l-2.26,5.06a1,1,0,0,0,.5,1.28l1.94.82a1.21,1.21,0,0,1,.67,1.34,21,21,0,0,0-.42,2.41,3,3,0,0,1-.81,1.64l-3.31,3a2,2,0,0,0-.55,1.63l.62,3.61a.59.59,0,0,0,1,.42l3.3-2.17a1,1,0,0,1,1.33.3,7.11,7.11,0,0,0,.64.79,1.63,1.63,0,0,1,.39,1.57l-1.69,4.56a.84.84,0,0,0,.62,1.13l2.49.56a1.34,1.34,0,0,0,1.41-.66L124.64,72a2.42,2.42,0,0,1,1.42-1.06,12.47,12.47,0,0,0,1.53-.51.85.85,0,0,1,1.18.54l.84,2.79a.62.62,0,0,0,1,.34l3.74-2.94a2.06,2.06,0,0,0,.7-1.58L134.88,66a2.87,2.87,0,0,1,.58-1.72c.61-.73,1.19-1.5,1.74-2.29a1.89,1.89,0,0,1,1.51-.77l2.4.11a1.54,1.54,0,0,0,1.38-.84l2.26-5.06a1,1,0,0,0-.51-1.28l-1.93-.82a1.21,1.21,0,0,1-.67-1.34,21,21,0,0,0,.42-2.41,3.06,3.06,0,0,1,.8-1.64l3.31-3A2,2,0,0,0,146.73,43.25ZM130.79,62.47c-4,3.18-7.92,2.31-8.65-1.94s2-10.27,6-13.45,7.92-2.31,8.65,1.94S134.83,59.29,130.79,62.47Z"/><path class="cls-5" d="M146.73,43.25l-.63-3.61a.59.59,0,0,0-1-.42l-3.3,2.17a1,1,0,0,1-1.33-.3,7.11,7.11,0,0,0-.64-.79,1.61,1.61,0,0,1-.39-1.57l1.68-4.56a.82.82,0,0,0-.61-1.13L138,32.48a1.34,1.34,0,0,0-1.41.66l-2.35,4.46a2.43,2.43,0,0,1-1.41,1.06,12.47,12.47,0,0,0-1.53.51.85.85,0,0,1-1.18-.54l-.84-2.79a.63.63,0,0,0-1.06-.34l-3.73,2.94a2.11,2.11,0,0,0-.71,1.58l.22,3.55a2.77,2.77,0,0,1-.58,1.72c-.61.73-1.19,1.5-1.73,2.29a1.9,1.9,0,0,1-1.52.77l-2.4-.12a1.55,1.55,0,0,0-1.37.85l-2.26,5.06a1,1,0,0,0,.5,1.28l1.94.82a1.21,1.21,0,0,1,.67,1.34,21,21,0,0,0-.42,2.41,3,3,0,0,1-.81,1.64l-3.31,3a2,2,0,0,0-.55,1.63l.62,3.61a.59.59,0,0,0,1,.42l3.3-2.17a1,1,0,0,1,1.33.3,7.11,7.11,0,0,0,.64.79,1.63,1.63,0,0,1,.39,1.57l-1.69,4.56a.84.84,0,0,0,.62,1.13l2.49.56a1.34,1.34,0,0,0,1.41-.66L124.64,72a2.42,2.42,0,0,1,1.42-1.06,12.47,12.47,0,0,0,1.53-.51.85.85,0,0,1,1.18.54l.84,2.79a.62.62,0,0,0,1,.34l3.74-2.94a2.06,2.06,0,0,0,.7-1.58L134.88,66a2.87,2.87,0,0,1,.58-1.72c.61-.73,1.19-1.5,1.74-2.29a1.89,1.89,0,0,1,1.51-.77l2.4.11a1.54,1.54,0,0,0,1.38-.84l2.26-5.06a1,1,0,0,0-.51-1.28l-1.93-.82a1.21,1.21,0,0,1-.67-1.34,21,21,0,0,0,.42-2.41,3.06,3.06,0,0,1,.8-1.64l3.31-3A2,2,0,0,0,146.73,43.25ZM130.79,62.47c-4,3.18-7.92,2.31-8.65-1.94s2-10.27,6-13.45,7.92-2.31,8.65,1.94S134.83,59.29,130.79,62.47Z"/></g></svg>