<svg id="Plants" xmlns="http://www.w3.org/2000/svg" viewBox="0 0 500 500"><defs><style>.cls-1{fill:#ba68c8;}.cls-2,.cls-3,.cls-4{fill:#fff;}.cls-2{opacity:0.25;}.cls-4{opacity:0.65;}</style></defs><title>Mesa de trabajo 1</title><g id="Plants-2" data-name="Plants"><path class="cls-1" d="M71,420.61c.41-15.47,3-31-4.54-53.07C60.07,349,48.13,333.72,33.14,331.2c-6.22-1.05-10.88,0-13.93,4.18-5.36,7.39.72,16.42,7.63,22,3,2.44,28.37,18.75,32.78,50l1.54,17.71,1.11-.49Z"/><path class="cls-2" d="M71,420.61c.41-15.47,3-31-4.54-53.07C60.07,349,48.13,333.72,33.14,331.2c-6.22-1.05-10.88,0-13.93,4.18-5.36,7.39.72,16.42,7.63,22,3,2.44,28.37,18.75,32.78,50l1.54,17.71,1.11-.49Z"/><path class="cls-3" d="M66.61,414.9a.68.68,0,0,1-.52-.64C64.84,376.61,52.83,353,27.91,341.82a.66.66,0,0,1-.26-.93.7.7,0,0,1,.93-.26c25.21,10.78,37.61,35.44,38.87,73.59a.67.67,0,0,1-.66.7A.55.55,0,0,1,66.61,414.9Z"/><path class="cls-1" d="M55.86,427.6c-.58-5.44-2.86-11.89-12.57-24.82-8.39-11.16-22.45-18.28-24.7-24.94-2.7-8,4.12-14.45,15.72-11.8,13.95,3.17,26.37,25.55,28.54,58.27Z"/><path class="cls-4" d="M55.86,427.6c-.58-5.44-2.86-11.89-12.57-24.82-8.39-11.16-22.45-18.28-24.7-24.94-2.7-8,4.12-14.45,15.72-11.8,13.95,3.17,26.37,25.55,28.54,58.27Z"/><path class="cls-3" d="M59.64,423.23a.7.7,0,0,1-.51-.55c-5-28.63-21.38-45.65-30.7-48.54a.69.69,0,1,1,.41-1.31c10.3,3.2,26.57,20.39,31.64,49.62a.67.67,0,0,1-.55.79A.7.7,0,0,1,59.64,423.23Z"/></g></svg>