<svg id="Speech_Bubble" data-name="Speech Bubble" xmlns="http://www.w3.org/2000/svg" viewBox="0 0 500 500"><defs><style>.cls-1,.cls-4{fill:#ba68c8;}.cls-2,.cls-3,.cls-5{fill:#fff;}.cls-2{opacity:0.2;}.cls-3{opacity:0.5;}.cls-4{opacity:0.4;}</style></defs><title>Mesa de trabajo 1</title><g id="Speech_Bubble-2" data-name="Speech Bubble"><path class="cls-1" d="M422.27,89.45l3.33-6.26-2.68-7.73V70.72l8.2,4.74v4.73l-3.53,6.1a.51.51,0,0,1-.24.22h0Z"/><path class="cls-2" d="M422.27,89.45l3.33-6.26-2.68-7.73V70.72l8.2,4.74v4.73l-3.53,6.1a.51.51,0,0,1-.24.22h0Z"/><path class="cls-1" d="M402.69,33.09a5.42,5.42,0,0,1,2.46-4.25l2-1.16a5.46,5.46,0,0,1,4.92,0l30.69,17.75a5.44,5.44,0,0,1,2.46,4.26V83.46a5.44,5.44,0,0,1-2.46,4.26l-2,1.15a5.4,5.4,0,0,1-4.92,0L426,83.17l-3.52,6.09a.52.52,0,0,1-.95-.09l-3.71-10.73-12.64-7.32a5.42,5.42,0,0,1-2.46-4.26Z"/><path class="cls-3" d="M402.69,33.09a5.42,5.42,0,0,1,2.46-4.25l2-1.16a5.46,5.46,0,0,1,4.92,0l30.69,17.75a5.44,5.44,0,0,1,2.46,4.26V83.46a5.44,5.44,0,0,1-2.46,4.26l-2,1.15a5.4,5.4,0,0,1-4.92,0L426,83.17l-3.52,6.09a.52.52,0,0,1-.95-.09l-3.71-10.73-12.64-7.32a5.42,5.42,0,0,1-2.46-4.26Z"/><path class="cls-4" d="M445.22,83.46a5.44,5.44,0,0,1-2.46,4.26l-2,1.15a5.51,5.51,0,0,1-4.5.2c1.16.44,2-.21,2-1.62V53.68a5.08,5.08,0,0,0-.72-2.42l6.92-4a5.08,5.08,0,0,1,.72,2.42Z"/><path class="cls-3" d="M402.77,32.4c.29-1,1.24-1.38,2.38-.73l30.69,17.76a4.78,4.78,0,0,1,1.73,1.83l6.92-4a5,5,0,0,0-1.73-1.83L412.07,27.68a5.46,5.46,0,0,0-4.92,0l-2,1.16A5.44,5.44,0,0,0,402.77,32.4Z"/><g id="_" data-name="&lt;/&gt;"><path class="cls-5" d="M433.79,68a.91.91,0,0,1-.13.56.81.81,0,0,1-.36.24l-6.67,3.08h-.11l-.07,0a.63.63,0,0,1-.25-.3,1,1,0,0,1-.1-.45V68.18c0-.34.06-.56.19-.64a1.44,1.44,0,0,1,.34-.16l3.44-1.58-3.44-5.25a5.7,5.7,0,0,1-.34-.57,1.75,1.75,0,0,1-.19-.87V55a.41.41,0,0,1,.1-.32c.06-.07.15-.07.25,0l.07.05a.81.81,0,0,1,.11.13l6.67,10.79a4,4,0,0,1,.36.65,1.86,1.86,0,0,1,.13.7Z"/><path class="cls-5" d="M424.83,74.28a1.38,1.38,0,0,1,0,.25.42.42,0,0,1-.11.34.18.18,0,0,1-.25,0l-2.19-1.26a1.21,1.21,0,0,1-.5-.55,3,3,0,0,1-.23-.65l-5.64-24a.85.85,0,0,1,0-.25.46.46,0,0,1,.11-.34.21.21,0,0,1,.26,0l2.24,1.29a1.23,1.23,0,0,1,.48.53,3.94,3.94,0,0,1,.25.67Z"/><path class="cls-5" d="M407,53.09a.93.93,0,0,1,.12-.56,1,1,0,0,1,.36-.24l6.68-3.08h.1a.2.2,0,0,1,.08,0,.61.61,0,0,1,.25.29,1,1,0,0,1,.1.45v4.16c0,.34-.06.56-.19.65a1.78,1.78,0,0,1-.34.17l-2.92,1.11,2.92,4.51c.09.15.21.33.34.56a1.71,1.71,0,0,1,.19.86v4.16a.45.45,0,0,1-.1.33.21.21,0,0,1-.25,0l-.08-.06-.1-.13-6.68-10.79a6.48,6.48,0,0,1-.36-.65,1.83,1.83,0,0,1-.12-.7Z"/></g></g></svg>