<svg id="Window" xmlns="http://www.w3.org/2000/svg" viewBox="0 0 500 500"><defs><style>.cls-1{fill:#f0f0f0;}.cls-2{fill:#e0e0e0;}.cls-3{fill:#37474f;}.cls-4{fill:#455a64;}.cls-5{fill:#263238;}.cls-6{fill:#fafafa;}.cls-7{fill:#ba68c8;}.cls-8,.cls-9{fill:none;stroke:#e0e0e0;stroke-width:0.97px;}.cls-8{stroke-miterlimit:10;}.cls-9{stroke-linecap:round;stroke-linejoin:round;}</style></defs><title>Mesa de trabajo 1</title><g id="Window-2" data-name="Window"><g id="Window-3" data-name="Window"><path class="cls-1" d="M76.85,426.91a1.86,1.86,0,0,1-.45-.06,1,1,0,0,1-.23-.07l-.19-.11-.15-.11a2.38,2.38,0,0,1-1.33-2.13V193.72a9.11,9.11,0,0,1,4.16-7.2L333.44,39.73c8.53-4.92,12.26-6.83,13.29-6.83A.46.46,0,0,1,347,33a1.19,1.19,0,0,1,.26.15.84.84,0,0,1,.19.19l.06.08.07.05.07.12,0,.08,0,0a1.33,1.33,0,0,1,.18.38,1.25,1.25,0,0,0,.06.18l0,.06.09.28a1.3,1.3,0,0,1,0,.26,3.79,3.79,0,0,1,0,.49V266.09a9.17,9.17,0,0,1-4.16,7.2L82.39,424,78,426.58a2.34,2.34,0,0,1-1.08.33Z"/><path class="cls-2" d="M346.69,33.58h0l.07,0,0,0,.08.06.12.16h0v0l.1.16a.34.34,0,0,1,.06.12l0,.05.13.39v0l0,.06,0,0a.57.57,0,0,1,0,.12c0,.14,0,.29,0,.44V266.09a8.57,8.57,0,0,1-3.82,6.61L82.05,423.43l-4.17,2.41h0l-.12.08-.08.05a1.68,1.68,0,0,1-.75.25h-.07a1.51,1.51,0,0,1-.28-.05h-.06l-.12-.07-.12-.08,0,0-.06,0,0,0a1.66,1.66,0,0,1-.9-1.49v-1.12h0V193.72A8.52,8.52,0,0,1,79,187.11L333.78,40.32c3.17-1.82,11.54-6.65,12.91-6.74m0-1.37c-1,0-3.54,1.11-13.63,6.93L78.32,185.93a9.88,9.88,0,0,0-4.51,7.79V423.4s0,0,0,0v1a3.05,3.05,0,0,0,1.62,2.7l.19.13.23.13a1.79,1.79,0,0,0,.39.13,2.24,2.24,0,0,0,.57.08h.07a2.93,2.93,0,0,0,1.42-.43l.12-.07h0l4.29-2.48,261.5-150.73a10,10,0,0,0,4.5-7.8V35.31c0-.19,0-.38,0-.56a1.86,1.86,0,0,0-.08-.41s0-.06,0-.09a1.56,1.56,0,0,0-.11-.4,1.73,1.73,0,0,0-.26-.57.75.75,0,0,0-.15-.24.51.51,0,0,0-.13-.16,1.42,1.42,0,0,0-.3-.3l0,0a2.36,2.36,0,0,0-.38-.22,1.14,1.14,0,0,0-.52-.12Z"/><path class="cls-3" d="M347.25,32.33a3.3,3.3,0,0,0-3,.39L132.87,154.45,78.32,185.93a5.72,5.72,0,0,0-.91.63,8,8,0,0,0-1.23,1.23,10.28,10.28,0,0,0-1,1.48L69.44,186a10.68,10.68,0,0,1,1.38-1.86l.42-.41a7.17,7.17,0,0,1,1.32-1l54.61-31.52L338.48,29.47a3.11,3.11,0,0,1,3.26-.26C342.56,29.69,346.29,31.83,347.25,32.33Z"/><path class="cls-4" d="M348.72,35.28c0-2.84-2.23-3.85-4.5-2.56L78.32,185.93a10.05,10.05,0,0,0-4.5,7.78V207L348.72,48.47Z"/><path class="cls-4" d="M73.81,193.72V423.4s0,0,0,0v1a3.05,3.05,0,0,0,1.62,2.7l.19.13.23.13a1.79,1.79,0,0,0,.39.13,2.24,2.24,0,0,0,.57.08,3,3,0,0,0,1.49-.43l.12-.07h0l4.29-2.48,50.06-28.9V154.49h0L78.31,185.92A10,10,0,0,0,73.81,193.72Z"/><path class="cls-5" d="M75.39,427.1s0,0,0,0a.65.65,0,0,1-.15-.1,3,3,0,0,1-1.4-2.55V214.15h0V193.72a9.1,9.1,0,0,1,1.34-4.45L69.44,186a9.12,9.12,0,0,0-1.37,4.51V420.13a4.87,4.87,0,0,0,0,.66,4.75,4.75,0,0,0,2.35,3.48L75.2,427l.23.13Z"/><path class="cls-3" d="M132.79,154.49,78.32,185.93a5.44,5.44,0,0,0-.91.63,9.54,9.54,0,0,0-2.26,2.71L69.43,186a10.81,10.81,0,0,1,1.39-1.87l.41-.41a6.18,6.18,0,0,1,1.33-1l54.55-31.48Z"/></g><path class="cls-2" d="M322.6,52.64a.4.4,0,0,1-.32-.18.36.36,0,0,1,.14-.5l5.95-3.44a.37.37,0,1,1,.36.64l-6,3.43A.37.37,0,0,1,322.6,52.64Z"/><path class="cls-2" d="M322.6,55.25a.37.37,0,0,1-.32-.18.36.36,0,0,1,.14-.5l5.95-3.43a.36.36,0,0,1,.5.13.37.37,0,0,1-.14.5l-6,3.43A.29.29,0,0,1,322.6,55.25Z"/><path class="cls-2" d="M322.6,57.86a.37.37,0,0,1-.32-.18.37.37,0,0,1,.14-.5l5.95-3.43a.37.37,0,0,1,.5.13.36.36,0,0,1-.14.5l-6,3.43A.29.29,0,0,1,322.6,57.86Z"/><path class="cls-2" d="M344.07,45.51a.42.42,0,0,1-.3-.12l-3.44-3.31a.44.44,0,0,1,.6-.63l3.44,3.31a.44.44,0,0,1,0,.62A.46.46,0,0,1,344.07,45.51Z"/><path class="cls-2" d="M340.63,47.5a.45.45,0,0,1-.19,0,.42.42,0,0,1-.2-.57l3.44-7.29a.43.43,0,0,1,.57-.21.44.44,0,0,1,.21.58L341,47.25A.44.44,0,0,1,340.63,47.5Z"/><path class="cls-2" d="M334.49,44.89A5.59,5.59,0,0,0,332,49.28c0,1.61,1.13,2.27,2.53,1.46A5.6,5.6,0,0,0,337,46.35C337,44.74,335.89,44.08,334.49,44.89Zm-.12.89c.42-.24.76,0,.76.44a1.66,1.66,0,0,1-.76,1.31c-.42.25-.76,0-.76-.43A1.67,1.67,0,0,1,334.37,45.78Zm1.49,3a3.2,3.2,0,0,1-1.46,1.59c-1.16.69-1.46.09-1.46.09v-.21a2.75,2.75,0,0,1,1.25-2.16l.43-.25c.68-.4,1.24,0,1.24.75Z"/><path class="cls-2" d="M83.18,224.38l-.05,0s-.09-.06-.09-.14c0-.7-.24-.92-.7-.67-.07,0-.13,0-.13-.14a1.07,1.07,0,0,0-.17-.72c-.11-.1-.28-.09-.52.05h0a.09.09,0,0,1-.1,0,.17.17,0,0,1,0-.13,1.07,1.07,0,0,0-.17-.72c-.11-.1-.29-.08-.52,0h0a.08.08,0,0,1-.13,0,.41.41,0,0,1,0-.26l3.2-6.76c.06-.12.15-.17.2-.12l2.49,2.4a.18.18,0,0,1,0,.13.39.39,0,0,1,0,.18l-3.2,6.76A.32.32,0,0,1,83.18,224.38Zm-.7-1.29c.43-.17.7,0,.8.56l2.91-6.13-2.3-2.21L81,221.42a.42.42,0,0,1,.42.1,1.13,1.13,0,0,1,.24.76.5.5,0,0,1,.59,0A1.14,1.14,0,0,1,82.48,223.09Z"/><path class="cls-2" d="M79.75,227.81a.08.08,0,0,1-.1,0s-.05-.1,0-.19l.94-5.82c0-.13.1-.24.17-.25s.12.08.1.21L80,227.17,83.14,224c.08-.07.15,0,.17.05a.4.4,0,0,1-.09.32l-3.44,3.43Z"/><polygon class="cls-2" points="79.75 227.59 80.68 226.5 80.11 225.95 79.75 227.59"/><path class="cls-2" d="M82.86,222.49a.06.06,0,0,1-.09,0c-.06,0-.06-.18,0-.3l2.69-5.67c.05-.12.14-.17.19-.12a.28.28,0,0,1,0,.31L83,222.37A.25.25,0,0,1,82.86,222.49Z"/><path class="cls-2" d="M82,221.69a.08.08,0,0,1-.1,0,.31.31,0,0,1,0-.3l2.7-5.67c.05-.12.14-.17.19-.12a.28.28,0,0,1,0,.31l-2.69,5.67A.25.25,0,0,1,82,221.69Z"/><path class="cls-2" d="M84.92,244l-3.71,2.15c-.7.4-1.27-.15-1.27-1.22v-5.72a3.36,3.36,0,0,1,1.27-2.68l3.71-2.14c.7-.4,1.27.14,1.27,1.22v5.71A3.33,3.33,0,0,1,84.92,244Zm-3.71-7a2.52,2.52,0,0,0-.95,2v5.72c0,.81.42,1.22.95.92l3.71-2.15a2.51,2.51,0,0,0,1-2v-5.71c0-.81-.43-1.22-1-.92Z"/><path class="cls-2" d="M84.92,234.58l-3.71,2.14a3,3,0,0,0-1.11,2.36v1.53L86,237.18v-1.53C86,234.71,85.54,234.23,84.92,234.58Zm-.38,2.06a.61.61,0,0,1-.21.46l-2.52,1.45c-.12.07-.22,0-.22-.21v-.43a.58.58,0,0,1,.22-.46L84.33,236c.11-.07.21,0,.21.21Z"/><path class="cls-2" d="M81.23,242h0c-.2.11-.36,0-.36-.28v-.14a.85.85,0,0,1,.36-.69h0c.2-.12.36,0,.36.27v.15A.88.88,0,0,1,81.23,242Z"/><path class="cls-2" d="M83.07,241h0c-.2.11-.36,0-.36-.27v-.15a.85.85,0,0,1,.36-.69h0c.2-.12.36,0,.36.27v.15A.88.88,0,0,1,83.07,241Z"/><path class="cls-2" d="M84.9,239.92h0c-.2.11-.36,0-.36-.27v-.15a.86.86,0,0,1,.36-.69h0c.2-.11.36,0,.36.27v.15A.86.86,0,0,1,84.9,239.92Z"/><path class="cls-2" d="M81.23,244.28h0c-.2.12-.36,0-.36-.27v-.15a.84.84,0,0,1,.36-.68h0c.2-.12.36,0,.36.27v.15A.84.84,0,0,1,81.23,244.28Z"/><path class="cls-2" d="M83.07,243.23h0c-.2.11-.36,0-.36-.28v-.14a.85.85,0,0,1,.36-.69h0c.2-.12.36,0,.36.27v.15A.88.88,0,0,1,83.07,243.23Z"/><path class="cls-2" d="M84.9,242.17h0c-.2.11-.36,0-.36-.27v-.15a.85.85,0,0,1,.36-.69h0c.2-.12.36,0,.36.27v.15A.88.88,0,0,1,84.9,242.17Z"/><path class="cls-2" d="M82.56,263a.25.25,0,0,1-.32,0l-1.83-1.76a.94.94,0,0,1,0-1c.18-.37.46-.54.64-.37l1.48,1.43,2.68-6.48c.16-.39.45-.59.64-.46s.22.56.06.95l-3,7.24a1,1,0,0,1-.33.44Z"/><path class="cls-2" d="M83.38,359.66A7.91,7.91,0,0,0,80.07,366c0,2.44,1.48,3.56,3.31,2.5a7.92,7.92,0,0,0,3.3-6.31C86.68,359.73,85.2,358.61,83.38,359.66Zm.59,6.92a.49.49,0,0,1,0,.2.42.42,0,0,1-.12.14l-.83.47a.11.11,0,0,1-.12,0s0-.07,0-.14v-.88a.34.34,0,0,1,0-.19A.31.31,0,0,1,83,366l.83-.47a.09.09,0,0,1,.12,0,.16.16,0,0,1,0,.13Zm1.12-4.25a3.16,3.16,0,0,1-.2.54c-.08.18-.17.34-.26.5l-.28.46a4.92,4.92,0,0,0-.24.45,1.53,1.53,0,0,0-.15.44.76.76,0,0,1-.06.2.26.26,0,0,1-.12.13l-.79.46a.12.12,0,0,1-.13,0,.2.2,0,0,1,0-.14,1.77,1.77,0,0,1,.09-.56,3.21,3.21,0,0,1,.22-.54,4.16,4.16,0,0,1,.28-.51c.1-.17.2-.32.28-.47a2.82,2.82,0,0,0,.22-.42.87.87,0,0,0,.09-.37c0-.17,0-.27-.14-.31a.54.54,0,0,0-.45.11,1.28,1.28,0,0,0-.42.36,2,2,0,0,0-.18.36l-.11.32a.33.33,0,0,1-.16.22l-.8.46a.09.09,0,0,1-.1,0,.12.12,0,0,1,0-.11,2.29,2.29,0,0,1,.13-.72,4.13,4.13,0,0,1,.35-.82,4.87,4.87,0,0,1,.57-.8,3.23,3.23,0,0,1,.76-.62,2,2,0,0,1,.69-.26,1,1,0,0,1,.57.05.73.73,0,0,1,.37.35,1.28,1.28,0,0,1,.14.63A2.35,2.35,0,0,1,85.09,362.33Z"/><g id="Gear"><path class="cls-2" d="M86.55,382.85l-.68,0c-.05,0-.08-.07-.08-.15a3.44,3.44,0,0,0,0-.56.37.37,0,0,1,0-.24l.67-.95a.25.25,0,0,0,0-.21l-.34-.72c0-.07-.09-.09-.13-.05l-.75.79a.1.1,0,0,1-.14,0,1.09,1.09,0,0,0-.33-.19.16.16,0,0,1-.07-.17l.17-1.08c0-.07,0-.13-.07-.12l-.79.09a.19.19,0,0,0-.12.14l-.33,1.12a.3.3,0,0,1-.12.16,2.6,2.6,0,0,0-.5.34.11.11,0,0,1-.15-.05l-.36-.56c0-.06-.1-.07-.14,0l-.78,1a.25.25,0,0,0,0,.21l.24.74a.35.35,0,0,1,0,.23,7.5,7.5,0,0,0-.33.7.36.36,0,0,1-.13.14l-.76.2a.29.29,0,0,0-.11.16l-.27,1.21c0,.08,0,.14.06.14l.68,0a.15.15,0,0,1,.08.15,3.54,3.54,0,0,0,0,.57.4.4,0,0,1,0,.23l-.67,1a.22.22,0,0,0,0,.21l.34.72c0,.07.08.09.12.05l.75-.79a.11.11,0,0,1,.15,0,1.09,1.09,0,0,0,.33.19.14.14,0,0,1,.06.17l-.16,1.07c0,.08,0,.14.06.13l.8-.09a.22.22,0,0,0,.12-.14l.33-1.12a.26.26,0,0,1,.12-.16,3.69,3.69,0,0,0,.5-.34.11.11,0,0,1,.14,0l.37.57c0,.06.1.07.13,0l.79-1a.24.24,0,0,0,0-.22l-.23-.73a.36.36,0,0,1,0-.23,5.66,5.66,0,0,0,.34-.7.23.23,0,0,1,.13-.14l.75-.21a.18.18,0,0,0,.11-.15l.28-1.22C86.62,382.91,86.6,382.85,86.55,382.85Zm-1.87.95c-.25,1.11-1,2.08-1.76,2.17s-1.11-.75-.86-1.86,1-2.07,1.76-2.16S84.93,382.69,84.68,383.8Z"/></g><path class="cls-2" d="M86.33,397.08a.45.45,0,0,0-.45,0l-3.09,1.79a.45.45,0,0,0-.23.39v1.81l.44-.25v-1.58l3.1-1.77v5.63L83,404.87v-1.46l-.44.25v1.21a.46.46,0,0,0,.45.45.46.46,0,0,0,.23-.06l3.09-1.78a.44.44,0,0,0,.22-.39v-5.62A.44.44,0,0,0,86.33,397.08Z"/><path class="cls-2" d="M83.31,401.2l-1.26.73c-.07,0-.13,0-.13-.08V401c0-.09,0-.1-.08,0l-1.74,2.7a.12.12,0,0,0,.06.19l1.62.67a.1.1,0,0,0,.14-.1v-.83a.32.32,0,0,1,.13-.24l1.26-.72a.3.3,0,0,0,.14-.24v-1.14C83.45,401.19,83.39,401.16,83.31,401.2Z"/><path class="cls-3" d="M76.54,205.36a.38.38,0,0,1-.31-.18.36.36,0,0,1,.13-.49l50.7-29.27a.36.36,0,1,1,.36.62l-50.7,29.27A.41.41,0,0,1,76.54,205.36Z"/><path class="cls-3" d="M76.54,234.43a.36.36,0,0,1-.18-.67l50.7-29.27a.36.36,0,0,1,.49.13.37.37,0,0,1-.13.5l-50.7,29.27A.39.39,0,0,1,76.54,234.43Z"/><path class="cls-3" d="M76.54,253.76a.36.36,0,0,1-.18-.67l50.7-29.27a.36.36,0,0,1,.36.62l-50.7,29.27A.31.31,0,0,1,76.54,253.76Z"/><path class="cls-3" d="M76.54,273.09a.38.38,0,0,1-.31-.18.36.36,0,0,1,.13-.49l50.7-29.27a.36.36,0,0,1,.36.62L76.72,273A.41.41,0,0,1,76.54,273.09Z"/><path class="cls-3" d="M76.54,292.42a.38.38,0,0,1-.31-.18.36.36,0,0,1,.13-.49l50.7-29.27a.35.35,0,0,1,.49.13.36.36,0,0,1-.13.49l-50.7,29.27A.41.41,0,0,1,76.54,292.42Z"/><path class="cls-3" d="M76.54,311.75a.38.38,0,0,1-.31-.18.37.37,0,0,1,.13-.5l50.7-29.27a.36.36,0,0,1,.49.13.37.37,0,0,1-.13.5L76.72,311.7A.41.41,0,0,1,76.54,311.75Z"/><path class="cls-3" d="M76.54,377.39a.36.36,0,0,1-.18-.67l50.7-29.27a.36.36,0,0,1,.49.13.37.37,0,0,1-.13.5l-50.7,29.27A.39.39,0,0,1,76.54,377.39Z"/><path class="cls-3" d="M76.54,397.41a.38.38,0,0,1-.31-.18.37.37,0,0,1,.13-.5l50.7-29.27a.35.35,0,0,1,.49.14.36.36,0,0,1-.13.49l-50.7,29.27A.41.41,0,0,1,76.54,397.41Z"/><polygon class="cls-2" points="85.14 190.09 85.14 188.17 84.36 188.62 84.36 189.61 83.14 188.85 80.01 194.42 81.15 193.76 81.15 197.95 82.52 197.16 82.52 194.6 83.77 193.88 83.77 196.44 85.13 195.65 85.13 191.47 86.28 190.81 85.14 190.09"/><path class="cls-2" d="M83,278.87l-3-1.58,6.25-3.6-3,5C83.21,278.84,83.08,278.92,83,278.87Z"/><path class="cls-2" d="M83.34,279.69l2.93-5.79v6L80,283.48v-6L83,279.91C83.06,280,83.23,279.9,83.34,279.69Z"/><path class="cls-2" d="M84.48,296l-.17.1L86,292.62l-.2-.12c-.43-.27-1.08.16-1.46.94l-1.55,3.2a2,2,0,0,0-.14.39l-.16.09-.35.2a2.9,2.9,0,0,0,.16-.9c0-1-.59-1.41-1.31-1a3.15,3.15,0,0,0-1.31,2.5c0,1,.59,1.4,1.31,1l.15-.11,1.42-.82a1,1,0,0,0,.06.25c-.36.72-.73,1.49-1.07,2.18h0a3.25,3.25,0,0,0-.38,1.43c0,1,.59,1.41,1.31,1a3.15,3.15,0,0,0,1.31-2.5c0-.82-.43-1.26-1-1.11l.27-.56h0l.15-.31a.77.77,0,0,0,.31-.09l2.32-1.34a2.49,2.49,0,0,0,1-2v-.37Zm-4.08,1.54a1.34,1.34,0,0,1,.56-1.06c.31-.17.55,0,.55.42a1.3,1.3,0,0,1-.55,1.06C80.65,298.09,80.4,297.9,80.4,297.49ZM83,300.78a1.34,1.34,0,0,1-.56,1.06c-.3.17-.55,0-.55-.42a1.33,1.33,0,0,1,.55-1.06C82.77,300.18,83,300.37,83,300.78Z"/><path class="cls-4" d="M141.64,181.09l-.51,2.35-.66.38,1.67-7.49.76-.44,1.67,5.56-.67.39-.53-1.75Zm1.6-1.58-.48-1.61c-.11-.36-.18-.71-.25-1h0q-.11.65-.24,1.32l-.48,2.17Z"/><path class="cls-4" d="M148.22,172.46v5.67c0,.42,0,.89,0,1.2l-.57.33,0-.8h0a2.79,2.79,0,0,1-1.2,1.61c-.85.49-1.5-.09-1.5-1.51a4,4,0,0,1,1.57-3.43c.54-.31.91-.18,1.07.1h0v-2.8Zm-.64,4.47a2,2,0,0,0,0-.34c-.09-.49-.44-.73-.92-.45a2.82,2.82,0,0,0-1.06,2.42c0,.95.35,1.53,1,1.13a2.24,2.24,0,0,0,.94-1.56,2.43,2.43,0,0,0,0-.38Z"/><path class="cls-4" d="M152.32,170.1v5.67c0,.41,0,.88,0,1.19l-.58.33,0-.79h0a2.91,2.91,0,0,1-1.2,1.61c-.85.49-1.5-.09-1.5-1.52a4.07,4.07,0,0,1,1.57-3.43c.54-.31.9-.18,1.07.11h0v-2.8Zm-.64,4.47a2,2,0,0,0,0-.35c-.09-.48-.44-.73-.92-.45a2.82,2.82,0,0,0-1.06,2.42c0,.95.35,1.53,1,1.13a2.25,2.25,0,0,0,.94-1.55,2.47,2.47,0,0,0,0-.39Z"/><path class="cls-4" d="M154.94,175.46v-6.53l.69-.4,1.57,2.4a10,10,0,0,1,.88,1.62l0,0c-.06-.84-.08-1.63-.08-2.64v-2.74l.6-.34v6.53l-.64.37-1.56-2.42a11.51,11.51,0,0,1-.91-1.65l0,0c0,.81,0,1.58,0,2.67v2.79Z"/><path class="cls-4" d="M160.06,170.32c0,1.14.57,1.3,1.2.93a3.63,3.63,0,0,0,1-.8l.11.55a4.62,4.62,0,0,1-1.17,1c-1.09.63-1.73,0-1.73-1.36a4.1,4.1,0,0,1,1.65-3.49c1.15-.66,1.45.51,1.45,1.37a3.81,3.81,0,0,1,0,.41Zm1.87-1.69c0-.55-.16-1.29-.88-.88a2.61,2.61,0,0,0-1,2Z"/><path class="cls-4" d="M163.6,165.78l.46,2.11c.1.47.2.9.26,1.34h0c.08-.52.2-1.09.32-1.66l.57-2.73.54-.31.54,2c.14.49.24.92.32,1.35h0c.06-.51.15-1.06.27-1.68l.5-2.64.63-.36-1.13,5.34-.58.34L165.8,167a10.84,10.84,0,0,1-.31-1.36h0c-.09.62-.19,1.17-.32,1.74l-.57,2.56-.58.33-1.06-4.07Z"/><path class="cls-4" d="M170.17,165.65a1.6,1.6,0,0,0,1.13-.23,2,2,0,0,0,1-1.71c0-.61-.26-.8-.92-.76s-1.29-.18-1.29-1.11a3.26,3.26,0,0,1,1.58-2.68,1.73,1.73,0,0,1,1.09-.31l-.18.79a1.37,1.37,0,0,0-.93.23,1.8,1.8,0,0,0-.92,1.51c0,.61.3.74,1,.7.83-.06,1.25.23,1.25,1.19a3.41,3.41,0,0,1-1.71,2.87,1.93,1.93,0,0,1-1.25.31Z"/><path class="cls-4" d="M173.81,161.15c0-.49,0-.88,0-1.25l.56-.33,0,.75h0a2.89,2.89,0,0,1,1.17-1.55c.48-.28,1.24-.33,1.24,1.28v2.8l-.64.37v-2.7c0-.76-.21-1.27-.82-.92a2.13,2.13,0,0,0-.85,1.37,1.79,1.79,0,0,0-.05.42v2.82l-.64.37Z"/><path class="cls-4" d="M178.56,155.82a.87.87,0,0,1-.41.76c-.22.13-.38,0-.38-.3a.9.9,0,0,1,.4-.76C178.41,155.38,178.56,155.52,178.56,155.82Zm-.71,6.42v-4.69l.64-.37v4.69Z"/><path class="cls-4" d="M179.55,158.1c0-.6,0-1.08,0-1.51l.57-.34,0,.79h0a3,3,0,0,1,1.25-1.63c.85-.49,1.49.1,1.49,1.52a4,4,0,0,1-1.6,3.45c-.47.26-.88.23-1.09-.11h0v2.55l-.63.37Zm.63.88a1.72,1.72,0,0,0,0,.34.6.6,0,0,0,1,.44,2.78,2.78,0,0,0,1.07-2.43c0-.94-.37-1.53-1.05-1.14a2.44,2.44,0,0,0-1,1.62,2.33,2.33,0,0,0,0,.37Z"/><path class="cls-4" d="M183.68,155.71c0-.6,0-1.07,0-1.51l.58-.33,0,.78h0a3,3,0,0,1,1.25-1.64c.85-.49,1.49.1,1.49,1.53a4,4,0,0,1-1.6,3.44c-.46.27-.87.23-1.08-.11h0v2.55l-.63.36Zm.63.89a3.11,3.11,0,0,0,0,.33.59.59,0,0,0,1,.44,2.76,2.76,0,0,0,1.07-2.43c0-.93-.37-1.53-1-1.14a2.43,2.43,0,0,0-1,1.62,2.52,2.52,0,0,0-.05.37Z"/><path class="cls-4" d="M188.17,154.09c0,1.14.57,1.3,1.21.93a3.41,3.41,0,0,0,1-.81l.11.55a4.26,4.26,0,0,1-1.17,1c-1.08.62-1.73.05-1.73-1.37a4.11,4.11,0,0,1,1.65-3.48c1.15-.66,1.46.51,1.46,1.37a3.32,3.32,0,0,1,0,.41Zm1.88-1.69c0-.55-.17-1.29-.89-.88a2.59,2.59,0,0,0-1,1.95Z"/><path class="cls-4" d="M192.23,147.9v1.35l.91-.53v.65l-.91.53v2.53c0,.58.12.84.48.63a3,3,0,0,0,.37-.27l0,.62a2.35,2.35,0,0,1-.57.44c-.3.18-.54.19-.69,0s-.25-.52-.25-1.07v-2.56l-.54.31v-.65l.54-.31v-1.13Z"/><path class="cls-4" d="M144.27,215.16a4.94,4.94,0,0,1-1.3,1.06c-1.38.8-2.42.23-2.42-1.91a5.74,5.74,0,0,1,2.56-4.9,2.09,2.09,0,0,1,1.16-.39l-.15.78a1.77,1.77,0,0,0-1,.3,4.29,4.29,0,0,0-1.91,3.8c0,1.6.69,2.22,1.89,1.54a4.4,4.4,0,0,0,1-.87Z"/><path class="cls-4" d="M148.14,210.76a4.06,4.06,0,0,1-1.75,3.5c-.95.55-1.69,0-1.69-1.44a4.07,4.07,0,0,1,1.75-3.5C147.46,208.74,148.14,209.32,148.14,210.76Zm-2.79,1.66c0,1,.44,1.54,1.07,1.18a2.93,2.93,0,0,0,1.07-2.44c0-.79-.3-1.63-1.06-1.19A2.89,2.89,0,0,0,145.35,212.42Z"/><path class="cls-4" d="M152,204v5.67c0,.41,0,.89,0,1.19l-.57.33,0-.79h0a2.91,2.91,0,0,1-1.2,1.61c-.85.49-1.51-.09-1.51-1.52a4.08,4.08,0,0,1,1.58-3.43c.54-.31.9-.18,1.06.11h0v-2.8Zm-.65,4.47a1.83,1.83,0,0,0,0-.34c-.1-.49-.45-.74-.93-.46a2.81,2.81,0,0,0-1,2.42c0,1,.35,1.53,1,1.14a2.3,2.3,0,0,0,.94-1.56,2.48,2.48,0,0,0,0-.39Z"/><path class="cls-4" d="M153.4,207.91c0,1.15.57,1.3,1.21.93a3.56,3.56,0,0,0,1-.8l.11.55a4.44,4.44,0,0,1-1.17,1c-1.08.63-1.73,0-1.73-1.36a4.1,4.1,0,0,1,1.65-3.48c1.15-.67,1.45.5,1.45,1.37,0,.17,0,.31,0,.41Zm1.88-1.69c0-.55-.17-1.29-.89-.87a2.57,2.57,0,0,0-1,2Z"/><path class="cls-6" d="M142.33,190.35,334.82,79.22c1.16-.67,2.11-.12,2.12,1.21l.07,8.73a4.58,4.58,0,0,1-2.08,3.63L142.33,204c-1.15.67-2.09.12-2.09-1.21V194A4.66,4.66,0,0,1,142.33,190.35Z"/><path class="cls-6" d="M142.33,226.74,334.82,115.61c1.16-.67,2.11-.12,2.12,1.21l.07,54.12a4.58,4.58,0,0,1-2.08,3.63l-192.6,111.2c-1.15.66-2.09.12-2.09-1.22V230.38A4.66,4.66,0,0,1,142.33,226.74Z"/><path class="cls-6" d="M142.33,304,334.82,192.84c1.16-.67,2.11-.13,2.12,1.21l.07,36a4.6,4.6,0,0,1-2.08,3.64L142.33,344.86c-1.15.67-2.09.13-2.09-1.21v-36A4.66,4.66,0,0,1,142.33,304Z"/><path class="cls-6" d="M142.33,354,334.82,242.83c1.16-.67,2.11-.13,2.12,1.21l.07,4.18a4.6,4.6,0,0,1-2.08,3.64L142.33,363.05c-1.15.67-2.09.13-2.09-1.21v-4.25A4.64,4.64,0,0,1,142.33,354Z"/><path class="cls-7" d="M142.33,372.14,175.56,353c1.15-.67,2.1-.12,2.11,1.21l.07,4.19a4.58,4.58,0,0,1-2.08,3.63l-33.33,19.25c-1.15.67-2.09.12-2.09-1.21v-4.25A4.64,4.64,0,0,1,142.33,372.14Z"/><path class="cls-2" d="M187.36,346.14,211,332.51c1.16-.67,2.1-.13,2.11,1.21l.07,4.18a4.61,4.61,0,0,1-2.07,3.64l-23.73,13.69c-1.16.67-2.1.13-2.1-1.21v-4.24A4.65,4.65,0,0,1,187.36,346.14Z"/><line class="cls-8" x1="148.01" y1="227.98" x2="148.01" y2="277.97"/><path class="cls-2" d="M146,290.48c0,1.26.88,1.77,2,1.14a4.37,4.37,0,0,0,2-3.42c0-1.27-.89-1.78-2-1.15A4.36,4.36,0,0,0,146,290.48Z"/><line class="cls-9" x1="155.88" y1="284.79" x2="191.3" y2="264.34"/><path class="cls-2" d="M197.19,260.8c0,1.26.89,1.77,2,1.14a4.39,4.39,0,0,0,2-3.43c0-1.26-.89-1.77-2-1.14A4.39,4.39,0,0,0,197.19,260.8Z"/><line class="cls-9" x1="207.04" y1="255.1" x2="242.46" y2="234.65"/><path class="cls-2" d="M248.36,231.11c0,1.27.88,1.78,2,1.15a4.38,4.38,0,0,0,2-3.43c0-1.26-.88-1.78-2-1.14A4.36,4.36,0,0,0,248.36,231.11Z"/><line class="cls-9" x1="258.21" y1="225.42" x2="293.63" y2="204.97"/><path class="cls-6" d="M319.34,188.14l15.48-8.94c1.16-.67,2.1-.19,2.1,1.06a4.5,4.5,0,0,1-2.1,3.49l-15.48,8.93c-1.16.67-2.1.2-2.1-1.06A4.5,4.5,0,0,1,319.34,188.14Z"/><path class="cls-2" d="M337,200.7v-6.65c0-1.34-1-1.88-2.12-1.21L142.33,304a4.66,4.66,0,0,0-2.09,3.63v6.67Z"/></g></svg>