<svg xmlns="http://www.w3.org/2000/svg" viewBox="0 0 106.21 96.2"><defs><style>.cls-1{fill:#263238;}.cls-2{fill:#e8505b;}</style></defs><title>Artboard 2</title><g id="Speech_Bubble" data-name="Speech Bubble"><path class="cls-1" d="M76.88,64.52s.11.26.3.79.47,1.3.83,2.31c.72,2,1.78,5,3.13,8.87l.07.18-.2,0L68.13,74.9l.13,0a33.45,33.45,0,0,1-15.41,6.73,31.37,31.37,0,0,1-4.79.41c-.82,0-1.65-.06-2.49-.09l-1.25-.06c-.42,0-.84-.12-1.26-.18a31.67,31.67,0,0,1-10.11-3,34.28,34.28,0,0,1-9.17-6.5A33.65,33.65,0,0,1,29.2,20.24,32.76,32.76,0,0,1,39,15.91l1.27-.32.63-.17.64-.09,2.56-.39c.85-.07,1.7-.09,2.54-.14a16.43,16.43,0,0,1,2.53,0c.83.07,1.67,0,2.48.19l2.43.37c.8.13,1.58.39,2.36.57l1.16.3c.38.12.75.27,1.12.41a33.16,33.16,0,0,1,8.18,4.17A33.45,33.45,0,0,1,81.06,46.26a31.62,31.62,0,0,1-.91,10.18A32.18,32.18,0,0,1,78,62.53c-.33.66-.59,1.16-.77,1.49s-.3.5-.3.5.07-.18.24-.52.43-.85.73-1.52A33.34,33.34,0,0,0,80,56.39a31.82,31.82,0,0,0,.82-10.12A33.21,33.21,0,0,0,66.6,21.19a32.48,32.48,0,0,0-8.08-4.1c-.37-.13-.73-.28-1.11-.4l-1.14-.29c-.77-.18-1.54-.43-2.33-.56l-2.4-.36c-.8-.15-1.63-.11-2.45-.18a18.65,18.65,0,0,0-2.48,0c-.83.05-1.67.08-2.51.15l-2.52.38-.63.1-.63.16-1.25.32a32.37,32.37,0,0,0-9.59,4.28,33.22,33.22,0,0,0-5.35,51.12,33.83,33.83,0,0,0,9,6.42,31.23,31.23,0,0,0,10,3c.41.06.82.15,1.24.18l1.24.07c.82,0,1.64.11,2.45.09a31.78,31.78,0,0,0,4.73-.38A33.18,33.18,0,0,0,68.05,74.6l.06,0h.07L81,76.41l-.13.16c-1.31-3.88-2.32-6.89-3-8.95-.33-1-.59-1.78-.77-2.32S76.88,64.52,76.88,64.52Z"/><path class="cls-2" d="M49.33,40.61a1.35,1.35,0,0,1,.76,1.21v6.66a1.34,1.34,0,0,1-1.7,1.29,4.12,4.12,0,0,0-3.26.5,3.76,3.76,0,0,0-1.78,2.37A3.89,3.89,0,0,0,44,55.55a4.22,4.22,0,0,0,2.75,1.82A5,5,0,0,0,52,54a1.34,1.34,0,0,1,2.55.81A7.7,7.7,0,0,1,46.36,60a6.89,6.89,0,0,1-4.53-2.94,6.52,6.52,0,0,1-1.1-5,6.45,6.45,0,0,1,3-4.12,7,7,0,0,1,3.68-1V41.82a1.34,1.34,0,0,1,1.33-1.34A1.37,1.37,0,0,1,49.33,40.61Z"/><path class="cls-2" d="M47.49,37.81a1.1,1.1,0,1,1,1.12,1.07A1.1,1.1,0,0,1,47.49,37.81Z"/></g></svg>