<svg xmlns="http://www.w3.org/2000/svg" viewBox="0 0 512 512"><defs><style>.cls-1{fill:#59171c;}.cls-2{fill:#ba3636;}.cls-3{fill:#ba4949;}.cls-4{fill:#7c1e25;}.cls-5{fill:#6b1e1e;}.cls-6{fill:#ed6868;}.cls-7{fill:#e5e3e3;}</style></defs><title>RedBot</title><g id="Layer_2" data-name="Layer 2"><polygon class="cls-1" points="268.41 346.65 268.41 365.61 244.18 369 244.18 391.73 151.12 396.52 142.33 386.51 150.7 386.08 147.93 315.78 164.6 315.78 164.6 305.78 176.92 304.96 181.57 290.71 239.16 292.34 240.07 282.62 248.86 292.62 244.18 342.67 217.79 340.81 209 330.81 220.34 331.61 225.67 312.32 173.39 315.78 173.39 371.42 235.39 369.3 235.39 359 244.18 357.77 244.18 342.67 259.62 345.2 259.62 336.65 268.41 346.65"/><polygon class="cls-2" points="164.6 361.42 235.39 359 235.39 381.73 142.33 386.51 139.14 305.78 164.6 305.78 164.6 361.42"/><polygon class="cls-2" points="216.88 302.32 164.6 305.78 172.79 280.7 240.07 282.62 235.39 332.67 209 330.81 216.88 302.32"/><polygon class="cls-2" points="259.62 336.65 259.62 355.61 235.39 359 235.39 332.67 259.62 336.65"/><polygon class="cls-3" points="167.88 295.75 176.24 285.91 208.26 281.71 172.79 280.7 167.88 295.75"/><polygon class="cls-3" points="156.55 305.78 139.14 305.78 140.13 330.7 145.95 313.6 156.55 305.78"/><polygon class="cls-3" points="212.84 316.95 227.29 294.78 202.34 303.28 216.88 302.32 212.84 316.95"/><polygon class="cls-3" points="235.39 332.67 251.65 335.34 245.25 348.65 235.39 349.51 235.39 332.67"/><polygon class="cls-3" points="164.6 348.65 158.28 374.18 214.81 359.7 164.6 361.42 164.6 348.65"/><polygon class="cls-1" points="338.25 78.05 425.88 78.05 421.78 109.17 326.13 109.17 338.25 78.05"/><polygon class="cls-1" points="421.78 109.17 445.53 105.08 438.16 135.67 414.41 133.9 421.78 109.17"/><polygon class="cls-2" points="321.98 64.54 409.62 64.54 405.52 95.66 309.87 95.66 321.98 64.54"/><polygon class="cls-1" points="326.13 109.17 309.87 95.66 346.56 95.66 326.13 109.17"/><polygon class="cls-1" points="409.62 64.54 425.88 78.05 407.36 81.66 409.62 64.54"/><polygon class="cls-1" points="435.25 96.53 445.53 105.08 424.57 111.07 435.25 96.53"/><polygon class="cls-1" points="414.41 133.9 404.14 125.35 418.31 126.41 414.41 133.9"/><polygon class="cls-3" points="317.17 76.91 328.22 69 353.73 64.54 321.74 65.16 317.17 76.91"/><polygon class="cls-2" points="411.51 100.62 435.25 96.53 427.88 127.13 404.14 125.35 411.51 100.62"/><polygon class="cls-3" points="408.17 111.83 415.6 103.9 427.25 97.91 411.51 100.62 408.17 111.83"/><polygon class="cls-4" points="411.51 100.62 431.7 97.14 428.58 111.83 407.36 114.53 411.51 100.62"/></g><g id="Layer_4" data-name="Layer 4"><polygon class="cls-1" points="169.13 308.83 141.62 315.34 138.72 350.28 104.7 348.18 76.47 348.18 56.92 333.91 76.47 333.91 76.47 315.34 50.07 315.34 30.52 301.07 48.84 301.07 46.52 274.35 21.36 271.78 9.41 263.06 9.88 258.34 22.57 259.63 26.51 220.03 58.37 217.83 59.09 184.13 133.69 172.56 132.7 164.99 142.45 163.61 151.03 169.88 169.13 308.83"/><polygon class="cls-4" points="9.41 263.06 34.58 265.62 35.8 209.84 14.57 211.31 9.41 263.06"/><polygon class="cls-4" points="117.54 167.12 117.54 190.89 146 190.89 142.45 163.61 117.54 167.12"/><polygon class="cls-2" points="149.58 294.56 122.07 301.07 119.18 336.01 85.15 333.91 56.92 333.91 56.92 301.07 30.52 301.07 26.98 260.08 26.98 260.06 28.2 204.3 38.82 203.56 39.55 169.85 106.63 159.46 106.63 183.22 135.08 183.22 149.58 294.56"/><polygon class="cls-1" points="106.63 159.46 117.54 167.12 117.54 183.22 106.63 183.22 106.63 159.46"/><polygon class="cls-1" points="135.08 183.22 146 190.89 136.17 191.58 135.08 183.22"/><polygon class="cls-4" points="131.66 306.42 110.49 320.42 107.42 340.04 128.77 341.36 131.66 306.42"/><polygon class="cls-4" points="122.25 301.07 101.08 315.07 98.01 334.69 119.36 336.01 122.25 301.07"/><polygon class="cls-1" points="131.66 306.42 122.25 301.07 101.08 315.07 98.01 334.69 107.42 340.04 110.49 320.42 131.66 306.42"/><polygon class="cls-1" points="149.58 294.56 146.58 271.49 129.22 283.02 131.66 299.22 149.58 294.56"/><polygon class="cls-3" points="146.48 289.74 143.48 266.67 126.12 278.21 128.56 294.41 146.48 289.74"/><polygon class="cls-1" points="128.56 294.41 132.88 300.24 150.8 295.57 147.8 272.51 143.48 266.67 146.38 288.96 128.56 294.41"/><polygon class="cls-5" points="107.42 340.04 119.54 340.79 122.25 325.93 130.72 317.78 131.66 306.42 110.49 320.42 107.42 340.04"/><polygon class="cls-5" points="117.54 167.12 128.1 165.63 127.46 183.22 117.54 183.22 117.54 167.12"/><polygon class="cls-3" points="27.01 258.69 32.31 213.36 35.8 203.77 28.2 204.3 27.01 258.69"/><polygon class="cls-3" points="39.22 185.05 60 174.43 92.06 161.72 39.55 169.85 39.22 185.05"/><polygon class="cls-2" points="12.59 231.23 22.61 210.75 14.57 211.31 12.59 231.23"/><polygon class="cls-6" points="127.63 288.22 131.66 280.54 139.31 269.44 126.12 278.21 127.63 288.22"/><polygon class="cls-1" points="503.2 225.09 503.2 326.96 389.45 334.56 385.16 363.95 286.44 363.95 267.72 349.36 286.44 349.36 286.44 331.73 242.44 325.91 223.72 311.32 243.48 313.93 254.25 189.02 302.54 186.21 306.83 145.23 337.47 144.46 337.47 129.4 356.19 143.99 356.19 181.56 419.9 186.3 420.71 177.93 427.93 178.46 439.89 187.78 436.67 221.07 484.48 223.96 484.48 210.5 503.2 225.09"/><polygon class="cls-4" points="424.71 211.74 402.17 210.23 399 176.31 427.93 178.46 424.71 211.74"/><polygon class="cls-2" points="484.48 210.5 484.48 312.37 370.73 319.96 366.44 349.36 267.72 349.36 267.72 317.14 223.72 311.32 235.53 174.42 283.82 171.62 288.11 130.64 337.47 129.4 337.47 166.97 392.24 171.04 395.41 204.96 417.95 206.47 484.48 210.5"/><polygon class="cls-1" points="399 176.31 392.24 171.04 395.41 204.96 401.72 205.38 399 176.31"/><polygon class="cls-1" points="371.81 321.4 367.51 350.79 326.74 350.79 331.75 337.2 337.65 321.2 362.56 321.34 364.53 307.8 371.81 321.4"/><polygon class="cls-3" points="360.24 337.2 319.46 337.2 330.37 307.61 364.53 307.8 360.24 337.2"/><polygon class="cls-1" points="331.75 337.2 326.74 350.79 319.46 337.2 331.75 337.2"/><polygon class="cls-1" points="262.12 172.88 248.82 236.42 230.18 236.42 220.79 225.8 231.1 225.8 235.53 174.42 250.37 173.56 252.73 162.25 262.12 172.88"/><polygon class="cls-3" points="226.14 163.8 252.73 162.26 239.43 225.8 220.79 225.8 226.14 163.8"/><polygon class="cls-4" points="230.18 236.42 252.73 246.67 276.34 177.98 262.12 172.88 248.82 236.42 230.18 236.42"/><polygon class="cls-5" points="399 176.31 415.86 177.57 417.95 206.47 401.72 205.38 399 176.31"/><polygon class="cls-3" points="283.82 171.62 294.05 142.29 316.55 129.92 288.11 130.64 283.82 171.62"/><polygon class="cls-3" points="229.03 249.74 239.5 274.1 250.23 282.33 233.42 298.74 224.41 303.31 229.03 249.74"/><polygon class="cls-6" points="226.14 163.8 241.46 162.91 222.65 204.26 226.14 163.8"/><polygon class="cls-6" points="323.14 327.24 333.21 315.32 357.09 307.8 330.37 307.61 323.14 327.24"/></g><g id="Layer_5" data-name="Layer 5"><polygon class="cls-1" points="310.7 206.07 302.48 299.42 436.25 253.64 310.7 206.07"/><polygon class="cls-7" points="305.34 193.93 297.11 287.28 430.88 241.5 305.34 193.93"/><polygon class="cls-1" points="99.47 203.96 103.65 288.22 57.04 250.93 99.47 203.96"/><polygon class="cls-7" points="94.16 191.58 98.34 275.85 48 233.01 94.16 191.58"/></g></svg>