<svg xmlns="http://www.w3.org/2000/svg" xmlns:xlink="http://www.w3.org/1999/xlink" viewBox="0 0 500 500"><defs><style>.cls-1{fill:#fff;}.cls-2{fill:url(#Degradado_sin_nombre_5);}.cls-3{fill:#c2daec;}.cls-4{fill:#9fcde2;}.cls-5{fill:#ecf8fd;}</style><linearGradient id="Degradado_sin_nombre_5" x1="89.32" y1="88.35" x2="411.65" y2="410.68" gradientUnits="userSpaceOnUse"><stop offset="0" stop-color="#00afe5"/><stop offset="1" stop-color="#0094d4"/></linearGradient></defs><title>Mesa de trabajo 1</title><g id="BACKGROUND"><rect class="cls-1" width="500" height="500"/></g><g id="OBJECTS"><circle class="cls-2" cx="250.48" cy="249.52" r="227.92"/><polygon class="cls-3" points="175.04 267.78 201.27 338.91 317.65 177.26 175.04 267.78"/><polygon class="cls-4" points="204.14 283.59 201.63 339.63 263.05 287.54 204.14 283.59"/><path class="cls-5" d="M346.1,150,116.71,237.12A7.39,7.39,0,0,0,117,251l59.15,20,134.71-86.93-106.69,99.5,83.05,63a15.11,15.11,0,0,0,23.8-8.37l44.9-179.58A7.39,7.39,0,0,0,346.1,150Z"/></g></svg>