<svg xmlns="http://www.w3.org/2000/svg" xmlns:xlink="http://www.w3.org/1999/xlink" viewBox="0 0 450 450"><defs><style>.cls-1{mask:url(#mask);filter:url(#luminosity-noclip-2);}.cls-2,.cls-29,.cls-30{mix-blend-mode:multiply;}.cls-2{fill:url(#Áåçûìÿííûé_ãðàäèåíò_3);}.cls-3{fill:none;}.cls-4{fill:#1d1f26;}.cls-5{isolation:isolate;}.cls-6{fill:#2389b7;}.cls-7{fill:url(#Áåçûìÿííûé_ãðàäèåíò_2226);}.cls-8{clip-path:url(#clip-path);}.cls-9{fill:url(#Áåçûìÿííûé_ãðàäèåíò_2004);}.cls-10{fill:url(#Áåçûìÿííûé_ãðàäèåíò_2004-2);}.cls-11{fill:url(#Áåçûìÿííûé_ãðàäèåíò_3302);}.cls-12{fill:url(#Áåçûìÿííûé_ãðàäèåíò_3245);}.cls-13{fill:#40edff;}.cls-14{fill:url(#Áåçûìÿííûé_ãðàäèåíò_3302-2);}.cls-15{fill:url(#Áåçûìÿííûé_ãðàäèåíò_3245-2);}.cls-16{fill:url(#Áåçûìÿííûé_ãðàäèåíò_3302-3);}.cls-17{fill:url(#Áåçûìÿííûé_ãðàäèåíò_3245-3);}.cls-18{fill:url(#Áåçûìÿííûé_ãðàäèåíò_3302-4);}.cls-19{fill:url(#Áåçûìÿííûé_ãðàäèåíò_3316);}.cls-20{fill:#bbeaf7;}.cls-21{fill:#2d5590;}.cls-22{fill:#293a82;}.cls-23{fill:#282a35;}.cls-24{fill:#42c4d1;}.cls-25{fill:url(#Áåçûìÿííûé_ãðàäèåíò_32);}.cls-26{fill:url(#Áåçûìÿííûé_ãðàäèåíò_17);}.cls-27{fill:#2b4588;}.cls-28{fill:#96d9ea;}.cls-29,.cls-30{fill:#3486ad;}.cls-29{opacity:0.2;}.cls-30,.cls-31{opacity:0.5;}.cls-31{fill:#262476;}.cls-32{clip-path:url(#clip-path-2);}.cls-33{fill:#3c647a;opacity:0.4;}.cls-34{fill:#252b2e;}.cls-35{fill:#31393b;}.cls-36{fill:#374042;}.cls-37{fill:#1e2225;}.cls-38{fill:url(#Áåçûìÿííûé_ãðàäèåíò_2);}.cls-39{fill:#c0f3ff;}.cls-40{fill:url(#Áåçûìÿííûé_ãðàäèåíò_2-2);}.cls-41,.cls-44{opacity:0.7;}.cls-41,.cls-42,.cls-44,.cls-45{mix-blend-mode:screen;}.cls-41{fill:url(#Áåçûìÿííûé_ãðàäèåíò_5);}.cls-42,.cls-45{opacity:0.6;}.cls-42{fill:url(#Áåçûìÿííûé_ãðàäèåíò_232);}.cls-43{fill:#2d6597;}.cls-44{fill:url(#Áåçûìÿííûé_ãðàäèåíò_5-2);}.cls-45{fill:url(#Áåçûìÿííûé_ãðàäèåíò_232-2);}.cls-46{mask:url(#mask-2);}.cls-47{opacity:0.25;mix-blend-mode:overlay;fill:url(#Áåçûìÿííûé_ãðàäèåíò_2258);}.cls-48{filter:url(#luminosity-noclip);}</style><filter id="luminosity-noclip" x="0" y="-8417" width="450" height="32766" filterUnits="userSpaceOnUse" color-interpolation-filters="sRGB"><feFlood flood-color="#fff" result="bg"/><feBlend in="SourceGraphic" in2="bg"/></filter><mask id="mask" x="0" y="-8417" width="450" height="32766" maskUnits="userSpaceOnUse"><g class="cls-48"/></mask><linearGradient id="Áåçûìÿííûé_ãðàäèåíò_3" x1="125.61" y1="52.86" x2="270.67" y2="304.1" gradientUnits="userSpaceOnUse"><stop offset="0"/><stop offset="0.1" stop-color="#1f1f1f"/><stop offset="0.44" stop-color="#7e7e7e"/><stop offset="0.71" stop-color="#c3c3c3"/><stop offset="0.9" stop-color="#eee"/><stop offset="1" stop-color="#fff"/></linearGradient><linearGradient id="Áåçûìÿííûé_ãðàäèåíò_2226" x1="324.87" y1="272.8" x2="108.87" y2="70.14" gradientTransform="translate(192.54 -106.64) rotate(45)" gradientUnits="userSpaceOnUse"><stop offset="0" stop-color="#238eba"/><stop offset="0.18" stop-color="#2375aa"/><stop offset="0.55" stop-color="#24448b"/><stop offset="0.84" stop-color="#252678"/><stop offset="1" stop-color="#251b71"/></linearGradient><clipPath id="clip-path"><circle class="cls-3" cx="225" cy="179.1" r="131.05" transform="translate(-60.74 211.56) rotate(-45)"/></clipPath><linearGradient id="Áåçûìÿííûé_ãðàäèåíò_2004" x1="186.64" y1="154.49" x2="317.64" y2="167.16" gradientUnits="userSpaceOnUse"><stop offset="0" stop-color="#1d1d5e"/><stop offset="1" stop-color="#243984"/></linearGradient><linearGradient id="Áåçûìÿííûé_ãðàäèåíò_2004-2" x1="183.23" y1="209.85" x2="316.21" y2="222.71" xlink:href="#Áåçûìÿííûé_ãðàäèåíò_2004"/><linearGradient id="Áåçûìÿííûé_ãðàäèåíò_3302" x1="266" y1="170.4" x2="332.03" y2="170.4" gradientUnits="userSpaceOnUse"><stop offset="0" stop-color="#2d5590"/><stop offset="1" stop-color="#52a8cd"/></linearGradient><linearGradient id="Áåçûìÿííûé_ãðàäèåíò_3245" x1="283.97" y1="142.34" x2="323.76" y2="182.13" gradientUnits="userSpaceOnUse"><stop offset="0" stop-color="#51aac9"/><stop offset="1" stop-color="#43e1f5"/></linearGradient><linearGradient id="Áåçûìÿííûé_ãðàäèåíò_3302-2" x1="266" y1="151.7" x2="332.03" y2="151.7" xlink:href="#Áåçûìÿííûé_ãðàäèåíò_3302"/><linearGradient id="Áåçûìÿííûé_ãðàäèåíò_3245-2" x1="283.97" y1="123.63" x2="323.76" y2="163.43" xlink:href="#Áåçûìÿííûé_ãðàäèåíò_3245"/><linearGradient id="Áåçûìÿííûé_ãðàäèåíò_3302-3" x1="266" y1="132.99" x2="332.03" y2="132.99" xlink:href="#Áåçûìÿííûé_ãðàäèåíò_3302"/><linearGradient id="Áåçûìÿííûé_ãðàäèåíò_3245-3" x1="283.97" y1="104.93" x2="323.76" y2="144.72" xlink:href="#Áåçûìÿííûé_ãðàäèåíò_3245"/><linearGradient id="Áåçûìÿííûé_ãðàäèåíò_3302-4" x1="266" y1="114.29" x2="332.03" y2="114.29" xlink:href="#Áåçûìÿííûé_ãðàäèåíò_3302"/><linearGradient id="Áåçûìÿííûé_ãðàäèåíò_3316" x1="283.97" y1="86.22" x2="323.76" y2="126.02" gradientUnits="userSpaceOnUse"><stop offset="0.31" stop-color="#96d9ea"/><stop offset="0.36" stop-color="#d1f4ff"/><stop offset="0.74" stop-color="#96d9ea"/></linearGradient><linearGradient id="Áåçûìÿííûé_ãðàäèåíò_32" x1="211.14" y1="249.78" x2="218.85" y2="249.78" gradientUnits="userSpaceOnUse"><stop offset="0" stop-color="#262476"/><stop offset="1" stop-color="#2d5590"/></linearGradient><linearGradient id="Áåçûìÿííûé_ãðàäèåíò_17" x1="134.64" y1="225.25" x2="325.73" y2="225.25" gradientUnits="userSpaceOnUse"><stop offset="0" stop-color="#264683"/><stop offset="0.18" stop-color="#274c87"/><stop offset="0.43" stop-color="#2b5e93"/><stop offset="0.73" stop-color="#327ca6"/><stop offset="1" stop-color="#399ebc"/></linearGradient><clipPath id="clip-path-2"><path class="cls-4" d="M189.85,269.76l4.37,2.52c.51.29.92.11.92-.39a2,2,0,0,0-.92-1.46l-4.37-2.51c-.51-.3-.92-.12-.92.39A1.91,1.91,0,0,0,189.85,269.76Z"/></clipPath><linearGradient id="Áåçûìÿííûé_ãðàäèåíò_2" x1="172.12" y1="237.82" x2="173.59" y2="240.36" gradientTransform="matrix(0.5, -0.87, -0.87, -0.5, 316.13, 547.41)" gradientUnits="userSpaceOnUse"><stop offset="0" stop-color="#2b3234"/><stop offset="0.22" stop-color="#292f32"/><stop offset="1" stop-color="#252b2e"/></linearGradient><linearGradient id="Áåçûìÿííûé_ãðàäèåíò_2-2" x1="284.19" y1="245.33" x2="285.66" y2="247.88" gradientTransform="translate(256.65 547.41) rotate(-120)" xlink:href="#Áåçûìÿííûé_ãðàäèåíò_2"/><linearGradient id="Áåçûìÿííûé_ãðàäèåíò_5" x1="205.04" y1="90.72" x2="237.77" y2="147.41" gradientUnits="userSpaceOnUse"><stop offset="0" stop-color="#95fffb"/><stop offset="0.63" stop-color="#60a5a2"/><stop offset="1" stop-color="#447472"/></linearGradient><linearGradient id="Áåçûìÿííûé_ãðàäèåíò_232" x1="206.06" y1="98.54" x2="233.47" y2="146.01" gradientUnits="userSpaceOnUse"><stop offset="0" stop-color="#95ffce"/><stop offset="0.03" stop-color="#91f9c9"/><stop offset="0.51" stop-color="#5b9c7e"/><stop offset="0.84" stop-color="#39624e"/><stop offset="1" stop-color="#2c4b3c"/></linearGradient><linearGradient id="Áåçûìÿííûé_ãðàäèåíò_5-2" x1="135.7" y1="172.31" x2="150.43" y2="197.82" xlink:href="#Áåçûìÿííûé_ãðàäèåíò_5"/><linearGradient id="Áåçûìÿííûé_ãðàäèåíò_232-2" x1="136.81" y1="180.09" x2="146.11" y2="196.21" xlink:href="#Áåçûìÿííûé_ãðàäèåíò_232"/><filter id="luminosity-noclip-2" x="0" y="0" width="450" height="450" filterUnits="userSpaceOnUse" color-interpolation-filters="sRGB"><feFlood flood-color="#fff" result="bg"/><feBlend in="SourceGraphic" in2="bg"/></filter><mask id="mask-2" x="0" y="0" width="450" height="450" maskUnits="userSpaceOnUse"><g class="cls-1"><rect id="_4" data-name="4" class="cls-2" width="450" height="450"/></g></mask><linearGradient id="Áåçûìÿííûé_ãðàäèåíò_2258" x1="125.61" y1="52.86" x2="270.67" y2="304.1" gradientUnits="userSpaceOnUse"><stop offset="0" stop-color="#3b2f22"/><stop offset="0.37" stop-color="#567c7e"/><stop offset="0.67" stop-color="#6bb7c3"/><stop offset="0.89" stop-color="#78dbee"/><stop offset="1" stop-color="#7de9ff"/></linearGradient></defs><title>Artboard 3</title><g class="cls-5"><g id="_0" data-name="0"><g id="_2" data-name="2"><path class="cls-6" d="M156.92,329.74H146.66a.77.77,0,0,0-.87.87v25a.77.77,0,0,0,.87.87h10.26a6.9,6.9,0,0,0,5.05-1.76,6.68,6.68,0,0,0,1.81-5V336.51a6.68,6.68,0,0,0-1.81-5A6.94,6.94,0,0,0,156.92,329.74Zm1.58,19.69a2.07,2.07,0,0,1-2.45,2.45h-4.53a.4.4,0,0,1-.45-.45V334.76a.4.4,0,0,1,.45-.45h4.53a2.07,2.07,0,0,1,2.45,2.45Z"/><path class="cls-6" d="M184.39,335.26h-9.6a6.93,6.93,0,0,0-5.07,1.75,6.72,6.72,0,0,0-1.79,5v7.64a6.73,6.73,0,0,0,1.79,5,7,7,0,0,0,5.07,1.74h1a5.53,5.53,0,0,0,2.45-.56,3.16,3.16,0,0,0,1.62-1.68H180v1.37a.78.78,0,0,0,.88.87h3.49c.61,0,.91-.29.91-.87V336.14C185.3,335.55,185,335.26,184.39,335.26ZM180,348.72q0,3.16-2.86,3.16h-1.54a2.5,2.5,0,0,1-1.87-.56,2.67,2.67,0,0,1-.54-1.89v-7.14a2.71,2.71,0,0,1,.54-1.9,2.55,2.55,0,0,1,1.87-.56h3.91c.33,0,.49.16.49.46Z"/><path class="cls-6" d="M200.22,351.88h-1.67a2.68,2.68,0,0,1-1.91-.56,2.51,2.51,0,0,1-.58-1.85v-9.18c0-.3.17-.46.5-.46h3.24a1,1,0,0,0,.69-.18.94.94,0,0,0,.18-.65v-2.86a.77.77,0,0,0-.87-.88h-3.24c-.33,0-.5-.15-.5-.45v-3.95a.77.77,0,0,0-.87-.87H191.7c-.61,0-.91.29-.91.87v3.95a.4.4,0,0,1-.46.45h-1.66a.78.78,0,0,0-.88.88V339a.92.92,0,0,0,.19.67,1.07,1.07,0,0,0,.69.16h1.66a.41.41,0,0,1,.46.46v9.43a6.65,6.65,0,0,0,1.8,5,7,7,0,0,0,5.09,1.74h2.54a1,1,0,0,0,.68-.18.89.89,0,0,0,.19-.65v-2.87A.77.77,0,0,0,200.22,351.88Z"/><path class="cls-6" d="M220.58,335.26H211a6.93,6.93,0,0,0-5.07,1.75,6.72,6.72,0,0,0-1.79,5v7.64a6.73,6.73,0,0,0,1.79,5,7,7,0,0,0,5.07,1.74h1a5.53,5.53,0,0,0,2.45-.56,3.16,3.16,0,0,0,1.62-1.68h.16v1.37a.77.77,0,0,0,.88.87h3.49c.6,0,.91-.29.91-.87V336.14A.79.79,0,0,0,220.58,335.26Zm-4.37,13.46q0,3.16-2.86,3.16h-1.54a2.5,2.5,0,0,1-1.87-.56,2.67,2.67,0,0,1-.54-1.89v-7.14a2.71,2.71,0,0,1,.54-1.9,2.55,2.55,0,0,1,1.87-.56h3.9c.34,0,.5.16.5.46Z"/><path class="cls-6" d="M236.9,335.18h-1.33a5.41,5.41,0,0,0-2.45.58,3.31,3.31,0,0,0-1.62,1.7h-.16v-9.34a.78.78,0,0,0-.88-.88h-3.53a.78.78,0,0,0-.87.88v27.46a.77.77,0,0,0,.87.87h10a7,7,0,0,0,5.07-1.74,6.73,6.73,0,0,0,1.79-5V342a6.73,6.73,0,0,0-1.79-5A7,7,0,0,0,236.9,335.18Zm1.58,14.25a2.07,2.07,0,0,1-2.45,2.45h-4.24a.4.4,0,0,1-.45-.45v-8.52q0-3.17,2.86-3.16H236a2.07,2.07,0,0,1,2.45,2.45Z"/><path class="cls-6" d="M264,335.26h-9.6a7,7,0,0,0-5.07,1.75,6.71,6.71,0,0,0-1.78,5v7.64a6.73,6.73,0,0,0,1.78,5,7,7,0,0,0,5.07,1.74h1a5.46,5.46,0,0,0,2.45-.56,3.09,3.09,0,0,0,1.62-1.68h.17v1.37a.77.77,0,0,0,.87.87H264c.61,0,.92-.29.92-.87V336.14C264.87,335.55,264.56,335.26,264,335.26Zm-4.36,13.46q0,3.16-2.87,3.16h-1.53a2.53,2.53,0,0,1-1.88-.56,2.67,2.67,0,0,1-.54-1.89v-7.14a2.71,2.71,0,0,1,.54-1.9,2.57,2.57,0,0,1,1.88-.56h3.9c.33,0,.5.16.5.46Z"/><path class="cls-6" d="M280.07,345.28l-4.19-2.5c-1.19-.63-1.79-1.26-1.79-1.87v-.2c0-.7.68-1,2-1h5.77a.89.89,0,0,0,.67-.19,1,1,0,0,0,.16-.64v-2.7c0-.59-.28-.88-.83-.88H275a7.13,7.13,0,0,0-4.82,1.37,5.49,5.49,0,0,0-1.54,4.28,5,5,0,0,0,1,3.2,9.52,9.52,0,0,0,3.12,2.33l4.11,2.28q1.71.91,1.71,1.92v.2c0,.83-.68,1.25-2,1.25h-6.94a.85.85,0,0,0-.66.19.91.91,0,0,0-.17.64v2.66c0,.58.28.87.83.87h7.89q6.53,0,6.53-5.56a5.43,5.43,0,0,0-.87-3.22A8.8,8.8,0,0,0,280.07,345.28Z"/><path class="cls-6" d="M292.91,348.18h10.43a.77.77,0,0,0,.87-.87V342a6.68,6.68,0,0,0-1.79-5,6.92,6.92,0,0,0-5.06-1.75h-3.29A6.94,6.94,0,0,0,289,337a6.71,6.71,0,0,0-1.78,5v7.64a6.73,6.73,0,0,0,1.78,5,7,7,0,0,0,5.07,1.74h9.19a1,1,0,0,0,.68-.18.89.89,0,0,0,.19-.65v-2.74c0-.61-.29-.91-.87-.91h-8.4a2.65,2.65,0,0,1-1.89-.56,2.57,2.57,0,0,1-.56-1.85v-.92C292.41,348.34,292.58,348.18,292.91,348.18Zm-.46-6a2,2,0,0,1,2.41-2.41h1.75A2,2,0,0,1,299,342.2v2a.4.4,0,0,1-.46.45h-5.65a.4.4,0,0,1-.46-.45Z"/></g><g id="_1" data-name="1"><circle class="cls-7" cx="225" cy="179.1" r="131.05" transform="translate(-60.74 211.56) rotate(-45)"/><g class="cls-8"><path class="cls-9" d="M298.9,143.47H266.14c-8.93,0-17.87,2-24.68,5.9-13.63,7.87-13.63,20.63,0,28.5,6.81,3.94,15.75,5.91,24.68,5.91H298.9Z"/><path class="cls-10" d="M325.56,218.29l-90-49.14-71.4,41.23L178.28,137l-122,70.41-7.2,31.12,3,7.82h89.17l65.81,38c1,.6,7.23.6,8.27,0l110.25-63.65A1.39,1.39,0,0,0,325.56,218.29Z"/></g><g id="_16" data-name="16"><g class="cls-5"><path class="cls-11" d="M322.9,171.06c-13.25,7.71-34.79,7.71-48.12,0-6.71-3.87-10.06-9-10-14l0,6.94c0,5.08,3.34,10.16,10.05,14,13.33,7.7,34.87,7.7,48.12,0,6.58-3.82,9.88-8.83,9.89-13.84l0-6.93C332.78,162.24,329.48,167.24,322.9,171.06Z"/><path class="cls-12" d="M322.75,143.19c-13.34-7.69-34.88-7.7-48.13,0s-13.17,20.18.16,27.88,34.87,7.7,48.12,0S336.08,150.89,322.75,143.19Z"/></g><path class="cls-13" d="M330.62,148.14c.43-5.06-2.66-10.21-9.35-14.07-12.51-7.22-32.73-7.23-45.16,0-6.2,3.6-9.28,8.31-9.28,13,0,0,0,6.46,0,6.46,0,4.77,3.13,9.54,9.43,13.17,12.51,7.23,32.72,7.23,45.16,0,6.17-3.59,9.26-8.28,9.27-13l0-6.5C330.69,147.54,330.64,147.84,330.62,148.14Z"/><g class="cls-5"><path class="cls-14" d="M322.9,152.36c-13.25,7.7-34.79,7.7-48.12,0-6.71-3.87-10.06-9-10-14l0,6.93c0,5.08,3.34,10.17,10.05,14,13.33,7.7,34.87,7.7,48.12,0,6.58-3.82,9.88-8.82,9.89-13.83l0-6.94C332.78,143.53,329.48,148.54,322.9,152.36Z"/><path class="cls-15" d="M322.75,124.49c-13.34-7.7-34.88-7.7-48.13,0s-13.17,20.19.16,27.88,34.87,7.7,48.12,0S336.08,132.19,322.75,124.49Z"/></g><path class="cls-13" d="M330.62,129.43c.43-5.06-2.66-10.2-9.35-14.07-12.51-7.22-32.73-7.22-45.16,0-6.2,3.6-9.28,8.32-9.28,13,0-.05,0,6.46,0,6.46,0,4.76,3.13,9.53,9.43,13.17,12.51,7.22,32.72,7.22,45.16,0,6.17-3.58,9.26-8.28,9.27-13l0-6.51C330.69,128.83,330.64,129.13,330.62,129.43Z"/><g class="cls-5"><path class="cls-16" d="M322.9,133.65c-13.25,7.71-34.79,7.71-48.12,0-6.71-3.87-10.06-9-10-14l0,6.94c0,5.07,3.34,10.16,10.05,14,13.33,7.7,34.87,7.7,48.12,0,6.58-3.82,9.88-8.83,9.89-13.84l0-6.93C332.78,124.83,329.48,129.83,322.9,133.65Z"/><path class="cls-17" d="M322.75,105.78c-13.34-7.69-34.88-7.7-48.13,0s-13.17,20.18.16,27.88,34.87,7.7,48.12,0S336.08,113.48,322.75,105.78Z"/></g><path class="cls-13" d="M330.62,110.73c.43-5.06-2.66-10.21-9.35-14.07-12.51-7.22-32.73-7.23-45.16,0-6.2,3.61-9.28,8.32-9.28,13,0,0,0,6.46,0,6.46,0,4.77,3.13,9.54,9.43,13.17,12.51,7.23,32.72,7.23,45.16,0,6.17-3.59,9.26-8.28,9.27-13l0-6.5C330.69,110.13,330.64,110.43,330.62,110.73Z"/><g class="cls-5"><path class="cls-18" d="M322.9,115c-13.25,7.7-34.79,7.7-48.12,0-6.71-3.87-10.06-9-10-14l0,6.93c0,5.08,3.34,10.17,10.05,14,13.33,7.7,34.87,7.7,48.12,0,6.58-3.82,9.88-8.82,9.89-13.83l0-6.94C332.78,106.12,329.48,111.12,322.9,115Z"/><path class="cls-19" d="M322.75,87.08c-13.34-7.7-34.88-7.7-48.13,0s-13.17,20.19.16,27.88,34.87,7.7,48.12,0S336.08,94.78,322.75,87.08Z"/><path class="cls-20" d="M319,87.71c-11.27-6.5-29.48-6.51-40.67,0s-11.13,17.05.13,23.56,29.47,6.5,40.67,0S330.3,94.22,319,87.71Z"/></g></g><g class="cls-5"><path class="cls-21" d="M219.68,69.52a2.08,2.08,0,0,0-1.43.26L109.56,132.54l.8.16L219.06,70a2,2,0,0,1,1.42-.27Z"/><path class="cls-22" d="M132.57,234.21l-23.86-97.06-.8-.17,23.86,97.07A2.42,2.42,0,0,0,133.5,236l.81.16A2.42,2.42,0,0,1,132.57,234.21Z"/><path class="cls-21" d="M110.36,132.7l-.8-.16a4.18,4.18,0,0,0-1.65,4.44l.8.17A4.21,4.21,0,0,1,110.36,132.7Z"/><path class="cls-23" d="M246.08,168.68,222.21,71.62c-.41-1.69-1.82-2.44-3.15-1.67L110.36,132.7a4.21,4.21,0,0,0-1.65,4.45l23.86,97.06c.42,1.69,1.83,2.44,3.16,1.67l108.69-62.75A4.21,4.21,0,0,0,246.08,168.68Z"/><polygon class="cls-24" points="241.39 161.26 219.65 72.81 111.12 135.47 132.89 223.9 241.39 161.26"/></g><g class="cls-5"><path class="cls-25" d="M134.64,234.59v3a1.68,1.68,0,0,0,1,1.39L212,283.07a5.33,5.33,0,0,0,4.81,0l108-62.75a1.7,1.7,0,0,0,1-1.38v-3Z"/><path class="cls-26" d="M324.73,214.52,248.4,170.45a5.32,5.32,0,0,0-4.79,0l-108,62.76c-1.32.76-1.32,2,0,2.78L212,280.05a5.3,5.3,0,0,0,4.81,0l108-62.75C326.07,216.53,326.06,215.29,324.73,214.52Z"/></g><path class="cls-27" d="M236.5,183.86a.28.28,0,0,1,0-.18.25.25,0,0,1,0-.17.55.55,0,0,1,.34-.6l5-2.92a2,2,0,0,1,1.78,0l4.25,2.46a.57.57,0,0,1,.34.6.48.48,0,0,1,0,.17.49.49,0,0,1,0,.17.57.57,0,0,1-.34.6l-5.06,2.92a2,2,0,0,1-1.77,0l-4.25-2.46A.54.54,0,0,1,236.5,183.86Zm8.5-4.12,4.25,2.46a2,2,0,0,0,1.77,0l5.06-2.92a.57.57,0,0,0,.34-.6.49.49,0,0,0,0-.17.48.48,0,0,0,0-.17.57.57,0,0,0-.34-.6l-4.25-2.46a2,2,0,0,0-1.78,0L245,178.2a.55.55,0,0,0-.34.6.25.25,0,0,0,0,.17.25.25,0,0,0,0,.17A.54.54,0,0,0,245,179.74Zm-16.32,9.43,4.25,2.45a2,2,0,0,0,1.77,0l5.06-2.92a.57.57,0,0,0,.34-.6.49.49,0,0,0,0-.17.49.49,0,0,0,0-.17.57.57,0,0,0-.34-.6l-4.25-2.46a2,2,0,0,0-1.78,0l-5,2.92c-.29.17-.39.39-.34.6a.25.25,0,0,0,0,.17.28.28,0,0,0,0,.18C228.29,188.78,228.39,189,228.68,189.17Zm-61.4,52.51,4.25,2.46a2,2,0,0,0,1.78,0l5.05-2.92a.55.55,0,0,0,.34-.6.25.25,0,0,0,0-.17.25.25,0,0,0,0-.17.54.54,0,0,0-.34-.6l-4.25-2.46a2,2,0,0,0-1.77,0l-5.06,2.92a.57.57,0,0,0-.34.6.49.49,0,0,0,0,.17.48.48,0,0,0,0,.17A.57.57,0,0,0,167.28,241.68Zm17.81-27.4,4.25,2.45a1.93,1.93,0,0,0,1.78,0l5.06-2.91a.58.58,0,0,0,.34-.6.54.54,0,0,0,0-.18.49.49,0,0,0,0-.17.57.57,0,0,0-.34-.6l-4.25-2.45a1.93,1.93,0,0,0-1.78,0l-5.06,2.91a.58.58,0,0,0-.34.6.54.54,0,0,0,0,.18.49.49,0,0,0,0,.17A.57.57,0,0,0,185.09,214.28Zm16.32-9.42,4.25,2.45a2,2,0,0,0,1.78,0l5.06-2.92a.55.55,0,0,0,.33-.6.25.25,0,0,0,0-.17.25.25,0,0,0,0-.17.55.55,0,0,0-.33-.6l-4.25-2.46a2,2,0,0,0-1.78,0l-5.06,2.92a.58.58,0,0,0-.34.6.54.54,0,0,0,0,.18.48.48,0,0,0,0,.17A.58.58,0,0,0,201.41,204.86Zm16.32-9.42,4.25,2.45a2,2,0,0,0,1.78,0l7.69-4.44a.55.55,0,0,0,.33-.6.25.25,0,0,0,0-.17.25.25,0,0,0,0-.17.55.55,0,0,0-.33-.6l-4.25-2.46a2,2,0,0,0-1.78,0l-7.69,4.44a.57.57,0,0,0-.34.6.49.49,0,0,0,0,.17.54.54,0,0,0,0,.18A.58.58,0,0,0,217.73,195.44Zm-8.16,4.71,4.25,2.45a2,2,0,0,0,1.78,0l5.06-2.92a.55.55,0,0,0,.33-.6.25.25,0,0,0,0-.17.25.25,0,0,0,0-.17.55.55,0,0,0-.33-.6l-4.26-2.46a2,2,0,0,0-1.77,0l-5.06,2.92a.58.58,0,0,0-.34.6.48.48,0,0,0,0,.17.54.54,0,0,0,0,.18A.58.58,0,0,0,209.57,200.15Zm-16.32,9.42L197.5,212a1.93,1.93,0,0,0,1.78,0l5.06-2.92a.57.57,0,0,0,.34-.6.48.48,0,0,0,0-.17.49.49,0,0,0,0-.17.57.57,0,0,0-.34-.6l-4.25-2.45a1.93,1.93,0,0,0-1.78,0L193.25,208a.58.58,0,0,0-.34.6.54.54,0,0,0,0,.18.48.48,0,0,0,0,.17A.58.58,0,0,0,193.25,209.57ZM228,198.18l4.25,2.45a2,2,0,0,0,1.78,0l5.06-2.92a.55.55,0,0,0,.33-.6.25.25,0,0,0,0-.17.25.25,0,0,0,0-.17.55.55,0,0,0-.33-.6l-4.26-2.46a2,2,0,0,0-1.77,0L228,196.63a.58.58,0,0,0-.34.6.54.54,0,0,0,0,.18.48.48,0,0,0,0,.17A.58.58,0,0,0,228,198.18Zm-65.27,37.69,4.25,2.45a2,2,0,0,0,1.77,0l5.06-2.92a.57.57,0,0,0,.34-.6.49.49,0,0,0,0-.17.49.49,0,0,0,0-.17.57.57,0,0,0-.34-.6l-4.25-2.46a2,2,0,0,0-1.78,0l-5.05,2.92c-.29.17-.39.39-.34.6a.25.25,0,0,0,0,.17.28.28,0,0,0,0,.18C162.3,235.48,162.4,235.7,162.69,235.87Zm57.11-33,4.25,2.45a1.93,1.93,0,0,0,1.78,0l5.06-2.92a.55.55,0,0,0,.33-.6.25.25,0,0,0,0-.17.25.25,0,0,0,0-.17.55.55,0,0,0-.33-.6l-4.25-2.45a1.93,1.93,0,0,0-1.78,0l-5.06,2.91a.58.58,0,0,0-.34.6.54.54,0,0,0,0,.18.48.48,0,0,0,0,.17A.58.58,0,0,0,219.8,202.89Zm-8.16,4.71,4.25,2.45a1.93,1.93,0,0,0,1.78,0l5.06-2.91a.56.56,0,0,0,.33-.6.28.28,0,0,0,0-.18.25.25,0,0,0,0-.17.56.56,0,0,0-.33-.6l-4.25-2.45a1.93,1.93,0,0,0-1.78,0l-5.06,2.92a.56.56,0,0,0-.34.59.54.54,0,0,0,0,.18.49.49,0,0,0,0,.17A.57.57,0,0,0,211.64,207.6Zm-8.16,4.71,4.25,2.45a1.93,1.93,0,0,0,1.78,0l5.06-2.91a.58.58,0,0,0,.34-.6.54.54,0,0,0,0-.18.48.48,0,0,0,0-.17.58.58,0,0,0-.34-.6l-4.25-2.45a1.93,1.93,0,0,0-1.78,0l-5.06,2.92a.57.57,0,0,0-.34.6.48.48,0,0,0,0,.17.49.49,0,0,0,0,.17A.57.57,0,0,0,203.48,212.31Zm-32.64,18.84,4.26,2.46a2,2,0,0,0,1.77,0l5.06-2.92a.57.57,0,0,0,.34-.6.49.49,0,0,0,0-.17.48.48,0,0,0,0-.17.57.57,0,0,0-.34-.6l-4.25-2.46a2,2,0,0,0-1.78,0l-5.06,2.92a.55.55,0,0,0-.33.6.25.25,0,0,0,0,.17.28.28,0,0,0,0,.18A.54.54,0,0,0,170.84,231.15Zm8.16-4.71,4.25,2.46a2,2,0,0,0,1.78,0l5.06-2.92a.57.57,0,0,0,.34-.6.49.49,0,0,0,0-.17.54.54,0,0,0,0-.18.56.56,0,0,0-.34-.59c-6.26-3.62-4.14-3.55-11.09.46a.55.55,0,0,0-.33.6.25.25,0,0,0,0,.17.25.25,0,0,0,0,.17A.55.55,0,0,0,179,226.44Zm8.16-4.71,4.25,2.46a2,2,0,0,0,1.78,0l5.06-2.92a.58.58,0,0,0,.34-.6.48.48,0,0,0,0-.17.54.54,0,0,0,0-.18.58.58,0,0,0-.34-.6L194,217.27a2,2,0,0,0-1.78,0l-5.06,2.92a.57.57,0,0,0-.34.6.49.49,0,0,0,0,.17.49.49,0,0,0,0,.17A.57.57,0,0,0,187.16,221.73Zm8.16-4.71c4.18,2.41,4.9,3.11,6,2.46l5.06-2.92a.58.58,0,0,0,.34-.6.48.48,0,0,0,0-.17.54.54,0,0,0,0-.18.58.58,0,0,0-.34-.6l-4.25-2.45a2,2,0,0,0-1.78,0l-5.06,2.92a.57.57,0,0,0-.34.6.49.49,0,0,0,0,.17.49.49,0,0,0,0,.17A.57.57,0,0,0,195.32,217Zm-14.55,31a.25.25,0,0,0,0-.17.25.25,0,0,0,0-.17.55.55,0,0,0-.33-.6l-4.25-2.45a1.93,1.93,0,0,0-1.78,0l-7.69,4.43a.58.58,0,0,0-.34.6.48.48,0,0,0,0,.17.54.54,0,0,0,0,.18.58.58,0,0,0,.34.6l4.25,2.45a2,2,0,0,0,1.78,0l7.69-4.44A.55.55,0,0,0,180.77,248.07Zm-10.23-2.74a.25.25,0,0,0,0-.17.25.25,0,0,0,0-.17.55.55,0,0,0-.33-.6L166,241.93a2,2,0,0,0-1.77,0l-5.06,2.92a.57.57,0,0,0-.34.6.49.49,0,0,0,0,.17.54.54,0,0,0,0,.18.58.58,0,0,0,.34.6l4.25,2.45a2,2,0,0,0,1.78,0l5.06-2.92A.55.55,0,0,0,170.54,245.33ZM176.93,219c6.13,3.54,4,3.62,11.09-.46a.58.58,0,0,0,.34-.6.54.54,0,0,0,0-.18.48.48,0,0,0,0-.17.58.58,0,0,0-.34-.6l-4.25-2.45a1.93,1.93,0,0,0-1.78,0l-5.06,2.92a.57.57,0,0,0-.34.6.48.48,0,0,0,0,.17.49.49,0,0,0,0,.17A.57.57,0,0,0,176.93,219Zm85.5-18a.25.25,0,0,0,0-.17.28.28,0,0,0,0-.18c.05-.21-.05-.43-.34-.6l-4.25-2.45a2,2,0,0,0-1.77,0L251,200.52a.57.57,0,0,0-.34.6.49.49,0,0,0,0,.17.49.49,0,0,0,0,.17.57.57,0,0,0,.34.6l4.25,2.46a2,2,0,0,0,1.78,0l5-2.92C262.38,201.43,262.48,201.21,262.43,201ZM166,239.51a.49.49,0,0,0,0-.17.49.49,0,0,0,0-.17.57.57,0,0,0-.34-.6l-4.25-2.46a2,2,0,0,0-1.78,0l-7.69,4.44a.56.56,0,0,0-.33.6.25.25,0,0,0,0,.17.28.28,0,0,0,0,.18.56.56,0,0,0,.33.6l4.26,2.45a2,2,0,0,0,1.77,0l7.69-4.44A.57.57,0,0,0,166,239.51Zm2.82-15.81,4.25,2.46a2,2,0,0,0,1.78,0l5.06-2.92a.58.58,0,0,0,.34-.6.48.48,0,0,0,0-.17.54.54,0,0,0,0-.18.58.58,0,0,0-.34-.6l-4.25-2.45a2,2,0,0,0-1.78,0l-5.06,2.92a.55.55,0,0,0-.33.6.25.25,0,0,0,0,.17.25.25,0,0,0,0,.17A.55.55,0,0,0,168.77,223.7Zm-8.16,4.71,4.25,2.46a2,2,0,0,0,1.78,0L171.7,228a.58.58,0,0,0,.34-.6.48.48,0,0,0,0-.17.54.54,0,0,0,0-.18.58.58,0,0,0-.34-.6L167.45,224a2,2,0,0,0-1.78,0l-5.06,2.92a.55.55,0,0,0-.33.6.25.25,0,0,0,0,.17.25.25,0,0,0,0,.17A.55.55,0,0,0,160.61,228.41Zm-4.89,8.36a.49.49,0,0,0,0-.17.48.48,0,0,0,0-.17.57.57,0,0,0-.34-.6l-4.25-2.46a2,2,0,0,0-1.78,0l-5,2.92a.55.55,0,0,0-.34.6.25.25,0,0,0,0,.17.28.28,0,0,0,0,.18.54.54,0,0,0,.34.59l4.25,2.46a2,2,0,0,0,1.77,0l5.06-2.92A.57.57,0,0,0,155.72,236.77Zm-3.27-3.65,4.26,2.46a2,2,0,0,0,1.77,0l5.06-2.92a.57.57,0,0,0,.34-.6.49.49,0,0,0,0-.17.54.54,0,0,0,0-.18.58.58,0,0,0-.34-.6l-4.25-2.45a2,2,0,0,0-1.78,0l-5.06,2.92a.55.55,0,0,0-.33.6.25.25,0,0,0,0,.17.25.25,0,0,0,0,.17A.55.55,0,0,0,152.45,233.12Zm133.76-37.58a.54.54,0,0,0-.34-.6l-4.25-2.46a2,2,0,0,0-1.78,0l-5,2.92a.58.58,0,0,0-.34.6.48.48,0,0,0,0,.17.54.54,0,0,0,0,.18.58.58,0,0,0,.34.6L279,199.4a2,2,0,0,0,1.78,0l5.05-2.92a.54.54,0,0,0,.34-.6.49.49,0,0,0,0-.17A.49.49,0,0,0,286.21,195.54Zm-32.34,9.19-4.25-2.45a1.93,1.93,0,0,0-1.78,0l-5.05,2.91a.58.58,0,0,0-.34.6.54.54,0,0,0,0,.18.48.48,0,0,0,0,.17.58.58,0,0,0,.34.6l4.25,2.45a1.93,1.93,0,0,0,1.78,0l5.05-2.92a.54.54,0,0,0,.34-.6.48.48,0,0,0,0-.17.49.49,0,0,0,0-.17A.55.55,0,0,0,253.87,204.73Zm16.38-9.39L266,192.89a1.91,1.91,0,0,0-1.77,0l-5.06,2.92a.57.57,0,0,0-.34.6.48.48,0,0,0,0,.17.49.49,0,0,0,0,.17.57.57,0,0,0,.34.6l4.25,2.45a1.93,1.93,0,0,0,1.78,0l5.05-2.91c.29-.17.39-.39.34-.6a.54.54,0,0,0,0-.18.48.48,0,0,0,0-.17C270.64,195.73,270.54,195.51,270.25,195.34Zm-32.7,18.81-4.25-2.45a1.93,1.93,0,0,0-1.78,0l-5.05,2.92a.57.57,0,0,0-.34.6.48.48,0,0,0,0,.17.49.49,0,0,0,0,.17.57.57,0,0,0,.34.6l4.25,2.45a1.93,1.93,0,0,0,1.78,0l5.05-2.91c.29-.17.39-.39.34-.6a.54.54,0,0,0,0-.18.48.48,0,0,0,0-.17C237.94,214.54,237.84,214.32,237.55,214.15ZM267,191.69a.54.54,0,0,0,0,.18.49.49,0,0,0,0,.17.57.57,0,0,0,.34.6l4.25,2.45a1.93,1.93,0,0,0,1.78,0l5.05-2.91c.29-.17.39-.39.34-.6a.54.54,0,0,0,0-.18.48.48,0,0,0,0-.17c.05-.21-.05-.43-.34-.6l-4.25-2.45a1.93,1.93,0,0,0-1.78,0l-5.05,2.92A.56.56,0,0,0,267,191.69ZM204.91,233l-4.25-2.46a2,2,0,0,0-1.77,0l-5.06,2.92a.57.57,0,0,0-.34.6.49.49,0,0,0,0,.17.48.48,0,0,0,0,.17.57.57,0,0,0,.34.6l4.25,2.46a2,2,0,0,0,1.78,0l5-2.92a.55.55,0,0,0,.34-.6.25.25,0,0,0,0-.17.25.25,0,0,0,0-.17A.54.54,0,0,0,204.91,233Zm16.32-9.43L217,221.12a2,2,0,0,0-1.77,0L210.15,224a.57.57,0,0,0-.34.6.49.49,0,0,0,0,.17.49.49,0,0,0,0,.17.57.57,0,0,0,.34.6L214.4,228a2,2,0,0,0,1.78,0l5-2.92c.29-.17.39-.39.34-.6a.25.25,0,0,0,0-.17.28.28,0,0,0,0-.18C221.62,224,221.52,223.74,221.23,223.57Zm-8.16,4.71-4.25-2.45a2,2,0,0,0-1.77,0L202,228.75a.57.57,0,0,0-.34.6.49.49,0,0,0,0,.17.48.48,0,0,0,0,.17.57.57,0,0,0,.34.6l4.25,2.46a2,2,0,0,0,1.78,0l5-2.92a.55.55,0,0,0,.34-.6.25.25,0,0,0,0-.17.28.28,0,0,0,0-.18C213.46,228.67,213.36,228.45,213.07,228.28Zm-16.32,9.43-4.25-2.46a2,2,0,0,0-1.77,0l-5.06,2.92a.58.58,0,0,0-.34.6.49.49,0,0,0,0,.17.54.54,0,0,0,0,.18.58.58,0,0,0,.34.6l4.25,2.45a2,2,0,0,0,1.78,0l5.05-2.92a.54.54,0,0,0,.34-.6.25.25,0,0,0,0-.17.25.25,0,0,0,0-.17A.54.54,0,0,0,196.75,237.71Zm-8.15,4.71L184.34,240a2,2,0,0,0-1.77,0l-5.06,2.92a.58.58,0,0,0-.34.6.48.48,0,0,0,0,.17.54.54,0,0,0,0,.18.58.58,0,0,0,.34.6l4.25,2.45a2,2,0,0,0,1.78,0L188.6,244a.55.55,0,0,0,.33-.6.25.25,0,0,0,0-.17.25.25,0,0,0,0-.17A.55.55,0,0,0,188.6,242.42Zm40.79-23.56-4.25-2.45a2,2,0,0,0-1.78,0l-5.05,2.92a.57.57,0,0,0-.34.6.48.48,0,0,0,0,.17.49.49,0,0,0,0,.17.57.57,0,0,0,.34.6l4.25,2.46a2,2,0,0,0,1.78,0l5-2.92c.29-.17.39-.39.34-.6a.54.54,0,0,0,0-.18.48.48,0,0,0,0-.17C229.78,219.25,229.68,219,229.39,218.86Zm16.32-9.42L241.46,207a1.93,1.93,0,0,0-1.78,0l-5.05,2.91a.58.58,0,0,0-.34.6.54.54,0,0,0,0,.18.49.49,0,0,0,0,.17.57.57,0,0,0,.34.6l4.25,2.45a1.93,1.93,0,0,0,1.78,0l5.05-2.91c.29-.17.39-.39.34-.6a.54.54,0,0,0,0-.18.49.49,0,0,0,0-.17A.55.55,0,0,0,245.71,209.44Zm-44.39,34.07-4.25-2.46a2,2,0,0,0-1.78,0l-5,2.92c-.29.17-.39.39-.34.6a.48.48,0,0,0,0,.17.54.54,0,0,0,0,.18c-.05.21,0,.43.34.6l4.25,2.45a2,2,0,0,0,1.78,0l5-2.92a.54.54,0,0,0,.34-.6.49.49,0,0,0,0-.17.49.49,0,0,0,0-.17A.54.54,0,0,0,201.32,243.51Zm8.16-4.71-4.25-2.46a2,2,0,0,0-1.78,0l-5,2.92a.55.55,0,0,0-.34.6.49.49,0,0,0,0,.17.54.54,0,0,0,0,.18c-.05.21.05.43.34.6l4.25,2.45a2,2,0,0,0,1.78,0l5-2.92a.54.54,0,0,0,.34-.6.49.49,0,0,0,0-.17.48.48,0,0,0,0-.17A.54.54,0,0,0,209.48,238.8Zm-16.32,9.42-4.25-2.46a2,2,0,0,0-1.78,0l-5,2.92a.58.58,0,0,0-.34.6.54.54,0,0,0,0,.18.48.48,0,0,0,0,.17.58.58,0,0,0,.34.6l4.25,2.45a1.93,1.93,0,0,0,1.78,0l5-2.92a.54.54,0,0,0,.34-.6.48.48,0,0,0,0-.17.49.49,0,0,0,0-.17A.54.54,0,0,0,193.16,248.22ZM185,252.93l-4.25-2.45a1.93,1.93,0,0,0-1.78,0l-5.05,2.91a.58.58,0,0,0-.34.6.54.54,0,0,0,0,.18.48.48,0,0,0,0,.17.58.58,0,0,0,.34.6l4.25,2.45a1.93,1.93,0,0,0,1.78,0l5.05-2.92a.54.54,0,0,0,.34-.6.48.48,0,0,0,0-.17.49.49,0,0,0,0-.17A.55.55,0,0,0,185,252.93Zm61.27-52.46L242,198a2,2,0,0,0-1.78,0l-7.68,4.44a.58.58,0,0,0-.34.6.48.48,0,0,0,0,.17.54.54,0,0,0,0,.18.58.58,0,0,0,.34.6l4.25,2.45a2,2,0,0,0,1.78,0l7.68-4.44a.54.54,0,0,0,.34-.6.49.49,0,0,0,0-.17.49.49,0,0,0,0-.17A.54.54,0,0,0,246.27,200.47ZM261,209l-4.25-2.45a1.93,1.93,0,0,0-1.78,0L247.31,211c-.29.17-.39.39-.34.6a.48.48,0,0,0,0,.17.54.54,0,0,0,0,.18c-.05.21.05.43.34.6l4.25,2.45a2,2,0,0,0,1.78,0l7.68-4.44a.54.54,0,0,0,.34-.6.48.48,0,0,0,0-.17.49.49,0,0,0,0-.17A.55.55,0,0,0,261,209Zm16.69-9.39-4.25-2.46a2,2,0,0,0-1.78,0l-5.05,2.92a.58.58,0,0,0-.34.6.54.54,0,0,0,0,.18.48.48,0,0,0,0,.17.58.58,0,0,0,.34.6l4.25,2.45a2,2,0,0,0,1.78,0l5-2.92a.54.54,0,0,0,.34-.6.48.48,0,0,0,0-.17.49.49,0,0,0,0-.17A.54.54,0,0,0,277.71,199.65Zm-8.16,4.71-4.25-2.45a1.93,1.93,0,0,0-1.78,0l-5,2.91a.58.58,0,0,0-.34.6.54.54,0,0,0,0,.18.48.48,0,0,0,0,.17.58.58,0,0,0,.34.6l4.25,2.45a1.93,1.93,0,0,0,1.78,0l5.05-2.92a.54.54,0,0,0,.34-.6.48.48,0,0,0,0-.17.49.49,0,0,0,0-.17A.55.55,0,0,0,269.55,204.36Zm-19.14,10.89-4.25-2.46a2,2,0,0,0-1.77,0L206.6,234.61c-.29.17-.39.39-.34.6a.28.28,0,0,0,0,.18.25.25,0,0,0,0,.17c0,.21.05.43.34.6l4.25,2.45a1.91,1.91,0,0,0,1.77,0l37.79-21.82a.54.54,0,0,0,.34-.6.25.25,0,0,0,0-.17.25.25,0,0,0,0-.17A.54.54,0,0,0,250.41,215.25Zm-31.25.87-4.25-2.45a1.91,1.91,0,0,0-1.77,0l-5.06,2.91a.58.58,0,0,0-.34.6.54.54,0,0,0,0,.18.49.49,0,0,0,0,.17.58.58,0,0,0,.34.6l4.25,2.45a1.93,1.93,0,0,0,1.78,0l5-2.92a.54.54,0,0,0,.34-.59.54.54,0,0,0,0-.18.49.49,0,0,0,0-.17A.55.55,0,0,0,219.16,216.12ZM211,220.83l-4.25-2.45a1.91,1.91,0,0,0-1.77,0l-5.06,2.92a.57.57,0,0,0-.34.6.48.48,0,0,0,0,.17.49.49,0,0,0,0,.17.57.57,0,0,0,.34.6l4.25,2.45a1.93,1.93,0,0,0,1.78,0l5.05-2.91c.29-.17.39-.39.34-.6a.28.28,0,0,0,0-.18.25.25,0,0,0,0-.17C211.39,221.22,211.29,221,211,220.83Zm16.32-9.42L223.07,209a1.93,1.93,0,0,0-1.78,0l-5,2.91a.58.58,0,0,0-.34.6.54.54,0,0,0,0,.18.48.48,0,0,0,0,.17.58.58,0,0,0,.34.6l4.25,2.45a1.93,1.93,0,0,0,1.78,0l5-2.92a.54.54,0,0,0,.34-.6.48.48,0,0,0,0-.17.49.49,0,0,0,0-.17A.55.55,0,0,0,227.32,211.41ZM252.1,183.1a.25.25,0,0,0,0,.17.25.25,0,0,0,0,.17.55.55,0,0,0,.34.6l4.25,2.45a1.91,1.91,0,0,0,1.77,0l5.06-2.91a.58.58,0,0,0,.34-.6.54.54,0,0,0,0-.18.48.48,0,0,0,0-.17.58.58,0,0,0-.34-.6l-4.25-2.45a1.93,1.93,0,0,0-1.78,0l-5.05,2.92A.54.54,0,0,0,252.1,183.1Zm-16.62,23.6-4.25-2.46a2,2,0,0,0-1.78,0l-5,2.92a.58.58,0,0,0-.34.6.48.48,0,0,0,0,.17.54.54,0,0,0,0,.18.58.58,0,0,0,.34.6l4.25,2.45a2,2,0,0,0,1.78,0l5-2.92a.54.54,0,0,0,.34-.6.49.49,0,0,0,0-.17.49.49,0,0,0,0-.17A.54.54,0,0,0,235.48,206.7Zm-32.64,18.84-4.25-2.45a2,2,0,0,0-1.77,0L191.76,226a.57.57,0,0,0-.34.6.48.48,0,0,0,0,.17.49.49,0,0,0,0,.17.57.57,0,0,0,.34.6L196,230a2,2,0,0,0,1.78,0l5.05-2.92c.29-.17.39-.39.34-.6a.28.28,0,0,0,0-.18.25.25,0,0,0,0-.17C203.23,225.93,203.13,225.71,202.84,225.54ZM186.52,235l-4.25-2.45a2,2,0,0,0-1.77,0l-5.06,2.92a.57.57,0,0,0-.34.6.49.49,0,0,0,0,.17.48.48,0,0,0,0,.17.57.57,0,0,0,.34.6l4.25,2.46a2,2,0,0,0,1.78,0l5.05-2.92c.29-.17.39-.39.34-.6a.25.25,0,0,0,0-.17.28.28,0,0,0,0-.18C186.91,235.35,186.81,235.13,186.52,235Zm8.16-4.71-4.25-2.45a2,2,0,0,0-1.77,0l-5.06,2.92a.57.57,0,0,0-.34.6.49.49,0,0,0,0,.17.49.49,0,0,0,0,.17.57.57,0,0,0,.34.6l4.25,2.46a2,2,0,0,0,1.78,0l5.05-2.92c.29-.17.39-.39.34-.6a.25.25,0,0,0,0-.17.28.28,0,0,0,0-.18C195.07,230.64,195,230.42,194.68,230.25Z"/><path class="cls-28" d="M155.38,236.63l-5.06,2.92a2,2,0,0,1-1.77,0l-4.25-2.46c-.5-.28-.5-.74,0-1l5-2.92a1.93,1.93,0,0,1,1.78,0l4.25,2.45A.54.54,0,0,1,155.38,236.63Zm8.16-5.74-4.25-2.45a1.93,1.93,0,0,0-1.78,0l-5.06,2.91c-.49.29-.49.75,0,1l4.26,2.46a2,2,0,0,0,1.77,0l5.06-2.92C164,231.63,164,231.17,163.54,230.89Zm8.16-4.71-4.25-2.45a1.93,1.93,0,0,0-1.78,0l-5.06,2.91c-.49.29-.49.75,0,1l4.25,2.45a1.93,1.93,0,0,0,1.78,0l5.06-2.91C172.19,226.92,172.19,226.46,171.7,226.18Zm8.16-4.71L175.61,219a2,2,0,0,0-1.78,0l-5.06,2.92c-.49.29-.49.75,0,1l4.25,2.45a1.93,1.93,0,0,0,1.78,0l5.06-2.92A.54.54,0,0,0,179.86,221.47Zm8.16-4.71-4.25-2.46a2,2,0,0,0-1.78,0l-5.06,2.92a.54.54,0,0,0,0,1l4.25,2.45a1.93,1.93,0,0,0,1.78,0l5.06-2.92A.54.54,0,0,0,188,216.76Zm8.16-4.71-4.25-2.46a2,2,0,0,0-1.78,0l-5.06,2.92c-.49.28-.49.74,0,1l4.25,2.45a2,2,0,0,0,1.78,0l5.06-2.92A.54.54,0,0,0,196.18,212.05Zm8.16-4.71-4.25-2.46a2,2,0,0,0-1.78,0l-5.06,2.92c-.49.28-.49.74,0,1l4.25,2.45a2,2,0,0,0,1.78,0l5.06-2.92A.54.54,0,0,0,204.34,207.34Zm8.16-4.72-4.25-2.45a2,2,0,0,0-1.78,0l-5.06,2.92a.54.54,0,0,0,0,1l4.25,2.46a2,2,0,0,0,1.78,0l5.06-2.92C213,203.37,213,202.91,212.5,202.62Zm8.16-4.71-4.26-2.45a2,2,0,0,0-1.77,0l-5.06,2.92a.54.54,0,0,0,0,1l4.25,2.46a2,2,0,0,0,1.78,0l5.06-2.92C221.15,198.66,221.15,198.2,220.66,197.91Zm10.79-6.23-4.25-2.45a2,2,0,0,0-1.78,0l-7.69,4.44a.54.54,0,0,0,0,1l4.25,2.46a2,2,0,0,0,1.78,0l7.69-4.44C231.94,192.43,231.94,192,231.45,191.68Zm30.64,8.15-4.25-2.46a2,2,0,0,0-1.77,0L251,200.29c-.49.29-.49.75,0,1l4.25,2.45a1.93,1.93,0,0,0,1.78,0l5-2.91C262.58,200.57,262.58,200.11,262.09,199.83Zm8.16-4.71L266,192.66a2,2,0,0,0-1.77,0l-5.06,2.92a.54.54,0,0,0,0,1l4.25,2.45a1.93,1.93,0,0,0,1.78,0l5.05-2.92A.54.54,0,0,0,270.25,195.12Zm8.16-4.71L274.16,188a2,2,0,0,0-1.78,0l-5.05,2.92c-.49.28-.49.74,0,1l4.25,2.45a2,2,0,0,0,1.78,0l5.05-2.92A.54.54,0,0,0,278.41,190.41Zm-8.86,13.73-4.25-2.46a2,2,0,0,0-1.78,0l-5,2.92c-.49.28-.49.74,0,1l4.25,2.45a2,2,0,0,0,1.78,0l5.05-2.92A.54.54,0,0,0,269.55,204.14Zm8.16-4.72L273.46,197a2,2,0,0,0-1.78,0l-5.05,2.92c-.49.28-.49.74,0,1l4.25,2.45a2,2,0,0,0,1.78,0l5-2.92C278.2,200.17,278.2,199.71,277.71,199.42Zm8.16-4.71-4.25-2.45a2,2,0,0,0-1.78,0l-5,2.92a.54.54,0,0,0,0,1l4.25,2.46a2,2,0,0,0,1.78,0l5.05-2.92C286.36,195.46,286.36,195,285.87,194.71ZM165.61,238.34l-4.25-2.45a2,2,0,0,0-1.78,0l-7.69,4.44a.54.54,0,0,0,0,1l4.26,2.46a2,2,0,0,0,1.77,0l7.69-4.44C166.1,239.09,166.1,238.63,165.61,238.34Zm8.16-4.71-4.25-2.45a2,2,0,0,0-1.78,0l-5.05,2.92c-.5.28-.5.74,0,1l4.25,2.46a2,2,0,0,0,1.77,0l5.06-2.92C174.26,234.38,174.26,233.92,173.77,233.63Zm8.16-4.71-4.25-2.45a1.93,1.93,0,0,0-1.78,0l-5.06,2.92a.54.54,0,0,0,0,1l4.26,2.46a2,2,0,0,0,1.77,0l5.06-2.92A.54.54,0,0,0,181.93,228.92Zm8.16-4.71-4.25-2.45a1.93,1.93,0,0,0-1.78,0L179,224.67c-.49.29-.49.75,0,1l4.25,2.46a2,2,0,0,0,1.78,0l5.06-2.92C190.58,225,190.58,224.49,190.09,224.21Zm8.16-4.71L194,217.05a1.93,1.93,0,0,0-1.78,0L187.16,220c-.49.29-.49.75,0,1l4.25,2.45a1.93,1.93,0,0,0,1.78,0l5.06-2.91C198.74,220.24,198.74,219.78,198.25,219.5Zm8.16-4.71-4.25-2.46a2,2,0,0,0-1.78,0l-5.06,2.92c-.49.29-.49.75,0,1l4.25,2.45a1.93,1.93,0,0,0,1.78,0l5.06-2.91C206.9,215.53,206.9,215.07,206.41,214.79Zm8.16-4.71-4.25-2.46a2,2,0,0,0-1.78,0l-5.06,2.92a.54.54,0,0,0,0,1l4.25,2.45a1.93,1.93,0,0,0,1.78,0l5.06-2.92A.54.54,0,0,0,214.57,210.08Zm8.16-4.71-4.25-2.46a2,2,0,0,0-1.78,0l-5.06,2.92c-.49.28-.49.74,0,1l4.25,2.45a2,2,0,0,0,1.78,0l5.06-2.92A.54.54,0,0,0,222.73,205.37Zm8.16-4.71-4.25-2.46a2,2,0,0,0-1.78,0l-5.06,2.92c-.49.28-.49.74,0,1l4.25,2.45a2,2,0,0,0,1.78,0l5.06-2.92A.54.54,0,0,0,230.89,200.66Zm8.16-4.72-4.26-2.45a2,2,0,0,0-1.77,0L228,196.41c-.49.28-.49.74,0,1l4.25,2.45a2,2,0,0,0,1.78,0l5.06-2.92C239.54,196.69,239.54,196.23,239.05,195.94Zm-68.84,48.22L166,241.71a1.91,1.91,0,0,0-1.77,0l-5.06,2.92a.54.54,0,0,0,0,1l4.25,2.46a2,2,0,0,0,1.78,0l5.06-2.92C170.7,244.91,170.7,244.45,170.21,244.16Zm8.15-4.71L174.11,237a1.91,1.91,0,0,0-1.77,0l-5.06,2.92a.54.54,0,0,0,0,1l4.25,2.46a2,2,0,0,0,1.78,0l5.05-2.92C178.86,240.19,178.86,239.73,178.36,239.45Zm8.16-4.71-4.25-2.45a1.91,1.91,0,0,0-1.77,0l-5.06,2.91c-.49.29-.49.75,0,1l4.25,2.45a1.93,1.93,0,0,0,1.78,0l5.05-2.91C187,235.48,187,235,186.52,234.74Zm8.16-4.71-4.25-2.45a1.91,1.91,0,0,0-1.77,0l-5.06,2.91c-.49.29-.49.75,0,1l4.25,2.45a1.93,1.93,0,0,0,1.78,0l5.05-2.91C195.18,230.77,195.18,230.31,194.68,230ZM185,252.71l-4.25-2.46a2,2,0,0,0-1.78,0l-5.05,2.92c-.49.28-.49.74,0,1l4.25,2.45a2,2,0,0,0,1.78,0l5.05-2.92A.54.54,0,0,0,185,252.71Zm8.16-4.72-4.25-2.45a2,2,0,0,0-1.78,0l-5,2.92c-.49.28-.49.74,0,1l4.25,2.45a2,2,0,0,0,1.78,0l5-2.92C193.65,248.74,193.65,248.28,193.16,248Zm8.16-4.71-4.25-2.45a2,2,0,0,0-1.78,0l-5,2.92a.54.54,0,0,0,0,1l4.25,2.46a2,2,0,0,0,1.78,0l5-2.92C201.81,244,201.81,243.57,201.32,243.28Zm8.16-4.71-4.25-2.45a1.93,1.93,0,0,0-1.78,0l-5,2.92a.54.54,0,0,0,0,1l4.25,2.46a2,2,0,0,0,1.78,0l5-2.92C210,239.32,210,238.86,209.48,238.57ZM261,208.82l-4.25-2.46a2,2,0,0,0-1.78,0l-7.68,4.44a.54.54,0,0,0,0,1l4.25,2.46a2,2,0,0,0,1.78,0l7.68-4.44A.54.54,0,0,0,261,208.82Zm-58.18,16.5-4.25-2.46a2,2,0,0,0-1.77,0l-5.06,2.92c-.49.29-.49.75,0,1l4.25,2.45a1.93,1.93,0,0,0,1.78,0l5.05-2.92C203.34,226.06,203.34,225.6,202.84,225.32Zm8.16-4.71-4.25-2.46a2,2,0,0,0-1.77,0l-5.06,2.92c-.49.28-.49.74,0,1l4.25,2.45a1.93,1.93,0,0,0,1.78,0l5.05-2.92A.54.54,0,0,0,211,220.61Zm8.16-4.71-4.25-2.46a2,2,0,0,0-1.77,0l-5.06,2.92c-.49.28-.49.74,0,1l4.25,2.45a2,2,0,0,0,1.78,0l5-2.92A.54.54,0,0,0,219.16,215.9Zm8.16-4.71-4.25-2.46a2,2,0,0,0-1.78,0l-5,2.92c-.49.28-.49.74,0,1l4.25,2.45a2,2,0,0,0,1.78,0l5-2.92A.54.54,0,0,0,227.32,211.19Zm8.16-4.72L231.23,204a2,2,0,0,0-1.78,0l-5,2.92a.54.54,0,0,0,0,1l4.25,2.46a2,2,0,0,0,1.78,0l5-2.92C236,207.22,236,206.76,235.48,206.47Zm10.79-6.23L242,197.79a2,2,0,0,0-1.78,0l-7.68,4.44a.54.54,0,0,0,0,1l4.25,2.46a2,2,0,0,0,1.78,0l7.68-4.44C246.76,201,246.76,200.53,246.27,200.24ZM180.44,246.9l-4.25-2.45a2,2,0,0,0-1.78,0l-7.69,4.44a.54.54,0,0,0,0,1l4.25,2.46a2,2,0,0,0,1.78,0l7.69-4.44C180.93,247.65,180.93,247.19,180.44,246.9Zm8.16-4.71-4.26-2.45a2,2,0,0,0-1.77,0l-5.06,2.92a.54.54,0,0,0,0,1l4.25,2.46a2,2,0,0,0,1.78,0l5.06-2.92C189.09,242.94,189.09,242.48,188.6,242.19Zm8.15-4.71L192.5,235a2,2,0,0,0-1.77,0L185.67,238a.54.54,0,0,0,0,1l4.25,2.46a2,2,0,0,0,1.78,0l5.05-2.92C197.25,238.23,197.25,237.77,196.75,237.48Zm8.16-4.71-4.25-2.45a1.91,1.91,0,0,0-1.77,0l-5.06,2.92a.54.54,0,0,0,0,1l4.25,2.46a2,2,0,0,0,1.78,0l5-2.92C205.41,233.51,205.41,233.06,204.91,232.77Zm8.16-4.71-4.25-2.45a1.91,1.91,0,0,0-1.77,0L202,228.52c-.49.29-.49.75,0,1l4.25,2.46a2,2,0,0,0,1.78,0l5-2.92C213.57,228.8,213.57,228.34,213.07,228.06Zm37.34-13-4.25-2.45a2,2,0,0,0-1.77,0L206.6,234.39c-.5.28-.5.74,0,1l4.25,2.45a2,2,0,0,0,1.77,0l37.79-21.82C250.9,215.77,250.9,215.31,250.41,215Zm-29.18,8.33L217,220.9a1.91,1.91,0,0,0-1.77,0l-5.06,2.91c-.49.29-.49.75,0,1l4.25,2.45a1.93,1.93,0,0,0,1.78,0l5-2.91C221.72,224.09,221.72,223.63,221.23,223.35Zm8.16-4.71-4.25-2.46a2,2,0,0,0-1.78,0l-5.05,2.92c-.49.29-.49.75,0,1l4.25,2.45a1.93,1.93,0,0,0,1.78,0l5-2.92A.54.54,0,0,0,229.39,218.64Zm8.16-4.71-4.25-2.46a2,2,0,0,0-1.78,0l-5.05,2.92c-.49.28-.49.74,0,1l4.25,2.45a1.93,1.93,0,0,0,1.78,0l5.05-2.92A.54.54,0,0,0,237.55,213.93Zm8.16-4.71-4.25-2.46a2,2,0,0,0-1.78,0l-5.05,2.92c-.49.28-.49.74,0,1l4.25,2.45a2,2,0,0,0,1.78,0l5.05-2.92A.54.54,0,0,0,245.71,209.22Zm8.16-4.71-4.25-2.46a2,2,0,0,0-1.78,0L242.79,205c-.49.28-.49.74,0,1l4.25,2.45a2,2,0,0,0,1.78,0l5.05-2.92A.54.54,0,0,0,253.87,204.51Zm-14.11-17.58-4.25-2.45a2,2,0,0,0-1.78,0l-5,2.92c-.5.28-.5.74,0,1l4.25,2.46a2,2,0,0,0,1.77,0l5.06-2.92C240.25,187.68,240.25,187.22,239.76,186.93Zm8.16-4.71-4.25-2.45a1.93,1.93,0,0,0-1.78,0l-5,2.92c-.5.28-.5.74,0,1l4.25,2.46a2,2,0,0,0,1.77,0l5.06-2.92C248.41,183,248.41,182.51,247.92,182.22Zm8.16-4.71-4.25-2.45a1.93,1.93,0,0,0-1.78,0L245,178c-.5.28-.5.74,0,1l4.25,2.46a2,2,0,0,0,1.77,0l5.06-2.92C256.57,178.25,256.57,177.79,256.08,177.51Zm7.44,4.3-4.25-2.46a2,2,0,0,0-1.78,0l-5.05,2.92c-.49.28-.49.74,0,1l4.25,2.45a1.91,1.91,0,0,0,1.77,0l5.06-2.92A.54.54,0,0,0,263.52,181.81Z"/><path class="cls-29" d="M285.33,234.35,247.84,256a3.35,3.35,0,0,1-3.05,0l-24.85-14.35a.93.93,0,0,1,0-1.76l37.49-21.65a3.41,3.41,0,0,1,3.05,0l24.85,14.35C286.18,233.08,286.18,233.87,285.33,234.35Z"/><path class="cls-30" d="M219.94,240.34l37.49-21.64a3.35,3.35,0,0,1,3.05,0L285.33,233a1.24,1.24,0,0,1,.6.66c.12-.39-.08-.81-.6-1.11l-24.85-14.35a3.41,3.41,0,0,0-3.05,0l-37.49,21.65c-.52.3-.72.72-.6,1.11A1.28,1.28,0,0,1,219.94,240.34Z"/><path class="cls-31" d="M244.78,171.77l-106.2,61.31-.17.1,3.62,2.1L248.23,174l.17-.1ZM142,235l-3.16-1.83L244.78,172l3.16,1.83Z"/><path class="cls-27" d="M256.74,187.65l-5.59-3.23a2.46,2.46,0,0,0-2.21,0l-12.81,7.4a.71.71,0,0,0-.43.72.48.48,0,0,0,0,.17.54.54,0,0,0,0,.18.71.71,0,0,0,.43.72l11.16,6.45a2.46,2.46,0,0,0,2.21,0l21.25-12.27a.71.71,0,0,0,.43-.72.54.54,0,0,0,0-.18.48.48,0,0,0,0-.17.71.71,0,0,0-.43-.72l-4.16-2.4a1.59,1.59,0,0,0-1.47,0L258,187.66A1.41,1.41,0,0,1,256.74,187.65Z"/><path class="cls-28" d="M270.75,185.77l-4.16-2.4a1.65,1.65,0,0,0-1.47,0L258,187.43a1.38,1.38,0,0,1-1.25,0l-5.59-3.23a2.46,2.46,0,0,0-2.21,0l-12.81,7.39a.68.68,0,0,0,0,1.28l11.16,6.44a2.4,2.4,0,0,0,2.21,0l21.25-12.26A.68.68,0,0,0,270.75,185.77Z"/><path class="cls-4" d="M189.85,269.76l4.37,2.52c.51.29.92.11.92-.39a2,2,0,0,0-.92-1.46l-4.37-2.51c-.51-.3-.92-.12-.92.39A1.91,1.91,0,0,0,189.85,269.76Z"/><g class="cls-32"><path class="cls-33" d="M193.72,271.7l.61.35,2.16-1.25-.61-.35Zm-1.34-.77.61.35,2.16-1.25-.61-.35Zm-1.33-.78.61.35,2.15-1.24-.6-.35Zm-1.34-.77.61.35,2.16-1.24-.61-.35Z"/></g><polygon class="cls-4" points="175.69 260.86 163 253.54 163 252.38 175.69 259.7 175.69 260.86"/><g class="cls-5"><path class="cls-34" d="M198.66,280.49v-1.77l4.84-2.82v1.77a.3.3,0,0,1-.12.25l-4.84,2.83A.29.29,0,0,0,198.66,280.49Z"/><path class="cls-35" d="M198,272.37a.28.28,0,0,1,.29,0l4.87,2.81L198.26,278l-4.87-2.81a.27.27,0,0,0-.28,0Z"/><path class="cls-36" d="M203.11,275.21a.89.89,0,0,1,.4.69l-4.84,2.82a.88.88,0,0,0-.41-.69Z"/><path class="cls-37" d="M193,275.45c0-.26.18-.36.4-.23l4.87,2.81a.88.88,0,0,1,.41.69v1.77c0,.25-.18.36-.4.23l-4.87-2.81a.9.9,0,0,1-.4-.7Z"/></g><g id="Axonometric_Cylinder" data-name="Axonometric Cylinder"><path id="Cylinder_face" data-name="Cylinder face" class="cls-37" d="M194.49,277.56c-.58-.34-1-.07-1,.6a2.28,2.28,0,0,0,1,1.8c.57.33,1,.06,1-.6A2.3,2.3,0,0,0,194.49,277.56Z"/><path id="Cylinder_body" data-name="Cylinder body" class="cls-38" d="M195.22,280l1.31-.75a.73.73,0,0,0,.31-.68,2.31,2.31,0,0,0-1-1.8.76.76,0,0,0-.73-.08l-1.31.76a.71.71,0,0,1,.73.08,2.3,2.3,0,0,1,1,1.8A.72.72,0,0,1,195.22,280Z"/></g><path class="cls-39" d="M194.69,130.25a11.8,11.8,0,0,0-3.34,2.94,4.81,4.81,0,0,0-6.41-1,8.19,8.19,0,0,0-.72.48c-1.39-4.37-5.48-6.1-9.41-3.83-3.71,2.14-6,7.08-5.55,11.58a7.54,7.54,0,0,0-3.2,1c-4.14,2.39-6.6,8.11-5.72,13.07a7.14,7.14,0,0,0-2.9,1c-4.12,2.37-6.49,8.21-5.3,13.05s5.49,6.83,9.6,4.46l38.07-21.92c4.9-2.82,7.72-9.77,6.31-15.53S199.59,127.43,194.69,130.25Z"/><path class="cls-24" d="M166.07,156.54l1.65,6.7,24.38-14.07-1.65-6.71Zm25.39-7.67-23.39,13.5-1.36-5.54,23.39-13.5Z"/><polygon class="cls-24" points="184.44 147.56 185.37 151.32 168.53 161.03 167.6 157.27 184.44 147.56"/><path class="cls-24" d="M166.93,152.31l1.87-1.08.11.43L166.63,153l-1.27-5.19.4-.23Zm4.42-4.16,0,.16a2.12,2.12,0,0,1-.83,2.49c-.89.51-1.46-.05-1.7-1l0-.16a2.12,2.12,0,0,1,.83-2.49C170.54,146.61,171.11,147.17,171.35,148.15Zm-.41.23c-.19-.8-.59-1.18-1.18-.84a1.53,1.53,0,0,0-.54,1.84l0,.16c.2.8.6,1.18,1.19.84a1.52,1.52,0,0,0,.53-1.84Zm3.43-1,.28,1-.33.19-.18-.45a2,2,0,0,1-.92,1.17.68.68,0,0,1-1.11-.46v-.07a1.55,1.55,0,0,1,.71-1.64l.87-.68,0-.1c-.15-.6-.39-.82-.92-.52a1,1,0,0,0-.49,1.25l-.38.22,0-.06a1.53,1.53,0,0,1,.79-1.8c.84-.48,1.22-.1,1.41.68Zm-.61-.63-.83.66a1,1,0,0,0-.44,1.06v.06c.08.31.32.5.72.27a1.61,1.61,0,0,0,.78-1.09Zm3.66-1.13.28,1-.34.19-.17-.44a1.56,1.56,0,0,1-.75,1.06c-.82.47-1.34-.12-1.58-1.1l0-.16a2,2,0,0,1,.71-2.42.83.83,0,0,1,1,0l-.54-2.2.4-.23Zm-.8-1.41a.73.73,0,0,0-.9-.11,1.53,1.53,0,0,0-.5,1.82l0,.16c.2.82.59,1.19,1.16.86a1.45,1.45,0,0,0,.63-1Zm.71-2.38.51-.29-.15-.6-.51.29Zm1.12,4.33.4-.23L178,142.4l-.39.23Zm1.66-5.07a1.77,1.77,0,0,0-.86,1.16l-.18-.47-.33.19.28,1,.62,2.53.4-.23-.65-2.64a1.47,1.47,0,0,1,.69-1c.4-.23.71-.13.84.41l.59,2.4.4-.23-.61-2.47C181.14,141,180.71,140.75,180.11,141.09Zm3.66-2,.33-.19.21,1,.63,2.56a1.72,1.72,0,0,1-.84,2c-.87.5-1.31.08-1.49-.64l0-.09.38-.22c.16.67.46.88,1,.55a1.15,1.15,0,0,0,.55-1.44l-.16-.66a1.55,1.55,0,0,1-.74,1c-.82.47-1.33-.08-1.55-1l0-.14a2,2,0,0,1,.75-2.3.8.8,0,0,1,1,0Zm.12,1a.72.72,0,0,0-.9-.1,1.43,1.43,0,0,0-.54,1.69l0,.15c.18.74.57,1.06,1.13.74a1.4,1.4,0,0,0,.63-1Zm1.77,2,.51-.29-.15-.6-.51.29Zm1.22-.7.51-.3-.15-.6-.51.3ZM188,140l.15.6.51-.29-.15-.6Z"/><g class="cls-5"><path class="cls-34" d="M324.59,179.68v-1.77l-4.84-2.82v1.77a.28.28,0,0,0,.12.25l4.84,2.83A.32.32,0,0,1,324.59,179.68Z"/><path class="cls-35" d="M325.31,171.56a.28.28,0,0,0-.29,0l-4.87,2.81,4.84,2.82,4.87-2.81a.28.28,0,0,1,.29,0Z"/><path class="cls-36" d="M320.15,174.4a.89.89,0,0,0-.4.69l4.84,2.82a.89.89,0,0,1,.4-.69Z"/><path class="cls-37" d="M330.26,174.64c0-.26-.18-.36-.4-.23L325,177.22a.89.89,0,0,0-.4.69v1.77c0,.25.19.36.41.23l4.87-2.81a.9.9,0,0,0,.4-.7Z"/></g><g id="Axonometric_Cylinder-2" data-name="Axonometric Cylinder"><path id="Cylinder_face-2" data-name="Cylinder face" class="cls-37" d="M328.77,176.75c.57-.34,1-.07,1,.6a2.31,2.31,0,0,1-1,1.8c-.57.33-1,.06-1-.6A2.3,2.3,0,0,1,328.77,176.75Z"/><path id="Cylinder_body-2" data-name="Cylinder body" class="cls-40" d="M328,179.23l-1.31-.76a.73.73,0,0,1-.31-.68,2.31,2.31,0,0,1,1-1.8.76.76,0,0,1,.73-.08l1.31.76a.71.71,0,0,0-.73.08,2.3,2.3,0,0,0-1,1.8A.75.75,0,0,0,328,179.23Z"/></g><path class="cls-34" d="M349.09,189a.82.82,0,0,0-.53-.38s-19.26-11.14-19.26-11.14c-.6-.34-1.33.94-.74,1.28l18.34,10.58-22.31,12.88a.82.82,0,0,0-.4.69.8.8,0,0,0,.4.69l19.28,11.13-148.1,85.5-18.43-10.64,17.35-10c.59-.34-.14-1.62-.73-1.28l-18.33,10.58a.79.79,0,0,0-.49.37.8.8,0,0,0,.29,1.09l19.95,11.52a.78.78,0,0,0,.39.1.79.79,0,0,0,.4-.1l149.7-86.43a.79.79,0,0,0,.39-.69.81.81,0,0,0-.39-.69l-19.28-11.13L348.8,190A.8.8,0,0,0,349.09,189Z"/><polygon class="cls-41" points="250.98 64.19 191.83 98.34 191.83 173.93 251.03 139.75 250.98 64.19"/><path class="cls-42" d="M224,91.33l10.39-6v.79l-10.39,6Zm-1.57,4v.78l8.62-5v-.79Zm-.81,1.25v-.79l-10.33,6v.79Zm-3.05-1.37,4.61-2.66V91.8l-4.61,2.66Zm-.81.47v-.79L212,98.24V99Zm14-11.23,4.62-2.67V81l-4.62,2.66Zm3.42.37v.79l9.58-5.54v-.79Zm6.13-.41-9.48,5.47v.79l9.48-5.47Zm-30.87,18.61v-.79l-14.74,8.51v.79Zm.75-6.69,10.33-6v-.79l-10.33,6Zm11.14-6.43L231,85v-.79l-8.62,5Zm-12,6.9v-.79l-14.65,8.45v.79Zm26.81-15.48,6.55-3.79v-.79l-6.55,3.79Zm-26,17.35-15.52,9v.79l15.52-9Zm11.22,1.71v.78l8.62-5v-.79Zm-.81,1.25v-.78l-10.33,6v.79Zm.06,2.31v.79l5.74-3.32v-.79Zm6.55-3.78V101l4.61-2.66v-.79Zm.3,3v.79l8.62-5v-.78Zm-10.34,9.1V113l5.74-3.31v-.79Zm9.52-8.63-10.33,6v.79l10.33-6Zm1.64,2.19-4.61,2.66v.79l4.61-2.66ZM244,91.06l-10.4,6v.79l10.4-6Zm-27.48,19.78v-.78l-20.83,12v.79Zm-9.73,2.49v-.79L195.72,119v.79Zm34.5-23.83L231.83,95v.79l9.48-5.47Zm-30.87,18.61v-.79l-14.74,8.51v.79Zm19.69-2.77v.79l10.4-6v-.78Zm7.8-7.63v.79l4.61-2.67V95Zm-34.61,23.9v-.79l-7.48,4.32v.78Zm14-8.89-13.22,7.63v.79l13.22-7.63ZM242.12,89v.79l5.54-3.2v-.79Zm-21.28,16.2v-.78l-13.22,7.63v.78Zm22.52-10.65v.78l2.84-1.64v-.79Zm1.08,2.5-3.1,1.79v.79l3.1-1.8Zm-26.28,19.86v.79l5.74-3.31v-.79Zm-1.55,4.81V121l-10.2,5.89v.79Zm12.71-11.26-4.61,2.67V114l4.61-2.67ZM218.85,122.8v.79l10.2-5.89v-.79ZM230.13,110v.78l10.4-6V104Zm7.87-.63,6-3.48v-.79l-6,3.48Zm-8.13,7v.79l4.46-2.58v-.79Zm-26.55,9.86v-.79l-7.48,4.31v.79Zm14-8.89L204.13,125v.79l13.22-7.63Zm.07,3.08v.79l10.33-6v-.79Zm19.77-11.41-8.63,5v.79l8.63-5Zm-5.66,9.53-5.74,3.31v.79l5.74-3.31Zm12.91-16.85-3.1,1.79v.79l3.1-1.79Zm-12.1,17.17,5.23-3v-.79l-5.23,3Zm2.8-4.75,6.7-3.87v-.79l-6.7,3.87ZM225,122.39,211.76,130v.79L225,123.18ZM207.5,132.48l-11.74,6.78v.79l11.74-6.78Zm-3.32-1.21-8.39,4.84v.79l8.39-4.85Zm6.77,0v-.79L208.31,132v.79Zm-5.35-3.17v-.79L195.81,133v.79ZM218,124.05v-.78l-13,7.53v.79Zm5.93,9.34,10.39-6v.79l-10.39,6Zm-2.38,5.29v-.79l-10.33,6v.79Zm-3.05-1.37,4.61-2.66v-.79l-4.61,2.66Zm-.81.47V137L212,140.31v.78Zm14-11.23,4.62-2.66v-.79l-4.62,2.66Zm3.42.37v.79l9.58-5.54v-.79Zm-24.74,18.2v-.79l-14.74,8.51v.79Zm.75-6.69,10.33-6v-.78l-10.33,6ZM222.33,132l8.62-5v-.79l-8.62,5Zm-12,6.9v-.79l-14.65,8.45v.79Zm26.81-15.48,6.55-3.79v-.79l-6.55,3.79Zm-26,17.35-15.52,9v.79l15.52-9Zm-15.37,3.41,4.83-2.79v-.79l-4.83,2.79Zm42.86-25.54v.79l5.74-3.31v-.79Zm-11.21,7.27,10.4-6v-.79l-10.4,6ZM222,129l4.62-2.67v-.78L222,128.25Zm-6.55,3.78,5.74-3.31v-.79L215.48,132Zm-14,8.1,13.21-7.63v-.79l-13.21,7.63Zm27-2.21v.78l8.62-5v-.79Zm-10.34,9.09v.79l5.74-3.31v-.79Zm9.52-8.63-10.33,6v.79l10.33-6Zm-11.07,13.44v-.78l-10.2,5.89v.78Zm12.71-11.25L224.71,144v.79l4.61-2.66Zm-12.78,5v-.79l-20.83,12v.78Zm2.31,7.26v.79l10.2-5.89v-.79Zm11.28-12.77v.79l10.4-6v-.79Zm7.8-7.63v.79l4.61-2.67v-.78Zm.07,7,6-3.49V136l-6,3.49Zm-8.13,7v.79l4.46-2.58v-.79Zm-26.55,9.86v-.79l-7.48,4.32v.79Zm14-8.89-13.22,7.63v.79l13.22-7.63Zm.07,3.09v.79l10.33-6v-.79ZM237.19,140l-8.63,5v.79l8.63-5Zm6.17-9.82v.78l3.91-2.25v-.79Zm1.08,2.5-3.1,1.79v.79l3.1-1.79Zm-40.26,29.5L195.79,167v.79l8.39-4.85ZM205.6,159v-.79l-9.79,5.66v.79ZM218,154.92v-.79l-13,7.53v.79Z"/><polygon class="cls-43" points="250.98 64.19 191.83 98.34 191.83 104.06 250.98 69.91 250.98 64.19"/><polygon class="cls-44" points="172.64 150.99 113.49 185.14 113.49 219.15 172.69 184.97 172.64 150.99"/><path class="cls-45" d="M145.63,178.13l10.4-6v.79l-10.4,6Zm-1.57,4V183l8.63-5v-.79Zm-.81,1.26v-.79l-10.33,6v.79Zm-3-1.37,4.61-2.67v-.79l-4.61,2.67Zm-.82.46v-.78L133.66,185v.79Zm14-11.23,4.61-2.66v-.79l-4.61,2.66Zm3.41.37v.79l9.59-5.53v-.79Zm6.13-.41-9.47,5.47v.79L163,172Zm-30.86,18.61v-.79l-14.75,8.52v.78Zm.74-6.69,10.33-6v-.79l-10.33,6ZM144,176.73l8.63-5V171l-8.63,5Zm-12,6.9v-.79L117.4,191.3v.79Zm26.81-15.48,6.56-3.78v-.79l-6.56,3.78Zm-26,17.36-15.51,9v.78l15.51-8.95Zm11.22,1.7V188l8.63-5v-.79Zm-.81,1.26v-.79l-10.33,6v.79Zm.06,2.3v.79l5.74-3.31v-.79Zm6.55-3.78v.79l4.62-2.66v-.79Zm.3,3v.79l8.62-5V185Zm-10.34,9.1v.79l5.74-3.32v-.79Zm9.53-8.63-10.33,6v.79l10.33-6ZM151,192.6l-4.62,2.67v.78l4.62-2.66Zm14.7-14.75-10.4,6v.79l10.4-6Zm-27.48,19.79v-.79l-20.84,12v.79Zm-9.73,2.49v-.79l-11.1,6.4v.79ZM163,176.29l-9.47,5.47v.79l9.47-5.47ZM132.11,194.9v-.79l-14.75,8.52v.78Zm19.69-2.77v.79l10.4-6v-.79Zm7.8-7.63v.79l4.61-2.66v-.79ZM125,208.4v-.79l-7.47,4.32v.79Zm14-8.88-13.21,7.63v.78L139,200.3Zm24.78-23.7v.79l5.53-3.19v-.79ZM142.5,192v-.79l-13.21,7.63v.79ZM165,181.37v.79l2.85-1.65v-.78Zm1.09,2.5-3.1,1.79v.79l3.1-1.79Z"/><polygon class="cls-43" points="172.64 150.99 113.49 185.14 113.49 190.85 172.65 156.7 172.64 150.99"/></g><g class="cls-46"><rect id="_4-2" data-name="4" class="cls-47" width="450" height="450"/></g></g></g></svg>