<svg xmlns="http://www.w3.org/2000/svg" viewBox="0 0 500 500"><defs><style>.cls-1{isolation:isolate;}.cls-2{fill:#fff1a1;}.cls-3{fill:#f99;opacity:0.39;}.cls-14,.cls-3{mix-blend-mode:multiply;}.cls-4{fill:#ededed;}.cls-5{fill:#1d1d1b;}.cls-6{fill:#ffcb9c;}.cls-7,.cls-8{fill:#ff6252;}.cls-8{opacity:0.54;}.cls-11,.cls-9{fill:#fff;}.cls-10{fill:#1b364f;}.cls-11{opacity:0.08;}.cls-12,.cls-16{fill:#f6f6f6;}.cls-13{fill:#e6332a;}.cls-14{fill:#dadada;}.cls-15{fill:#f2403b;}.cls-16{font-size:170.21px;font-family:Baloo2-Regular, "Baloo 2";}.cls-17{fill:#2fac66;}.cls-18{opacity:0.4;}</style></defs><title>Mesa de trabajo 1</title><g class="cls-1"><g id="OBJECTS"><circle class="cls-2" cx="98.17" cy="88.93" r="49.33" transform="translate(-10.94 164.04) rotate(-76.72)"/><ellipse class="cls-3" cx="250" cy="442.43" rx="206.62" ry="8.81"/><path class="cls-4" d="M212.31,287.3s-34.07,32.81-4.21,37.43S212.31,287.3,212.31,287.3Z"/><path class="cls-5" d="M270.24,117.79a9.07,9.07,0,1,1-11.79-5.07A9.07,9.07,0,0,1,270.24,117.79Z"/><path class="cls-5" d="M278.23,131a9.07,9.07,0,1,1-11.79-5.06A9.08,9.08,0,0,1,278.23,131Z"/><path class="cls-5" d="M281.32,141.7a9.08,9.08,0,1,1-11.8-5.06A9.08,9.08,0,0,1,281.32,141.7Z"/><path class="cls-5" d="M236.54,169.34a9.07,9.07,0,1,1-11.79-5.07A9.07,9.07,0,0,1,236.54,169.34Z"/><path class="cls-6" d="M277.25,150.13c1.15,10.54,0,20.41-14.68,29.86,0,0-6.85,9.31-2.8,20.09s-26.53,14.54-24.28-1.49-8-32.61-15-41.83-7.93-30.59,3.72-39.34c4.58-3.44,17.17-4.1,25.83-1.36C264.69,120.71,275.58,134.81,277.25,150.13Z"/><path d="M263.32,136.17c.35,1.18,1.29,1.94,2.11,1.7s1.2-1.39.86-2.57-1.29-1.94-2.11-1.7S263,135,263.32,136.17Z"/><path d="M244.53,137.66c.35,1.18,1.29,1.94,2.11,1.7s1.2-1.39.85-2.57-1.28-1.94-2.1-1.7S244.19,136.48,244.53,137.66Z"/><path class="cls-5" d="M258.59,109.24a9.07,9.07,0,1,1-11.79-5.07A9.07,9.07,0,0,1,258.59,109.24Z"/><path class="cls-5" d="M266,103.24a9.07,9.07,0,1,1-11.79-5.07A9.07,9.07,0,0,1,266,103.24Z"/><path class="cls-5" d="M248.84,119.84a9.07,9.07,0,1,1-11.79-5.07A9.07,9.07,0,0,1,248.84,119.84Z"/><path class="cls-5" d="M241.73,106.2a9.07,9.07,0,1,1-11.79-5.07A9.07,9.07,0,0,1,241.73,106.2Z"/><path class="cls-5" d="M234.8,120.21A9.07,9.07,0,1,1,223,115.15,9.07,9.07,0,0,1,234.8,120.21Z"/><path class="cls-5" d="M227,116a9.07,9.07,0,1,1-11.79-5.07A9.07,9.07,0,0,1,227,116Z"/><path class="cls-5" d="M222.9,130.19a9.08,9.08,0,1,1-11.8-5.06A9.07,9.07,0,0,1,222.9,130.19Z"/><path class="cls-5" d="M230.41,133.68a9.08,9.08,0,1,1-11.79-5.06A9.09,9.09,0,0,1,230.41,133.68Z"/><path class="cls-5" d="M239.65,128.05A9.07,9.07,0,1,1,227.86,123,9.07,9.07,0,0,1,239.65,128.05Z"/><path class="cls-5" d="M222.34,142.92a9.07,9.07,0,1,1-11.79-5.07A9.07,9.07,0,0,1,222.34,142.92Z"/><path class="cls-5" d="M233.31,145.92a9.08,9.08,0,1,1-11.79-5.07A9.08,9.08,0,0,1,233.31,145.92Z"/><path class="cls-5" d="M230.7,154.7a9.07,9.07,0,1,1-11.79-5.06A9.07,9.07,0,0,1,230.7,154.7Z"/><circle class="cls-5" cx="214.37" cy="168.42" r="9.07" transform="translate(8.51 347.15) rotate(-79.12)"/><path class="cls-5" d="M219,155.41a9.08,9.08,0,1,1-11.8-5.06A9.08,9.08,0,0,1,219,155.41Z"/><path class="cls-5" d="M212.66,143.15a9.07,9.07,0,1,1-11.79-5.06A9.08,9.08,0,0,1,212.66,143.15Z"/><path class="cls-5" d="M212.67,129.05A9.07,9.07,0,1,1,200.88,124,9.07,9.07,0,0,1,212.67,129.05Z"/><path class="cls-5" d="M217.22,116a9.07,9.07,0,1,1-11.79-5.07A9.07,9.07,0,0,1,217.22,116Z"/><path class="cls-5" d="M230,103.79a9.07,9.07,0,1,1-11.79-5.07A9.07,9.07,0,0,1,230,103.79Z"/><path class="cls-5" d="M251.18,96.53a9.07,9.07,0,1,1-11.79-5.07A9.07,9.07,0,0,1,251.18,96.53Z"/><path class="cls-5" d="M243.79,99.48A9.07,9.07,0,1,1,232,94.41,9.07,9.07,0,0,1,243.79,99.48Z"/><polygon class="cls-7" points="255.88 127.55 264.79 148.74 253.16 149.22 255.88 127.55"/><path class="cls-8" d="M250.44,147c.14,1.71-2.73,3.34-6.42,3.64s-6.77-.85-6.91-2.56,2.73-3.35,6.41-3.65S250.3,145.23,250.44,147Z"/><path class="cls-8" d="M276.08,147.63c.14,1.72-2.13,3.3-5.08,3.54s-5.43-1-5.57-2.68,2.13-3.3,5.07-3.53S275.94,145.91,276.08,147.63Z"/><polygon class="cls-9" points="281.62 416.27 283.5 428.66 276.16 430.43 271.17 417.25 281.62 416.27"/><path d="M275.05,427.57s-4.47,5.17-2.69,9.72,34,1.18,34,1.18,1.17-.73-.91-1.61l-15-5.53s-6.36-3.43-9.64-2.9A12,12,0,0,1,275.05,427.57Z"/><polygon class="cls-9" points="211.62 416.64 209.97 429.06 217.34 430.69 222.09 417.43 211.62 416.64"/><path d="M218.48,427.57s4.47,5.17,2.69,9.72-34,1.18-34,1.18-1.17-.73.91-1.61l15-5.53s6.35-3.43,9.63-2.9A12,12,0,0,0,218.48,427.57Z"/><path class="cls-10" d="M304.07,291.06s.09,82.88-19.38,127.54H270L251,335a2,2,0,0,0-3.87-.11l-23.6,83.76h-15s-13-58.3-4.71-127.54S304.07,291.06,304.07,291.06Z"/><path class="cls-11" d="M201.56,318s22.66-8.18,24.55,16S215,369.28,214.5,381.13s-6.7,8.54-6.7,8.54S198.83,342.37,201.56,318Z"/><path class="cls-11" d="M303.16,318.87s-22-10.41-23.87,13.76S283.51,368,284,379.8s6.7,8.54,6.7,8.54S304,358.47,303.16,318.87Z"/><path class="cls-12" d="M196.17,317s8.41-24.44,48.06-11.95,68.52-4.52,68.52-4.52,28.87-88.49-50.42-132.7C262.33,167.85,141.92,189.62,196.17,317Z"/><rect class="cls-13" x="186.27" y="171.39" width="129.55" height="119.2" transform="translate(-11.35 12.97) rotate(-2.9)"/><rect class="cls-9" x="240.93" y="200.27" width="20.4" height="90.34" transform="translate(-12.08 13) rotate(-2.9)"/><rect class="cls-9" x="241.57" y="180.63" width="20.4" height="129.55" transform="translate(19.4 509.24) rotate(-92.9)"/><path class="cls-9" d="M256.08,168.46s-19.14-27.93-44.35-31.28-31.15,31.63-3.69,33.71Z"/><path class="cls-9" d="M239.64,169.29s16.22-29.72,41-35.59,34.18,28.32,7.07,33.16Z"/><path class="cls-9" d="M250.5,178.28h0a8.07,8.07,0,0,1-8.43-7.62l-.85-16.81a8.06,8.06,0,0,1,7.62-8.43h0a8.06,8.06,0,0,1,8.43,7.62l.85,16.81A8.06,8.06,0,0,1,250.5,178.28Z"/><path class="cls-4" d="M257.16,162.91s27.87-10.8,36.17-9.63,4,7.6-1.05,7.86Z"/><path class="cls-4" d="M245.09,163.53s-28.82-7.94-37-5.94-3.21,8,1.83,7.71Z"/><path class="cls-6" d="M167.62,212.74S158.25,238.9,174,259.3c11.61,15.08,43.25,8.92,59.87-31l-8.2-5.44s-12.94,18.92-22.43,22.28c-12.93,4.58-18.85-5.82-19.27-12.27-.21-3.26,1.45-13,1.75-14Z"/><path class="cls-12" d="M184.1,185S170.91,197,165.79,220.19l20.42,11.34Z"/><path class="cls-6" d="M333.33,212.4s9.54,26.11-6.16,46.51c-11.62,15.08-43.26,8.91-59.88-31l8.2-5.45s12.94,18.93,22.43,22.29c12.93,4.58,18.85-5.83,19.27-12.28.21-3.26-1.45-13-1.75-14Z"/><path class="cls-12" d="M313.34,180.41S327,192,334.17,215.17l-18.55,10.3Z"/><path class="cls-6" d="M228.92,217.42s9.89-19.26,11.42-20.49,3,.64,1.18,3.86a87.48,87.48,0,0,0-4.33,9.73s7.41-11.77,8.71-12,2.42,1.28.86,3.26-6.54,10.91-6.54,10.91,5.75-6.5,7.68-7.85,1.35,2-.23,3.69-5.89,8-5.89,8,5.54-3.76,6.87-3.76,1.13,1.1.39,1.84-8.64,5.91-8.64,5.91-3.7,8.12-9.4,9.24-7.31-1.92-7.19-2.85,1.66-15.62,2.82-17.86,3-1.46,2.12,2.56S227.69,217.87,228.92,217.42Z"/><path class="cls-6" d="M271.39,217.42S261.5,198.16,260,196.93s-3.05.64-1.18,3.86a86.73,86.73,0,0,1,4.32,9.73s-7.4-11.77-8.7-12-2.42,1.28-.86,3.26,6.54,10.91,6.54,10.91-5.75-6.5-7.68-7.85-1.36,2,.23,3.69,5.89,8,5.89,8-5.54-3.76-6.87-3.76-1.13,1.1-.39,1.84,8.64,5.91,8.64,5.91,3.7,8.12,9.4,9.24,7.31-1.92,7.18-2.85-1.65-15.62-2.81-17.86-3-1.46-2.12,2.56S272.62,217.87,271.39,217.42Z"/><polygon class="cls-14" points="184.8 203.56 314.85 210.38 314.18 197.02 184.8 203.56"/><rect class="cls-15" x="180.04" y="163.39" width="136.22" height="36.94" transform="translate(-8.87 12.77) rotate(-2.9)"/><text class="cls-16" transform="translate(59.89 439.6)">FREE </text><path class="cls-17" d="M434.82,440.41a6.9,6.9,0,0,0-7-3.39c-5.14.51-3.8-4.14-9.56-4.89s-6.81.95-13.83-4.94-12.83,4.63-18,.27-9-11.4-17.8-8.67-5.11,9.68-10.34,12.3-10.69,3.47-12.91,9.46Z"/><path class="cls-17" d="M71.49,440.41a6.9,6.9,0,0,1,7-3.39c5.15.51,3.8-4.14,9.57-4.89s6.8.95,13.82-4.94,12.84,4.63,18,.27,9-11.4,17.8-8.67,5.11,9.68,10.35,12.3,10.69,3.47,12.9,9.46Z"/><g class="cls-18"><path class="cls-9" d="M448.54,231a6.55,6.55,0,0,0,1.85-4.51c0-3.86-3.49-7-7.79-7s-7.78,3.13-7.78,7a3.71,3.71,0,0,0,0,.47h-.06c0-.16,0-.32,0-.48,0-3.86-3.49-7-7.79-7s-7.78,3.13-7.78,7a6.69,6.69,0,0,0,2.63,5.23l12.94,11.78,13-11.82a6.67,6.67,0,0,0,.68-.62l.07-.06Z"/><path class="cls-9" d="M220.2,58.36a5.39,5.39,0,0,0,1.53-3.74c0-3.21-2.89-5.81-6.47-5.81s-6.47,2.6-6.47,5.81c0,.13,0,.26,0,.39h0c0-.13,0-.26,0-.39,0-3.21-2.89-5.81-6.46-5.81s-6.47,2.6-6.47,5.81A5.53,5.53,0,0,0,198,59l10.75,9.8,10.8-9.83c.19-.16.38-.33.56-.51l0-.05Z"/><path class="cls-9" d="M82.9,258.44a5.46,5.46,0,0,0,1.53-3.75c0-3.2-2.89-5.81-6.47-5.81s-6.47,2.61-6.47,5.81c0,.13,0,.26,0,.39h0c0-.13,0-.26,0-.4,0-3.2-2.89-5.81-6.47-5.81s-6.47,2.61-6.47,5.81A5.57,5.57,0,0,0,60.74,259l10.75,9.79L82.28,259c.2-.17.39-.34.57-.52l.05-.05Z"/><path class="cls-9" d="M369.65,164.89a5.46,5.46,0,0,0,1.53-3.75c0-3.2-2.89-5.8-6.47-5.8s-6.47,2.6-6.47,5.8c0,.14,0,.26,0,.39h0c0-.13,0-.26,0-.4,0-3.2-2.89-5.8-6.47-5.8s-6.47,2.6-6.47,5.8a5.57,5.57,0,0,0,2.19,4.35l10.75,9.79L369,165.46a5.57,5.57,0,0,0,.57-.52l0-.05Z"/><path class="cls-9" d="M389.7,315.64a2.64,2.64,0,0,0,.74-1.81,3.14,3.14,0,0,0-6.24,0c0,.06,0,.13,0,.19h0c0-.06,0-.12,0-.19a3.14,3.14,0,0,0-6.24,0,2.68,2.68,0,0,0,1.06,2.1l5.18,4.72,5.2-4.74.28-.25,0,0Z"/><path class="cls-9" d="M376.68,83.34a2.64,2.64,0,0,0,.74-1.81,3.14,3.14,0,0,0-6.24,0c0,.06,0,.13,0,.19h0a1.21,1.21,0,0,0,0-.19,3.14,3.14,0,0,0-6.24,0A2.66,2.66,0,0,0,366,83.62l5.18,4.73,5.21-4.74.27-.25,0,0Z"/><path class="cls-9" d="M135.56,184.76a2.64,2.64,0,0,0,.74-1.81,3.14,3.14,0,0,0-6.24,0c0,.06,0,.13,0,.19h0a1.15,1.15,0,0,0,0-.19,3.14,3.14,0,0,0-6.24,0,2.68,2.68,0,0,0,1.06,2.1l5.18,4.72,5.2-4.74.28-.25,0,0Z"/><path class="cls-9" d="M127.18,315.64a2.64,2.64,0,0,0,.74-1.81,3.14,3.14,0,0,0-6.24,0,1.21,1.21,0,0,0,0,.19h0c0-.06,0-.12,0-.19a3.14,3.14,0,0,0-6.24,0,2.7,2.7,0,0,0,1,2.1l5.19,4.72,5.2-4.74a2.16,2.16,0,0,0,.27-.25l0,0Z"/></g></g></g></svg>