<svg xmlns="http://www.w3.org/2000/svg" viewBox="0 0 750 500"><defs><style>.cls-1{fill:#172c71;}.cls-2{fill:#223f89;}.cls-3{fill:#3664b7;}.cls-4{fill:#fff;}.cls-5{fill:#c7d2d7;}.cls-6{fill:#99a3b0;}.cls-7{fill:#1d3660;}.cls-8{fill:#d1ffff;}.cls-13,.cls-9{fill:#65b2ff;}.cls-10{fill:#cc6164;}.cls-11{fill:#f4d071;}.cls-12{fill:#b0b369;}.cls-13{font-size:46.5px;font-family:Montserrat-Black, Montserrat;font-weight:800;}.cls-14{fill:#97f2f5;}.cls-15{fill:#4987e5;}.cls-16{fill:#ea9e44;}.cls-17{fill:#6c6fc3;}.cls-18{fill:#67bb82;}.cls-19{fill:#0c0040;}</style></defs><title>Artboard 1</title><g id="BACKGROUND"><rect class="cls-1" width="750" height="500"/></g><g id="OBJECTS"><path class="cls-2" d="M558.12,115.34a37.69,37.69,0,0,0-1-8.35l9.35-7.74-9-15.58L546.14,87.9a37.29,37.29,0,0,0-14.46-8.36l-2-12h-18l-2,12a37.32,37.32,0,0,0-14.47,8.36l-11.38-4.23-9,15.58,9.34,7.74a37.6,37.6,0,0,0,0,16.71l-9.34,7.73,9,15.59,11.38-4.23a37.32,37.32,0,0,0,14.47,8.36l2,12h18l2-12a37.29,37.29,0,0,0,14.46-8.36L557.52,147l9-15.59-9.35-7.73A37.72,37.72,0,0,0,558.12,115.34Zm-37.46,17.11a17.11,17.11,0,1,1,17.11-17.11A17.11,17.11,0,0,1,520.66,132.45Z"/><path class="cls-2" d="M620.41,86.12a26.08,26.08,0,0,0-4.52-3.6l.78-8.31L604.72,71l-3.48,7.59a25.69,25.69,0,0,0-11.1,3l-6.8-4.83-8.75,8.75,4.83,6.8a25.69,25.69,0,0,0-3,11.1l-7.59,3.48,3.21,11.95,8.3-.78a26,26,0,0,0,3.61,4.52,25.25,25.25,0,0,0,4.52,3.6l-.78,8.31,11.95,3.2,3.48-7.59a25.67,25.67,0,0,0,11.1-3l6.8,4.82,8.75-8.74L625,116.4a25.73,25.73,0,0,0,3-11.11l7.59-3.47-3.21-12-8.31.79A25.23,25.23,0,0,0,620.41,86.12Zm-9.9,26.54a11.77,11.77,0,1,1,0-16.64A11.76,11.76,0,0,1,610.51,112.66Z"/><path class="cls-2" d="M585.49,147.6a19.59,19.59,0,0,0-4.48-.42l-3-5.74-9.14,3,1,6.42a20,20,0,0,0-6,6.67l-6.48-.25-2,9.43,6,2.36a20.14,20.14,0,0,0,2.81,8.49l-3.46,5.5,7.18,6.41,5.07-4a20.06,20.06,0,0,0,4.28,1.4,19.5,19.5,0,0,0,4.47.42l3,5.74,9.14-3-1-6.42a20.13,20.13,0,0,0,6-6.67l6.48.25,2-9.43-6-2.36a20,20,0,0,0-2.8-8.49l3.45-5.5L594.83,145,589.76,149A20.16,20.16,0,0,0,585.49,147.6Zm4.87,21.48a9.15,9.15,0,1,1-7.09-10.83A9.15,9.15,0,0,1,590.36,169.08Z"/><path class="cls-2" d="M199.6,159.85a37,37,0,0,0-.95-8.35l9.35-7.74-9-15.58-11.38,4.23A37.35,37.35,0,0,0,173.16,124l-2-12h-18l-2,12a37.42,37.42,0,0,0-14.47,8.37l-11.37-4.23-9,15.58,9.35,7.74a37.17,37.17,0,0,0,0,16.7l-9.35,7.74,9,15.58,11.37-4.23a37.42,37.42,0,0,0,14.47,8.37l2,12h18l2-12a37.35,37.35,0,0,0,14.47-8.37L199,191.52l9-15.58-9.35-7.74A37,37,0,0,0,199.6,159.85ZM162.14,177a17.11,17.11,0,1,1,17.11-17.11A17.11,17.11,0,0,1,162.14,177Z"/><path class="cls-2" d="M240.48,100.58a25.9,25.9,0,0,0-.65-5.74l6.42-5.32L240.07,78.8l-7.83,2.91a25.63,25.63,0,0,0-10-5.75l-1.39-8.22H208.53L207.13,76a25.71,25.71,0,0,0-9.95,5.75l-7.82-2.91-6.19,10.72,6.43,5.32a25.71,25.71,0,0,0,0,11.49l-6.43,5.32,6.19,10.72,7.82-2.91a25.71,25.71,0,0,0,9.95,5.75l1.4,8.22H220.9l1.39-8.22a25.63,25.63,0,0,0,10-5.75l7.83,2.91,6.18-10.72-6.42-5.32A25.92,25.92,0,0,0,240.48,100.58Zm-25.77,11.77a11.77,11.77,0,1,1,11.77-11.77A11.76,11.76,0,0,1,214.71,112.35Z"/><rect class="cls-3" x="128.29" y="254.5" width="3" height="5"/><path class="cls-3" d="M121.75,383H111.9v-3h9.85ZM103,383H95a6.52,6.52,0,0,1-2.28-.41l1-2.81A3.62,3.62,0,0,0,95,380H103Zm-11.56-9.29h-3v-9.86h3Zm0-18.72h-3v-9.85h3Zm0-18.72h-3v-9.85h3Zm0-18.72h-3V307.7h3ZM92.24,300l-2.33-1.89A6.51,6.51,0,0,1,95,295.74h5.39v3H95A3.5,3.5,0,0,0,92.24,300Zm26.84-1.3h-9.85v-3h9.85Zm9.55-1.26-1.78-2.42a3.48,3.48,0,0,0,1.44-2.82v-5.16h3v5.16A6.54,6.54,0,0,1,128.63,297.48Zm2.66-19.26h-3v-9.86h3Z"/><rect class="cls-3" x="130.66" y="380" width="5" height="3"/><rect class="cls-3" x="147.66" y="218.38" width="3" height="5"/><path class="cls-3" d="M150.66,209.65h-3V200h3Zm0-18.43h-3v-9.69h3Zm0-18.42h-3v-9.7h3Zm0-18.43h-3v-9.7h3Zm0-18.43h-3v-9.69h3Zm0-18.42h-3v-9.7h3Zm2.56-15.31-.81-2.89a6.48,6.48,0,0,1,1.75-.24h8.34v3h-8.34A3.68,3.68,0,0,0,153.22,102.21Zm175.12-.13h-9.7v-3h9.7Zm-18.43,0h-9.7v-3h9.7Zm-18.43,0h-9.7v-3h9.7Zm-18.42,0h-9.7v-3h9.7Zm-18.43,0h-9.7v-3h9.7Zm-18.43,0h-9.7v-3h9.7Zm-18.42,0h-9.7v-3h9.7Zm-18.43,0h-9.7v-3h9.7Zm-18.43,0h-9.7v-3h9.7Z"/><rect class="cls-3" x="337.08" y="99.08" width="5" height="3"/><path class="cls-3" d="M623.19,169.8h-3v-8.75h3Zm0-17.75h-3v-10h3Zm0-19h-3v-10h3Zm0-19h-3v-10h3Zm-7-12h-10v-3h10Zm-19,0h-10v-3h10Zm-19,0h-10v-3h10Zm-19,0h-10v-3h10Zm-19,0h-10v-3h10Zm-19,0h-10v-3h10Zm-19,0h-10v-3h10Zm-19,0h-10v-3h10Zm-19,0h-10v-3h10Zm-19,0h-10v-3h10Z"/><path class="cls-3" d="M608.9,259.55h-3v-10h3Zm0-19h-3v-10h3Zm14.29-10.16h-8.45v-3h5.45v-1.54h3Zm0-13.54h-3v-10h3Z"/><rect class="cls-4" x="300.16" y="433.41" width="160" height="8"/><polygon class="cls-5" points="429.22 433.41 331.1 433.41 344.57 387.41 415.75 387.41 429.22 433.41"/><polygon class="cls-6" points="415.75 387.41 344.57 387.41 340.32 401.91 420 401.91 415.75 387.41"/><path class="cls-6" d="M568.16,120.41a10,10,0,0,0-10-10h-356a10,10,0,0,0-10,10v227h376Z"/><path class="cls-7" d="M196.16,347.41v-227a6,6,0,0,1,6-6h356a6,6,0,0,1,6,6v227Z"/><path class="cls-4" d="M192.16,347.41v30a10,10,0,0,0,10,10h356a10,10,0,0,0,10-10v-30Z"/><circle class="cls-5" cx="380.16" cy="367.41" r="8.67" transform="translate(-148.45 376.43) rotate(-45)"/><rect class="cls-8" x="205.16" y="123.41" width="350" height="12"/><rect class="cls-9" x="205.16" y="135.41" width="350" height="203"/><path class="cls-10" d="M215.47,129.41a3,3,0,1,1-3-3A3,3,0,0,1,215.47,129.41Z"/><path class="cls-11" d="M223.45,129.41a3,3,0,1,1-2.95-3A3,3,0,0,1,223.45,129.41Z"/><path class="cls-12" d="M231.44,129.41a3,3,0,1,1-3-3A3,3,0,0,1,231.44,129.41Z"/><rect class="cls-8" x="218.99" y="146.46" width="190" height="88.59" rx="5"/><text class="cls-13" transform="translate(255.75 204.83)">CMS</text><rect class="cls-3" x="415" y="146.46" width="71.33" height="41.76" rx="5"/><polygon class="cls-8" points="465.81 164.44 457.11 176.78 441.97 155.28 423.78 181.09 454.08 181.09 460.15 181.09 477.54 181.09 465.81 164.44"/><circle class="cls-8" cx="457.47" cy="157.66" r="4.06"/><rect class="cls-14" x="415" y="193.29" width="71.33" height="41.76" rx="5"/><circle class="cls-4" cx="450.66" cy="214.17" r="15.5"/><polygon class="cls-14" points="459.71 214.17 444.95 205.65 444.95 222.7 459.71 214.17"/><rect class="cls-15" x="493.16" y="146.46" width="50.25" height="88.59" rx="5"/><path class="cls-4" d="M532,179.67,524.29,172a11.27,11.27,0,1,0-2.13,2.12l7.73,7.72a1.5,1.5,0,1,0,2.12-2.12ZM521.18,171a8.24,8.24,0,1,1,0-11.66A8.25,8.25,0,0,1,521.18,171Z"/><rect class="cls-9" x="499.5" y="189.23" width="18.79" height="3.33"/><rect class="cls-9" x="499.5" y="195.35" width="37.79" height="2.01"/><rect class="cls-9" x="499.5" y="198.85" width="37.79" height="2.01"/><rect class="cls-9" x="499.5" y="202.35" width="23.5" height="2.01"/><rect class="cls-9" x="499.5" y="207.6" width="37.79" height="2.01"/><rect class="cls-9" x="499.5" y="211.1" width="37.79" height="2.01"/><rect class="cls-9" x="499.5" y="214.6" width="37.79" height="2.01"/><rect class="cls-9" x="499.5" y="218.1" width="9.4" height="2.01"/><rect class="cls-9" x="499.5" y="223.38" width="37.79" height="2.01"/><rect class="cls-9" x="499.5" y="226.88" width="30" height="2.01"/><rect class="cls-8" x="218.99" y="243.05" width="30.92" height="2.01"/><rect class="cls-8" x="218.99" y="246.92" width="95" height="2.01"/><rect class="cls-8" x="218.99" y="250.8" width="95" height="2.01"/><rect class="cls-8" x="218.99" y="254.67" width="95" height="2.01"/><rect class="cls-8" x="218.99" y="258.55" width="68.42" height="2.01"/><rect class="cls-8" x="332.66" y="243.05" width="55.5" height="2.01"/><rect class="cls-8" x="332.66" y="246.92" width="95" height="2.01"/><rect class="cls-8" x="332.66" y="250.8" width="21.25" height="2.01"/><rect class="cls-8" x="332.66" y="254.67" width="95" height="2.01"/><rect class="cls-8" x="332.66" y="258.55" width="36.25" height="2.01"/><rect class="cls-8" x="446.33" y="243.05" width="40" height="2.01"/><rect class="cls-8" x="446.33" y="246.92" width="95" height="2.01"/><rect class="cls-8" x="446.33" y="250.8" width="95" height="2.01"/><rect class="cls-8" x="446.33" y="254.67" width="95" height="2.01"/><rect class="cls-8" x="446.33" y="258.55" width="19.83" height="2.01"/><rect class="cls-8" x="218.99" y="311.67" width="60.5" height="2.01"/><rect class="cls-8" x="218.99" y="315.55" width="95" height="2.01"/><rect class="cls-8" x="218.99" y="319.42" width="95" height="2.01"/><rect class="cls-8" x="218.99" y="323.3" width="95" height="2.01"/><rect class="cls-8" x="218.99" y="327.17" width="30.25" height="2.01"/><rect class="cls-8" x="332.66" y="311.67" width="18.83" height="2.01"/><rect class="cls-8" x="332.66" y="315.55" width="95" height="2.01"/><rect class="cls-8" x="332.66" y="319.42" width="95" height="2.01"/><rect class="cls-8" x="332.66" y="323.3" width="95" height="2.01"/><rect class="cls-8" x="332.66" y="327.17" width="62" height="2.01"/><rect class="cls-8" x="446.33" y="311.67" width="51.33" height="2.01"/><rect class="cls-8" x="446.33" y="315.55" width="95" height="2.01"/><rect class="cls-8" x="446.33" y="319.42" width="95" height="2.01"/><rect class="cls-8" x="446.33" y="323.3" width="95" height="2.01"/><rect class="cls-8" x="446.33" y="327.17" width="61.58" height="2.01"/><rect class="cls-3" x="218.99" y="269.05" width="102.17" height="37" rx="5"/><rect class="cls-15" x="329.08" y="269.05" width="102.17" height="37" rx="5"/><rect class="cls-15" x="439.16" y="269.05" width="102.17" height="37" rx="5"/><rect class="cls-9" x="233.53" y="264.51" width="27" height="46.09" rx="5" transform="translate(534.59 40.52) rotate(90)"/><polygon class="cls-8" points="257.7 285.51 251.58 294.2 240.91 279.06 228.1 297.24 249.44 297.24 253.72 297.24 265.97 297.24 257.7 285.51"/><path class="cls-8" d="M254.69,280.73a2.86,2.86,0,1,1-2.86-2.86A2.87,2.87,0,0,1,254.69,280.73Z"/><rect class="cls-9" x="342.91" y="264.51" width="27" height="46.09" rx="5" transform="translate(643.97 -68.86) rotate(90)"/><polygon class="cls-8" points="367.08 285.51 360.96 294.2 350.29 279.06 337.48 297.24 358.82 297.24 363.1 297.24 375.35 297.24 367.08 285.51"/><path class="cls-8" d="M364.07,280.73a2.86,2.86,0,1,1-2.86-2.86A2.87,2.87,0,0,1,364.07,280.73Z"/><rect class="cls-9" x="390.41" y="264.51" width="27" height="46.09" rx="5" transform="translate(691.47 -116.36) rotate(90)"/><circle class="cls-4" cx="403.91" cy="287.55" r="8.52"/><polygon class="cls-9" points="408.89 287.55 400.77 282.87 400.77 292.24 408.89 287.55"/><rect class="cls-9" x="276.5" y="278.71" width="12.91" height="2.01"/><rect class="cls-9" x="276.5" y="282.59" width="39.67" height="2.01"/><rect class="cls-9" x="276.5" y="286.46" width="39.67" height="2.01"/><rect class="cls-9" x="276.5" y="290.34" width="39.67" height="2.01"/><rect class="cls-9" x="276.5" y="294.21" width="28.57" height="2.01"/><rect class="cls-9" x="453.7" y="264.51" width="27" height="46.09" rx="5" transform="translate(754.76 -179.65) rotate(90)"/><polygon class="cls-8" points="477.88 285.51 471.75 294.2 461.08 279.06 448.27 297.24 469.61 297.24 473.89 297.24 486.14 297.24 477.88 285.51"/><path class="cls-8" d="M474.87,280.73a2.87,2.87,0,1,1-2.87-2.86A2.88,2.88,0,0,1,474.87,280.73Z"/><rect class="cls-9" x="496.67" y="278.71" width="28.57" height="2.01"/><rect class="cls-9" x="496.67" y="282.59" width="39.67" height="2.01"/><rect class="cls-9" x="496.67" y="286.46" width="19.83" height="2.01"/><rect class="cls-9" x="496.67" y="290.34" width="39.67" height="2.01"/><rect class="cls-9" x="496.67" y="294.21" width="28.57" height="2.01"/><rect class="cls-4" x="129.79" y="319.42" width="85" height="50.74"/><polygon class="cls-5" points="214.79 319.43 129.79 370.17 214.79 370.17 214.79 319.43"/><polygon class="cls-16" points="168.86 363.95 162.11 356 121.12 356 121.12 363.95 121.12 369.17 121.12 425.37 223.45 425.37 223.45 363.95 168.86 363.95"/><path class="cls-17" d="M648.4,247.86h-82a5,5,0,0,0-5,5v56.75l-28.95,16.72L561.4,343v52.71a5,5,0,0,0,5,5h82a5,5,0,0,0,5-5V252.86A5,5,0,0,0,648.4,247.86Z"/><path class="cls-4" d="M614.65,348.56V302a18.76,18.76,0,0,0,0-34.59v14.17a7.25,7.25,0,1,1-14.5,0V267.41a18.76,18.76,0,0,0,0,34.59v46.56a14.6,14.6,0,0,0,2,26.3v-11.5a5.29,5.29,0,0,1,10.58,0v11.5a14.6,14.6,0,0,0,2-26.3Z"/><path class="cls-5" d="M607.4,349.14h0a3.17,3.17,0,0,1-3.17-3.16v-41.2a3.17,3.17,0,0,1,3.17-3.17h0a3.17,3.17,0,0,1,3.17,3.17V346A3.17,3.17,0,0,1,607.4,349.14Z"/><path class="cls-18" d="M225.52,244.05l-17.16-9.91V211.83a5,5,0,0,0-5-5H95a5,5,0,0,0-5,5v62.44a5,5,0,0,0,5,5H203.36a5,5,0,0,0,5-5V254Z"/><path class="cls-4" d="M131.89,243.05a6.65,6.65,0,1,1-6.64-6.65A6.64,6.64,0,0,1,131.89,243.05Z"/><path class="cls-4" d="M155.81,243.05a6.65,6.65,0,1,1-6.65-6.65A6.64,6.64,0,0,1,155.81,243.05Z"/><path class="cls-4" d="M179.72,243.05a6.65,6.65,0,1,1-6.65-6.65A6.64,6.64,0,0,1,179.72,243.05Z"/><path class="cls-10" d="M621.82,206.93a39.72,39.72,0,1,0-38.5-49.49l-16.93,9.77L583.32,177A39.73,39.73,0,0,0,621.82,206.93Z"/><path class="cls-4" d="M642.26,152.51h0a12.51,12.51,0,0,0-17.68,0l-2.89,2.89-2.89-2.89a12.5,12.5,0,1,0-17.67,17.68l2.88,2.89,17.68,17.68,20.57-20.57A12.51,12.51,0,0,0,642.26,152.51Z"/><path class="cls-19" d="M629,443.46h0a2.05,2.05,0,0,0-2-2H133.37a2,2,0,0,0-2,2h0a2,2,0,0,0,2,2h66.35a2,2,0,0,1,2,2h0a2,2,0,0,1-2,2H161.83a2,2,0,0,0-2,2.05h0a2,2,0,0,0,2,2H566.55a2,2,0,0,0,2-2h0a2,2,0,0,0-2-2.05H536.86a2,2,0,0,1-2-2h0a2,2,0,0,1,2-2H627A2.05,2.05,0,0,0,629,443.46Z"/><path class="cls-19" d="M122.06,445.5H105.55a2,2,0,0,1-2-2h0a2,2,0,0,1,2-2h16.51a2.05,2.05,0,0,1,2,2h0A2,2,0,0,1,122.06,445.5Z"/><path class="cls-19" d="M614,453.67H577.24a2,2,0,0,1-2-2h0a2,2,0,0,1,2-2.05H614a2.05,2.05,0,0,1,2,2.05h0A2,2,0,0,1,614,453.67Z"/><path class="cls-19" d="M150.85,453.67h-8.63a2,2,0,0,1-2-2h0a2.05,2.05,0,0,1,2-2.05h8.63a2,2,0,0,1,2,2.05h0A2,2,0,0,1,150.85,453.67Z"/><path class="cls-19" d="M642.79,445.5h-6.44a2,2,0,0,1-2-2h0a2,2,0,0,1,2-2h6.44a2.05,2.05,0,0,1,2,2h0A2,2,0,0,1,642.79,445.5Z"/><path class="cls-4" d="M424,74.55h-3.52a44.62,44.62,0,0,0-85.95,12.54h-4.43a15.55,15.55,0,0,0,0,31.09H424a21.82,21.82,0,0,0,0-43.63Z"/><polygon class="cls-18" points="407.31 103.44 380.16 71.01 353.01 103.44 367 103.44 367 125.17 393.33 125.17 393.33 103.44 407.31 103.44"/></g></svg>