<svg xmlns="http://www.w3.org/2000/svg" viewBox="0 0 425.2 425.2"><defs><style>.cls-1{isolation:isolate;}.cls-2{fill:#473421;}.cls-3{fill:#afa981;}.cls-4{fill:#699fa6;}.cls-5{fill:#a5574a;}.cls-6{fill:#c9c8c8;}.cls-7{fill:#d8d8d8;}.cls-21,.cls-23,.cls-7{mix-blend-mode:multiply;}.cls-8{fill:#7f7e7c;}.cls-9{fill:#494244;}.cls-10{fill:#9d6953;}.cls-11,.cls-16,.cls-18{fill:#fff;}.cls-11{opacity:0.2;}.cls-11,.cls-15,.cls-18{mix-blend-mode:soft-light;}.cls-12{fill:#8a5347;}.cls-13{fill:#ebcf9a;}.cls-14{fill:#c9aa8b;}.cls-17,.cls-19,.cls-28,.cls-30,.cls-31,.cls-32{fill:none;stroke-miterlimit:10;}.cls-17,.cls-19{stroke:#c9aa8b;}.cls-17{stroke-width:1.52px;}.cls-19{stroke-width:1.07px;}.cls-20{fill:#a0a09f;}.cls-21{fill:#d3d2d3;}.cls-22{fill:#afafaf;}.cls-23{fill:#5a5753;}.cls-24{fill:#111218;}.cls-25{fill:#090910;}.cls-26{fill:#dadada;}.cls-27{fill:#868584;}.cls-28{stroke:#fff;stroke-width:2.36px;}.cls-29{fill:#312a20;}.cls-30,.cls-31,.cls-32{stroke:#4a4741;}.cls-30{stroke-width:0.96px;}.cls-31{stroke-width:0.8px;}.cls-32{stroke-width:0.68px;}.cls-33{fill:#706e6c;}.cls-34{fill:#a3a2a2;}.cls-35{fill:#cedde7;}.cls-36{fill:#8f989e;}</style></defs><title>Artboard 87</title><g class="cls-1"><g id="Capa_1" data-name="Capa 1"><rect class="cls-2" x="19.42" y="21.43" width="184.79" height="184.8"/><rect class="cls-3" x="220.98" y="21.43" width="184.79" height="184.8"/><rect class="cls-4" x="19.42" y="218.97" width="184.79" height="184.79"/><rect class="cls-5" x="220.98" y="218.97" width="184.79" height="184.79"/><rect class="cls-6" x="42.68" y="114.7" width="14.09" height="21.46"/><rect class="cls-7" x="42.68" y="127.55" width="14.09" height="8.61"/><rect class="cls-8" x="42.68" y="114.12" width="3.48" height="22.62"/><rect class="cls-7" x="42.68" y="127.55" width="3.48" height="9.19"/><polygon class="cls-6" points="29.39 139.87 42.68 136.16 42.68 114.69 29.39 110.03 29.39 139.87"/><polygon class="cls-7" points="29.39 127.55 29.39 139.87 42.68 136.16 42.68 127.55 29.39 127.55"/><path class="cls-8" d="M30.52,139.46a1,1,0,0,1-1,1h0a1,1,0,0,1-1-1V110.13a1,1,0,0,1,1-1h0a1,1,0,0,1,1,1Z"/><rect class="cls-8" x="153.28" y="114.46" width="9.67" height="21.73"/><rect class="cls-6" x="150.43" y="107.26" width="5.7" height="37.13"/><path class="cls-9" d="M135.66,75.83A13.44,13.44,0,1,1,122.23,62.4,13.43,13.43,0,0,1,135.66,75.83Z"/><rect class="cls-10" x="54.81" y="93.72" width="97.97" height="64.23" rx="5.33"/><path class="cls-11" d="M64.43,154.79A4.81,4.81,0,0,1,59.62,150v-48.3a4.81,4.81,0,0,1,4.81-4.81h78.73a4.8,4.8,0,0,1,4.8,4.81Z"/><path class="cls-11" d="M69.09,151.36a4.24,4.24,0,0,1-4.24-4.24V104.54a4.24,4.24,0,0,1,4.24-4.24H138.5a4.23,4.23,0,0,1,4.23,4.24Z"/><path class="cls-11" d="M77.05,145.5a3.26,3.26,0,0,1-3.26-3.26V109.42a3.26,3.26,0,0,1,3.26-3.26h53.49a3.26,3.26,0,0,1,3.26,3.26Z"/><path class="cls-12" d="M148,149.4a2.32,2.32,0,0,1-2.22,2.41H109.31a2.33,2.33,0,0,1-2.22-2.41V125.2a2.33,2.33,0,0,1,2.22-2.41h36.43A2.32,2.32,0,0,1,148,125.2Z"/><path class="cls-13" d="M121.65,51.85A24.18,24.18,0,1,0,145.83,76,24.17,24.17,0,0,0,121.65,51.85Zm6.58,12.78c2.26-2.25,5.16-3,6.48-1.7s.56,4.23-1.69,6.49-5.17,3-6.49,1.7S126,66.89,128.23,64.63Zm-19.7-1.7c1.33-1.32,4.23-.55,6.49,1.7s3,5.17,1.7,6.49-4.22.56-6.48-1.7S107.21,64.25,108.53,62.93ZM103.11,76c0-1.86,2.6-3.38,5.79-3.38s5.79,1.52,5.79,3.38-2.59,3.39-5.79,3.39S103.11,77.89,103.11,76ZM115,87.41c-2.26,2.26-5.16,3-6.49,1.7s-.56-4.22,1.71-6.48,5.16-3,6.48-1.7S117.28,85.15,115,87.41Zm6.61,7.12c-1.87,0-3.39-2.59-3.39-5.78S119.76,83,121.63,83,125,85.55,125,88.75,123.49,94.53,121.63,94.53Zm0-25.44c-1.87,0-3.39-2.59-3.39-5.79s1.52-5.79,3.39-5.79S125,60.1,125,63.3,123.49,69.09,121.63,69.09Zm13.08,20c-1.32,1.32-4.22.56-6.48-1.7s-3-5.16-1.7-6.48,4.22-.56,6.49,1.7S136,87.79,134.71,89.11Zm-.36-9.7c-3.2,0-5.79-1.52-5.79-3.39s2.59-3.38,5.79-3.38,5.78,1.52,5.78,3.38S137.54,79.41,134.35,79.41Z"/><path class="cls-14" d="M137,92.59,135.49,94c-.52.39-1.14.9-1.9,1.41a20.63,20.63,0,0,1-2.69,1.52l-.78.37-.85.32a13.55,13.55,0,0,1-1.8.59,21,21,0,0,1-4,.76c-.71,0-1.42.11-2.18.08a20.71,20.71,0,0,1-2.19-.13,17,17,0,0,1-2.25-.35l-1.12-.24c-.37-.1-.73-.22-1.09-.33a22.44,22.44,0,0,1-4.16-1.83c-.66-.36-1.26-.79-1.89-1.18s-1.17-.88-1.71-1.34a20.63,20.63,0,0,1-2.83-3,24.16,24.16,0,0,1-2-3l-.75-1.45-.54-1.36c-.35-.84-.53-1.63-.73-2.25s-.24-1.15-.31-1.49l-.11-.53.6,2c.26.6.49,1.36.89,2.17.2.4.42.83.64,1.28l.8,1.38a24.37,24.37,0,0,0,2.12,2.85A26.62,26.62,0,0,0,107.42,93c.53.44,1.1.84,1.66,1.26s1.2.77,1.83,1.11a21.53,21.53,0,0,0,4,1.69c.34.11.69.23,1,.33l1.06.25a17.72,17.72,0,0,0,2.12.36c.7.13,1.45.1,2.16.16s1.4,0,2.08,0a24,24,0,0,0,3.91-.59,13.34,13.34,0,0,0,1.76-.5l.84-.26c.27-.12.52-.23.78-.33a27.8,27.8,0,0,0,2.72-1.32c.78-.44,1.42-.9,2-1.24Z"/><path class="cls-14" d="M100.22,68.91l.23-.68a14.44,14.44,0,0,1,.71-1.9c.18-.4.37-.85.63-1.31a16.48,16.48,0,0,1,.84-1.48,17.88,17.88,0,0,1,1.1-1.62,18.37,18.37,0,0,1,1.38-1.66c.49-.58,1.1-1.09,1.68-1.66s1.26-1.08,2-1.56a20.48,20.48,0,0,1,4.82-2.57,21.81,21.81,0,0,1,5.69-1.36,12.46,12.46,0,0,1,1.5-.11l.75,0c.31,0,.51,0,.77,0l1.49.06c.5,0,1,.14,1.52.21a21.12,21.12,0,0,1,3,.68c.49.13.95.34,1.43.5a11.31,11.31,0,0,1,1.39.58l1.34.65c.44.23.85.51,1.27.76a21.33,21.33,0,0,1,2.36,1.68c.38.28.71.63,1.06.93a13,13,0,0,1,1,1,23,23,0,0,1,1.71,2.06l.75,1c.23.35.43.72.63,1.07s.42.69.6,1,.33.7.49,1a13.69,13.69,0,0,1,.79,2l.31.95q.12.48.21.93a21.35,21.35,0,0,1,.52,3.11c.11.87,0,1.56.08,2V76l-.06-.71c-.06-.46-.06-1.15-.21-2a21.54,21.54,0,0,0-.69-3l-.26-.89c-.12-.29-.24-.6-.36-.91a14.69,14.69,0,0,0-.85-1.94c-.17-.33-.34-.66-.51-1s-.41-.65-.61-1-.42-.68-.66-1l-.76-1a24.73,24.73,0,0,0-3.72-3.73,23.21,23.21,0,0,0-2.29-1.58c-.41-.24-.8-.5-1.23-.72l-1.29-.61a11,11,0,0,0-1.34-.53c-.46-.16-.9-.35-1.37-.48a23.17,23.17,0,0,0-2.84-.61c-.47-.07-.94-.17-1.43-.21L122.26,54l-.71,0-.72,0a13.94,13.94,0,0,0-1.45.08,21.38,21.38,0,0,0-5.47,1.25,22.3,22.3,0,0,0-4.71,2.36c-.73.44-1.35,1-2,1.44s-1.19,1-1.68,1.56l-.75.78c-.24.27-.45.54-.67.79A16.18,16.18,0,0,0,103,63.74c-.37.48-.64,1-.92,1.42a12.51,12.51,0,0,0-.69,1.26,17.54,17.54,0,0,0-.84,1.83Z"/><g class="cls-15"><path class="cls-16" d="M117.06,96.34l-1.87-.41c-.57-.2-1.29-.4-2.09-.72A16.87,16.87,0,0,1,110.52,94l-.7-.41-.69-.48A13.79,13.79,0,0,1,107.72,92a19.73,19.73,0,0,1-2.71-2.7c-.4-.54-.84-1-1.22-1.64a17.67,17.67,0,0,1-1.06-1.75,17,17,0,0,1-.91-1.93l-.4-1c-.12-.33-.21-.68-.32-1a21.28,21.28,0,0,1-.78-4.17c-.07-.69-.06-1.39-.08-2.08s.07-1.36.14-2a20.45,20.45,0,0,1,.81-3.74,22.74,22.74,0,0,1,1.28-3.17l.72-1.33.77-1.13c.47-.71,1-1.26,1.36-1.74s.76-.78,1-1l.35-.36-1.18,1.5c-.32.51-.78,1.09-1.19,1.83l-.65,1.16c-.2.43-.41.87-.62,1.34a21.6,21.6,0,0,0-1.08,3.13,26.24,26.24,0,0,0-.62,3.62c0,.63,0,1.28-.08,1.93s0,1.32.11,2a20.86,20.86,0,0,0,.78,4c.1.32.19.65.3,1l.37.94a15.66,15.66,0,0,0,.83,1.81c.26.6.68,1.17,1,1.75s.75,1.05,1.12,1.57a22.32,22.32,0,0,0,2.48,2.7,12.12,12.12,0,0,0,1.31,1.1l.64.51.66.42a23.14,23.14,0,0,0,2.42,1.42c.75.37,1.44.63,2,.88Z"/></g><g class="cls-15"><path class="cls-16" d="M116,55.62l.64-.18a13.88,13.88,0,0,1,1.83-.45,11.46,11.46,0,0,1,1.34-.21,14.94,14.94,0,0,1,1.59-.14,18.08,18.08,0,0,1,1.81,0,16.17,16.17,0,0,1,2,.19c.7.07,1.41.27,2.16.41a23.2,23.2,0,0,1,2.24.72,18.59,18.59,0,0,1,4.52,2.35,20.31,20.31,0,0,1,4,3.67,13.25,13.25,0,0,1,.88,1.1l.42.57c.17.23.26.4.39.6l.73,1.18c.23.4.43.86.64,1.28a19.27,19.27,0,0,1,1,2.66c.16.45.24.91.36,1.37A11.15,11.15,0,0,1,143,72.1c.07.47.13.93.2,1.38s0,.92.08,1.38a22,22,0,0,1,0,2.7,23.54,23.54,0,0,1-.4,2.58,19.16,19.16,0,0,1-.7,2.4c-.13.38-.27.76-.41,1.13s-.33.71-.49,1-.31.69-.49,1l-.56.92A14.35,14.35,0,0,1,139,88.32l-.57.74-.61.64a20.17,20.17,0,0,1-2.13,2,17.1,17.1,0,0,1-1.53,1.11l-.55.38.52-.43c.32-.29.84-.65,1.42-1.22a19.47,19.47,0,0,0,2-2.13l.55-.67.51-.76a14,14,0,0,0,1-1.67l.5-.91c.16-.32.29-.66.44-1s.31-.68.44-1,.23-.73.35-1.1a22.78,22.78,0,0,0,.91-4.81,20.33,20.33,0,0,0,0-2.59c0-.43,0-.87-.09-1.31L142,72.28a9.89,9.89,0,0,0-.29-1.31c-.12-.43-.21-.87-.36-1.3a20,20,0,0,0-1-2.49c-.2-.4-.36-.81-.58-1.21L139,64.78c-.11-.18-.24-.42-.35-.56l-.39-.54a12.43,12.43,0,0,0-.82-1.06,19.71,19.71,0,0,0-3.82-3.56,20.89,20.89,0,0,0-4.27-2.39,22.14,22.14,0,0,0-2.14-.77c-.72-.17-1.4-.39-2.08-.49s-1.33-.22-1.95-.27a15.93,15.93,0,0,0-1.78-.1,13.18,13.18,0,0,0-1.56,0,12.38,12.38,0,0,0-1.33.12c-.8.09-1.43.21-1.86.3Z"/></g><path class="cls-17" d="M125.51,76a3.86,3.86,0,1,1-3.86-3.85A3.85,3.85,0,0,1,125.51,76Z"/><path class="cls-18" d="M124.56,76.45c0,1.84-5.17-3.33-3.33-3.33A3.34,3.34,0,0,1,124.56,76.45Z"/><path class="cls-9" d="M91.19,83.73A10.92,10.92,0,1,1,80.27,72.81,10.92,10.92,0,0,1,91.19,83.73Z"/><path class="cls-13" d="M80.85,66.09A17.06,17.06,0,1,0,97.91,83.15,17.06,17.06,0,0,0,80.85,66.09Zm4.64,9c1.6-1.59,3.64-2.13,4.57-1.2s.4,3-1.19,4.58-3.65,2.13-4.58,1.2S83.9,76.71,85.49,75.11ZM71.6,73.91c.93-.93,3-.39,4.57,1.2s2.14,3.64,1.2,4.58-3,.39-4.57-1.2S70.67,74.84,71.6,73.91Zm-3.82,9.24c0-1.32,1.82-2.39,4.08-2.39s4.08,1.07,4.08,2.39-1.83,2.38-4.08,2.38S67.78,84.46,67.78,83.15Zm8.39,8c-1.59,1.59-3.64,2.13-4.57,1.2s-.4-3,1.2-4.58,3.64-2.13,4.57-1.2S77.77,89.58,76.17,91.18Zm4.66,5c-1.32,0-2.38-1.83-2.38-4.08S79.51,88,80.83,88s2.39,1.83,2.39,4.08S82.15,96.2,80.83,96.2Zm0-18c-1.32,0-2.38-1.83-2.38-4.08s1.06-4.08,2.38-4.08,2.39,1.83,2.39,4.08S82.15,78.25,80.83,78.25Zm9.23,14.13c-.93.93-3,.39-4.57-1.2s-2.13-3.64-1.2-4.58,3-.39,4.58,1.2S91,91.45,90.06,92.38Zm-.25-6.85c-2.26,0-4.09-1.07-4.09-2.38s1.83-2.39,4.09-2.39,4.08,1.07,4.08,2.39S92.06,85.53,89.81,85.53Z"/><path class="cls-14" d="M91.67,94.83l-1,1c-.38.27-.81.64-1.35,1a14.32,14.32,0,0,1-1.9,1.06,7.82,7.82,0,0,1-1.14.49,10,10,0,0,1-1.27.42,14,14,0,0,1-2.84.53c-.51,0-1,.08-1.54.06A13.69,13.69,0,0,1,79,99.29,12.23,12.23,0,0,1,77.44,99a10.5,10.5,0,0,1-1.56-.4A15.34,15.34,0,0,1,73,97.35c-.46-.25-.89-.56-1.33-.83s-.82-.62-1.21-1A15.93,15.93,0,0,1,67,91.34l-.53-1c-.13-.34-.26-.66-.38-1-.25-.6-.37-1.16-.52-1.59-.2-.91-.29-1.42-.29-1.42s.16.5.43,1.38c.18.42.34,1,.62,1.52l.45.91.57,1a17.89,17.89,0,0,0,1.49,2,19.5,19.5,0,0,0,2,1.95c.38.31.78.59,1.18.89s.84.54,1.29.78A15.29,15.29,0,0,0,76.1,98a11,11,0,0,0,1.49.41,12.91,12.91,0,0,0,1.49.26,15.3,15.3,0,0,0,1.53.11c.47,0,1,0,1.46,0a19.67,19.67,0,0,0,2.76-.42,11.22,11.22,0,0,0,1.24-.35,8.45,8.45,0,0,0,1.14-.42,18.22,18.22,0,0,0,1.92-.93c.55-.31,1-.63,1.4-.88Z"/><path class="cls-14" d="M65.73,78.13s.06-.17.16-.48a12.25,12.25,0,0,1,.51-1.34A15.78,15.78,0,0,1,69.19,72a14.8,14.8,0,0,1,2.58-2.27,14.51,14.51,0,0,1,3.4-1.82,15.54,15.54,0,0,1,4-1,9.1,9.1,0,0,1,1-.08,7.79,7.79,0,0,1,1.08,0l1.05,0c.35,0,.71.1,1.07.15a15.39,15.39,0,0,1,4.09,1.24A16.69,16.69,0,0,1,91,70.51a16.12,16.12,0,0,1,2.65,2.79l.52.74c.17.25.31.5.45.75a11.63,11.63,0,0,1,.77,1.48A9,9,0,0,1,96,77.69l.23.67c.05.23.1.44.15.65a16.3,16.3,0,0,1,.36,2.2,11.11,11.11,0,0,1,0,1.43c0,.33,0,.51,0,.51l0-.51c0-.32,0-.81-.16-1.41a14.58,14.58,0,0,0-.48-2.15l-.18-.63c-.08-.21-.17-.42-.26-.64A15.9,15.9,0,0,0,94.27,75c-.15-.23-.29-.48-.46-.72s-.36-.46-.54-.69A16.69,16.69,0,0,0,90.65,71a15.69,15.69,0,0,0-3.4-2,17.41,17.41,0,0,0-1.91-.71,15.18,15.18,0,0,0-2-.44c-.33,0-.66-.12-1-.15l-1,0a5.68,5.68,0,0,0-1,0c-.34,0-.68,0-1,.06a14.87,14.87,0,0,0-3.86.88,15.82,15.82,0,0,0-5.91,3.78,12.52,12.52,0,0,0-1,1.11,11.8,11.8,0,0,0-.82,1.07,13.35,13.35,0,0,0-1.13,1.89,12.46,12.46,0,0,0-.6,1.29Z"/><g class="cls-15"><path class="cls-16" d="M77.61,97.48l-1.31-.29c-.41-.14-.92-.29-1.48-.51A12.58,12.58,0,0,1,73,95.79a8.11,8.11,0,0,1-1-.63,9.65,9.65,0,0,1-1-.75,13.2,13.2,0,0,1-1.9-1.91,12.91,12.91,0,0,1-.86-1.16,13.4,13.4,0,0,1-.75-1.23,14,14,0,0,1-.64-1.36,10.33,10.33,0,0,1-.51-1.41,15,15,0,0,1-.55-3c0-.49,0-1,0-1.46s0-1,.09-1.43a14.76,14.76,0,0,1,1.47-4.87l.51-.94.54-.8c.33-.5.7-.89,1-1.23.6-.62,1-1,1-1l-.83,1.06c-.23.36-.56.76-.84,1.28l-.46.82-.44,1A13.82,13.82,0,0,0,67,79a18,18,0,0,0-.44,2.56c0,.44-.05.9-.07,1.36s0,.93.08,1.4a15,15,0,0,0,.56,2.79,14.11,14.11,0,0,0,1,2.64A13.93,13.93,0,0,0,68.84,91c.22.38.53.74.79,1.1A16.09,16.09,0,0,0,71.38,94a9.29,9.29,0,0,0,.92.78,8.77,8.77,0,0,0,.92.66c.6.41,1.19.71,1.71,1s1,.44,1.41.61Z"/></g><g class="cls-15"><path class="cls-16" d="M76.87,68.75l.45-.13a10.29,10.29,0,0,1,1.29-.31,13.18,13.18,0,0,1,2.06-.25,12.75,12.75,0,0,1,2.7.13,14.21,14.21,0,0,1,3.11.79,13.19,13.19,0,0,1,3.19,1.67,14.75,14.75,0,0,1,2.86,2.58c.22.24.41.52.61.78a6.34,6.34,0,0,1,.57.82l.52.84c.17.28.3.6.46.9a14.5,14.5,0,0,1,1.18,3.81A15.65,15.65,0,0,1,96,84.23a14.29,14.29,0,0,1-.78,3.51,10.56,10.56,0,0,1-.63,1.54,10.37,10.37,0,0,1-.75,1.36,8.7,8.7,0,0,1-.8,1.18l-.4.52-.43.45a13.59,13.59,0,0,1-1.5,1.43c-.44.38-.84.6-1.08.79l-.39.27.37-.3c.22-.21.59-.47,1-.87A14.2,14.2,0,0,0,92,92.61l.39-.47.35-.54a10.18,10.18,0,0,0,.74-1.17,10.57,10.57,0,0,0,.66-1.35,10,10,0,0,0,.56-1.51,16.42,16.42,0,0,0,.64-3.39,14.79,14.79,0,0,0-.2-3.68A13.73,13.73,0,0,0,94,76.91c-.14-.29-.26-.57-.42-.86l-.5-.83a5.34,5.34,0,0,0-.53-.78,8.69,8.69,0,0,0-.57-.75,13.89,13.89,0,0,0-2.7-2.51,14.64,14.64,0,0,0-6-2.57,11.53,11.53,0,0,0-1.37-.19,11.19,11.19,0,0,0-1.25-.08,13.67,13.67,0,0,0-2.05.11c-.56.06-1,.15-1.3.21Z"/></g><path class="cls-19" d="M83.57,83.15a2.72,2.72,0,1,1-2.72-2.72A2.71,2.71,0,0,1,83.57,83.15Z"/><path class="cls-18" d="M82.9,83.45c0,1.3-3.65-2.35-2.35-2.35A2.35,2.35,0,0,1,82.9,83.45Z"/><path class="cls-10" d="M132.56,144.72a2.9,2.9,0,1,1-2.9-2.9A2.9,2.9,0,0,1,132.56,144.72Z"/><path class="cls-10" d="M144.56,144.72a2.9,2.9,0,1,1-2.9-2.9A2.9,2.9,0,0,1,144.56,144.72Z"/><polygon class="cls-20" points="165.58 135.6 192.67 149.97 192.67 102.14 165.58 114.21 165.58 135.6"/><polygon class="cls-21" points="165.58 126.04 165.58 135.6 192.67 149.97 192.67 126.04 165.58 126.04"/><rect class="cls-22" x="161.53" y="112.37" width="5.7" height="25.91"/><path class="cls-22" d="M195.16,149.32a2.49,2.49,0,0,1-2.49,2.49h0a2.49,2.49,0,0,1-2.48-2.49V102.79a2.48,2.48,0,0,1,2.48-2.49h0a2.48,2.48,0,0,1,2.49,2.49Z"/><rect x="234.82" y="89.98" width="153.7" height="98.2"/><rect class="cls-23" x="234.82" y="146.05" width="153.7" height="42.13"/><rect class="cls-24" x="232.42" y="51.74" width="153.7" height="18.79" transform="matrix(0.96, -0.26, 0.26, 0.96, -5.2, 83.39)"/><polygon class="cls-16" points="258.47 65.23 242.54 69.56 237.59 90.38 253.51 86.04 258.47 65.23"/><polygon class="cls-16" points="294.17 55.51 278.24 59.84 273.29 80.66 289.22 76.33 294.17 55.51"/><polygon class="cls-16" points="329.88 45.78 313.95 50.12 308.99 70.94 324.92 66.61 329.88 45.78"/><polygon class="cls-16" points="365.58 36.06 349.65 40.4 344.7 61.22 360.63 56.89 365.58 36.06"/><polygon class="cls-16" points="382.69 38.24 380.4 51.5 385.89 50.01 382.69 38.24"/><rect class="cls-25" x="234.82" y="89.98" width="153.7" height="18.79"/><polygon class="cls-26" points="261.58 108.77 245.07 108.77 234.82 89.98 251.33 89.98 261.58 108.77"/><polygon class="cls-26" points="298.58 108.77 282.07 108.77 271.83 89.98 288.33 89.98 298.58 108.77"/><polygon class="cls-26" points="335.59 108.77 319.07 108.77 308.83 89.98 325.34 89.98 335.59 108.77"/><polygon class="cls-26" points="372.59 108.77 356.08 108.77 345.83 89.98 362.34 89.98 372.59 108.77"/><polygon class="cls-26" points="388.52 102.17 382.84 89.98 388.52 89.98 388.52 102.17"/><path class="cls-27" d="M252.33,104.81c0,4.13-.74,4.6-4.45,4.6h-9.21c-3.71,0-5-.47-5-4.6V76.13c0-4.12,1.31-4.94,5-4.94h9.21c3.71,0,4.45.82,4.45,4.94Z"/><path class="cls-20" d="M251.33,104c0,3.91-.7,4.35-4.21,4.35H238.4c-3.52,0-4.75-.44-4.75-4.35V76.89c0-3.91,1.23-4.68,4.75-4.68h8.72c3.51,0,4.21.77,4.21,4.68Z"/><path class="cls-27" d="M246.49,80.75a4,4,0,1,1-4-4A4,4,0,0,1,246.49,80.75Z"/><path class="cls-27" d="M246.49,99.37a4,4,0,1,1-4-4A4,4,0,0,1,246.49,99.37Z"/><rect class="cls-20" x="237.71" y="79.84" width="9.82" height="2.13"/><rect class="cls-20" x="237.7" y="98.3" width="9.82" height="2.13" transform="matrix(0.74, -0.67, 0.67, 0.74, -3.79, 188.94)"/><line class="cls-28" x1="253.75" y1="131.25" x2="367.18" y2="131.25"/><line class="cls-28" x1="253.75" y1="146.05" x2="367.18" y2="146.05"/><line class="cls-28" x1="253.75" y1="160.86" x2="367.18" y2="160.86"/><path class="cls-29" d="M197.82,369.37s-44.09,13.25-51.89-23.68c-1.17-14,11.77-35.13,18.55-7.17s33.34,7.17,33.34,7.17Z"/><path class="cls-29" d="M47.58,314.43a50.15,50.15,0,1,0,50.15-50.15A50.15,50.15,0,0,0,47.58,314.43Z"/><path class="cls-30" d="M55.46,314.43a42.27,42.27,0,1,0,42.27-42.26A42.26,42.26,0,0,0,55.46,314.43Z"/><path class="cls-31" d="M62.49,314.43A35.24,35.24,0,1,0,97.73,279.2,35.24,35.24,0,0,0,62.49,314.43Z"/><path class="cls-32" d="M67.89,314.43A29.84,29.84,0,1,0,97.73,284.6,29.84,29.84,0,0,0,67.89,314.43Z"/><path class="cls-33" d="M82.82,314.43a14.91,14.91,0,1,0,14.91-14.9A14.9,14.9,0,0,0,82.82,314.43Z"/><path class="cls-34" d="M97.73,242.52a71.91,71.91,0,1,0,71.9,71.91A71.92,71.92,0,0,0,97.73,242.52Zm0,15.42a15.13,15.13,0,1,1-15.13,15.13A15.13,15.13,0,0,1,97.72,257.94Zm8.84,42.61a4.42,4.42,0,1,1-4.42-4.41A4.42,4.42,0,0,1,106.56,300.55Zm-21.3,0A4.42,4.42,0,1,1,80.85,305,4.42,4.42,0,0,1,85.26,300.55ZM43.52,296a15.13,15.13,0,1,1,15.13,15.14A15.12,15.12,0,0,1,43.52,296Zm23.94,64.31a15.13,15.13,0,1,1,15.13-15.13A15.13,15.13,0,0,1,67.46,360.32Zm17.8-33.44a4.42,4.42,0,1,1,4.42-4.42A4.41,4.41,0,0,1,85.26,326.88ZM102.14,333a4.42,4.42,0,1,1,4.42-4.42A4.42,4.42,0,0,1,102.14,333Zm-4.41-9.68a8.84,8.84,0,1,1,8.83-8.84A8.84,8.84,0,0,1,97.73,323.27Zm9.9-8.22a4.42,4.42,0,1,1,4.42,4.42A4.42,4.42,0,0,1,107.63,315.05Zm18.62,45.27a15.13,15.13,0,1,1,15.13-15.13A15.13,15.13,0,0,1,126.25,360.32Zm8-49.17A15.14,15.14,0,1,1,149.42,296,15.13,15.13,0,0,1,134.29,311.15Z"/><path class="cls-6" d="M97.72,250.94a63.5,63.5,0,1,0,63.5,63.49A63.5,63.5,0,0,0,97.72,250.94Zm0,7a15.13,15.13,0,1,1-15.13,15.13A15.13,15.13,0,0,1,97.72,257.94Zm8.84,42.61a4.42,4.42,0,1,1-4.42-4.41A4.42,4.42,0,0,1,106.56,300.55Zm-21.3,0A4.42,4.42,0,1,1,80.84,305,4.42,4.42,0,0,1,85.26,300.55ZM43.52,296a15.13,15.13,0,1,1,15.13,15.14A15.12,15.12,0,0,1,43.52,296Zm23.94,64.31a15.13,15.13,0,1,1,15.13-15.13A15.13,15.13,0,0,1,67.46,360.32Zm17.8-33.44a4.42,4.42,0,1,1,4.42-4.42A4.42,4.42,0,0,1,85.26,326.88ZM102.14,333a4.42,4.42,0,1,1,4.42-4.42A4.42,4.42,0,0,1,102.14,333Zm-4.42-9.68a8.84,8.84,0,1,1,8.84-8.84A8.83,8.83,0,0,1,97.72,323.27Zm9.91-8.22a4.42,4.42,0,1,1,4.42,4.42A4.42,4.42,0,0,1,107.63,315.05Zm18.62,45.27a15.13,15.13,0,1,1,15.13-15.13A15.13,15.13,0,0,1,126.25,360.32Zm8-49.17A15.14,15.14,0,1,1,149.42,296,15.13,15.13,0,0,1,134.29,311.15Z"/><rect class="cls-35" x="230.96" y="278.09" width="164.83" height="66.56"/><rect class="cls-36" x="233.75" y="281.22" width="8.36" height="7.67"/><rect class="cls-36" x="233.75" y="291.68" width="29.27" height="38.33"/><rect class="cls-36" x="267.21" y="291.68" width="39.38" height="38.33"/><rect class="cls-36" x="311.46" y="291.68" width="39.38" height="38.33"/><rect class="cls-36" x="355.02" y="291.68" width="37.63" height="38.33"/><rect class="cls-36" x="246.3" y="281.22" width="8.36" height="7.67"/><rect class="cls-36" x="258.84" y="281.22" width="8.36" height="7.67"/><rect class="cls-36" x="271.39" y="281.22" width="8.36" height="7.67"/><rect class="cls-36" x="283.93" y="281.22" width="8.36" height="7.67"/><rect class="cls-36" x="296.48" y="281.22" width="8.36" height="7.67"/><rect class="cls-36" x="309.02" y="281.22" width="8.36" height="7.67"/><rect class="cls-36" x="321.57" y="281.22" width="8.36" height="7.67"/><rect class="cls-36" x="334.11" y="281.22" width="8.36" height="7.67"/><rect class="cls-36" x="346.66" y="281.22" width="8.36" height="7.67"/><rect class="cls-36" x="359.2" y="281.22" width="8.36" height="7.67"/><rect class="cls-36" x="371.75" y="281.22" width="8.36" height="7.67"/><rect class="cls-36" x="384.29" y="281.22" width="8.36" height="7.67"/><rect class="cls-36" x="233.75" y="333.49" width="8.36" height="7.67"/><rect class="cls-36" x="246.3" y="333.49" width="8.36" height="7.67"/><rect class="cls-36" x="258.84" y="333.49" width="8.36" height="7.67"/><rect class="cls-36" x="271.39" y="333.49" width="8.36" height="7.67"/><rect class="cls-36" x="283.93" y="333.49" width="8.36" height="7.67"/><rect class="cls-36" x="296.48" y="333.49" width="8.36" height="7.67"/><rect class="cls-36" x="309.02" y="333.49" width="8.36" height="7.67"/><rect class="cls-36" x="321.57" y="333.49" width="8.36" height="7.67"/><rect class="cls-36" x="334.11" y="333.49" width="8.36" height="7.67"/><rect class="cls-36" x="346.66" y="333.49" width="8.36" height="7.67"/><rect class="cls-36" x="359.2" y="333.49" width="8.36" height="7.67"/><rect class="cls-36" x="371.75" y="333.49" width="8.36" height="7.67"/><rect class="cls-36" x="384.29" y="333.49" width="8.36" height="7.67"/></g></g></svg>