<svg xmlns="http://www.w3.org/2000/svg" viewBox="0 0 512 512"><defs><style>.cls-1{fill:#0a0e60;}.cls-2{fill:#0d63db;}.cls-3{fill:#04c3ea;}.cls-4{fill:#0489ea;}.cls-5{fill:#149cff;}.cls-6{fill:#124e96;}.cls-7{fill:#5bb6bd;}</style></defs><title>BlueBot</title><g id="Layer_2" data-name="Layer 2"><path class="cls-1" d="M446.64,120.23l-10-5.57-26.39-.75-17.44-9.61-1.09,14.12L377.37,118l-8.09-80.13L342,22.65l1.48,14.62L298,36.3v74.83l-82.66,9.1L197,43.45v-.07l-.07-.25L185,36.92l-12.89,1.47,1.77,7.41L136,50.21l10.11,88-60.92,6.07-9.32,89.94-28.09-7.53L75,241.81l67,17.95,4.9,40.77-25.88-3.35,27.3,15.16L205,319.67,211.5,358l-10.63.61,1.59,9.35.18.11,7,3.9,4.83,2.58h0l129-7.32,10.11-54.86h49.8l9.1-91.76h38.17ZM247.11,365.62l-15.39-8.7L263.66,355Z"/><polygon class="cls-1" points="263.67 355.01 247.11 365.62 231.72 356.92 263.67 355.01"/><polygon class="cls-2" points="440.82 215.02 402.65 215.02 410.23 113.91 436.78 114.67 440.82 215.02"/><polygon class="cls-1" points="436.78 114.67 446.63 120.23 436.8 115.32 436.78 114.67"/><polygon class="cls-2" points="157.32 40.08 164.93 102.91 203.39 113.83 184.97 36.92 157.32 40.08"/><polygon class="cls-1" points="157.24 40.16 141.86 31.25 145.4 59.73 158.77 52.06 157.24 40.16"/><polygon class="cls-1" points="142.34 34.53 142.27 34.54 141.79 31.19 141.94 31.17 142.34 34.53"/><polygon class="cls-2" points="280.5 109.18 319.16 74.57 315.04 35.23 280.5 34.49 280.5 109.18"/><polygon class="cls-3" points="272.01 94.72 272 94.81 270.92 95.7 272.01 94.72"/><polygon class="cls-2" points="202.48 368.05 247.11 365.53 247.81 309.56 193.17 313.2 202.48 368.05"/><polygon class="cls-1" points="263.67 355.01 247.11 365.62 231.72 356.92 263.67 355.01"/><polygon class="cls-2" points="233.05 229.16 214.94 272.15 283.48 282.34 278.62 234.67 233.05 229.16"/><path class="cls-4" d="M350.07,102.78,342,22.65l-36.65-.78,4.12,39.34L272,94.72l-1.09,1,0,0-.11.1h0l-.09.08V96h-.1L188,105.06l0-.13L149.55,94l-7.21-59.47-.4-3.36-.15,0L108.66,35l10.11,88-60.92,6.06L47.74,226.65l67,17.95,6.32,52.58,56,7.25,2.22,0,53.17-3.55-.71,56L316.2,352l10.11-54.85h49.8l9.1-91.77,7.55-101.22ZM202.38,258l18.11-43,45.57,5.51,4.86,47.68Z"/><polygon class="cls-1" points="75.04 241.81 47.74 226.65 36.79 196.47 103.78 214.42 114.73 244.59 75.04 241.81"/><polygon class="cls-5" points="103.78 214.42 36.79 196.47 41.11 154.73 92.63 144.25 103.78 214.42"/><polygon class="cls-1" points="92.63 144.25 103.59 173.22 114.73 244.59 103.78 214.42 92.63 144.25"/><polygon class="cls-6" points="257.23 232.08 247.69 264.75 219.81 260.6 233.05 229.16 257.23 232.08"/><polygon class="cls-2" points="103.59 173.22 141.79 189.35 146.81 264.75 115.71 252.71 103.59 173.22"/><polygon class="cls-6" points="410.23 113.91 426.52 114.37 418.39 215.02 402.65 215.02 410.23 113.91"/><polygon class="cls-6" points="157.24 40.16 177.72 50.25 188.01 104.93 164.36 98.21 157.24 40.16"/><polygon class="cls-5" points="112.49 68.3 118.47 50.25 127.43 32.86 108.66 35.04 112.49 68.3"/><polygon class="cls-5" points="92.63 125.61 70.28 148.8 55.5 151.8 57.85 129.07 92.63 125.61"/><polygon class="cls-5" points="309.45 61.21 319.16 32.86 342.74 30.17 341.98 22.65 305.33 21.87 309.45 61.21"/><polygon class="cls-5" points="280.5 68.3 302.11 34.95 280.5 34.49 280.5 68.3"/><polygon class="cls-6" points="198.73 345.96 231.96 338.39 232.31 310.59 193.17 313.2 198.73 345.96"/><polygon class="cls-7" points="36.79 196.47 53.81 168.08 92.63 144.25 41.11 154.73 36.79 196.47"/><polygon class="cls-7" points="302.11 68.3 296.65 94.72 263.67 110.16 188.01 104.93 270.7 95.96 302.11 68.3"/><polygon class="cls-5" points="305.82 223.64 345.87 223.64 332.83 253.33 286.52 253.33 305.82 223.64"/><polygon class="cls-1" points="286.52 253.33 298.99 267.18 345.29 267.18 358.33 237.49 345.87 223.64 332.83 253.33 286.52 253.33"/><polygon class="cls-7" points="293.97 241.87 306.84 230.96 338.93 223.64 305.82 223.64 293.97 241.87"/><polygon class="cls-2" points="358.33 237.49 372.25 239.65 372.25 270.96 351.9 280.73 306.07 280.73 298.99 267.18 345.29 267.18 358.33 237.49"/></g><g id="Layer_4" data-name="Layer 4"><path class="cls-7" d="M222.64,177.23l5.12,17.21H217.68l-12.09-11-17.37-6.2-21.86,5-12.24,9.31-5.89,5.2-5.28-.86-1.24-12.09L152.26,173l8.52-6.35s18.14-5.27,18.76-5.58,27.17,5,27.17,5Z"/><polygon class="cls-7" points="197.06 193.66 211.01 205.29 209.46 217.54 200.32 215.06 191.17 208.08 175.36 209.16 167.76 216.61 162.34 218.31 157.84 215.06 157.84 205.93 165.59 196.69 179.85 191.49 197.06 193.66"/><polygon class="cls-7" points="246.72 170.62 236.7 174.13 226.78 163.17 214.16 153.66 195.35 147.05 178.61 146.84 157.84 151.8 141.71 164.21 130.66 175.16 124.66 172.42 122.65 162.34 135.36 148.39 148.69 138.16 174.27 129.48 197.37 130.41 226.05 142.35 239.8 154.08 246.72 170.62"/><polygon class="cls-7" points="361.24 174.28 366.2 188.24 360.15 192.73 354.26 188.86 346.51 180.48 329.77 173.2 310.85 175.16 297.26 183.43 288.99 192.73 282.48 191.49 280.47 184.21 283.41 177.54 293.33 167.31 304.81 159.71 319.69 155.68 336.43 158.16 348.68 164.05 361.24 174.28"/><polygon class="cls-7" points="345.22 196.69 350.18 208.75 345.01 214.75 338.19 210.41 330.44 204.72 318.04 204 310.28 209.06 306.36 213.61 302.53 214.75 297.26 210.61 297.99 200.71 310.18 189.84 321.45 186.68 334.26 188.81 345.22 196.69"/><polygon class="cls-7" points="383.78 156.97 381.18 169.17 372.5 167.93 363.41 158.21 351.63 148.91 340.67 144.36 320.83 140.64 304.16 145.19 286.72 154.7 276.59 166.27 270.8 170.82 265.22 168.13 265.22 157.18 277.62 141.88 294.78 130.51 315.45 124.79 325.79 124.79 347.7 128.57 360.1 134.23 372.3 143.74 383.78 156.97"/><path class="cls-1" d="M218.31,169.89l5.12,17.21H213.35l-12.09-11-17.37-6.2-21.86,5-12.24,9.31-5.9,5.2-5.27-.86-1.24-12.09,10.55-10.7,8.52-6.36s18.14-5.27,18.76-5.58,27.17,5,27.17,5Z"/><polygon class="cls-1" points="192.73 186.32 206.68 197.95 205.13 210.19 195.99 207.71 186.84 200.74 171.03 201.82 163.43 209.26 158 210.97 153.51 207.71 153.51 198.58 161.26 189.35 175.52 184.15 192.73 186.32"/><polygon class="cls-1" points="242.39 163.27 232.37 166.79 222.44 155.83 209.83 146.32 191.02 139.71 174.28 139.5 153.51 144.46 137.38 156.87 126.33 167.82 120.33 165.08 118.32 155 131.03 141.05 144.36 130.82 169.94 122.14 193.04 123.07 221.72 135.01 235.47 146.74 242.39 163.27"/><polygon class="cls-1" points="356.91 166.94 361.87 180.89 355.82 185.39 349.93 181.51 342.18 173.14 325.44 165.86 306.52 167.82 292.93 176.09 284.66 185.39 278.15 184.15 276.14 176.86 279.08 170.2 289 159.96 300.48 152.37 315.36 148.34 332.1 150.82 344.35 156.71 356.91 166.94"/><polygon class="cls-1" points="340.89 189.35 345.85 201.41 340.68 207.4 333.86 203.06 326.11 197.38 313.7 196.66 305.95 201.72 302.03 206.27 298.2 207.4 292.93 203.27 293.65 193.37 305.85 182.5 317.12 179.34 329.93 181.46 340.89 189.35"/><polygon class="cls-1" points="379.45 149.63 376.85 161.83 368.17 160.59 359.08 150.87 347.3 141.57 336.34 137.02 316.5 133.3 299.83 137.85 282.39 147.36 272.26 158.93 266.47 163.48 260.89 160.79 260.89 149.84 273.29 134.54 290.45 123.17 311.12 117.44 321.46 117.44 343.37 121.23 355.77 126.89 367.97 136.4 379.45 149.63"/></g><g id="Layer_5" data-name="Layer 5"><polygon class="cls-1" points="188.19 455.68 129.24 469.82 40.49 460.11 19.18 422.17 40.49 424.5 40.49 376.34 55.41 304.84 107.93 295.72 107.93 276.64 119.05 293.79 119.05 392.46 146.55 380.01 188.19 455.68"/><polygon class="cls-2" points="44.29 287.69 29.36 359.19 107.93 375.31 107.93 276.64 44.29 287.69"/><polygon class="cls-4" points="97.74 354.52 19.18 338.39 19.18 422.17 107.93 431.88 97.74 354.52"/><polygon class="cls-2" points="108.59 381.05 118.78 458.41 177.72 444.27 136.09 368.59 108.59 381.05"/><polygon class="cls-1" points="136.09 368.59 146.55 380.01 157.53 399.97 153.62 399.97 136.09 368.59"/><polygon class="cls-1" points="97.74 354.52 107.93 375.31 108.59 381.05 100.89 378.41 97.74 354.52"/><polygon class="cls-7" points="19.18 390.49 31.24 359.44 81.35 351.15 19.18 338.39 19.18 390.49"/><polygon class="cls-5" points="40.68 305.01 53.56 293.29 97.74 278.41 44.29 287.69 40.68 305.01"/><polygon class="cls-6" points="108.59 381.05 123.01 374.52 159.12 448.73 118.78 458.41 108.59 381.05"/><polygon class="cls-1" points="499.83 469.34 402.44 477.76 384.49 479.31 371.86 472.94 387.78 471.57 398.88 445.43 350.06 450.17 324.31 452.67 312.23 448.47 323.61 447.37 314.19 376.12 405.3 354.02 395.15 293.91 460.62 289.7 457.92 271.32 481.2 288.37 494.93 381.51 499.83 469.34"/><polygon class="cls-2" points="401.89 402.24 482.3 375.14 487.2 462.97 371.86 472.94 401.89 402.24"/><polygon class="cls-2" points="386.8 441.23 402.44 404.42 394.62 349.49 302.11 371.93 312.23 448.47 386.8 441.23"/><polygon class="cls-1" points="391.24 391.56 401.89 402.24 482.3 375.14 471.64 364.45 391.24 391.56"/><polygon class="cls-4" points="457.91 271.32 471.64 364.45 391.24 391.56 371.86 276.86 457.91 271.32"/><polygon class="cls-5" points="371.86 472.94 409.62 413.5 436.77 390.49 401.89 402.24 371.86 472.94"/><polygon class="cls-5" points="306.93 408.41 319 384.28 356.67 358.69 302.11 371.93 306.93 408.41"/><polygon class="cls-7" points="380.94 330.61 386.36 294.53 417.36 273.93 371.86 276.86 380.94 330.61"/><polygon class="cls-6" points="401.89 402.24 484.61 416.46 482.3 375.14 401.89 402.24"/></g></svg>