<svg xmlns="http://www.w3.org/2000/svg" viewBox="0 0 512 512"><defs><style>.cls-1{fill:#29560f;}.cls-2{fill:#509324;}.cls-3{fill:#69b538;}.cls-4{fill:#a9d48e;}.cls-5{fill:#1b350a;}</style></defs><title>GreenBot</title><g id="Layer_2" data-name="Layer 2"><path class="cls-1" d="M60.64,329.59Z"/><path class="cls-1" d="M500.88,187l-.66,12.64-24,6.55V96.5L459.74,71.82V96.5H380.22v60.33H317.15v79.53H234.88V159.58l0,0h0l-16.32-24.6v3.61l-2.85-3.65,1.18,17.68-31.34-12.2V80.05L169.07,55.37V80.05H89.54V222.46L73.09,194.81l-8.28-27,0,4.32v53l-11-2.52,2.66,43.87H41.31l-5.68-.08,24.61,63.14h29.3v74.05H73.09l16.45,24.68H210.2l1.43,26.81-15.14.61,16.45,24.68,139.86-5.49,5.48-52.1L476.2,406.38V304.92h24.68l5.48-107ZM317.15,373.47H254.08l-8.23-54.84,71.3-13.71Z"/><polygon class="cls-2" points="141.34 66.34 138.9 140.38 89.54 150.47 89.54 66.34 141.34 66.34"/><polygon class="cls-3" points="470.71 195.22 470.71 293.95 495.39 293.95 500.88 187 470.71 195.22"/><polygon class="cls-1" points="60.64 329.6 60.36 329.6 60.31 328.72 60.64 329.6"/><polygon class="cls-3" points="64.86 167.8 64.86 266.52 35.69 266.52 29.21 159.58 64.86 167.8"/><polygon class="cls-2" points="331.09 197.21 393.14 197.21 373.76 242.49 324.34 239.88 331.09 197.21"/><path class="cls-3" d="M363.76,71.82v60.33H300.69v79.53H218.43V134.9l-49.36-19.2V55.37H124.89l-2.44,74L73.09,139.5V403.64H193.75l2.74,52.1,139.85-5.49,5.49-52.1L459.74,381.7V71.82Zm-63.07,277H237.62L229.39,294l71.3-13.72ZM367,235.09l-49.37-2.58,6.69-42.71h62.05Z"/><polygon class="cls-3" points="399.46 38.92 393.91 101.99 350.03 88.28 350.03 38.92 399.46 38.92"/><polygon class="cls-1" points="363.76 132.15 350.05 88.28 393.93 101.99 399.41 38.92 413.13 71.82 407.64 134.9 363.76 132.15"/><polygon class="cls-3" points="334.04 377.3 333.08 386.43 330.92 406.92 328.55 429.41 230.99 433.23 229.06 433.31 235.31 380.05 334.04 377.3"/><polygon class="cls-1" points="342.26 399.24 334.04 377.3 328.55 429.4 229.83 433.28 233.12 455.41 336.78 451.34 342.26 399.24"/><polygon class="cls-4" points="334.04 377.3 333.08 386.43 249.66 392.94 241.6 419.29 230.99 433.23 229.06 433.31 235.31 380.05 334.04 377.3"/><polygon class="cls-4" points="35.63 266.44 41.73 185.88 54.11 165.32 29.1 159.54 35.63 266.44"/><polygon class="cls-4" points="350.03 86.82 361.36 58.73 390.1 49.59 399.46 38.92 350.03 38.92 350.03 86.82"/><polygon class="cls-4" points="73.09 153.57 94.92 135.04 73.08 139.51 73.09 153.57"/><polygon class="cls-4" points="144.87 55.37 132.96 58.3 124.31 72.77 124.9 55.47 144.87 55.37"/><polygon class="cls-4" points="300.69 175.36 309.54 138.2 322.54 132.15 300.61 132.1 300.69 175.36"/><polygon class="cls-2" points="73.09 194.81 94.2 203.74 83.97 321.75 73.08 304.92 73.09 194.81"/><polygon class="cls-2" points="470.65 194.59 490.6 189.8 488.09 293.95 470.65 293.88 470.65 194.59"/><polygon class="cls-2" points="441.28 71.83 441.1 73.05 430.16 148.87 384.43 143.64 363.75 132.1 407.81 132.98 413.17 71.79 441.28 71.83"/></g><g id="Layer_4" data-name="Layer 4"><path class="cls-4" d="M190.22,259.91l-10.67-5.53V202.25L200.89,236l4.57-36.8L179.55,175V159.76l-11.76-17-.29,21-1-.95-18,7.88-.31-27.91L136,162.8l.21,13.26-22.42,9.82-3,52.91L137.51,255l1.28,78.17-22.6-34.54,3.92,37.66,19,17.86.36,22L151,392.94l-.32-27.88,1.41,1.32,12.61-4.74-.2,14.54,15,14.37V356.06l20-7.53,12-39Zm-23.07-70.75-.82,58.37-17.05-8.84-.52-46.25ZM131,229.21l-2.83-33.09,8.36-1.49.61,37.77ZM150.4,337l-.85-74.6,16.43,10-.85,60.89Zm29.15-7.39V302.08l7.62,25.54Z"/><polygon class="cls-1" points="130.34 134.94 118.15 154.97 121.64 368.34 133.18 385.11 130.34 134.94"/><polygon class="cls-1" points="160.83 138.2 172.59 155.18 172.59 385.98 157.56 371.61 160.83 138.2"/><polygon class="cls-5" points="193.92 231.39 198.49 194.59 159.52 158.23 106.83 181.31 103.78 234.22 164.75 271.23 180.21 323.05 135.57 334.37 109.23 294.09 113.14 331.76 145.15 361.81 192.62 343.95 204.59 304.98 183.25 255.34 124.03 224.64 121.2 191.54 163.88 183.92 193.92 231.39"/><path class="cls-4" d="M414.92,258.17l-6.25-2.42,1.85-60.85,19,27.56,4.79-32.88-22.64-23.07-.26-.06.26-8.65-13.28-17-.62,22.76-12.88-2.73-8.59,2.73-.12-7.08-12-15.68-.85,26.87-14.83,4.7L336.1,207.87l8,35.93,16.48,9.3L358.33,326l-1.11-.13-11.76-23.51L328,282.77l20.47,63.14,9.15,1.36-.44,13.88,22.86,18.73-.52-29.37,5.74.85,7.33-.59-1,37,13.28-7.84.92-30.16,23-1.85,13.5-51.38Zm-17.84-70.38-1.71,62.8-17.68-6.85-1-59.59C382.48,185.15,390.69,186.63,397.08,187.79Zm-42.91,34.67s4.16-12.55,8.18-23.48l-1,30.27Zm25,105.9L378,262.91l13.59,7.67,3.12,3.1-1.54,56.25Zm27.24,1.58,1.32-43.35,15.88,15.78Z"/><polygon class="cls-1" points="357 132.98 368.98 148.65 372.89 372.04 350.03 353.32 357 132.98"/><polygon class="cls-1" points="391.18 132.98 404.46 149.96 397.71 372.04 384.43 379.88 391.18 132.98"/><path class="cls-5" d="M422.32,214.62l4.79-32.87-22.65-23.08L377.68,153l-36.36,11.54L328.91,200,337,236l47.46,26.78,32,31.79-18.07,29L350,318l-11.75-23.51-17.42-19.6,20.46,63.15,36.8,5.44L421.67,340l13.49-51.38-27.43-38.32-38.75-15-22-20.69s13.07-39.41,15.25-39.41,37.44,6.54,37.44,6.54Z"/></g><g id="Layer_5" data-name="Layer 5"><polygon class="cls-1" points="137.97 23.46 112.06 100.97 25.84 95.53 7.11 88.78 27.25 90.05 43.47 27.16 116.71 24.29 119.24 16.71 137.97 23.46"/><polygon class="cls-3" points="24.75 20.41 7.11 88.78 93.33 94.22 119.24 16.71 24.75 20.41"/><polygon class="cls-4" points="14.83 58.84 31.28 32.6 73.09 18.52 24.75 20.41 14.83 58.84"/><polygon class="cls-1" points="318.46 35.87 315.63 77.02 278.4 81.37 274.05 111.86 232.9 111.86 214.17 105.11 236.87 105.38 248.79 85.95 258.27 84.48 259.68 74.63 277.89 72.5 276.88 54.59 298.66 44.78 299.74 29.12 318.46 35.87"/><polygon class="cls-3" points="230.06 79.2 259.68 74.63 255.32 105.11 214.17 105.11 230.06 79.2"/><polygon class="cls-3" points="296.91 70.27 259.68 74.63 258.15 47.84 299.74 29.12 296.91 70.27"/><polygon class="cls-4" points="258.98 62.42 286.03 35.29 258.15 47.84 258.98 62.42"/><polygon class="cls-4" points="223.52 89.87 248.18 76.4 230.06 79.2 223.52 89.87"/><polygon class="cls-1" points="117.06 439.97 108.36 487.22 65.68 492.88 46.96 486.13 67.33 483.43 72.65 453.04 95.95 446.18 98.34 433.22 117.06 439.97"/><polygon class="cls-3" points="53.92 446.29 46.96 486.13 89.63 480.47 98.34 433.22 53.92 446.29"/><polygon class="cls-4" points="50.23 467.39 60.24 450.2 85.02 437.14 54.14 446.29 50.23 467.39"/></g></svg>