<svg id="Background_Complete" data-name="Background Complete" xmlns="http://www.w3.org/2000/svg" viewBox="0 0 392.17 221.62"><defs><style>.cls-1{fill:none;}.cls-2,.cls-3{fill:#e0e0e0;}.cls-3,.cls-4{fill-rule:evenodd;}.cls-4{fill:#ebebeb;}</style></defs><title>Artboard 4</title><path class="cls-1" d="M293.7,172.81a26.94,26.94,0,0,1-7,1.17l-2.87,6-10.66-2.46,0-6.61a27.18,27.18,0,0,1-5.8-4.14l-6.24,2.17-5.79-9.27L260,155a27.08,27.08,0,0,1-1.17-7l-6-2.87,2.47-10.65,6.61,0a26.55,26.55,0,0,1,4.14-5.81L264,122.4l9.28-5.8,4.65,4.7a26.59,26.59,0,0,1,7-1.17l2.87-6,10.66,2.47,0,6.61a26.83,26.83,0,0,1,5.8,4.14l6.24-2.18,5.79,9.28-4.69,4.65a27,27,0,0,1,1.17,7l5.95,2.88L316.2,159.7l-6.61,0a26.5,26.5,0,0,1-4.14,5.8l2.18,6.24-9.28,5.79-4.65-4.69Zm-2.12-15.54a11.73,11.73,0,1,0-16.16-3.74A11.74,11.74,0,0,0,291.58,157.27Z"/><path class="cls-2" d="M291.58,157.27A8.78,8.78,0,0,1,289,158.6a11.81,11.81,0,0,1-12.46-3.16,12.11,12.11,0,0,1-2.94-5.61,11.39,11.39,0,0,1-.23-3.46,11.25,11.25,0,0,1,.81-3.52,12,12,0,0,1,12.09-7.55,11.53,11.53,0,0,1,3.52.82,11.14,11.14,0,0,1,3,1.73,12,12,0,0,1,3.76,5.1,11.87,11.87,0,0,1-2.64,12.58,8.92,8.92,0,0,1-2.33,1.74c-.05-.07.87-.58,2.14-1.92a11.69,11.69,0,0,0,3.08-7,11.45,11.45,0,0,0-4.39-10,11.56,11.56,0,0,0-6.19-2.38,11.35,11.35,0,0,0-11.43,7.14,11.52,11.52,0,0,0-.58,6.6,11.47,11.47,0,0,0,2.74,5.36,11.35,11.35,0,0,0,4.35,3,11.74,11.74,0,0,0,7.62.3C290.68,157.8,291.54,157.19,291.58,157.27Z"/><path class="cls-2" d="M293.7,172.81a2.13,2.13,0,0,1,.31.27l.9.87,3.52,3.47h-.13c2.36-1.5,5.47-3.47,9.24-5.84l-.07.2-2.2-6.23,0-.11.08-.09a27,27,0,0,0,4.09-5.77l.06-.12h6.74l-.23.18c.77-3.35,1.58-6.91,2.44-10.65l.14.3-5.95-2.87-.16-.07v-.17a26.62,26.62,0,0,0-1.17-7l0-.17.12-.13,4.69-4.65,0,.37-5.8-9.27.37.13-6.24,2.18-.18.06-.14-.13a26.17,26.17,0,0,0-5.74-4.08l-.17-.1v-.19c0-2.07,0-4.33,0-6.61l.25.32-10.65-2.46.38-.18-2.88,6-.09.19h-.2a26.32,26.32,0,0,0-6.94,1.16h0l-.34-.09h0v0l0,0-.07-.07-.15-.15-.29-.29-.59-.59-1.16-1.18L273,116.84l.42,0-9.28,5.79.14-.39q1.1,3.15,2.17,6.23l.06.19-.13.15a26.58,26.58,0,0,0-4.1,5.73l-.09.17H262l-6.6,0,.31-.25q-1.27,5.46-2.48,10.65l-.16-.35,5.95,2.88.16.08v.18a26.6,26.6,0,0,0,1.14,7l.05.17-.12.12c-1.61,1.59-3.17,3.14-4.7,4.64l0-.34,5.77,9.29-.3-.11,6.24-2.16.14-.05.11.1a26.34,26.34,0,0,0,5.74,4.12l.12.06v.14c0,2.4,0,4.56-.06,6.61l-.15-.2,10.64,2.51-.17.08c1.16-2.36,2.12-4.31,2.91-5.93l0-.06h.07a27.27,27.27,0,0,0,5.31-.65l1.29-.31a2.37,2.37,0,0,1,.43-.1l-.41.15c-.28.09-.7.22-1.28.37a26.42,26.42,0,0,1-5.33.76l.09-.06c-.77,1.63-1.7,3.58-2.84,6l-.05.1-.12,0-10.66-2.42-.15,0v-6.76l.12.19a27,27,0,0,1-5.86-4.16l.24.06-6.23,2.18-.2.07-.11-.17-5.8-9.27-.12-.18.16-.16,4.68-4.66-.07.29a26.86,26.86,0,0,1-1.2-7.11l.17.27-6-2.87-.22-.11.05-.24q1.2-5.2,2.45-10.65l.06-.25h.26l6.61,0-.29.17a27.14,27.14,0,0,1,4.19-5.87l-.08.33c-.71-2.06-1.44-4.13-2.17-6.23l-.09-.26.23-.14,9.27-5.79.23-.14.19.19q1.15,1.16,2.31,2.34l1.17,1.17.59.59.29.3.14.15.08.07,0,0,0,0h0l-.34-.09h0a27.32,27.32,0,0,1,7.12-1.18l-.29.19,2.87-6,.12-.24.26.06,10.65,2.47.26.06v.26c0,2.28,0,4.54,0,6.61l-.17-.29a27.77,27.77,0,0,1,5.87,4.19l-.33-.06,6.24-2.17.24-.08.13.21,5.78,9.28.13.2-.17.17-4.7,4.65.07-.3a26.66,26.66,0,0,1,1.17,7.11l-.15-.24,5.94,2.89.19.09,0,.21c-.88,3.73-1.71,7.29-2.49,10.64l-.05.19h-.19l-6.61-.05.2-.12a27,27,0,0,1-4.19,5.84l0-.2c.77,2.25,1.5,4.35,2.15,6.24l0,.13-.11.07-9.31,5.74-.07,0-.06-.06-3.41-3.52c-.37-.4-.66-.7-.88-.92Z"/><path class="cls-3" d="M315.47,93.7a37.73,37.73,0,0,1-9.94,1.65l-4.06,8.42-15.06-3.49,0-9.34a37.76,37.76,0,0,1-8.21-5.86l-8.82,3.08L261.24,75l6.63-6.57a37.81,37.81,0,0,1-1.66-9.94l-8.41-4.07,3.48-15.06,9.35,0a38,38,0,0,1,5.85-8.2l-3.07-8.82,13.11-8.19,6.58,6.63A37.73,37.73,0,0,1,303,19.21l4.07-8.42,15.06,3.49-.05,9.34a37.76,37.76,0,0,1,8.21,5.86l8.82-3.08,8.19,13.12-6.64,6.57A37.81,37.81,0,0,1,342.36,56l8.41,4.07-3.48,15.06-9.35,0a37.66,37.66,0,0,1-5.85,8.2l3.07,8.82-13.11,8.19-6.58-6.63Zm-3-22a16.58,16.58,0,1,0-22.85-5.29A16.58,16.58,0,0,0,312.47,71.72Z"/><path class="cls-4" d="M351,143.51a20.55,20.55,0,0,1-5.29.88l-2.16,4.48-8-1.86,0-5a20.35,20.35,0,0,1-4.37-3.11l-4.69,1.63-4.36-7,3.53-3.5a20.55,20.55,0,0,1-.88-5.29l-4.47-2.16,1.85-8,5,0a20.06,20.06,0,0,1,3.12-4.37l-1.64-4.69,7-4.36,3.5,3.53a20.4,20.4,0,0,1,5.28-.88l2.17-4.47,8,1.85,0,5a19.76,19.76,0,0,1,4.36,3.12l4.69-1.64,4.36,7-3.53,3.5a19.59,19.59,0,0,1,.88,5.28l4.48,2.17-1.86,8-5,0A20.05,20.05,0,0,1,359.8,138l1.63,4.69-7,4.36-3.5-3.53Zm-1.6-11.69A8.82,8.82,0,1,0,337.21,129,8.81,8.81,0,0,0,349.36,131.82Z"/><path class="cls-2" d="M44.09,55c.1.11-4.59,4.91-10.47,10.73S22.88,76.21,22.78,76.11s4.59-4.9,10.47-10.73S44,54.92,44.09,55Z"/><path class="cls-2" d="M44.14,76.06c-.1.1-5-4.51-10.89-10.31S22.63,55.18,22.73,55.08s5,4.51,10.89,10.3S44.24,76,44.14,76.06Z"/><path class="cls-2" d="M65.3,188.11c0,.14-6-.37-13.36-1.15s-13.33-1.52-13.31-1.67,6,.38,13.36,1.15S65.31,188,65.3,188.11Z"/><path class="cls-2" d="M64.24,198.15c0,.15-6-.37-13.36-1.14s-13.33-1.53-13.31-1.67,6,.37,13.36,1.15S64.25,198,64.24,198.15Z"/></svg>