<svg xmlns="http://www.w3.org/2000/svg" viewBox="0 0 458.68 265.62"><defs><style>.cls-1{fill:#263238;}</style></defs><title>Artboard 3</title><g id="Numerical_Signs" data-name="Numerical Signs"><path class="cls-1" d="M383.14,29.08c0,.15-6.71.23-15,.18s-15-.19-15-.34,6.71-.22,15-.18S383.14,28.94,383.14,29.08Z"/><path class="cls-1" d="M368.3,44c-.14,0-.33-6.71-.41-15s0-15,.11-15,.33,6.71.41,15S368.45,44,368.3,44Z"/><path class="cls-1" d="M399,252.89a97.42,97.42,0,0,1-9.2-4.4,101.43,101.43,0,0,1-9-4.88A100,100,0,0,1,390,248,101.89,101.89,0,0,1,399,252.89Z"/><path class="cls-1" d="M385.37,257.41a98.62,98.62,0,0,1,4.26-9.27,100.21,100.21,0,0,1,4.74-9,100,100,0,0,1-4.27,9.27A100.43,100.43,0,0,1,385.37,257.41Z"/><path class="cls-1" d="M40,182.48c.06.13-4.73,2.17-10.68,4.54s-10.83,4.19-10.89,4.06,4.74-2.17,10.69-4.54S39.93,182.35,40,182.48Z"/><path class="cls-1" d="M29,176c-.05,0-.17-.29-.53-.75a3.78,3.78,0,0,0-2-1.3,3.6,3.6,0,0,0-3.3.81,3.53,3.53,0,0,0,2.45,6.15,3.59,3.59,0,0,0,3-1.67,3.83,3.83,0,0,0,.56-2.33c0-.58-.18-.89-.13-.91a1.91,1.91,0,0,1,.33.88,3.72,3.72,0,0,1-.45,2.54,3.91,3.91,0,0,1-3.25,2,4,4,0,0,1-2.79-7,4,4,0,0,1,3.72-.82,3.75,3.75,0,0,1,2.07,1.54A1.91,1.91,0,0,1,29,176Z"/><path class="cls-1" d="M36.44,194.79s-.17-.29-.53-.75a3.71,3.71,0,0,0-2-1.3,3.56,3.56,0,0,0-4.22,4.74A3.56,3.56,0,0,0,36,198a3.75,3.75,0,0,0,.57-2.32c-.06-.58-.18-.89-.14-.91a1.72,1.72,0,0,1,.34.88,3.78,3.78,0,0,1-.45,2.54,3.91,3.91,0,0,1-3.26,2,4,4,0,1,1,.94-7.8,3.79,3.79,0,0,1,2.07,1.54C36.41,194.44,36.47,194.78,36.44,194.79Z"/></g></svg>