<svg id="OBJECTS" xmlns="http://www.w3.org/2000/svg" viewBox="0 0 151.66 391.47"><defs><style>.cls-1,.cls-12{fill:#111;}.cls-1,.cls-10,.cls-11,.cls-13,.cls-14,.cls-2,.cls-3,.cls-4,.cls-5,.cls-6,.cls-7,.cls-8,.cls-9{fill-rule:evenodd;}.cls-2{fill:#1c1c1c;}.cls-3{fill:#303030;}.cls-4{fill:#232323;}.cls-5{fill:#ff9f21;}.cls-6{fill:#fff;}.cls-7{fill:#d0d9e6;}.cls-8{fill:#ff3324;}.cls-9{fill:#ba2b27;}.cls-10{fill:#f2856e;}.cls-11{fill:#fcb187;}.cls-13{fill:#ffc3a1;}.cls-14{fill:#fa6676;}</style></defs><title>LoaderMan2</title><path class="cls-1" d="M63.24,365.53s-9.13,8.05-12.44,8.69-10.57,1.28-12.1,2.17-3,4.65-3.14,5.36S35,385,37.21,385H78.09c1.71,0,2.06-1,2.06-2.38a5.57,5.57,0,0,0-1-2.79v-7.87a3,3,0,0,0-2.91-3.24c-3.45-.24-7.23,1.75-9.45-1.88-1-1.63-1.41-2.86-3.52-1.26Z"/><path class="cls-1" d="M63.24,365.53s-8.76,7.71-12.24,8.65a6.54,6.54,0,0,0,4.42,2c1.26-.09,10.7-4.42,11.55-5.59s0-3.52,0-3.52h0a2.22,2.22,0,0,1-.19-.27c-1-1.63-1.41-2.86-3.52-1.26Z"/><path class="cls-2" d="M36.32,379.78a13.07,13.07,0,0,0-.76,2c-.18.71-.57,3.2,1.65,3.2H78.09c1.71,0,2.06-1,2.06-2.38a5.57,5.57,0,0,0-1-2.79Z"/><path class="cls-3" d="M61.34,88.6s-9.56,2.65-11,7.41c-4.55,15.17-5.37,21.39-7.18,30.27-.85,4.18-9.79-11.46-13.86-20-.07-.12-7.8,2.67-15.17,3.52-3.34.39,13,39.92,22,46.64,8.74,6.57,18.92-1.26,27.93-32.91,0,0,5.7-20.09-2.72-34.89Z"/><path class="cls-4" d="M30.35,108.34c-.37-.73-.71-1.44-1-2.1-.07-.12-7.8,2.67-15.17,3.52-3.34.39,13,39.92,22,46.64,8.49,6.38,18.35-.84,27.18-30.28C62,121.84,61,118.93,61,118.93s-5.45,17.8-9.68,25.67-12.35,7.62-17.79.62-18.17-29.79-13.32-30.77a16.19,16.19,0,0,0,10.14-6.11Z"/><path class="cls-2" d="M59,176.69l-2.77,5.7-.73,8.74a61.45,61.45,0,0,0-3.57,6.27c-.53,1.44,1.51,12.74,1.3,14.91S58.73,311.25,60,328.56a264.09,264.09,0,0,1-.34,37.79c-.19,1.7,8,4.58,10.93,4.83a33.44,33.44,0,0,0,8.26-1H79c1.14-.3,1.21-1.74,1.21-1.74l.8-30.47h0c-.09-4.55-.09-17.22.09-22.48.18-5.54,2.81-101.82,2.81-101.82l-7.64-34.43Z"/><path class="cls-1" d="M70.42,371.16l.21,0a33.44,33.44,0,0,0,8.26-1H79c1.14-.3,1.21-1.74,1.21-1.74l.8-30.47h0c-.09-4.55-.09-17.22.09-22.48.14-4.24,1.72-61.49,2.45-88.23L72.44,201C70,206.13,75,214.51,74.5,227.36c-1.29,31.53.48,87.41-.28,122.64-.23,10.45-.84,16.63-3.8,21.16Z"/><path class="cls-2" d="M107.53,177.13l1.26,4.12s4,2.65,4.23,4,1.39,4.23,1.78,6.15,4.62,9,5.24,10.48-3.22,22.35-3.22,30.76c0,6.23,1.92,61.63,1.57,62L121,367.45a2.67,2.67,0,0,1-2.31,3c-2.74.64-13.29.18-15.19-.23a11,11,0,0,1-2.81-1.35c-1.26-1.07-.87-19.14-1.12-21.91s-5.76-58.61-7.27-68c-.85-5.31-5.31-24-9.43-41-3.18-13.08-8.58-26.42-9.56-30.42-2.27-9.13-5.1-24.89-5.1-24.89Z"/><path class="cls-5" d="M54.37,189.25a105.2,105.2,0,0,0,33,2.43c17.68-1.65-13.11-12.22-21.5-9.29s-11.46,6.86-11.46,6.86Z"/><path class="cls-6" d="M98,83.32l20.65,7s-5.56,8.35-2.88,32.21c0,0-5.83,28.14-5.83,31.89s3.15,20,3.15,22.39-33,18.3-60.34,4.87a3.71,3.71,0,0,1-.66-2.26c-.14-1.74,18.82-31.25,19.63-36.35s-15.43-21-15.43-21l5.11-33,14.29-5.9Z"/><polygon class="cls-7" points="78.36 83.16 78.52 83.16 78.52 84.12 83.51 90 96.46 83.96 96.46 83.27 96.66 83.27 98.31 85.03 89.48 98.3 83.51 90 76.21 96.95 76.01 84.87 78.36 83.16"/><polygon class="cls-8" points="80.97 94.98 72 140.34 75.5 169.76 88.31 153.22 85.16 94.98 82.69 93.68 80.97 94.98"/><path class="cls-9" d="M78.13,90.09l2.34,6.47,4.87.07L88,90.34l-4.35-4.58c-3.25,1.67-3.29,2.93-5.56,4.33Z"/><polygon class="cls-10" points="99.27 62.2 75.66 64.38 76.37 84.51 85.32 88.26 94.31 83.57 99.27 62.2"/><polygon class="cls-6" points="83.17 88.26 76.44 78.95 75.07 82.86 76.05 96.31 83.17 88.26 88.91 95.85 97.97 83.32 95.77 77.57 83.17 88.26"/><path class="cls-11" d="M122.19,189.62c.85,9.19-5.44,13.43-5.44,13.43s-3.89-15-2.68-19,2.79-3.41,2.79-3.41Z"/><path class="cls-7" d="M116,183.4l-1.1,3.38s2.31,6.06,5.22,7.76a19.35,19.35,0,0,0,3.13,1.69L126,190.3Z"/><path class="cls-3" d="M118.62,90.27s7.55,1.65,10,8.88,14.84,49.13,14.84,49.13c-3.93,19.15-6.06,26.22-14.07,44.52-3.36,6.29-13.38-8.65-14.29-9.45h0l9.9-28.66-9.24-32.21s-5.51-17.43,2.88-32.21Z"/><path class="cls-3" d="M118.39,210.09c.87-.5-3.68-23.06-2.7-26.17a44.64,44.64,0,0,1,1.72-7.36l-4.26-19.75a1.76,1.76,0,0,0-.36-2.79c0-1.14,3.23-30.56,3.23-30.56-3.51-20.38,2.6-33.19,2.6-33.19-6.86-2.88-12.65-6.09-20-6.84C95.43,91,78,135.31,77.31,143.18c-.16,1.76-.89,21-1.44,35.21-.25,6.79.52,12,4.09,16.37,11,13.48,36.26,16.57,38.43,15.33Z"/><path class="cls-4" d="M112.49,208.7c3.36,1,5.68,1.53,5.9,1.39.87-.5-3.68-23.06-2.7-26.17a44.64,44.64,0,0,1,1.72-7.36l-4.26-19.75a1.76,1.76,0,0,0-.36-2.79c0-.34.3-3.24.71-7.16-2.31-5.14-4-8.83-4-8.83-3.27,16.84-3.38,16.73-3.38,16.73s2.17,6.77,1.44,9.92,3.38,26.86,4.73,36.19a32.82,32.82,0,0,1,.23,7.83Z"/><path class="cls-4" d="M112.79,154c0-1.14,3.23-30.56,3.23-30.56A74.07,74.07,0,0,1,115,112.37l-6,26.44Z"/><path class="cls-3" d="M75.48,83.11c0-.37-13.68,5.24-14,5.4s-.55.25-1,2.86-4.3,27.27-4.41,28.2-.23,2.15.34,6a68.67,68.67,0,0,1,1,8.29c-.09.52.27,15.82-1.26,26.67-1.69,12.08-4.78,25.05-8.17,41.86-1.9,9.45,21.83-1.88,26.42-10.13,4.12-7.46,2.13-12.33,2.54-16.95,1.22-14.12,2.88-32.28,2.73-33.88C79,135,75.21,84.85,75.48,83.11Z"/><path class="cls-1" d="M103.73,369.58s.37-4.8,3.43-4.8h6c2,0,4,3,4.55,5.1a3.38,3.38,0,0,1,2.41,2.35c.43,1.86,1.37,8.79,1.51,9.47s.66,3.25-2.41,3.25H97.37c-1.92,0-1.69-1.32-1.69-2.08a11.66,11.66,0,0,1,1.46-5.06c1-1.46,6.59-8.23,6.59-8.23Z"/><path class="cls-1" d="M103.73,369.58s.37-4.8,3.43-4.8h6c2,0,4,3,4.55,5.1l-2.44,4.82a4.73,4.73,0,0,1-3.23,1.1H105.1s-1.8-.34-1.74-1.9.37-4.32.37-4.32Z"/><path class="cls-2" d="M121.48,381a5.53,5.53,0,0,0,.12.66c.13.69.66,3.25-2.41,3.25H97.37c-1.92,0-1.69-1.32-1.69-2.08a11.68,11.68,0,0,1,.25-1.83Z"/><path class="cls-7" d="M13.67,105.69c4.74,1.21,7.16,1.51,10.55-1.58s1.69-.48,3.68,2.31c3.11,4.32-7.16,7.64-11.92,6.47Z"/><path class="cls-11" d="M9.48,100C4.63,91.07,2,86.7,4.15,86.47s5.08,5.2,5.08,5.2-3.38-9-1.21-9.2S13,91,13,91s-2.44-7.19-2.28-9.82c.06-.82,1.28-1.37,1.73-.87,2,2.06,4.31,9.34,4.31,9.34S14.38,83,14.54,80.5c0-.64.62-1.07,1-1C17.35,79.88,20,89.61,20,89.61l5.08,7.75-5.2,5.7Z"/><path class="cls-11" d="M8.91,99.19c4.53,8,5.08,8.33,7.48,9S24.88,107.38,27,102s3.52-10,4.64-12.15-1.26-2.24-2.95-.41A70.3,70.3,0,0,0,24,95.81s-9.47-3.55-15.12,3.38Z"/><path class="cls-10" d="M10.9,102.67c2.79,4.69,3.5,5,5.49,5.56,2.4.71,8.49-.85,10.62-6.22s3.52-10,4.64-12.15a2.37,2.37,0,0,0,.23-.53.34.34,0,0,1-.18.07c-.74.18-3.5,7.57-4.83,10.48s-5.95,5.74-8.72,5.74c-2.31,0-4.91-.07-7.25-3Z"/><polygon class="cls-4" points="72.87 84.32 63.9 90.5 71.55 94.36 64.27 100.79 77.65 137.94 78.98 136.87 75.3 82.86 72.87 84.32"/><path class="cls-4" d="M98.77,82.26l9.56,10.16-9.68,2.91,5.45,5.46-26.63,37.4Z"/><path class="cls-7" d="M79.62,148.69c.69,0,1.21-.89,1.21-2s-.52-2-1.21-2-1.19.89-1.19,2,.53,2,1.19,2Z"/><path class="cls-7" d="M79,159.74c.66,0,1.16.94,1.12,2s-.62,1.94-1.28,1.89-1.17-.91-1.12-2,.61-1.92,1.28-1.9Z"/><path class="cls-4" d="M88.22,121.06c-12.33,23-8.67,10.11-10.86,41.79l-1.93,24.48.51-24.55c.89-30.62-1.38-20.24,10.18-42.82a1.2,1.2,0,0,1,1.6-.5,1.19,1.19,0,0,1,.5,1.6Z"/><path class="cls-10" d="M67.22,49.12l-.41.07h0a5.49,5.49,0,1,0,6.66,5.44,5.57,5.57,0,0,0-2.06-4.37c.14,1.63-.09,3.64-2.18,3.84l0-3.15a1.89,1.89,0,0,0-2.06-1.83Z"/><path class="cls-10" d="M103.39,49.12l.39.07h0a5.47,5.47,0,1,1-4.56,1.12c-.13,1.62.14,3.63,2.2,3.82L101.35,51a1.88,1.88,0,0,1,2-1.85Z"/><path class="cls-11" d="M85.34,76.61C95.59,76.61,104.12,64,104.12,54V40.72A18.82,18.82,0,0,0,85.34,21.94h0A18.82,18.82,0,0,0,66.56,40.72v13c0,10.94,7.43,22.92,18.78,22.92Z"/><path class="cls-12" d="M91.58,44.06a.75.75,0,0,0-.38,1,.76.76,0,0,0,1,.39,5.19,5.19,0,0,1,4.65.3.8.8,0,0,0,1.1-.25.78.78,0,0,0-.26-1.08,6.73,6.73,0,0,0-6.13-.39Z"/><path class="cls-12" d="M73,44.41a.79.79,0,0,0-.3,1.07.8.8,0,0,0,1.07.3,5.09,5.09,0,0,1,4.65-.07.82.82,0,0,0,1.07-.34.8.8,0,0,0-.34-1.08,6.86,6.86,0,0,0-6.15.12Z"/><path class="cls-13" d="M84.84,55.25a15.09,15.09,0,0,0-.92,3c.07.41,2.15.78,2.7.25.37-.34-.09-1.9-.48-3-.55-1.42-.85-1.53-1.3-.25Z"/><path class="cls-1" d="M81.72,67.05a3.07,3.07,0,0,0,6.14,0,.57.57,0,0,0-.58-.57h-5a.57.57,0,0,0-.58.57Z"/><path class="cls-6" d="M87.53,64.42H83.14V65a.49.49,0,0,0,.51.48H87a.48.48,0,0,0,.5-.48Z"/><path class="cls-14" d="M82.57,69.16a3.13,3.13,0,0,0,2.22.93A3.09,3.09,0,0,0,87,69.16a3,3,0,0,0-2.22-1,3,3,0,0,0-2.22,1Z"/><path class="cls-4" d="M66.56,53.42l1.8-7.37s5.86-4.28,3.78-10.25-2.49-5.39-2.49-5.39-7.8,3.52-4.33,19.35Z"/><path class="cls-4" d="M104.12,53.42l-1.81-7.37s-5.85-4.28-3.77-10.25S101,30.41,101,30.41s7.78,3.52,4.32,19.35Z"/><path class="cls-1" d="M94.54,51.84a1.71,1.71,0,0,0-1.17.48,1.62,1.62,0,0,0-.48,1.14.65.65,0,0,1-.64.67.67.67,0,0,1-.67-.67,2.88,2.88,0,0,1,.87-2.05,3,3,0,0,1,2.09-.87,3,3,0,0,1,2.92,2.92.65.65,0,1,1-1.3,0,1.64,1.64,0,0,0-1.62-1.62Z"/><path class="cls-1" d="M76.14,51.84a1.62,1.62,0,0,0-1.14.48,1.54,1.54,0,0,0-.48,1.14.66.66,0,1,1-1.31,0,2.78,2.78,0,0,1,.88-2.05,2.87,2.87,0,0,1,2-.87,3,3,0,0,1,2.09.87,2.9,2.9,0,0,1,.84,2.05.65.65,0,0,1-.64.67.66.66,0,0,1-.66-.67,1.54,1.54,0,0,0-.48-1.14,1.63,1.63,0,0,0-1.15-.48Z"/><path class="cls-4" d="M85,72.4c2.77,0,4.09-3.43,4.09-4.62s-.57-1.64-1.3-1.64H82.2c-.7,0-1.32.45-1.3,1.64S82.23,72.4,85,72.4Zm0-10.66c9.45,0,8,9.43,11.6,6.34a17.08,17.08,0,0,0,5.69-11.85V46.05l1.81,1.79.55,4.71A25.56,25.56,0,0,0,104.1,58C104.1,74.12,91,80.78,85,80.87c-6.2-.14-19.1-6.75-19.1-22.88a25.56,25.56,0,0,0-.57-5.44l.54-4.71,1.81-1.79V56.23a17.18,17.18,0,0,0,5.7,11.85C77,71.17,75.57,61.74,85,61.74Z"/><path class="cls-1" d="M89,48.22a14.15,14.15,0,0,1-3.61.78,14,14,0,0,1-3.62-.78A30.35,30.35,0,0,0,68.39,48c-1,.23-1.21,2.31-.18,2.52a1,1,0,0,1,.75.66c.27.82,1,4.28,2.22,5.63,2.35,2.58,9.61,2.58,11.41-1.56.85-1.94,1.33-3.64,1.86-4.16a1.2,1.2,0,0,1,.89-.3,1.15,1.15,0,0,1,.87.3c.55.52,1,2.22,1.87,4.16,1.81,4.14,9,4.14,11.42,1.56,1.26-1.35,1.92-4.81,2.22-5.63a1,1,0,0,1,.75-.66c1-.21.87-2.29-.18-2.52A30.4,30.4,0,0,0,89,48.22ZM82.2,50c.67,1-.32,4.14-1,5.21-1.69,2.72-5.74,2.82-8.39,1.44-1.1-.55-1.63-2.31-1.88-3.36s-.73-3.36.55-4.09c1.94-1.17,9.58-1,10.7.8Zm7.23,5.21c-.64-1.07-1.62-4.16-1-5.21,1.1-1.81,8.76-2,10.71-.8,1.26.73.8,3,.55,4.09s-.8,2.81-1.88,3.36c-2.68,1.38-6.72,1.28-8.42-1.44Z"/><path class="cls-3" d="M100.94,35.85c9.06,9.63,11-8.9-.62-16.45-9.49-6.17-25.87-1.78-25.87-1.78C82,9.38,58.12,14.28,62.92,32.67c1.9,7.3,9.11,13,20.29,8.65s15.17.18,16.2.2,1.9-2.47,1.53-5.67Z"/><path class="cls-10" d="M23.78,95.85c.16-.27-.57-1.35-1-1.53-3.47.91-7.8,3.27-8.76,7,0,.09,0,.14,0,.16.61-2.13,3.84-4.48,6.52-5.42a7.61,7.61,0,0,1,3.29-.23Z"/><path class="cls-10" d="M19.75,90.91c.39-.66-2.28-1.19-4.89-.39a8.94,8.94,0,0,0-6,6.43c0,.09,0,.14,0,.16.68-2.33,4.18-4.87,7.11-5.92a9.71,9.71,0,0,1,3.84-.28Z"/></svg>