<svg id="Слой_1" data-name="Слой 1" xmlns="http://www.w3.org/2000/svg" xmlns:xlink="http://www.w3.org/1999/xlink" viewBox="0 0 2381.66 2000"><defs><style>.cls-1{fill:url(#linear-gradient);}.cls-2{fill:url(#linear-gradient-2);}.cls-3{fill:#ffcd55;}.cls-4{fill:url(#linear-gradient-3);}.cls-5{fill:#fff;}.cls-6{fill:url(#linear-gradient-4);}.cls-7{fill:#f08533;}.cls-8{fill:url(#linear-gradient-5);}.cls-9{fill:url(#linear-gradient-6);}.cls-10{fill:url(#linear-gradient-7);}.cls-11{fill:#323657;}.cls-12{fill:#ffa155;}.cls-13{fill:url(#linear-gradient-8);}.cls-14{fill:#3a7d8d;}.cls-15{fill:#fae6de;}.cls-16{fill:#deccc5;}.cls-17{fill:url(#linear-gradient-9);}.cls-18{fill:url(#linear-gradient-10);}.cls-19{fill:#e0e0e0;}.cls-20{fill:#42847b;}.cls-21{fill:url(#linear-gradient-11);}.cls-22{fill:#eea886;}.cls-23{fill:#5c544d;}.cls-24{fill:#3c4145;}.cls-25{fill:#6d6e71;}.cls-26{fill:#fccca2;}.cls-27{fill:#5a954b;}.cls-28{fill:#858585;}.cls-29{fill:#e2d2ca;}.cls-30{fill:#292c47;}.cls-31{fill:#1c1e30;}.cls-32{fill:#24263d;}.cls-33{fill:#282b45;}.cls-34{fill:#eea987;}.cls-35{fill:#eddad3;}.cls-36{fill:#1f2136;}.cls-37{fill:#4f558a;}.cls-38{fill:#d6c5bf;}.cls-39{fill:#16202e;}.cls-40{fill:#6e6760;}.cls-41{fill:#918880;}.cls-42{fill:#706865;}.cls-43{fill:#9c7d34;}.cls-44{fill:#a77860;}.cls-45{fill:#eb4747;}.cls-46{fill:#d69779;}.cls-47{fill:#12131f;}.cls-48{fill:#9e633a;}.cls-49{fill:#97a43c;}.cls-50{fill:#82522f;}.cls-51{fill:#c67b47;}.cls-52{fill:#ededed;}.cls-53{fill:#2e334d;}.cls-54{fill:#ebe2d8;}.cls-55{fill:#2b4724;}</style><linearGradient id="linear-gradient" x1="470.12" y1="576.16" x2="970.56" y2="576.16" gradientUnits="userSpaceOnUse"><stop offset="0" stop-color="#3076a1"/><stop offset="1" stop-color="#639c38"/></linearGradient><linearGradient id="linear-gradient-2" x1="887.02" y1="322.12" x2="1116.44" y2="322.12" xlink:href="#linear-gradient"/><linearGradient id="linear-gradient-3" x1="743.33" y1="1736.41" x2="1631.43" y2="1736.41" gradientUnits="userSpaceOnUse"><stop offset="0" stop-color="#ff9f55"/><stop offset="1" stop-color="#ffd255"/></linearGradient><linearGradient id="linear-gradient-4" x1="331.7" y1="1846.38" x2="1219.81" y2="1846.38" gradientUnits="userSpaceOnUse"><stop offset="0" stop-color="#e37e30"/><stop offset="1" stop-color="#e8a12e"/></linearGradient><linearGradient id="linear-gradient-5" x1="630.49" y1="939.78" x2="1803" y2="939.78" gradientTransform="translate(2380.07 1879.57) rotate(-180)" xlink:href="#linear-gradient-3"/><linearGradient id="linear-gradient-6" x1="699.63" y1="890.35" x2="1678.57" y2="890.35" gradientTransform="translate(2378.2 1780.7) rotate(-180)" gradientUnits="userSpaceOnUse"><stop offset="0" stop-color="#404b61"/><stop offset="0.49" stop-color="#3c4860"/><stop offset="1" stop-color="#2f3e5c"/></linearGradient><linearGradient id="linear-gradient-7" x1="915.1" y1="1504.47" x2="1464.97" y2="1504.47" xlink:href="#linear-gradient-3"/><linearGradient id="linear-gradient-8" x1="1653.08" y1="1570.02" x2="1653.08" y2="1319.69" xlink:href="#linear-gradient"/><linearGradient id="linear-gradient-9" x1="-9678.36" y1="1335.95" x2="-9135.76" y2="1335.95" gradientTransform="matrix(1, 0, 0, -1, 11033.31, 2671.91)" xlink:href="#linear-gradient-3"/><linearGradient id="linear-gradient-10" x1="1731.39" y1="1282.47" x2="1731.39" y2="1135.42" xlink:href="#linear-gradient"/><linearGradient id="linear-gradient-11" x1="1388.82" y1="1157.49" x2="1830.17" y2="1157.49" xlink:href="#linear-gradient-3"/></defs><title>Монтажная область 275</title><path class="cls-1" d="M929.25,522a214.34,214.34,0,0,0-22.94-55.3l23.35-35.11-32.39-32.4-32.39-32.39-35.12,23.35a214.54,214.54,0,0,0-55.3-22.94L766.15,326H674.53l-8.32,41.3a214.62,214.62,0,0,0-55.29,22.94L575.8,366.84l-32.39,32.39L511,431.63l23.35,35.11A214.34,214.34,0,0,0,511.43,522l-41.31,8.31V622l41.31,8.32a214.34,214.34,0,0,0,22.94,55.3L511,720.7l32.39,32.39,32.39,32.4,35.12-23.35a214.6,214.6,0,0,0,55.29,22.93l8.32,41.31h91.62l8.31-41.31a214.52,214.52,0,0,0,55.3-22.93l35.12,23.35,32.39-32.4,32.39-32.39-23.35-35.11a214.34,214.34,0,0,0,22.94-55.3L970.56,622V530.35ZM720.34,736.69A160.53,160.53,0,1,1,880.86,576.16,160.52,160.52,0,0,1,720.34,736.69Z"/><path class="cls-2" d="M1097.5,297.3A98.61,98.61,0,0,0,1087,272l10.7-16.1L1082.84,241,1068,226.15l-16.1,10.71a98.14,98.14,0,0,0-25.35-10.52l-3.81-18.93h-42l-3.82,18.93a98.28,98.28,0,0,0-25.35,10.52l-16.1-10.71L920.61,241l-14.85,14.85L916.47,272A98.28,98.28,0,0,0,906,297.3L887,301.11v42L906,346.93a98.28,98.28,0,0,0,10.52,25.35l-10.71,16.1,14.85,14.85,14.85,14.85,16.1-10.7a98.61,98.61,0,0,0,25.35,10.51l3.82,18.94h42l3.81-18.94a98.46,98.46,0,0,0,25.35-10.51l16.1,10.7,14.85-14.85,14.85-14.85-10.7-16.1a98.61,98.61,0,0,0,10.51-25.35l18.94-3.81v-42Zm-95.77,98.41a73.6,73.6,0,1,1,73.59-73.59A73.59,73.59,0,0,1,1001.73,395.71Z"/><path class="cls-3" d="M1789.91,322.85q0-14.72,5.17-25.73t17.7-18.93q4.9-3.27,11.3-6.81a77.23,77.23,0,0,0,12.12-8.3,43.58,43.58,0,0,0,9.66-11.44,30.71,30.71,0,0,0,4-15.93,29.73,29.73,0,0,0-10.35-23.28,32.5,32.5,0,0,0-10.61-6,38.63,38.63,0,0,0-12.53-2,40.62,40.62,0,0,0-12.93,2,45.28,45.28,0,0,0-11.3,5.59,47.48,47.48,0,0,0-9.26,8.3,53.72,53.72,0,0,0-6.81,9.94L1760,219.65a51.18,51.18,0,0,1,9.53-15,59,59,0,0,1,13.61-11,64.88,64.88,0,0,1,16.2-6.81,67.31,67.31,0,0,1,17.57-2.31,64.84,64.84,0,0,1,19.87,3.13,49.9,49.9,0,0,1,17.43,9.66,48.56,48.56,0,0,1,12.25,16.34q4.63,9.79,4.63,23.14a48.75,48.75,0,0,1-2.86,17.7,44.23,44.23,0,0,1-7.49,12.8,49.79,49.79,0,0,1-10.89,9.53q-6.27,4.08-13.07,7.9-4.9,2.72-9.8,5.72a36.69,36.69,0,0,0-8.58,7.21,34.14,34.14,0,0,0-6,10.21,42,42,0,0,0-2.31,15Zm.54,57.45V348.71h20.15V380.3Z"/><path class="cls-3" d="M1818.89,747.24a51.3,51.3,0,0,1,4.43-22q4.41-9.42,15.13-16.18,4.18-2.79,9.66-5.82a65.83,65.83,0,0,0,10.36-7.1,37.26,37.26,0,0,0,8.26-9.77,26.29,26.29,0,0,0,3.38-13.62,25.42,25.42,0,0,0-8.85-19.91,27.78,27.78,0,0,0-9.08-5.12,33,33,0,0,0-10.71-1.74,34.79,34.79,0,0,0-11,1.74,38.69,38.69,0,0,0-9.66,4.78,40.19,40.19,0,0,0-7.92,7.1,46.29,46.29,0,0,0-5.82,8.49L1793.29,659a43.84,43.84,0,0,1,8.15-12.8,50.38,50.38,0,0,1,11.64-9.43,55.72,55.72,0,0,1,13.85-5.82,57.69,57.69,0,0,1,15-2,55.63,55.63,0,0,1,17,2.68,42.55,42.55,0,0,1,14.9,8.27,41.47,41.47,0,0,1,10.48,14,46.09,46.09,0,0,1,4,19.79,41.76,41.76,0,0,1-2.44,15.13,38.12,38.12,0,0,1-6.4,10.94,42.77,42.77,0,0,1-9.31,8.15q-5.35,3.5-11.18,6.75-4.18,2.33-8.38,4.89a31.41,31.41,0,0,0-7.33,6.17,29.11,29.11,0,0,0-5.12,8.73,35.74,35.74,0,0,0-2,12.8Zm.47,49.12v-27h17.23v27Z"/><path class="cls-3" d="M1399,393.32a37.94,37.94,0,0,1,3.28-16.3q3.27-7,11.2-12c2.07-1.38,4.46-2.81,7.16-4.31a48.08,48.08,0,0,0,7.67-5.26,27.36,27.36,0,0,0,6.12-7.24,19.4,19.4,0,0,0,2.5-10.08,18.82,18.82,0,0,0-6.55-14.75,20.49,20.49,0,0,0-6.72-3.79,24.5,24.5,0,0,0-7.93-1.29,25.73,25.73,0,0,0-8.19,1.29,28.29,28.29,0,0,0-7.16,3.54,29.85,29.85,0,0,0-5.86,5.25,33.89,33.89,0,0,0-4.31,6.3L1380,328a32.44,32.44,0,0,1,6-9.48,37.14,37.14,0,0,1,8.62-7A41.34,41.34,0,0,1,1405,307.2a42.38,42.38,0,0,1,11.12-1.47,41.23,41.23,0,0,1,12.59,2,31.69,31.69,0,0,1,11,6.13,30.58,30.58,0,0,1,7.76,10.34,34.12,34.12,0,0,1,2.93,14.66,30.86,30.86,0,0,1-1.81,11.2,28.06,28.06,0,0,1-4.74,8.1,31.36,31.36,0,0,1-6.9,6q-4,2.58-8.27,5-3.11,1.72-6.21,3.62a23.29,23.29,0,0,0-5.43,4.57,21.52,21.52,0,0,0-3.79,6.46,26.46,26.46,0,0,0-1.47,9.49Zm.35,36.38v-20h12.76v20Z"/><polygon class="cls-4" points="1575.86 1632.56 1187.38 1632.56 798.89 1632.56 743.33 1840.25 1187.38 1840.25 1631.43 1840.25 1575.86 1632.56"/><path class="cls-5" d="M805,1687.72h50.84c2.13,0,3.73,1.65,3.33,3.44l-4.92,22.11a3.3,3.3,0,0,1-3.33,2.35H799.22c-2.17,0-3.78-1.72-3.31-3.52l5.8-22.12A3.31,3.31,0,0,1,805,1687.72Z"/><polygon class="cls-5" points="879.16 1687.72 917.59 1687.72 912.48 1715.62 873.32 1715.62 879.16 1687.72"/><polygon class="cls-5" points="936.81 1687.72 975.24 1687.72 971.22 1715.62 932.05 1715.66 936.81 1687.72"/><polygon class="cls-5" points="994.46 1687.72 1032.89 1687.72 1029.97 1715.62 990.8 1715.62 994.46 1687.72"/><polygon class="cls-5" points="1052.11 1687.72 1090.54 1687.72 1088.71 1715.62 1049.55 1715.62 1052.11 1687.72"/><polygon class="cls-5" points="1109.76 1687.72 1148.19 1687.72 1147.46 1715.62 1108.29 1715.66 1109.76 1687.72"/><polygon class="cls-5" points="1571.07 1687.72 1513.42 1687.72 1519.63 1715.62 1578.38 1715.62 1571.07 1687.72"/><polygon class="cls-5" points="1494.21 1687.72 1455.77 1687.72 1460.89 1715.62 1500.05 1715.62 1494.21 1687.72"/><polygon class="cls-5" points="1436.56 1687.72 1398.13 1687.72 1402.15 1715.62 1441.32 1715.66 1436.56 1687.72"/><polygon class="cls-5" points="1378.91 1687.72 1340.48 1687.72 1343.4 1715.62 1382.57 1715.62 1378.91 1687.72"/><polygon class="cls-5" points="1321.26 1687.72 1282.83 1687.72 1284.66 1715.62 1323.82 1715.62 1321.26 1687.72"/><polygon class="cls-5" points="1263.61 1687.72 1225.18 1687.72 1225.91 1715.62 1265.08 1715.66 1263.61 1687.72"/><polygon class="cls-5" points="1167.4 1687.72 1205.84 1687.72 1206.47 1715.62 1167.4 1715.62 1167.4 1687.72"/><polygon class="cls-5" points="788.1 1736.41 868.41 1736.41 863.84 1765.18 782.01 1765.18 788.1 1736.41"/><polygon class="cls-5" points="1583.61 1736.41 1484.34 1736.41 1489.99 1765.18 1591.15 1765.18 1583.61 1736.41"/><polygon class="cls-5" points="1464.49 1736.41 1424.78 1736.41 1429.3 1765.18 1469.76 1765.18 1464.49 1736.41"/><polygon class="cls-5" points="1404.93 1736.41 1365.22 1736.41 1368.61 1765.18 1409.07 1765.18 1404.93 1736.41"/><polygon class="cls-5" points="1345.37 1736.41 1305.66 1736.41 1307.92 1765.18 1348.38 1765.18 1345.37 1736.41"/><polygon class="cls-5" points="1285.8 1736.41 1246.1 1736.41 1247.23 1765.18 1287.69 1765.18 1285.8 1736.41"/><polygon class="cls-5" points="776.11 1787.7 858.21 1787.7 852.22 1816.29 768.62 1816.29 776.11 1787.7"/><polygon class="cls-5" points="878.74 1787.7 919.79 1787.7 914.92 1816.29 873.12 1816.29 878.74 1787.7"/><polygon class="cls-5" points="940.31 1787.7 981.36 1787.7 1248.17 1787.7 1249.32 1816.29 935.82 1816.29 940.31 1787.7"/><polygon class="cls-5" points="1268.72 1787.7 1309.77 1787.7 1312.02 1816.29 1270.22 1816.29 1268.72 1787.7"/><polygon class="cls-5" points="1330.3 1787.7 1371.35 1787.7 1374.72 1816.29 1332.92 1816.29 1330.3 1787.7"/><polygon class="cls-5" points="1391.88 1787.7 1432.93 1787.7 1437.42 1816.29 1395.62 1816.29 1391.88 1787.7"/><polygon class="cls-5" points="1453.45 1787.7 1494.51 1787.7 1500.12 1816.29 1458.32 1816.29 1453.45 1787.7"/><polygon class="cls-5" points="1515.03 1787.7 1597.13 1787.7 1604.62 1816.29 1521.02 1816.29 1515.03 1787.7"/><polygon class="cls-5" points="1226.33 1736.41 1186.94 1736.41 1186.94 1765.18 1227.08 1765.18 1226.33 1736.41"/><polygon class="cls-5" points="1166.77 1736.41 1127.06 1736.41 1125.93 1765.18 1166.39 1765.18 1166.77 1736.41"/><polygon class="cls-5" points="1107.2 1736.41 1067.5 1736.41 1065.24 1765.18 1105.7 1765.18 1107.2 1736.41"/><polygon class="cls-5" points="1047.64 1736.41 1007.93 1736.41 1004.54 1765.18 1045.01 1765.18 1047.64 1736.41"/><polygon class="cls-5" points="988.08 1736.41 948.38 1736.41 943.85 1765.18 984.31 1765.18 988.08 1736.41"/><polygon class="cls-5" points="928.52 1736.41 888.81 1736.41 883.16 1765.18 923.62 1765.18 928.52 1736.41"/><polygon class="cls-5" points="806.89 1670.19 813.41 1645.28 832.08 1645.28 825.98 1670.19 806.89 1670.19"/><polygon class="cls-5" points="850.73 1645.28 888.06 1645.28 882.84 1670.19 844.86 1670.19 850.73 1645.28"/><polygon class="cls-5" points="906.72 1645.28 944.04 1645.28 939.79 1670.19 901.82 1670.19 906.72 1645.28"/><polygon class="cls-5" points="962.7 1645.28 1000.02 1645.28 996.75 1670.19 958.78 1670.19 962.7 1645.28"/><polygon class="cls-5" points="1018.68 1645.28 1056 1645.28 1053.71 1670.19 1015.74 1670.19 1018.68 1645.28"/><polygon class="cls-5" points="1074.66 1645.28 1111.98 1645.28 1110.67 1670.19 1072.7 1670.19 1074.66 1645.28"/><polygon class="cls-5" points="1130.64 1645.28 1167.96 1645.28 1167.63 1670.19 1129.66 1670.19 1130.64 1645.28"/><polygon class="cls-5" points="1186.62 1645.28 1223.94 1645.28 1224.59 1670.19 1186.62 1670.19 1186.62 1645.28"/><polygon class="cls-5" points="1242.6 1645.28 1279.92 1645.28 1281.55 1670.19 1243.58 1670.19 1242.6 1645.28"/><polygon class="cls-5" points="1298.58 1645.28 1335.9 1645.28 1338.51 1670.19 1300.54 1670.19 1298.58 1645.28"/><polygon class="cls-5" points="1354.56 1645.28 1391.88 1645.28 1395.47 1670.19 1357.5 1670.19 1354.56 1645.28"/><polygon class="cls-5" points="1410.54 1645.28 1447.86 1645.28 1452.43 1670.19 1414.46 1670.19 1410.54 1645.28"/><polygon class="cls-5" points="1466.52 1645.28 1503.85 1645.28 1509.39 1670.19 1471.42 1670.19 1466.52 1645.28"/><polygon class="cls-5" points="1522.51 1645.28 1559.83 1645.28 1566.35 1670.19 1528.38 1670.19 1522.51 1645.28"/><rect class="cls-6" x="743.33" y="1840.25" width="888.1" height="12.25"/><rect class="cls-7" x="1128.92" y="1133.23" width="122.23" height="371.24" transform="translate(2380.07 2637.69) rotate(180)"/><rect class="cls-8" x="662.33" y="567.51" width="1055.42" height="744.54" rx="37.15" transform="translate(2380.07 1879.57) rotate(180)"/><rect class="cls-9" x="699.63" y="603.98" width="978.93" height="572.74" transform="translate(2378.2 1780.7) rotate(180)"/><rect class="cls-10" x="915.1" y="1490.46" width="549.88" height="28.02"/><polygon class="cls-3" points="1616.56 562.91 1612.82 562.91 1612.82 517.3 1814.22 517.3 1814.22 423.82 1817.96 423.82 1817.96 521.04 1616.56 521.04 1616.56 562.91"/><path class="cls-11" d="M742,1115.53h0C742.16,1115.61,742.19,1115.62,742,1115.53Z"/><polygon class="cls-3" points="1939.92 412.32 1907.81 412.32 1907.81 408.58 1936.18 408.58 1936.18 380.24 1939.92 380.24 1939.92 412.32"/><polygon class="cls-3" points="1724.01 412.32 1691.9 412.32 1691.9 380.24 1695.64 380.24 1695.64 408.58 1724.01 408.58 1724.01 412.32"/><polygon class="cls-3" points="1695.66 196.42 1691.91 196.42 1691.91 164.31 1724 164.31 1724 168.05 1695.66 168.05 1695.66 196.42"/><polygon class="cls-3" points="1939.92 196.41 1936.18 196.41 1936.18 168.07 1907.81 168.07 1907.81 164.32 1939.92 164.32 1939.92 196.41"/><rect class="cls-3" x="1936.18" y="244.35" width="3.74" height="87.94"/><rect class="cls-3" x="1691.9" y="244.35" width="3.74" height="87.94"/><path class="cls-3" d="M1816.09,426.06a13.74,13.74,0,1,1,13.75-13.74A13.76,13.76,0,0,1,1816.09,426.06Zm0-23.74a10,10,0,1,0,10,10A10,10,0,0,0,1816.09,402.32Z"/><path class="cls-3" d="M1936.57,1078a9,9,0,0,1-6.27-11.09l.36-1.31a13,13,0,0,1-5.35-14.29l7.17-26.09,5.18,1.43c7.08-33-4.54-85.12-4.66-85.64a71.92,71.92,0,1,1,115.68,32.49c-1.47,1.53-37.22,38.94-48.3,70.39l5,1.38-7.17,26.08a13,13,0,0,1-11.9,9.55l-.36,1.31a9,9,0,0,1-11.1,6.31L1936.61,1078Zm-2.61-50.18-6.61,24.05a10.92,10.92,0,0,0,5.06,12.34l.71.4-.79,2.86a6.93,6.93,0,0,0,4.84,8.5l38.26,10.52a6.92,6.92,0,0,0,8.5-4.84l.79-2.85h.81a10.9,10.9,0,0,0,10.66-8l6.61-24-5.15-1.42.36-1.06c10.79-32.1,47.65-70.67,49.21-72.3A69.81,69.81,0,1,0,1935,940.48c.14.4,12.13,54.36,4.44,87.75l-.25,1.07Zm48.9-39.15-.76-.22h0a51.27,51.27,0,0,1-5.88-2l.76-2a65.32,65.32,0,0,0,11.64,3.26l-.38,2.08C1985.67,989.44,1983.83,989,1982.86,988.7Z"/><rect class="cls-3" x="1967.42" y="1016.5" width="2.11" height="39.83" transform="translate(439.41 2652.28) rotate(-74.35)"/><rect class="cls-3" x="2013.62" y="808.73" width="36.11" height="4.23" transform="translate(702.69 2548.36) rotate(-74.35)"/><rect class="cls-3" x="2066.12" y="836.7" width="36.11" height="4.23" transform="translate(-143.62 1129.18) rotate(-29.35)"/><rect class="cls-3" x="1970.18" y="789.41" width="4.23" height="36.11" transform="translate(-142.63 1070.23) rotate(-29.35)"/><rect class="cls-3" x="1938.9" y="973.09" width="42.58" height="2.11" transform="translate(903.22 2890.95) rotate(-87.55)"/><rect class="cls-3" x="1986.62" y="986.46" width="42.58" height="2.11" transform="translate(174.09 2269.71) rotate(-61.15)"/><path class="cls-3" d="M2078.93,941.4l-2-.57a78.68,78.68,0,0,0-54.48-96.9l.57-2A80.82,80.82,0,0,1,2078.93,941.4Z"/><path class="cls-3" d="M2061.53,936.53l-2-.57a60.55,60.55,0,1,0-116.6-32.67l-2-.57a62.65,62.65,0,1,1,120.66,33.81Z"/><path class="cls-12" d="M506.63,990.9a8.17,8.17,0,1,1,8.16-8.16A8.17,8.17,0,0,1,506.63,990.9Zm0-14.11a5.95,5.95,0,1,0,5.94,6A6,6,0,0,0,506.63,976.79Z"/><path class="cls-12" d="M437.11,1126.53a9.53,9.53,0,0,1-9.51-9.46v-1.43a13.72,13.72,0,0,1-9.48-13l-.14-28.48,5.66,0c-2.19-35.43-28.77-85-29.05-85.5a75.72,75.72,0,1,1,126.49.08c-1.05,2-26.66,50-29,85.08l5.48,0,.14,28.48a13.71,13.71,0,0,1-9.35,13.06v1.43a9.51,9.51,0,0,1-9.45,9.55l-41.78.21Zm-16.9-50.12.13,26.25a11.49,11.49,0,0,0,8.64,11.07l.83.21,0,3.11a7.29,7.29,0,0,0,7.31,7.25l41.77-.21a7.29,7.29,0,0,0,7.25-7.31l0-3.12.83-.22a11.48,11.48,0,0,0,8.53-11.15l-.12-26.25-5.63,0,.07-1.17c1.81-35.61,28.22-85.18,29.34-87.27a73.48,73.48,0,1,0-122.67-.09c.26.36,27.73,51.66,29.42,87.69l.06,1.16Zm38.46-53.58c-.47,0-.75,0-.84,0h0a50.36,50.36,0,0,1-6.5-.3l.2-2.21a69.4,69.4,0,0,0,12.73,0l.2,2.21C461.72,1022.78,459.73,1022.83,458.67,1022.83Z"/><rect class="cls-12" x="436.67" y="1074.17" width="41.93" height="2.22"/><rect class="cls-12" x="455.41" y="809.66" width="4.45" height="38.02"/><rect class="cls-12" x="499.78" y="839.88" width="38.02" height="4.45" transform="translate(-443.49 613.41) rotate(-45)"/><rect class="cls-12" x="394.25" y="823.1" width="4.45" height="38.02" transform="translate(-479.33 527) rotate(-45)"/><rect class="cls-12" x="430.44" y="992.1" width="2.22" height="44.82" transform="translate(-220.33 125.4) rotate(-13.2)"/><rect class="cls-12" x="461.31" y="1013.4" width="44.83" height="2.22" transform="translate(-614.42 1253.9) rotate(-76.81)"/><path class="cls-12" d="M542.61,947.59h-2.22a82.85,82.85,0,0,0-82.76-82.75v-2.23A85.07,85.07,0,0,1,542.61,947.59Z"/><path class="cls-12" d="M523.6,947.59h-2.23a63.74,63.74,0,1,0-127.47,0h-2.23a66,66,0,0,1,131.93,0Z"/><polygon class="cls-12" points="600.67 983.85 513.68 983.85 513.68 981.62 598.45 981.62 598.45 887.08 629.59 887.08 629.59 889.3 600.67 889.3 600.67 983.85"/><path class="cls-13" d="M1464.12,1393.48h406.09a0,0,0,0,1,0,0v150.19a0,0,0,0,1,0,0H1464.12a28.18,28.18,0,0,1-28.18-28.18v-93.84A28.18,28.18,0,0,1,1464.12,1393.48Z"/><path class="cls-14" d="M1939.73,1408.94v119.28h7.1v15.46H1652.1a28.18,28.18,0,0,1-28.17-28.18v-93.84a28.18,28.18,0,0,1,28.17-28.18h294.73v15.46Z"/><path class="cls-15" d="M1673.41,1408.94h266.31a0,0,0,0,1,0,0v119.27a0,0,0,0,1,0,0H1673.4a27.82,27.82,0,0,1-27.82-27.82v-63.62A27.83,27.83,0,0,1,1673.41,1408.94Z"/><rect class="cls-16" x="1777.91" y="1467.98" width="114.61" height="2.95"/><rect class="cls-16" x="1724.18" y="1476.95" width="122.39" height="2.95"/><path class="cls-17" d="M1457.71,1278h405a0,0,0,0,1,0,0v116a0,0,0,0,1,0,0h-405a29.26,29.26,0,0,1-29.26-29.26v-57.43A29.26,29.26,0,0,1,1457.71,1278Z" transform="translate(3291.16 2671.91) rotate(180)"/><path class="cls-7" d="M1358.93,1289.92V1382h-7.09v11.93h293.63a29.27,29.27,0,0,0,29.27-29.26v-57.43a29.27,29.27,0,0,0-29.27-29.26H1351.84v11.94Z"/><path class="cls-15" d="M1388.1,1289.91h270.34a0,0,0,0,1,0,0V1382a0,0,0,0,1,0,0H1388.1a29.16,29.16,0,0,1-29.16-29.16v-33.76A29.16,29.16,0,0,1,1388.1,1289.91Z" transform="translate(3017.39 2671.91) rotate(180)"/><rect class="cls-16" x="1406.14" y="1335.49" width="114.61" height="2.28" transform="translate(2926.89 2673.26) rotate(180)"/><rect class="cls-16" x="1452.09" y="1342.42" width="122.39" height="2.28" transform="translate(3026.57 2687.12) rotate(180)"/><path class="cls-18" d="M1506.86,1197.65h467.32a0,0,0,0,1,0,0V1278a0,0,0,0,1,0,0H1506.86a18.25,18.25,0,0,1-18.25-18.25V1215.9A18.25,18.25,0,0,1,1506.86,1197.65Z"/><path class="cls-14" d="M2043.68,1205.92v63.79h7.1V1278H1745.5a17.62,17.62,0,0,1-17.62-17.61v-45.1a17.62,17.62,0,0,1,17.62-17.62h305.28v8.27Z"/><path class="cls-15" d="M1759.69,1205.92h284a0,0,0,0,1,0,0v63.79a0,0,0,0,1,0,0h-284a17.62,17.62,0,0,1-17.62-17.62v-28.56A17.62,17.62,0,0,1,1759.69,1205.92Z"/><rect class="cls-16" x="1881.87" y="1219.54" width="114.61" height="2.28"/><rect class="cls-16" x="1828.14" y="1242.29" width="122.39" height="1.58"/><polygon class="cls-3" points="1338.87 890.35 1039.33 717.41 1039.33 1063.29 1338.87 890.35"/><rect class="cls-19" x="1142.38" y="775.31" width="9.2" height="707.92" transform="translate(2276.25 -17.71) rotate(90)"/><rect class="cls-20" x="854.92" y="1062.75" width="9.2" height="133.04" transform="translate(1988.79 269.75) rotate(90)"/><path class="cls-21" d="M1465.75,1117.33h336.08a0,0,0,0,1,0,0v80.32a0,0,0,0,1,0,0H1465.75a17.15,17.15,0,0,1-17.15-17.15v-46A17.15,17.15,0,0,1,1465.75,1117.33Z"/><path class="cls-7" d="M1852.4,1125.6v63.79h5.16v8.26H1640.31a17.63,17.63,0,0,1-17.64-17.64v-45a17.64,17.64,0,0,1,17.64-17.64h217.25v8.27Z"/><path class="cls-15" d="M1647.74,1125.59h204.65a0,0,0,0,1,0,0v63.79a0,0,0,0,1,0,0H1647.74a14.76,14.76,0,0,1-14.76-14.76v-34.27A14.76,14.76,0,0,1,1647.74,1125.59Z"/><rect class="cls-16" x="1734.68" y="1139.21" width="83.38" height="2.28"/><rect class="cls-16" x="1695.6" y="1161.97" width="89.03" height="1.58"/><path class="cls-22" d="M1223.26,895.27s-15.65-16.89-17.59-17.06-2.76.8-1.36,2.44,14.67,16.8,14.67,16.8-21.72-16.6-23.28-17.11c-.91-.3-2.6,1.49-1.93,2.45s21.3,18.74,21.3,18.74-20.31-15.46-21.74-15.47a1.89,1.89,0,0,0-1,3.3c1.43,1.26,19.5,16.76,19.5,16.76s-15.46-10.24-16.69-9.49c-.75.46-2.28,1.94,1.79,4.45s13.07,9.51,13.07,9.51Z"/><path class="cls-22" d="M1238.35,917.74s-4.81-5.91-3.08-10.06c1.48-3.53,1-9.19.89-10.93-.19-2.33,1.74-9.76-1-9.48s-3.73,12.09-4.4,14.53-6.56-6.85-8.9-7.61-16.37,10.83-11.63,16.69,13.49,8.7,14.13,9.91a46.8,46.8,0,0,0,3.29,4.42Z"/><path class="cls-23" d="M1360.07,1309.68s2.59,10.2,2.94,11.73,16.34-2.69,16.34-2.69l0-12.47S1361.94,1308,1360.07,1309.68Z"/><path class="cls-24" d="M1362.7,1320.11s-4.47,6.8-9.16,10.05-22.77,7.47-25.41,10.6c-1.9,2.26-4.55,10.82,24.46,6.92,20.61-2.78,30.78-2.08,32.63-5.67s-5.87-24.4-5.87-24.4S1374.94,1320,1362.7,1320.11Z"/><rect class="cls-25" x="1327.71" y="1007.97" width="7.33" height="592.85" transform="translate(-121.04 136.27) rotate(-5.61)"/><polygon class="cls-25" points="1474.73 1588.3 1416.83 998.29 1424.13 997.58 1482.03 1587.6 1474.73 1588.3"/><rect class="cls-25" x="1303.48" y="1013.58" width="118.61" height="7.33" transform="matrix(1, -0.1, 0.1, 1, -91.85, 136.33)"/><rect class="cls-25" x="1308.81" y="1068.48" width="118.61" height="7.33" transform="translate(-97.01 136.92) rotate(-5.53)"/><rect class="cls-25" x="1314.14" y="1123.37" width="118.61" height="7.33" transform="translate(-102.53 138.07) rotate(-5.55)"/><rect class="cls-25" x="1319.46" y="1178.27" width="118.61" height="7.33" transform="translate(-107.67 138.64) rotate(-5.54)"/><rect class="cls-25" x="1324.79" y="1233.16" width="118.61" height="7.33" transform="translate(-112.95 139.41) rotate(-5.54)"/><rect class="cls-25" x="1330.12" y="1288.06" width="118.61" height="7.33" transform="translate(-118.24 140.2) rotate(-5.54)"/><rect class="cls-25" x="1335.45" y="1342.95" width="118.61" height="7.33" transform="translate(-123.5 140.95) rotate(-5.54)"/><rect class="cls-25" x="1340.77" y="1397.85" width="118.61" height="7.33" transform="translate(-128.77 141.72) rotate(-5.54)"/><rect class="cls-25" x="1346.1" y="1452.74" width="118.61" height="7.33" transform="translate(-134.05 142.49) rotate(-5.54)"/><rect class="cls-25" x="1351.43" y="1507.64" width="118.61" height="7.33" transform="translate(-139.32 143.27) rotate(-5.54)"/><rect class="cls-25" x="1356.76" y="1562.53" width="118.61" height="7.33" transform="translate(-144.41 143.82) rotate(-5.53)"/><path class="cls-24" d="M1340.35,1095.09s-11.63,43.19-14.69,58.62c-2.67,13.45-8.05,49.27-8.81,57.79s34.33,91,38,105.84l32-5.14s-33.73-85.79-24.93-104.86c13.08-28.35,14.79-27.5,25.1-50.85s33.91-23.92,40.24-67.25C1427.21,1089.24,1348.93,1081.35,1340.35,1095.09Z"/><path class="cls-22" d="M1397.2,885.29s-21.22-7.93-31,8.23S1357.34,942,1368,946s26.78,1.9,32.26-8.21,10.42-24.73,10.18-34.5S1402.78,888.11,1397.2,885.29Z"/><path class="cls-22" d="M1371.61,945s.85,5.56-.56,8.3,26.7,2.82,26.7,2.82a185,185,0,0,1,6.61-27.51C1408.69,916,1371.61,945,1371.61,945Z"/><path class="cls-26" d="M1404.36,928.63s-1.94,3.2-9.86,2-17.59-11.78-20.9-12.94-3.34-3.1-3.34-3.1l-2.07,3-3.51.23s3.2-9.43-1.63-13.28,5-30.51,30.42-21.63c0,0,19.51,5.37,18.81,16.47S1408.72,923.1,1404.36,928.63Z"/><path class="cls-22" d="M1370.79,910.51c.44-1.86,5.17-7.18,7-1.48s-2.74,13.35-5.28,12.7S1369.66,915.23,1370.79,910.51Z"/><path class="cls-27" d="M1451.75,1026.18c-.23,2.79-3.41,5.8-5.58,7.29a9.07,9.07,0,0,1-4.84,1.59l-1.26,0h0l-22.06.75s-16.4-53,14.36-73.22C1433.33,962.73,1453.89,1000.64,1451.75,1026.18Z"/><path class="cls-24" d="M1385.23,1342c-1.86,3.59-12,2.89-32.64,5.66a95.16,95.16,0,0,1-13.55,1l-1.21-12.4c6-2.1,13-4.26,15.71-6.12,4.69-3.25,9.16-10.05,9.16-10.05,12.24-.1,16.65-2.5,16.65-2.5S1387.08,1338.42,1385.23,1342Z"/><path class="cls-27" d="M1371.59,951.71s17.31-4,27.07-.74l1.47,1.37s3,5.68-8.2,6.17S1363.22,959.81,1371.59,951.71Z"/><path class="cls-23" d="M1439.24,1357.35s2.59,10.19,3,11.72,16.33-2.69,16.33-2.69l0-12.46S1441.11,1355.67,1439.24,1357.35Z"/><path class="cls-24" d="M1427.21,1089.24a336.69,336.69,0,0,1,7.56,48.09c1.59,22.24,4.49,46.63,6.8,69.89,2.57,25.93,9.91,67.84,10.29,81.71s12.06,74.48,12.06,74.48l-29.86,3.43s-19.4-107.11-24-118.06-27.3-89-28.07-97.77S1427.21,1089.24,1427.21,1089.24Z"/><path class="cls-24" d="M1441.87,1367.78s-4.47,6.79-9.16,10-22.76,7.46-25.41,10.6c-1.9,2.26-4.55,10.82,24.46,6.91,20.61-2.78,30.78-2.07,32.64-5.67s-5.88-24.4-5.88-24.4S1454.11,1367.67,1441.87,1367.78Z"/><path class="cls-27" d="M1334.31,1149c-2.54-.36,6.32-76.18,5.64-80.93-.45-3.17-.38-27.81-.2-43.17l-2.77-15.55a70.3,70.3,0,0,0-6.08-3.84c-3.85-2.22-8.68-4.76-14.05-7.45.62-3.67,1.06-6.56,1.23-8.25,1.34-13.65,10.51-20.89,15.71-23.93a26.22,26.22,0,0,1,3.58-1.79c2-.84,3.91-1.65,5.79-2.42,12.53-5.16,28.43-10,28.43-10h25.55s19.45,3.88,31,8.63a21.73,21.73,0,0,1,4.18,2.29l-3.47,72.85v0a.87.87,0,0,0,0,.1c-1.56,10.24-3.21,22.33-3.76,30.81-.22,3.46,3.74,22,5.8,39.1l7.23,40.82S1434,1163.28,1334.31,1149Z"/><path class="cls-27" d="M1336.16,1008.8c-2.85-1.83-6.54-4.32-19.31-10.71-23.77-11.89-53.12-33.45-58.7-36.56-8.58-4.79-35.69-37.91-35.69-37.91,1.4-5,14.25-15,14.25-15s41.09,38.92,50.08,43.72c7.72,4.11,45.87,8.28,56.37,9.36l2.69.27C1356.82,976.93,1342.29,1012.75,1336.16,1008.8Z"/><path class="cls-22" d="M514.1,1297s6.06-7.67,7-8.81,4.72-2.22,9.13-3,10.6.21,11.1.83a4.12,4.12,0,0,1,1.48,3.1,9.31,9.31,0,0,1-.71,4.13,5.34,5.34,0,0,1,.09,4.81,4.75,4.75,0,0,1-.64,4.82s1.11,2.36-.36,4a29.47,29.47,0,0,0-5.08,1.93c-1.31.84-9.28,2.52-17.09,2.84C519,1311.66,511.69,1309.22,514.1,1297Z"/><polygon class="cls-28" points="339.13 1533.68 304.58 1677.74 296.97 1677.74 326.27 1533.37 339.13 1533.68"/><polygon class="cls-28" points="376.83 1533.68 342.27 1677.74 334.67 1677.74 363.96 1533.37 376.83 1533.68"/><polygon class="cls-28" points="437.79 1533.68 472.34 1677.74 479.95 1677.74 450.65 1533.37 437.79 1533.68"/><path class="cls-29" d="M470.49,1535.09H321.61s-10.37-.24-17.31-31c-7.81-34.56-23.59-150-23.59-150s4.18-10.74,69.63-9.36l117.2,152S471.54,1520.82,470.49,1535.09Z"/><path class="cls-22" d="M475.07,1391s7.59-3.29,13.27-2,19,6.31,25.6,7.13,12.85,4.65,12.72,6.84-50.81,4-51-1S475.07,1391,475.07,1391Z"/><path class="cls-22" d="M514.1,1297s-9.91,6.51-10.12,8.51c-.36,3.3,1.68,13.56,1.93,13.41s14.93-7.39,14.93-7.39Z"/><path class="cls-30" d="M513.89,1653.21s12.76,7.59,18.53,10.41,28.25,3.68,30.47,5.8,1.38,8.83-2.34,9.51-31,3.07-40.16.92-26.17,1.39-29.94.1-1.29-21.64.19-26.2S513.89,1653.21,513.89,1653.21Z"/><path class="cls-31" d="M513.69,1644.6l.2,8.61s-17.09,3.15-23.25.54l.43-9.46Z"/><path class="cls-11" d="M543.76,1653.21s12.76,7.59,18.53,10.41,28.25,3.68,30.47,5.8,1.38,8.83-2.34,9.51-31,3.07-40.16.92-26.17,1.39-29.94.1-1.28-21.64.19-26.2S543.76,1653.21,543.76,1653.21Z"/><path class="cls-31" d="M543.56,1644.6l.2,8.61s-17.09,3.15-23.25.54l.43-9.46Z"/><polygon class="cls-32" points="443.19 1444.16 423.78 1440.77 436.72 1408.19 443.19 1444.16"/><path class="cls-33" d="M385,1450.83s97.53,20.71,112.75,27.18,24.35,9.13,25.49,12.37,24.93,157.91,24.93,157.91H515.86s-25.11-116.82-28.15-124-123.67-7.61-132.42-16.36-16.36-32.72-6.85-54.22S385,1450.83,385,1450.83Z"/><path class="cls-33" d="M434.43,1440s111.85,31.46,121,45.85c9.32,14.65-37.29,162.48-37.29,162.48h-32s30.82-138.51,27-144.6-172.37-.19-141-50S434.43,1440,434.43,1440Z"/><path class="cls-3" d="M422.81,1284.52c4.2-2.19,18.24,2.61,22.39,9.06,9.64,15,27.86,33.56,27.86,33.56L513.67,1293l8.14,20.36L473.6,1354a10.46,10.46,0,0,1-14-.49c-12.67-12.3-38.74-38.16-40.75-44.62C416.17,1300.31,414.76,1288.7,422.81,1284.52Z"/><path class="cls-34" d="M409.06,1197.57s19.41,3.24,19.6,36.15-12.3,36-31.2,31.2c-11.39-2.9-22.07-19-17.89-47.37S409.06,1197.57,409.06,1197.57Z"/><path class="cls-35" d="M411.6,1276.15s26.75,9.71,30.74,15.8,1.42,60.87-.87,80.47-8.56,61.83-7,67.54l-62.21,13.7s-20-72.68-20.55-84.29-15.22-65.63-8.18-70,37.67-21.5,37.67-21.5Z"/><polygon class="cls-36" points="372.22 1453.66 369.18 1442.43 434.57 1429.7 434.43 1439.96 372.22 1453.66"/><polygon class="cls-37" points="404.75 1434.92 420.26 1431.68 420.26 1443.95 404.75 1447.57 404.75 1434.92"/><path class="cls-3" d="M397.8,1403c-.17,3.22-.37,6.47-.54,9.76l0,0c-2.21,36.11-5.51,73.88-5.51,73.88-4.54,3.8-62.16-9.59-62.16-9.59s7.09-9.63,13.92-36.31,1.5-52.24-5.63-95.61-1.2-43.11-1.2-43.11l44.53-24.18c2.91,11.09,14.71,51.33,17.51,74.38C399.68,1360.65,399.05,1380.79,397.8,1403Z"/><path class="cls-3" d="M412,1276.23s13,33.49,18.47,67.65c5.61,34.83,5.34,97.89,11.42,99.43s4.2.51,4.2.51-1.14-38.1-1.69-50.73c-1.24-28.19,4-91.73,1.58-98.15S426.11,1278.77,412,1276.23Z"/><path class="cls-34" d="M411,1271a16.33,16.33,0,0,0,.62,5.17s-3.42,13.34-30.43,1.71c0,0,5.33-19.89,0-36.56l30.43,18.88s-.37,3-.54,6.51C411,1268.09,410.93,1269.59,411,1271Z"/><path class="cls-38" d="M382.27,1272.56s10.62,5.14,21.33,6.13l-5.22,11.11-17.22-11.94Z"/><path class="cls-38" d="M403.6,1278.69s7.48-2.48,7.42-6.13l1,3.67L409,1288Z"/><path class="cls-39" d="M426.34,1216.62s5.43-11.65,1.49-20.2-14.2-5-18.9-4-13.57-9.39-29.29,3.3-11,26-4.06,41.85,7.88,17.18,7.88,17.18,0-16.2,1.89-19c2.23-3.35,10.39-5.1,10.39-5.1s-6.21-8.5-.12-11.67S414.31,1221.65,426.34,1216.62Z"/><path class="cls-34" d="M387.75,1227.32c-.82-2.43-4.92-5.19-7-.64s3.3,12.56,6.21,12.56S389.66,1232.9,387.75,1227.32Z"/><path class="cls-24" d="M403.6,1278.69l3.91,6.71s-1.81,2.07-7.61,1.17Z"/><path class="cls-24" d="M406.67,1286s16,47,16.09,80.34-2.5,53.27-2.5,53.27l-3.51,6.57-5.15-6s3.63-96.86-10.57-133.46C401,1286.71,406.08,1284.3,406.67,1286Z"/><path class="cls-3" d="M341.58,1299.36c11.68-4.76,23.79,11.42,30.26,27.59s18.84,45.59,18.84,45.59l86.39,14,1.22,16.43H377.48s-38.4-68.79-41.06-77.35S333.19,1302.79,341.58,1299.36Z"/><rect class="cls-29" x="447.67" y="1402.97" width="284.87" height="9.81"/><rect class="cls-40" x="614.6" y="1231.22" width="6.86" height="152.07"/><path class="cls-41" d="M631.42,1403h51.33v-3.11H631.42c-2.68,0-4.6-.64-5.72-1.9a5,5,0,0,1-1.14-3.57v-66.51h-3.11v66.25a8.09,8.09,0,0,0,1.88,5.86C625.07,1402,627.79,1403,631.42,1403Z"/><path class="cls-40" d="M557.87,1397.52h57.78a0,0,0,0,1,0,0v.45a5,5,0,0,1-5,5H557.87a0,0,0,0,1,0,0v-5.45A0,0,0,0,1,557.87,1397.52Z" transform="translate(1173.52 2800.49) rotate(180)"/><rect class="cls-42" x="702.92" y="1412.78" width="8.1" height="266.6" transform="translate(1413.94 3092.16) rotate(180)"/><rect class="cls-42" x="469.2" y="1412.78" width="8.1" height="266.6" transform="translate(946.49 3092.16) rotate(180)"/><path class="cls-43" d="M397.8,1403c-.17,3.22-.37,6.47-.54,9.76l0,0s-11.23,1.49-20.64-2.79-16-36.82-16.47-38.53c1,1.88,16.05,31.52,19.76,31.52Z"/><path class="cls-44" d="M411.06,1266.68c-.08,1.41-.13,2.91-.08,4.29-21.48.33-21.81-11.92-21.81-11.92C392.51,1267.93,411.06,1266.68,411.06,1266.68Z"/><rect class="cls-45" x="523.17" y="1283.34" width="32.63" height="2.76" transform="translate(-740.99 735.23) rotate(-44)"/><polygon class="cls-22" points="550.26 1272.4 554.67 1270.06 552.18 1274.38 550.26 1272.4"/><path class="cls-46" d="M540.19,1286.17s-11.13,2.4-11.08,4.41a3.06,3.06,0,0,0,1.17,2.66L526,1296.5s-1.79,3.86,2.46,4.69c0,0-2,3.43,2.22,3.69,0,0-.43,2.87,1.48,3.37s9-1.36,9-1.36,1.37-1.13.36-4a4.69,4.69,0,0,0,.64-4.82,5.13,5.13,0,0,0-.09-4.81s2.51-4.76-.77-7.23C541.35,1286,540.66,1286.07,540.19,1286.17Z"/><path class="cls-22" d="M521.46,1288.12s7.33,2.34,10.73,5.58a2.57,2.57,0,0,1,1,2.7c-.36,1.09-2.24,2-5.46,1.15a25.75,25.75,0,0,0-7.81-.27S516.9,1295.34,521.46,1288.12Z"/><path class="cls-47" d="M530.84,1536.5s-6.83-42.67-7.2-44.4-7.32-7.94-40.57-18.84c0,0,37,7.19,46.66,13.5C537.2,1491.62,530.84,1536.5,530.84,1536.5Z"/><path class="cls-48" d="M670,1403c3.65-1.52,9.55-18.76,12.38-27.68,1-3.17,1.63-5.29,1.63-5.29H650.64c2.89,20.6,9.89,33,9.89,33Z"/><path class="cls-49" d="M672.69,1359.74c0-1.2,5.36-6.22,8-9.5s-1-9.5-1-9.5c-12,5-9.89,19-9.89,19S672.69,1360.93,672.69,1359.74Z"/><path class="cls-49" d="M665.89,1360.27h1.44s1-24.27-7.83-27.56-8.86-9.89-8.86-9.89-2.67,9.06,1.65,13.8,9.27,10.3,8.45,14.84S665.89,1360.27,665.89,1360.27Z"/><path class="cls-50" d="M682.39,1375.29c1-3.17,1.63-5.29,1.63-5.29H650.64c2.89,20.6,9.89,33,9.89,33h2.18C662.31,1383.67,675,1377.34,682.39,1375.29Z"/><polygon class="cls-51" points="684.02 1359.74 650.39 1359.74 648.48 1370 685.38 1370 684.02 1359.74"/><path class="cls-52" d="M1535.47,471.25s7.42-13.63,11.65-18.53,18.25-8.58,16.34-14.85-20.7-3.54-25.88,2.59-21,8.31-21.52,10.9,5.49,16.75,8.88,19.06S1535.47,471.25,1535.47,471.25Z"/><path class="cls-52" d="M1567,482.79s12.09-9.59,17.92-12.41,20.15-.63,20.89-7.14-17.59-11.47-24.78-7.9-22.55-.71-24.07,1.45-1.62,17.56.57,21S1567,482.79,1567,482.79Z"/><path class="cls-22" d="M1540.17,507.74s-5.28-36.09-5-42.36c.07-1.78-10.86-1.12-10.35,2.32,1.11,7.49-3.93,36.5-3.06,41.81S1540.62,511.09,1540.17,507.74Z"/><path class="cls-22" d="M1556.71,518.12s9.89-35.05,12.2-40.88c1-2.59-9.06-6.61-10.42-2-2.15,7.27-18.11,31.94-19.41,37.17S1555.79,521.37,1556.71,518.12Z"/><path class="cls-11" d="M1549.84,542.48s10.62-35.83,12.26-39.64l-16.75-10.35s-7.77,22.88-8.86,28.6S1549.84,542.48,1549.84,542.48Z"/><path class="cls-53" d="M1253.3,447.83s16.17,4.09,23.87,16.33,14.35,26.32,28.81,32.71,14.56,22.87,13.43,25.41-45.55,52.48-55.25,54.41-27.85.59-25.9-12.24,21-40.44,10.28-54.37-13.36-26.76-13.36-26.76Z"/><path class="cls-22" d="M1256.12,507.56a6.82,6.82,0,0,1,1.26-.23,9.24,9.24,0,0,1,3.79.46,8.53,8.53,0,0,1,1.48.73c3.84,2.27,12.94,8.42,14.17,8.56,1.42.17.22-21.05.22-21.05s-4.85-8.57-5.46-14.21S1256.12,507.56,1256.12,507.56Z"/><path class="cls-11" d="M1369.92,529.74s17.77-12.46,38.61-8.58,23.09,13.62,30.24,14.06,31-1.6,50.67,4.12,36.16,6.34,38.4,4.7-12.25-34.32-12.25-38.82l24.31-6.33s6.95,29,9.67,35.55c2.91,7,8.51,20.16.54,31.6s-30.23,6.28-43.72,8.59-73.84.83-84.37.26c-11.44-.61-46-2.25-46-2.25Z"/><path class="cls-22" d="M1223.93,465.15s-1.13,17.56,2.77,22.82a25,25,0,0,0,3.33,3.87,7.75,7.75,0,0,1,2.22,3.22c1.2,3.38,2,8.13,2.9,9.15s4.08-1.71,5.18-1.72,11.79,9.23,14.35,7.34,18.16-17.73,16.85-28.58-6.1-27.07-23.67-27S1225.28,460.78,1223.93,465.15Z"/><path class="cls-27" d="M1277,548.94c.34.73,6.8,11,13.87,17,2.94,2.48,6,4.22,8.74,4.22q1.26,0,2.46,0c8.12.22,14.36,1.47,25.32,2,11.39.56,39-1,39.84-1s8.79,1.43,8.79,1.43c2.86-3.47-4.7-42.7-6.13-42.9s-10.63,3.27-19.41,1.84-12.26-2.25-25.33-17.57-26.15-19.21-31.67-18-16.48,0-16.48,0S1276.55,547.92,1277,548.94Z"/><rect class="cls-54" x="1146.82" y="583.27" width="67.83" height="7.35" transform="translate(2361.47 1173.89) rotate(180)"/><polygon class="cls-54" points="1130.38 519.01 1153.79 588.29 1146.79 590.58 1123.4 521.34 1130.38 519.01"/><path class="cls-53" d="M1231.32,477.72s-3.28,8.48-5,9.65c0,0-6.32-6.68-2.26-23.17s19.36-18,29.25-16.37c12.3,2.09,24.68,43.71,24,47.76s-14.42-21.51-26.49-19.45S1238.67,478.87,1231.32,477.72Z"/><path class="cls-44" d="M1257.38,507.33a9.39,9.39,0,0,1,3.76.54,7.47,7.47,0,0,1,1.51.65c2.82-4.4,5.44-14.85,5.52-15.2C1266.29,499,1257.38,507.33,1257.38,507.33Z"/><path class="cls-55" d="M1290.9,566c2.94,2.48,6,4.22,8.74,4.22q1.26,0,2.46,0l-3.35-32.51Z"/><path class="cls-22" d="M1276.23,534.49s-1,25.62-1.52,29.91,0,6.81-4.57,7.22-36.7,4.09-46.5,5.72-13.5-2.2-15.27-2.75-12.89-.9-16.2.2c-3.47,1.15-8,3.88-10.82,4.29s-6.81,2-6.54,3.37,6.6,1.16,8.51,1.16,32.38-.82,33.88-.07c1.91,1,26.53,2.18,31,2.18s40.18,2.79,43.31-1.57,7.15-49.3,6.75-51.35S1278.45,529.71,1276.23,534.49Z"/><path class="cls-27" d="M1274.65,535.05s-1.23-34.13,9.87-33.71c14,.54,16.14,17.71,14.23,36.37C1298.75,537.71,1277.78,537.91,1274.65,535.05Z"/></svg>