<svg id="Objects" xmlns="http://www.w3.org/2000/svg" viewBox="0 0 335.36 335.36"><defs><style>.cls-1{fill:#e4e5f8;}.cls-2{fill:#f7f7fd;}.cls-3{fill:#b3e074;}.cls-4{fill:#6097cf;}.cls-5{fill:#8ad4df;}.cls-6{fill:#f6ba99;}.cls-7{fill:#033773;}.cls-8{fill:#014397;}.cls-9{fill:#f2957e;}.cls-10{fill:#05384d;}.cls-11{fill:#fff;}.cls-12{fill:none;stroke:#05384d;stroke-linecap:round;stroke-miterlimit:10;}.cls-13{fill:#dadcf2;}.cls-14{fill:#b5bae5;}.cls-15{fill:#decbb6;}.cls-16{fill:#b89c96;}.cls-17{fill:#32302b;}.cls-18{fill:#393732;}.cls-19{fill:#b57053;}.cls-20{fill:#ff6517;}.cls-21{fill:#c25600;}.cls-22{fill:#484641;}</style></defs><title>Mesa de trabajo 1</title><path class="cls-1" d="M288.54,112.87S265.28,65.41,225.26,58,141.51,80.3,116.39,85s-55.84-1.86-84.69,36.3S21.4,221.43,80.09,224.54s89.34-19.54,117.26-2.79S323.9,214.3,288.54,112.87Z"/><path class="cls-2" d="M76,141.93a11,11,0,1,1-11-11.05A11.05,11.05,0,0,1,76,141.93Z"/><circle class="cls-2" cx="79.88" cy="144.69" r="8.84"/><path class="cls-2" d="M57.23,148.28A5.25,5.25,0,1,1,52,143,5.25,5.25,0,0,1,57.23,148.28Z"/><path class="cls-2" d="M49.5,138.89A2.49,2.49,0,1,1,47,136.41,2.49,2.49,0,0,1,49.5,138.89Z"/><path class="cls-2" d="M71,150.22a6.63,6.63,0,1,1-6.63-6.63A6.63,6.63,0,0,1,71,150.22Z"/><circle class="cls-2" cx="222.69" cy="120.87" r="28.66"/><circle class="cls-2" cx="261.38" cy="128.03" r="22.93" transform="translate(-13.97 222.32) rotate(-45)"/><circle class="cls-2" cx="189.02" cy="137.34" r="13.61" transform="translate(-41.76 173.88) rotate(-45)"/><path class="cls-2" d="M182.57,113a6.45,6.45,0,1,1-6.45-6.44A6.45,6.45,0,0,1,182.57,113Z"/><circle class="cls-2" cx="221.26" cy="142.36" r="17.2"/><path class="cls-3" d="M324,257.25l-19.37-1.18s-4.94-1-8.54-1.58a44.85,44.85,0,0,0-4.95-.55l18-2.35-14.38-4.14,13.56-4.9a33.82,33.82,0,0,1-5.85-1.06c-3.47-.8.81-.65-5.92-1.3l2.23-.12-15.05-5.65,12.47-.9s-11.33-.1-18.48-2.67a168.52,168.52,0,0,0-17.32-5.17c-6-1.56-2.65,0-2.65,0l-15.08-2.14-5.66,0-.4,2.51-7.14-4.58,0,5-7.9-3.59-1.93,5.51-2.61-4.54-4.15,0,3.43-3.48-11.34.9,5.7-3.46-11.72.9-19.25-.17-10.57-.09,6.07-4a138.72,138.72,0,0,1-17.39,2.86c-9.45.92-12.1,2.41-15.5,2.38s-10.57-.6-10.57-.6l-6-.05,0,4-7.87-7.1-.81,6-5.63-3.57.34,4-4.11-4.55-7.57,1.44,3.44-4s-15.54,6.39-22,7.34S65.27,225,65.27,225l-13.61,1.38,6.74,6.09-21.53,1.82,5.65,1.55s7.15,2.58,8.27,3.59a3.7,3.7,0,0,0,.7.43l-1.25.45,2.51.17,1.8.8-10.64,1-12.65,3.91-4.07,1.47,16.67.14s-14.45,4.4-15.81,5.39-9.95,3.43-9.95,3.43L11.33,258,37,260.25l-8.16,5.95L45,267.85s11.7,1.61,19.35,2.68,26.06,7.76,26.06,7.76l-4-4.05,9,1.58,5-4.47-.49,4,6.79-3.45.85,6L117.1,271l0,4,7.21.06s8.57-.42,12.62-.39,7.2,1.57,18.45,2.67a196.4,196.4,0,0,1,20.7,3.2l-7.17-4.08,12.61.11,23,.2,14,1.13-6.73-3.58,13.5,1.13-4-3.55,5,0,3.19-4.49,2.2,5.54,9.5-3.43-.05,5,8.6-4.44.43,2.51,6.76.06,18-1.85s-4.07,1.47,3.15,0,12.19-2.4,20.77-4.84,22.1-2.32,22.1-2.32L306,262.61Z"/><path class="cls-4" d="M175.31,128.7s-3.42,1.21-5.54,6.26-3.85,56.49-2.46,60.78,9.37,7.17,15.6-.16,8.18-45,8.51-52S185.75,126,175.31,128.7Z"/><polygon class="cls-5" points="225.66 196.54 236.23 198.88 234.19 206.78 225.33 205.8 225.66 196.54"/><path class="cls-6" d="M236.23,198.88l11-2.81,12.81,6.42s2.95,2.63.49,3.08-8.81-1.67-11-1.55-4.23,2.11-8.23,3a15,15,0,0,1-7.17-.21Z"/><path class="cls-4" d="M226,196.58c-7.15-2.07-14.29-5.6-22-7.78a132.25,132.25,0,0,0-25.58-4.29c-12.17,0-14,13.42-8.73,15.15,5,1.64,42.53,7.73,55.68,6.14Z"/><path class="cls-7" d="M177.76,221.24s31.51-22.08,55.38-22.26,26.33,4.68,25.14,14.88S216.47,242.7,200.05,250s-30.58,9-39.09,3.77S164.6,228.73,177.76,221.24Z"/><path class="cls-7" d="M251.72,200.77S265.39,206,263,213.26s-9,14.34-14.92,19.06S211,254.47,207.56,256.1l-9.37-6.28,39.31-39.77S239.85,203.2,251.72,200.77Z"/><path class="cls-8" d="M127.88,216.75s-2.44,16.68-1,22.86,10.12,9.44,30.18,9.63c22.91.23,21.57-13.9,21.9-18.56S178,218,178,218A78.82,78.82,0,0,1,127.88,216.75Z"/><path class="cls-4" d="M128,211.16l-1.52,5.4c0,1.8.19,5.15,1.88,5.78,3.75,1.41,9.62,2.78,23.35,4.07C172.58,228.36,178,218,178,218l-1.3-8.05S151.7,219.39,128,211.16Z"/><path class="cls-5" d="M151,121.87s-13.33.09-14.58,7.37c-.83,4.81-11.3,80.55-10.23,82,3.08,4.12,7,6.45,18.23,7.31,12.13.94,31.25,2.29,33.13-6.07s11.31-76.12,4.48-82.73S159.05,120.91,151,121.87Z"/><path class="cls-5" d="M147.73,192.77l-11.09,21.65s9.48,2.68,25.59-.18c0,0,4.47-4.3,2.86-9.66S147.73,192.77,147.73,192.77Z"/><path class="cls-4" d="M136.64,214.42a31.63,31.63,0,0,0,4.33.75l10.68-20.64c-2.27-1.09-3.92-1.76-3.92-1.76Z"/><path class="cls-4" d="M167.1,109.53c-14.93-2.14-32.86,3.75-30,10.38,1.89,4.37,19,7.85,25.44,12.87s12,12,15.09,9.48,9.82-11.78,7.67-19.8C183.2,114.61,175.64,110.75,167.1,109.53Z"/><path class="cls-9" d="M167.66,105.72a51.22,51.22,0,0,0,.63,16.4c1.81,9,5.8,23,8.14,4.21.87-7,3.26-10.27,3.26-10.27Z"/><path class="cls-6" d="M209.68,64.91c-9.26-6.68-25.18-7.44-33.8.84C168.1,73.23,163,85.14,162.37,95.86c-.82,13.55,10.41,25.29,22.94,26.6,4.33.46,6.42-1.45,9.73-3.43,6.28-3.75,11.18-7.52,12-10.71,1.2-4.88-2.8-6.52,5.94-17.8C219.64,81.86,216.28,69.67,209.68,64.91Z"/><path class="cls-10" d="M161.58,82.72s6.94,2.63,10.17-.59-1.28-7.1,4.49-7.24,9.88-.27,12.31-3.7c4.64-6.56,8.19.91,15.84,8.37s10,11,17.45,14.45S227,80.35,227,80.35s5.88,4.18,6.15-1.85S223.08,56.33,208.4,49.82s-28.31-4.91-30.82-3.32c0,0,1.45-3.26-.94-3.8s-5.09,3.52-5.09,3.52-4-1.26-4.67,0,4.43,4.22,4.43,4.22-6.83,1.7-8.29,8.19S161.58,82.72,161.58,82.72Z"/><path class="cls-6" d="M170.49,85.37s-.65-10.82-6.15-11.21-7.54,6.41-6,12.76,9,5,9,5"/><path class="cls-9" d="M160.43,82.51s1-5.13,3.7-4.93,3.6,7.68,3.6,7.68-1.81-1.49-2.32.75,1.11,2.61,1.11,2.61S159.67,87.69,160.43,82.51Z"/><path class="cls-10" d="M194.45,93.44s2.31-6.3-.78-9.32-8.47,1.15-8.78,2.51-.21,3.18,3.51,5.81S194.45,93.44,194.45,93.44Z"/><path class="cls-11" d="M194.05,94.66s2.3-6.3-.78-9.32-8.18.49-8.49,1.86-.5,3.83,3.22,6.46S194.05,94.66,194.05,94.66Z"/><path class="cls-10" d="M200.93,96.52s2.66-6.89,6.64-5-.25,7.38-.25,7.38S203.82,101.48,200.93,96.52Z"/><path class="cls-11" d="M200.49,97.43s2.65-6.89,6.64-5-.25,7.38-.25,7.38S203.37,102.39,200.49,97.43Z"/><path class="cls-4" d="M193.88,92a3.42,3.42,0,1,0-4.08,2.59A3.41,3.41,0,0,0,193.88,92Z"/><path class="cls-8" d="M192.27,92.3a1.6,1.6,0,1,0-1.91,1.21A1.59,1.59,0,0,0,192.27,92.3Z"/><path class="cls-4" d="M207.33,98.09a2.73,2.73,0,1,0-3.06,2.36A2.74,2.74,0,0,0,207.33,98.09Z"/><path class="cls-8" d="M205.91,98.55a1.27,1.27,0,1,0-1.42,1.1A1.27,1.27,0,0,0,205.91,98.55Z"/><path class="cls-12" d="M199.18,94.86l.08,7.32-2.86-.64-.31,8.09s-14.79-2-13.84-13"/><path class="cls-10" d="M187.68,78s4.09-1.84,7.54,0,5.72,4,6.22,5.07,0,1.83-2.22,1.71-5.47-4.35-7.22-4.74-6.27.06-6.15-.46S187.68,78,187.68,78Z"/><path class="cls-10" d="M212.62,89.77s0-3.56-2.58-4.34a10.53,10.53,0,0,0-5.89-.31c-.94.38-1.34,1.21-.51,2.39s5.09.35,6,1.11,2.08,3.67,2.43,3.26A6.83,6.83,0,0,0,212.62,89.77Z"/><line class="cls-12" x1="184.2" y1="96.99" x2="179.54" y2="96.43"/><path class="cls-4" d="M139.29,126.49s-3.83.21-7.48,4.71-20.66,56.17-20.52,60.94,7.38,10.06,15.87,4.47,21.65-43.24,24.05-50.22S150.7,126.83,139.29,126.49Z"/><polygon class="cls-5" points="174.81 195.35 185.98 197.82 183.83 206.17 174.46 205.14 174.81 195.35"/><path class="cls-6" d="M186,197.82l11.67-3,13.55,6.78s3.12,2.79.51,3.26-9.31-1.76-11.6-1.63-4.48,2.23-8.7,3.13a15.78,15.78,0,0,1-7.58-.22Z"/><path class="cls-4" d="M175.15,195.39c-7.56-2.19-15.58-6-23.76-8.27a140.15,140.15,0,0,0-27-4.53c-12.87,0-14.82,14.19-9.24,16,5.32,1.74,45.44,8.21,59.35,6.53Z"/><rect class="cls-13" x="167.49" y="205.33" width="86.87" height="4.08" transform="matrix(1, -0.03, 0.03, 1, -6.4, 6.72)"/><polygon class="cls-14" points="270.33 166.13 217.28 167.79 208.38 209.48 261.43 207.82 270.33 166.13"/><path class="cls-13" d="M247.79,181.46c-.51,3-2.76,5.15-5,4.77s-3.69-3.14-3.18-6.16,2.76-5.15,5-4.77S248.3,178.44,247.79,181.46Z"/><path class="cls-8" d="M126.88,239.61a7.69,7.69,0,0,0,.23,1.36c.63,2.56,2.94,8.34,11.34,13.5,11.21,6.88,24.17,2.18,31.21-4.8s13.88-50.47,4-55.85-22.14,2.17-29.15,15.24"/><path class="cls-4" d="M229.6,242.23s7.88,1,13.56,0,7.38-5.09,15.19-3.13,11.84,4.58,7.75,9.44-9.74,5.39-17.75,6.22-19.08-1.35-24.4-5.47S229.6,242.23,229.6,242.23Z"/><path class="cls-15" d="M230,243s7.88,1,13.56,0,7.38-5.09,15.19-3.13c4.36,1.09,7.54,2.39,8.79,4.17-.78-2.19-4.22-3.71-9.2-5-7.81-2-9.5,2.13-15.19,3.13s-13.56,0-13.56,0-9.29,2.52-6.61,6.13C222.05,245.17,230,243,230,243Z"/><path class="cls-9" d="M224,249.32a27.16,27.16,0,0,0,9.68,4.23l.79-.22c5.25-1.49,7.75-3.66,6.12-7.05-1.21-2.51-6.63-3.52-9.36-3.88-1-.09-1.58-.17-1.58-.17S218.63,245.2,224,249.32Z"/><path class="cls-8" d="M170,192.62s7.52-.4,12,8.34,37.41,33.07,45.86,39.28,9.18,9.07,4.39,10.6-7.54.87-30.92-5.94-36.07-12.38-42.82-22.68S152.49,195.12,170,192.62Z"/><path class="cls-15" d="M213.31,264.08a7.5,7.5,0,0,0,.77-11.19,18.89,18.89,0,0,0-9.4-5.61c-5-1-5.77.4-10.78,2.45s-8.52,1.59-9.48,5.2,3,5.61,6.37,6.52,8.06,4.49,12.38,5.23A12.65,12.65,0,0,0,213.31,264.08Z"/><path class="cls-16" d="M211.38,264.88a7.5,7.5,0,0,0,.77-11.19,18.78,18.78,0,0,0-9.39-5.61c-5-1-5.78.4-10.78,2.45s-8.53,1.59-9.49,5.2,3,5.61,6.37,6.52,8.06,4.49,12.38,5.22A12.61,12.61,0,0,0,211.38,264.88Z"/><path class="cls-17" d="M130,236.06s8.1,9.73,12.15,11.89,9.45,4.32,13,4.86,11.62.27,11.62,2.16.81,5.4-3.24,6.21-10,2.16-19.72-1.35-13.23-11.34-15.12-12.69S126.74,239,130,236.06Z"/><path class="cls-18" d="M163.75,253.35a18.76,18.76,0,0,1-10.81,6.21c-6.58,1.05-12.69,2.7-21.33,2.16s-26.2,3.78-26.2,3.78l1.35,6.48s13.5-3.24,23-3,26.19-1.35,32.41-3.51S169.42,253.62,163.75,253.35Z"/><path class="cls-18" d="M126.74,248.22s7.3,5.67,6.49,8.1-7.84,3.78-12.7,3.51-4.32-5.67-4.32-5.67,8.91,3.51,9.18.54-3.78-4.86-3.78-4.86Z"/><path class="cls-14" d="M114.91,213.7s-7.44-4.79-16-3.73-12.23,14.37-18.08,17.56-15.43,4.25-25.54,10.11S36.18,253.06,41.5,260.51a33.19,33.19,0,0,0,6.94,8.63c4.12,3.4,24.23,11.15,34.89,13.33s28.35-6.54,32.71-9c3.41-1.89,2.67-8.67,2.89-12.93-.09.12-.18.25-.28.37.1-.23.2-.45.29-.68,0,.1,0,.21,0,.31a5.63,5.63,0,0,0,1.18-2.88,11.85,11.85,0,0,1,7-6.22C135.66,248.27,134.59,223.27,114.91,213.7Z"/><path class="cls-18" d="M113.85,247.21a62.87,62.87,0,0,1-12.77,16c-8,6.91-16,6.88-28.72,2.13s-26.07-5.85-26.07-12.77S56.93,239.23,65.44,236s13.3-6.38,19.68-6.38S108.53,236,113.85,247.21Z"/><path class="cls-19" d="M77.68,229.66s15.95,4.25,20.74,7.44,14.36,11.71,16.49,12.24,4.79,0,3.73-4.26-9.8-11-18.31-14.76S83.53,225.93,77.68,229.66Z"/><path class="cls-18" d="M127.15,230.19c1.59,9-1.6,12.23-3.19,14.89s-10.11,12.24-10.11,12.24-.53,1.59,5.32-1.6,12-10.12,12.13-16.76c0-1.41.16-2.73.29-4a30.68,30.68,0,0,0-16.68-21.24S125.55,221.14,127.15,230.19Z"/><polygon class="cls-18" points="107.8 214.14 104.89 218.99 111.68 222.62 114.34 217.78 107.8 214.14"/><polygon class="cls-20" points="288.01 278.78 321.11 266.69 318.01 265 284.79 275.76 286.28 277.87 288.01 278.78"/><path class="cls-15" d="M318.73,260.43a10.24,10.24,0,0,0-.58,4,3,3,0,0,0,1.41,2.11l-31.63,11.8s-2.29-2-.2-6.6Z"/><polygon class="cls-20" points="277.73 249.31 243.76 258.67 287.73 271.75 320.68 260.22 277.73 249.31"/><path class="cls-21" d="M243.76,258.67s-3.07,3.8.59,6.61L288,278.78s-2.25-1.13-.28-7Z"/><polygon class="cls-20" points="271.49 280.43 302.35 263.42 299.02 262.23 267.85 277.94 269.65 279.79 271.49 280.43"/><path class="cls-15" d="M299,257.6a10.1,10.1,0,0,0,0,4,3,3,0,0,0,1.71,1.87L271.35,280s-2.57-1.6-1.21-6.5Z"/><polygon class="cls-22" points="256.82 252.88 224.68 267.32 270.14 273.52 300.94 257.09 256.82 252.88"/><path class="cls-17" d="M224.68,267.32s-2.45,4.22,1.6,6.44l45.21,6.67s-2.4-.77-1.35-6.91Z"/></svg>