<svg xmlns="http://www.w3.org/2000/svg" viewBox="0 0 512 512"><defs><style>.cls-1{fill:#6d3300;}.cls-2{fill:#a02702;}.cls-3{fill:#a05513;}.cls-4{fill:#ff7a08;}.cls-5{fill:#ff9131;}.cls-6{fill:#7a3b04;}.cls-7{fill:#fca65b;}.cls-8{fill:#ffd1ca;}</style></defs><title>OrangeBot</title><g id="Layer_2" data-name="Layer 2"><path class="cls-1" d="M380,171.15l-23.21-20,6.67,13.79L250.85,122.44l-72.19,14.41-37.84,44.43L118.39,311l22.43,36.39,13.28,16.48L143,358.86l23.21,20,84.67,38.43,75-11,65.26-58.93,14-124.23ZM280.12,320.42l-52.81-15.28L209.7,280.07V247.4l21.8-30.1L269.23,207l36.89,17.54L321.21,276Z"/><polygon class="cls-2" points="381.9 203.17 330.7 263.72 367.95 327.4 381.9 203.17"/><polygon class="cls-3" points="106.25 300.49 165.42 322.91 154.03 368.34 128.67 336.88 106.25 300.49"/><path class="cls-4" d="M356.76,151.12,227.65,102.41l-72.2,14.41-37.84,44.43L95.18,291l59.18,22.41L143,358.86l84.68,38.43,75-11L368,327.4l14-124.23ZM256.92,300.39,204.1,285.11,186.49,260V227.37l21.81-30.1L246,187l36.88,17.54L298,256Z"/><polygon class="cls-1" points="166.18 378.89 161.98 367.49 142.97 358.86 166.18 378.89"/><polygon class="cls-1" points="106.25 300.49 95.19 291.01 154.36 313.42 153.15 318.26 106.25 300.49"/><polygon class="cls-3" points="393.28 208.88 342.07 269.44 379.32 333.12 393.28 208.88"/><polygon class="cls-1" points="393.28 208.88 381.9 203.17 330.7 263.72 367.95 327.4 378.5 331.72 342.07 269.44 393.28 208.88"/><polygon class="cls-1" points="227.65 397.29 302.68 386.33 308.06 348.27 209.7 358.91 227.65 397.29"/><polygon class="cls-5" points="217.59 384.12 292.63 373.16 298.01 335.09 199.64 345.73 217.59 384.12"/><polygon class="cls-1" points="298.01 335.09 308.06 348.97 302.68 387.03 227.65 397.99 217.59 384.12 292.63 373.16 298.01 335.09"/><polygon class="cls-3" points="308.06 348.97 339.13 353.42 302.68 387.03 308.06 348.97"/><polygon class="cls-6" points="391.4 225.62 356.3 267.44 380.99 318.26 379.32 333.12 342.07 269.44 393.28 208.88 391.4 225.62"/><polygon class="cls-7" points="210.81 369.62 210.81 353.9 263.99 338.77 199.64 345.73 210.81 369.62"/><polygon class="cls-5" points="111.58 196.16 130.32 165.69 163.49 125.07 227.65 102.41 155.45 116.82 117.61 161.25 111.58 196.16"/><polygon class="cls-5" points="98.21 273.49 124.77 302.22 95.19 291.01 98.21 273.49"/><polygon class="cls-6" points="117.2 318.26 150.85 327.4 153.15 318.26 106.25 300.49 117.2 318.26"/><polygon class="cls-5" points="236.37 294.44 258.88 307.25 286.83 294.44 307.04 256 290.6 230.71 298.01 255.96 256.92 300.39 236.37 294.44"/></g><g id="Layer_4" data-name="Layer 4"><polygon class="cls-1" points="375.44 192.9 365.65 172.33 343.21 177.21 330.71 171.89 317.74 160.51 310.88 141.86 289.59 141.59 294.97 168.97 307.65 182.23 321.29 182.94 329.94 190.15 332.13 198.37 355.5 198.66 375.44 192.9"/><polygon class="cls-1" points="327.05 203.22 324.23 210.29 307.26 213.58 297.56 202.86 301.56 188.71 317.44 185.26 327.18 192.67 327.05 203.22"/><polygon class="cls-1" points="191.03 134.32 171.5 140.21 168 159.84 158.05 174.84 145.23 180.18 129.53 182.09 124.3 202.17 141.36 202.91 153.29 200 165.05 194.68 165.54 185.9 171.84 177.63 186.28 174.41 191.72 156.24 191.03 134.32"/><polygon class="cls-1" points="170.4 184.48 178.94 178.6 187.1 178.98 197.24 190 193.71 203.4 178.5 205.93 169.94 199.4 170.4 184.48"/><polygon class="cls-8" points="370.11 179.81 360.32 159.24 337.87 164.12 325.38 158.81 312.41 147.42 305.55 128.77 284.25 128.5 289.63 155.88 302.31 169.14 315.96 169.86 324.61 177.06 326.79 185.28 350.16 185.57 370.11 179.81"/><polygon class="cls-8" points="321.71 190.13 318.89 197.2 301.92 200.49 292.23 189.77 296.23 175.62 312.1 172.18 321.84 179.58 321.71 190.13"/><polygon class="cls-8" points="181.85 121.96 162.32 127.85 158.83 147.48 148.88 162.48 136.05 167.82 120.35 169.74 115.12 189.81 132.18 190.55 144.11 187.65 155.87 182.32 156.36 173.54 162.66 165.27 177.1 162.06 182.54 143.88 181.85 121.96"/><polygon class="cls-8" points="161.22 172.12 169.76 166.24 177.93 166.62 188.06 177.64 184.53 191.04 169.33 193.58 160.77 187.05 161.22 172.12"/></g><g id="Layer_5" data-name="Layer 5"><polygon class="cls-1" points="398.55 443.36 421.52 396.13 485.67 396.13 456.43 436.16 398.55 443.36"/><polygon class="cls-1" points="342.8 489.93 361.17 430.21 442.28 420.12 416.81 473.89 342.8 489.93"/><polygon class="cls-4" points="374.96 426.56 397.94 379.33 462.09 379.33 432.85 419.36 374.96 426.56"/><polygon class="cls-5" points="319.21 473.13 337.59 413.41 418.69 403.32 393.23 457.09 319.21 473.13"/><polygon class="cls-1" points="342.8 489.93 319.21 473.13 358.47 464.62 342.8 489.93"/><polygon class="cls-1" points="433.7 438.22 418.69 403.32 404.55 433.18 433.7 438.22"/><polygon class="cls-1" points="485.67 396.13 462.09 379.33 444.56 403.32 485.67 396.13"/><polygon class="cls-5" points="389.77 396.13 407.53 390.53 449.87 379.33 397.94 379.33 390.53 394.57 389.77 396.13"/><polygon class="cls-7" points="328.92 441.58 346.99 424.44 396.04 406.14 337.59 413.41 328.92 441.58"/><polygon class="cls-1" points="358.11 19.69 350.96 98.32 273.12 105.06 246.11 99.32 275.01 96.83 288.85 36.77 329.94 26.63 331.1 13.95 358.11 19.69"/><polygon class="cls-4" points="261.85 31.02 246.11 99.32 323.96 92.59 331.1 13.95 261.85 31.02"/><polygon class="cls-5" points="251.84 74.45 269.21 45.54 302.11 21.1 261.85 31.02 251.84 74.45"/><polygon class="cls-1" points="57.24 367.24 123.83 396.94 90.53 470.3 47.28 433.82 57.24 367.24"/><polygon class="cls-1" points="123.83 396.94 114.4 374.43 97.66 411.3 123.83 396.94"/><polygon class="cls-1" points="47.28 433.82 37.85 411.3 60.63 430.52 47.28 433.82"/><polygon class="cls-3" points="98.35 433.64 83.15 415.43 92.59 388.97 111.14 405.44 98.35 433.64"/><polygon class="cls-4" points="85.56 380.6 76.12 407.07 91.32 425.28 81.1 447.78 37.84 411.31 47.8 344.73 114.39 374.43 104.11 397.08 85.56 380.6"/><polygon class="cls-5" points="42.21 382.06 53.26 367.14 81.45 359.74 47.8 344.73 42.21 382.06"/><polygon class="cls-6" points="92.59 388.97 102.11 397.42 93.68 428.05 83.15 415.43 92.59 388.97"/></g></svg>