<svg xmlns="http://www.w3.org/2000/svg" viewBox="0 0 512 512"><defs><style>.cls-1{fill:#332459;}.cls-2{fill:#543e9b;}.cls-3{fill:#6441a5;}.cls-4{fill:#795dd1;}.cls-5{fill:#9b88ed;}.cls-6{fill:#41337f;}</style></defs><title>VioletBot</title><g id="Layer_2" data-name="Layer 2"><polygon class="cls-1" points="102.16 300.35 95.14 311.72 62.97 309.68 102.16 300.35"/><polygon class="cls-1" points="380.84 280.29 324.92 329.71 242.97 336.69 178.52 408.89 154.01 393.06 194.06 348.19 197.01 336.69 166.34 336.69 35.39 393.41 20.46 383.77 128.4 326.68 127.86 314.26 62.97 309.68 38.46 293.85 103.35 298.43 103.42 300.05 127 294.44 118.88 108.61 149.2 111.34 187.28 136.33 300.18 124.95 346.6 129.13 345.61 115.42 370.12 131.25 380.84 280.29"/><polygon class="cls-2" points="20.45 383.77 113.77 323.9 142.93 302.9 175.35 304.18 151.41 327.05 20.45 383.77"/><polygon class="cls-1" points="104.19 317.71 112.69 324.58 133.22 309.89 115.66 309.46 104.19 317.71"/><polygon class="cls-1" points="141.83 320.86 151.41 327.05 163.4 320.86 141.83 320.86"/><polygon class="cls-1" points="38.46 293.85 87.85 282.1 97.9 298.05 38.46 293.85"/><polygon class="cls-1" points="154.01 393.06 255.99 278.93 178.88 296.12 172.5 320.86 154.01 393.06"/><polygon class="cls-2" points="360.1 151.84 339.99 140.89 344.84 227.44 363.96 205.51 360.1 151.84"/><polygon class="cls-2" points="226.44 233.79 330.65 251.49 288.78 283.72 226.44 233.79"/><polygon class="cls-2" points="144.84 239.71 130.83 231.26 137.83 257.39 169.38 234.09 144.84 239.71"/><path class="cls-3" d="M352,203.71l-19.12,21.94L328,139.1,348.1,150l-2.49-34.62-35.76-3.22L195.78,123.71,157.3,98.45,94.37,92.78l8.12,185.83-64,15.24,64.89,4.58.84,19.28,29.16-21L165.78,298l-23.95,22.87H172.5L184.75,324l33.71-3.09,82-7,55.92-49.42ZM132.59,256.38l-7-26.13,14,8.45,24.54-5.62Zm127.14,12.91L197.4,219.35l104.21,17.71Z"/><polygon class="cls-1" points="243.81 270.66 255.99 278.93 154.01 393.06 141.83 383.77 243.81 270.66"/><polygon class="cls-4" points="141.83 383.77 243.81 270.66 166.71 287.85 160.32 312.59 141.83 383.77"/><polygon class="cls-1" points="360.1 151.84 348.1 150.04 347.08 135.79 360.1 151.84"/><polygon class="cls-1" points="351.96 203.71 353.37 223.33 363.96 205.51 351.96 203.71"/><polygon class="cls-4" points="31.65 281.05 81.04 269.29 91.09 285.24 31.65 281.05"/><polygon class="cls-1" points="31.65 281.05 38.46 293.85 98.31 298.81 91.09 285.24 31.65 281.05"/><polygon class="cls-1" points="94.37 92.78 125.35 95.58 141.83 143.81 97.5 164.34 94.37 92.78"/><polygon class="cls-4" points="82.57 80.28 113.54 83.07 130.03 131.31 85.69 151.84 82.57 80.28"/><polygon class="cls-1" points="125.35 95.58 113.54 83.07 130.03 131.31 85.69 151.84 97.5 164.34 141.83 143.81 125.35 95.58"/><polygon class="cls-1" points="150.8 173.74 146.38 200.97 171.91 213.52 198.91 184.17 150.8 173.74"/><polygon class="cls-4" points="149.29 168.59 144.86 195.82 170.39 208.37 197.4 179.01 149.29 168.59"/><polygon class="cls-1" points="146.38 200.97 144.86 195.82 150.1 198.4 146.38 200.97"/><polygon class="cls-1" points="198.91 184.17 197.4 179.01 192.66 184.17 198.91 184.17"/><polygon class="cls-1" points="144.84 239.71 139.59 238.7 146.38 237.15 144.84 239.71"/><polygon class="cls-5" points="83.52 101.96 88.28 86.92 102.3 82.06 82.57 80.28 83.52 101.96"/><polygon class="cls-5" points="146.38 186.5 153.81 175.85 167.09 172.44 149.29 168.59 146.38 186.5"/><polygon class="cls-5" points="49.99 282.34 84.36 274.56 81.04 269.29 31.65 281.05 49.99 282.34"/><polygon class="cls-5" points="159.17 317.02 171.13 295.77 220.68 275.82 166.71 287.85 159.17 317.02"/><polygon class="cls-3" points="58.01 367.5 149.72 303.17 142.93 302.9 20.45 383.77 58.01 367.5"/><polygon class="cls-4" points="195.78 123.71 197.38 123.55 309.85 112.2 217.47 132.62 195.78 123.71"/><polygon class="cls-4" points="332.84 225.65 341.01 230.25 351.96 203.71 332.84 225.65"/><polygon class="cls-4" points="328.7 151.84 319.25 132.62 336.1 137.72 338.26 144.69 328.09 140.89 328.7 151.84"/><polygon class="cls-4" points="129.36 244.32 118.1 219.35 139.59 238.7 125.58 230.25 129.36 244.32"/><polygon class="cls-4" points="132.59 256.38 147.48 251.34 164.13 233.08 132.59 256.38"/><polygon class="cls-2" points="125.35 95.58 144.86 97.33 163.4 145.21 118.71 173.74 97.5 164.34 141.83 143.81 125.35 95.58"/><path class="cls-2" d="M89,281.83s27.92,11.51,28.05,11.89-13.65,4.71-13.65,4.71l-5.45-.38-6.81-12.81Z"/><polygon class="cls-6" points="111.52 323.64 128.31 324.58 149.21 309.46 154.01 309.23 159.93 303.57 142.93 302.9 111.52 323.64"/><polygon class="cls-6" points="138.32 244.32 139.59 251.21 136.74 253.31 131.52 233.83 139.59 238.7 144.84 239.71 154.01 237.61 138.32 244.32"/><polygon class="cls-6" points="291.5 244.84 226.44 233.79 265.36 264.96 251.51 244.32 291.5 244.84"/><polygon class="cls-6" points="340.27 145.78 345.39 148.56 347.91 208.37 343.41 213.52 340.27 145.78"/><polygon class="cls-2" points="255.99 278.93 273.69 283.19 230.5 320.33 218.46 320.86 255.99 278.93"/><polygon class="cls-2" points="198.91 184.17 198.91 190.83 171.13 219.35 144.86 206.15 146.38 200.97 171.91 213.52 198.91 184.17"/></g><g id="Layer_4" data-name="Layer 4"><polygon class="cls-5" points="230.5 121.19 256.39 133.48 249.09 215.98 230.5 121.19"/><polygon class="cls-5" points="287.98 125.79 289.74 221.69 307.65 202.55 287.98 125.79"/><polygon class="cls-1" points="223.71 113.58 249.59 125.87 242.3 208.37 223.71 113.58"/><polygon class="cls-1" points="280.63 116.39 282.39 212.29 300.3 193.16 280.63 116.39"/></g><g id="Layer_5" data-name="Layer 5"><polygon class="cls-1" points="373.14 383.17 385.39 393.97 381.42 396.13 373.14 383.17"/><polygon class="cls-1" points="396.34 411.11 372.85 449.64 295.23 472.15 254.38 457.1 289.7 365.73 362.89 358.75 378.05 382.48 366.79 390 385.39 393.97 396.34 411.11"/><polygon class="cls-3" points="384.09 400.31 360.6 438.83 282.98 461.35 254.38 415.45 242.13 446.3 277.45 354.93 350.64 347.95 365.8 371.68 354.54 379.2 373.14 383.17 384.09 400.31"/><polygon class="cls-1" points="254.38 457.1 242.13 446.3 261.11 453.3 254.38 457.1"/><polygon class="cls-1" points="350.64 347.95 362.9 358.75 360.15 362.84 350.64 347.95"/><polygon class="cls-1" points="338.65 445.2 360.6 438.83 370.42 422.72 349.36 422.72 338.65 445.2"/><polygon class="cls-4" points="334.76 439.63 356.7 433.27 366.52 417.15 345.47 417.15 334.76 439.63"/><polygon class="cls-1" points="334.76 439.63 338.65 445.2 361.53 439.63 370.42 422.72 366.52 417.15 356.7 433.27 334.76 439.63"/><polygon class="cls-1" points="290.07 389.41 278.51 411.62 293.9 417.15 322.5 389.41 290.07 389.41"/><polygon class="cls-4" points="286.75 383.89 275.19 406.11 290.58 411.64 319.18 383.89 286.75 383.89"/><polygon class="cls-1" points="275.19 406.11 278.51 411.62 285.12 409.68 275.19 406.11"/><polygon class="cls-1" points="319.18 383.89 322.5 389.41 311.03 391.8 319.18 383.89"/><polygon class="cls-4" points="248.91 402.05 277.5 447.95 236.65 432.9 248.91 402.05"/><polygon class="cls-1" points="277.5 447.95 282.98 461.35 242.13 446.3 236.65 432.9 277.5 447.95"/><polygon class="cls-2" points="282.98 461.35 300.5 456.27 258.23 404.65 255.28 412.28 277.5 447.95 282.98 461.35"/><polygon class="cls-2" points="278.51 411.62 295.18 420.56 337.02 390.68 322.5 389.41 293.9 417.15 278.51 411.62"/><polygon class="cls-5" points="236.65 432.9 248.91 402.05 257.08 415.45 236.65 432.9"/><polygon class="cls-5" points="275.19 406.11 290.54 390.93 319.18 383.89 286.75 383.89 275.19 406.11"/><polygon class="cls-5" points="337.02 434.88 359.18 417.15 345.47 417.15 337.02 434.88"/><polygon class="cls-4" points="266.54 383.17 282.98 362.84 319.18 350.95 277.45 354.93 266.54 383.17"/><polygon class="cls-4" points="354.54 379.2 349.56 376.19 362.9 367.13 365.8 371.68 354.54 379.2"/><path class="cls-1" d="M480.9,342.37,393.58,365.2l4.4,6.88-11.14,7.44,18.4,3.93L416.9,401.7l-12.21,20,28.58,7.56,6.27-13.51,11.35,13.51,40.63-25.52Zm-15.71,35.7-16.68,4.76-4.77-11.06L470,360.71Z"/><polygon class="cls-1" points="393.59 365.19 416.9 401.69 404.69 421.71 445.67 432.56 491.52 403.75 480.9 342.37 393.59 365.19"/><polygon class="cls-2" points="428.42 424.62 434.69 411.1 446.04 424.62 440.82 427.9 428.42 424.62"/><polygon class="cls-1" points="471.45 334.98 480.9 342.37 473.76 348.32 471.45 334.98"/><polygon class="cls-1" points="446.04 424.62 441.45 421.89 447.75 417.93 446.04 424.62"/><polygon class="cls-2" points="467.66 354.69 462.89 372.05 446.21 376.82 441.45 365.75 467.66 354.69"/><path class="cls-3" d="M471.45,335,384.13,357.8l4.4,6.88-11.14,7.44,18.4,3.93,11.66,18.25-12.21,20,28.58,7.56,6.27-13.51,11.35,13.51,40.63-25.52Zm-15.71,35.7-16.68,4.76-4.77-11.06,26.21-11.06Z"/><polygon class="cls-1" points="386.84 379.52 377.39 372.13 395.79 376.06 386.84 379.52"/><polygon class="cls-1" points="404.69 421.71 395.24 414.32 412.23 418.82 404.69 421.71"/><polygon class="cls-6" points="458.1 362.09 449.94 367.29 448.82 372.65 444.9 373.77 441.45 365.75 459.14 358.29 458.1 362.09"/><polygon class="cls-6" points="433.87 412.87 437.23 416.87 433.32 425.91 428.42 424.62 433.87 412.87"/><polygon class="cls-4" points="393.59 355.33 388.53 364.69 384.13 357.81 393.59 355.33"/><polygon class="cls-4" points="388.53 364.69 381.83 373.07 377.39 372.13 388.53 364.69"/><polygon class="cls-4" points="423.82 421.88 426.45 402.61 433.18 409.16 433.18 412.04 430.09 408.38 423.82 421.88"/><polygon class="cls-4" points="406.04 392.1 411.6 394.25 398.56 415.2 395.24 414.32 407.45 394.31 406.04 392.1"/><polygon class="cls-4" points="457.47 364.38 459.14 371.77 446.56 373.3 455.74 370.68 457.47 364.38"/><polygon class="cls-1" points="350.14 9.55 355.59 20.79 352.4 36.47 350.14 9.55"/><polygon class="cls-1" points="339.16 75.6 355.59 20.79 362.1 98.4 339.16 75.6"/><polygon class="cls-3" points="333.71 64.36 350.14 9.55 356.65 87.16 333.71 64.36"/><polygon class="cls-1" points="339.16 75.6 333.71 64.36 344.08 74.66 339.16 75.6"/><polygon class="cls-4" points="338.89 69.51 351.48 25.43 350.14 9.55 333.71 64.36 338.89 69.51"/><polygon class="cls-1" points="386.04 90.41 401.02 103.5 391.48 101.64 386.04 90.41"/><polygon class="cls-1" points="391.48 101.64 461.61 69.3 426.55 132.28 391.48 101.64"/><polygon class="cls-3" points="386.04 90.41 456.16 58.07 421.1 121.05 386.04 90.41"/><polygon class="cls-1" points="442.69 82.28 461.61 69.3 456.16 58.07 442.69 82.28"/><polygon class="cls-4" points="401.02 103.5 420.74 74.4 386.04 90.41 401.02 103.5"/></g></svg>